solid
 facet normal -9.989521e-01  0.000000e+00  4.576874e-02
   outer loop
     vertex -2.600000e+00 -1.850000e+00  1.144955e+00
     vertex -2.562336e+00 -1.812336e+00  1.967021e+00
     vertex -2.562336e+00  1.812336e+00  1.967021e+00
   endloop
 endfacet
 facet normal -9.989521e-01  0.000000e+00  4.576874e-02
   outer loop
     vertex -2.600000e+00  1.850000e+00  1.144955e+00
     vertex -2.600000e+00 -1.850000e+00  1.144955e+00
     vertex -2.562336e+00  1.812336e+00  1.967021e+00
   endloop
 endfacet
 facet normal -3.307921e-16 -9.989521e-01  4.576874e-02
   outer loop
     vertex -2.109169e+00 -1.792503e+00  2.399900e+00
     vertex -2.562336e+00 -1.812336e+00  1.967021e+00
     vertex -2.600000e+00 -1.850000e+00  1.144955e+00
   endloop
 endfacet
 facet normal  0.000000e+00 -9.989521e-01  4.576874e-02
   outer loop
     vertex  2.600000e+00 -1.850000e+00  1.144955e+00
     vertex -2.109169e+00 -1.792503e+00  2.399900e+00
     vertex -2.600000e+00 -1.850000e+00  1.144955e+00
   endloop
 endfacet
 facet normal -4.369483e-18 -9.989521e-01  4.576874e-02
   outer loop
     vertex  2.542502e+00 -1.792503e+00  2.399900e+00
     vertex -2.109169e+00 -1.792503e+00  2.399900e+00
     vertex  2.600000e+00 -1.850000e+00  1.144955e+00
   endloop
 endfacet
 facet normal -6.907356e-01  0.000000e+00  7.231074e-01
   outer loop
     vertex -2.562336e+00 -1.812336e+00  1.967021e+00
     vertex -2.109169e+00 -1.792503e+00  2.399900e+00
     vertex -2.109169e+00  1.792502e+00  2.399900e+00
   endloop
 endfacet
 facet normal -6.907356e-01  0.000000e+00  7.231074e-01
   outer loop
     vertex -2.562336e+00  1.812336e+00  1.967021e+00
     vertex -2.562336e+00 -1.812336e+00  1.967021e+00
     vertex -2.109169e+00  1.792502e+00  2.399900e+00
   endloop
 endfacet
 facet normal -1.000000e+00  0.000000e+00  0.000000e+00
   outer loop
     vertex -2.600000e+00  1.850000e+00  1.134955e+00
     vertex -2.600000e+00 -1.850000e+00  1.134955e+00
     vertex -2.600000e+00 -1.850000e+00  1.144955e+00
   endloop
 endfacet
 facet normal -1.000000e+00 -0.000000e+00 -0.000000e+00
   outer loop
     vertex -2.600000e+00  1.850000e+00  1.144955e+00
     vertex -2.600000e+00  1.850000e+00  1.134955e+00
     vertex -2.600000e+00 -1.850000e+00  1.144955e+00
   endloop
 endfacet
 facet normal  9.631888e-16  9.989521e-01  4.576874e-02
   outer loop
     vertex -2.600000e+00  1.850000e+00  1.144955e+00
     vertex -2.562336e+00  1.812336e+00  1.967021e+00
     vertex -2.109169e+00  1.792502e+00  2.399900e+00
   endloop
 endfacet
 facet normal  0.000000e+00  9.989521e-01  4.576874e-02
   outer loop
     vertex -2.600000e+00  1.850000e+00  1.144955e+00
     vertex -2.109169e+00  1.792502e+00  2.399900e+00
     vertex  2.600000e+00  1.850000e+00  1.144955e+00
   endloop
 endfacet
 facet normal -4.369483e-18  9.989521e-01  4.576874e-02
   outer loop
     vertex  2.600000e+00  1.850000e+00  1.144955e+00
     vertex -2.109169e+00  1.792502e+00  2.399900e+00
     vertex  2.542502e+00  1.792502e+00  2.399900e+00
   endloop
 endfacet
 facet normal  0.000000e+00 -1.000000e+00  0.000000e+00
   outer loop
     vertex -2.600000e+00 -1.850000e+00  1.134955e+00
     vertex  2.600000e+00 -1.850000e+00  1.134955e+00
     vertex  2.600000e+00 -1.850000e+00  1.144955e+00
   endloop
 endfacet
 facet normal  0.000000e+00 -1.000000e+00  0.000000e+00
   outer loop
     vertex -2.600000e+00 -1.850000e+00  1.144955e+00
     vertex -2.600000e+00 -1.850000e+00  1.134955e+00
     vertex  2.600000e+00 -1.850000e+00  1.144955e+00
   endloop
 endfacet
 facet normal -9.546874e-17  0.000000e+00  1.000000e+00
   outer loop
     vertex  2.542502e+00 -1.792503e+00  2.399900e+00
     vertex -2.109169e+00  1.792502e+00  2.399900e+00
     vertex -2.109169e+00 -1.792503e+00  2.399900e+00
   endloop
 endfacet
 facet normal -9.546874e-17  0.000000e+00  1.000000e+00
   outer loop
     vertex  2.542502e+00  1.792502e+00  2.399900e+00
     vertex -2.109169e+00  1.792502e+00  2.399900e+00
     vertex  2.542502e+00 -1.792503e+00  2.399900e+00
   endloop
 endfacet
 facet normal  9.989521e-01  0.000000e+00  4.576874e-02
   outer loop
     vertex  2.542502e+00  1.792502e+00  2.399900e+00
     vertex  2.542502e+00 -1.792503e+00  2.399900e+00
     vertex  2.600000e+00 -1.850000e+00  1.144955e+00
   endloop
 endfacet
 facet normal  9.989521e-01 -0.000000e+00  4.576874e-02
   outer loop
     vertex  2.542502e+00  1.792502e+00  2.399900e+00
     vertex  2.600000e+00 -1.850000e+00  1.144955e+00
     vertex  2.600000e+00  1.850000e+00  1.144955e+00
   endloop
 endfacet
 facet normal -9.984604e-01 -0.000000e+00 -5.547002e-02
   outer loop
     vertex -2.542502e+00  1.792502e+00  1.000000e-01
     vertex -2.542502e+00 -1.792502e+00  1.000000e-01
     vertex -2.600000e+00 -1.850000e+00  1.134955e+00
   endloop
 endfacet
 facet normal -9.984604e-01  0.000000e+00 -5.547002e-02
   outer loop
     vertex -2.542502e+00  1.792502e+00  1.000000e-01
     vertex -2.600000e+00 -1.850000e+00  1.134955e+00
     vertex -2.600000e+00  1.850000e+00  1.134955e+00
   endloop
 endfacet
 facet normal  0.000000e+00  1.000000e+00  0.000000e+00
   outer loop
     vertex  2.600000e+00  1.850000e+00  1.144955e+00
     vertex  2.600000e+00  1.850000e+00  1.134955e+00
     vertex -2.600000e+00  1.850000e+00  1.134955e+00
   endloop
 endfacet
 facet normal  0.000000e+00  1.000000e+00 -0.000000e+00
   outer loop
     vertex  2.600000e+00  1.850000e+00  1.144955e+00
     vertex -2.600000e+00  1.850000e+00  1.134955e+00
     vertex -2.600000e+00  1.850000e+00  1.144955e+00
   endloop
 endfacet
 facet normal  1.000000e+00 -0.000000e+00  0.000000e+00
   outer loop
     vertex  2.600000e+00 -1.850000e+00  1.144955e+00
     vertex  2.600000e+00 -1.850000e+00  1.134955e+00
     vertex  2.600000e+00  1.850000e+00  1.134955e+00
   endloop
 endfacet
 facet normal  1.000000e+00 -0.000000e+00  0.000000e+00
   outer loop
     vertex  2.600000e+00 -1.850000e+00  1.144955e+00
     vertex  2.600000e+00  1.850000e+00  1.134955e+00
     vertex  2.600000e+00  1.850000e+00  1.144955e+00
   endloop
 endfacet
 facet normal  0.000000e+00 -9.984604e-01 -5.547002e-02
   outer loop
     vertex -2.600000e+00 -1.850000e+00  1.134955e+00
     vertex -2.542502e+00 -1.792502e+00  1.000000e-01
     vertex  2.542502e+00 -1.792502e+00  1.000000e-01
   endloop
 endfacet
 facet normal -0.000000e+00 -9.984604e-01 -5.547002e-02
   outer loop
     vertex  2.600000e+00 -1.850000e+00  1.134955e+00
     vertex -2.600000e+00 -1.850000e+00  1.134955e+00
     vertex  2.542502e+00 -1.792502e+00  1.000000e-01
   endloop
 endfacet
 facet normal  0.000000e+00  0.000000e+00 -1.000000e+00
   outer loop
     vertex -2.542502e+00 -1.792502e+00  1.000000e-01
     vertex -2.542502e+00  1.792502e+00  1.000000e-01
     vertex  2.542502e+00  1.792502e+00  1.000000e-01
   endloop
 endfacet
 facet normal  0.000000e+00  0.000000e+00 -1.000000e+00
   outer loop
     vertex  2.542502e+00 -1.792502e+00  1.000000e-01
     vertex -2.542502e+00 -1.792502e+00  1.000000e-01
     vertex  2.542502e+00  1.792502e+00  1.000000e-01
   endloop
 endfacet
 facet normal  0.000000e+00  9.984604e-01 -5.547002e-02
   outer loop
     vertex  2.542502e+00  1.792502e+00  1.000000e-01
     vertex -2.542502e+00  1.792502e+00  1.000000e-01
     vertex -2.600000e+00  1.850000e+00  1.134955e+00
   endloop
 endfacet
 facet normal  0.000000e+00  9.984604e-01 -5.547002e-02
   outer loop
     vertex  2.542502e+00  1.792502e+00  1.000000e-01
     vertex -2.600000e+00  1.850000e+00  1.134955e+00
     vertex  2.600000e+00  1.850000e+00  1.134955e+00
   endloop
 endfacet
 facet normal  9.984604e-01  0.000000e+00 -5.547002e-02
   outer loop
     vertex  2.600000e+00 -1.850000e+00  1.134955e+00
     vertex  2.542502e+00 -1.792502e+00  1.000000e-01
     vertex  2.542502e+00  1.792502e+00  1.000000e-01
   endloop
 endfacet
 facet normal  9.984604e-01  0.000000e+00 -5.547002e-02
   outer loop
     vertex  2.600000e+00  1.850000e+00  1.134955e+00
     vertex  2.600000e+00 -1.850000e+00  1.134955e+00
     vertex  2.542502e+00  1.792502e+00  1.000000e-01
   endloop
 endfacet
 facet normal  0.000000e+00 -1.000000e+00  0.000000e+00
   outer loop
     vertex -2.625882e+00 -1.000000e+00  3.407417e-03
     vertex -2.600000e+00 -1.000000e+00 -1.387779e-17
     vertex -2.600000e+00 -1.000000e+00  1.000000e-01
   endloop
 endfacet
 facet normal  0.000000e+00 -1.000000e+00  0.000000e+00
   outer loop
     vertex -2.650000e+00 -1.000000e+00  1.339746e-02
     vertex -2.625882e+00 -1.000000e+00  3.407417e-03
     vertex -2.600000e+00 -1.000000e+00  1.000000e-01
   endloop
 endfacet
 facet normal  0.000000e+00 -1.000000e+00  0.000000e+00
   outer loop
     vertex -2.670711e+00 -1.000000e+00  2.928932e-02
     vertex -2.650000e+00 -1.000000e+00  1.339746e-02
     vertex -2.600000e+00 -1.000000e+00  1.000000e-01
   endloop
 endfacet
 facet normal  0.000000e+00 -1.000000e+00  0.000000e+00
   outer loop
     vertex -2.686603e+00 -1.000000e+00  5.000000e-02
     vertex -2.670711e+00 -1.000000e+00  2.928932e-02
     vertex -2.600000e+00 -1.000000e+00  1.000000e-01
   endloop
 endfacet
 facet normal  0.000000e+00 -1.000000e+00  0.000000e+00
   outer loop
     vertex -2.696593e+00 -1.000000e+00  7.411810e-02
     vertex -2.686603e+00 -1.000000e+00  5.000000e-02
     vertex -2.600000e+00 -1.000000e+00  1.000000e-01
   endloop
 endfacet
 facet normal  0.000000e+00 -1.000000e+00  0.000000e+00
   outer loop
     vertex -2.700000e+00 -1.000000e+00  1.000000e-01
     vertex -2.696593e+00 -1.000000e+00  7.411810e-02
     vertex -2.600000e+00 -1.000000e+00  1.000000e-01
   endloop
 endfacet
 facet normal  0.000000e+00 -1.000000e+00  0.000000e+00
   outer loop
     vertex -2.600000e+00 -1.000000e+00  1.000000e-01
     vertex -2.600000e+00 -1.000000e+00 -1.387779e-17
     vertex -1.600000e+00 -1.000000e+00  0.000000e+00
   endloop
 endfacet
 facet normal  0.000000e+00 -1.000000e+00 -0.000000e+00
   outer loop
     vertex -2.696593e+00 -1.000000e+00  1.060837e+00
     vertex -2.700000e+00 -1.000000e+00  1.034955e+00
     vertex -2.600000e+00 -1.000000e+00  1.034955e+00
   endloop
 endfacet
 facet normal  0.000000e+00 -1.000000e+00 -0.000000e+00
   outer loop
     vertex -2.686603e+00 -1.000000e+00  1.084955e+00
     vertex -2.696593e+00 -1.000000e+00  1.060837e+00
     vertex -2.600000e+00 -1.000000e+00  1.034955e+00
   endloop
 endfacet
 facet normal  0.000000e+00 -1.000000e+00 -0.000000e+00
   outer loop
     vertex -2.670711e+00 -1.000000e+00  1.105666e+00
     vertex -2.686603e+00 -1.000000e+00  1.084955e+00
     vertex -2.600000e+00 -1.000000e+00  1.034955e+00
   endloop
 endfacet
 facet normal  0.000000e+00 -1.000000e+00  0.000000e+00
   outer loop
     vertex -2.700000e+00 -1.000000e+00  1.034955e+00
     vertex -2.700000e+00 -1.000000e+00  1.000000e-01
     vertex -2.600000e+00 -1.000000e+00  1.034955e+00
   endloop
 endfacet
 facet normal  0.000000e+00 -1.000000e+00  0.000000e+00
   outer loop
     vertex -2.700000e+00 -1.000000e+00  1.000000e-01
     vertex -2.600000e+00 -1.000000e+00  1.000000e-01
     vertex -2.600000e+00 -1.000000e+00  1.034955e+00
   endloop
 endfacet
 facet normal  0.000000e+00 -1.000000e+00  0.000000e+00
   outer loop
     vertex -2.670711e+00 -1.000000e+00  1.105666e+00
     vertex -2.600000e+00 -1.000000e+00  1.034955e+00
     vertex -2.650000e+00 -1.000000e+00  1.121558e+00
   endloop
 endfacet
 facet normal  0.000000e+00 -1.000000e+00  0.000000e+00
   outer loop
     vertex -2.600000e+00 -1.000000e+00  1.000000e-01
     vertex -1.600000e+00 -1.000000e+00  0.000000e+00
     vertex -1.600000e+00 -1.000000e+00  1.000000e-01
   endloop
 endfacet
 facet normal  0.000000e+00 -1.000000e+00  0.000000e+00
   outer loop
     vertex -2.650000e+00 -1.000000e+00  1.121558e+00
     vertex -2.600000e+00 -1.000000e+00  1.034955e+00
     vertex -2.625882e+00 -1.000000e+00  1.131548e+00
   endloop
 endfacet
 facet normal  0.000000e+00 -1.000000e+00  0.000000e+00
   outer loop
     vertex -2.625882e+00 -1.000000e+00  1.131548e+00
     vertex -2.600000e+00 -1.000000e+00  1.034955e+00
     vertex -2.600000e+00 -1.000000e+00  1.134955e+00
   endloop
 endfacet
 facet normal  0.000000e+00 -1.000000e+00  0.000000e+00
   outer loop
     vertex -2.600000e+00 -1.000000e+00  1.134955e+00
     vertex -2.600000e+00 -1.000000e+00  1.034955e+00
     vertex -1.700000e+00 -1.000000e+00  1.034955e+00
   endloop
 endfacet
 facet normal  0.000000e+00 -1.000000e+00  0.000000e+00
   outer loop
     vertex -2.600000e+00 -1.000000e+00  1.134955e+00
     vertex -1.700000e+00 -1.000000e+00  1.034955e+00
     vertex -1.700000e+00 -1.000000e+00  1.134955e+00
   endloop
 endfacet
 facet normal -0.000000e+00  0.000000e+00  1.000000e+00
   outer loop
     vertex -1.700000e+00  1.000000e+00  1.134955e+00
     vertex -2.600000e+00 -1.000000e+00  1.134955e+00
     vertex -1.700000e+00 -1.000000e+00  1.134955e+00
   endloop
 endfacet
 facet normal  0.000000e+00  0.000000e+00  1.000000e+00
   outer loop
     vertex -1.700000e+00  1.000000e+00  1.134955e+00
     vertex -2.600000e+00  1.000000e+00  1.134955e+00
     vertex -2.600000e+00 -1.000000e+00  1.134955e+00
   endloop
 endfacet
 facet normal -9.914449e-01  0.000000e+00  1.305262e-01
   outer loop
     vertex -2.700000e+00  1.000000e+00  1.034955e+00
     vertex -2.700000e+00 -1.000000e+00  1.034955e+00
     vertex -2.696593e+00 -1.000000e+00  1.060837e+00
   endloop
 endfacet
 facet normal -9.238795e-01  0.000000e+00  3.826834e-01
   outer loop
     vertex -2.696593e+00  1.000000e+00  1.060837e+00
     vertex -2.696593e+00 -1.000000e+00  1.060837e+00
     vertex -2.686603e+00 -1.000000e+00  1.084955e+00
   endloop
 endfacet
 facet normal -9.914449e-01  0.000000e+00  1.305262e-01
   outer loop
     vertex -2.696593e+00  1.000000e+00  1.060837e+00
     vertex -2.700000e+00  1.000000e+00  1.034955e+00
     vertex -2.696593e+00 -1.000000e+00  1.060837e+00
   endloop
 endfacet
 facet normal -7.933533e-01  0.000000e+00  6.087614e-01
   outer loop
     vertex -2.686603e+00  1.000000e+00  1.084955e+00
     vertex -2.686603e+00 -1.000000e+00  1.084955e+00
     vertex -2.670711e+00 -1.000000e+00  1.105666e+00
   endloop
 endfacet
 facet normal -9.238795e-01  0.000000e+00  3.826834e-01
   outer loop
     vertex -2.686603e+00  1.000000e+00  1.084955e+00
     vertex -2.696593e+00  1.000000e+00  1.060837e+00
     vertex -2.686603e+00 -1.000000e+00  1.084955e+00
   endloop
 endfacet
 facet normal -7.933533e-01  0.000000e+00  6.087614e-01
   outer loop
     vertex -2.670711e+00  1.000000e+00  1.105666e+00
     vertex -2.686603e+00  1.000000e+00  1.084955e+00
     vertex -2.670711e+00 -1.000000e+00  1.105666e+00
   endloop
 endfacet
 facet normal -6.087614e-01  0.000000e+00  7.933533e-01
   outer loop
     vertex -2.650000e+00  1.000000e+00  1.121558e+00
     vertex -2.670711e+00 -1.000000e+00  1.105666e+00
     vertex -2.650000e+00 -1.000000e+00  1.121558e+00
   endloop
 endfacet
 facet normal -3.826834e-01  0.000000e+00  9.238795e-01
   outer loop
     vertex -2.650000e+00  1.000000e+00  1.121558e+00
     vertex -2.650000e+00 -1.000000e+00  1.121558e+00
     vertex -2.625882e+00 -1.000000e+00  1.131548e+00
   endloop
 endfacet
 facet normal -6.087614e-01  0.000000e+00  7.933533e-01
   outer loop
     vertex -2.650000e+00  1.000000e+00  1.121558e+00
     vertex -2.670711e+00  1.000000e+00  1.105666e+00
     vertex -2.670711e+00 -1.000000e+00  1.105666e+00
   endloop
 endfacet
 facet normal -3.826834e-01  0.000000e+00  9.238795e-01
   outer loop
     vertex -2.625882e+00  1.000000e+00  1.131548e+00
     vertex -2.650000e+00  1.000000e+00  1.121558e+00
     vertex -2.625882e+00 -1.000000e+00  1.131548e+00
   endloop
 endfacet
 facet normal -1.305262e-01  0.000000e+00  9.914449e-01
   outer loop
     vertex -2.600000e+00  1.000000e+00  1.134955e+00
     vertex -2.625882e+00 -1.000000e+00  1.131548e+00
     vertex -2.600000e+00 -1.000000e+00  1.134955e+00
   endloop
 endfacet
 facet normal -1.305262e-01  0.000000e+00  9.914449e-01
   outer loop
     vertex -2.600000e+00  1.000000e+00  1.134955e+00
     vertex -2.625882e+00  1.000000e+00  1.131548e+00
     vertex -2.625882e+00 -1.000000e+00  1.131548e+00
   endloop
 endfacet
 facet normal  1.000000e+00 -0.000000e+00  0.000000e+00
   outer loop
     vertex -1.700000e+00 -1.000000e+00  1.134955e+00
     vertex -1.700000e+00  1.000000e+00  1.034955e+00
     vertex -1.700000e+00  1.000000e+00  1.134955e+00
   endloop
 endfacet
 facet normal  1.000000e+00 -0.000000e+00  0.000000e+00
   outer loop
     vertex -1.700000e+00 -1.000000e+00  1.134955e+00
     vertex -1.700000e+00 -1.000000e+00  1.034955e+00
     vertex -1.700000e+00  1.000000e+00  1.034955e+00
   endloop
 endfacet
 facet normal -1.000000e+00 -0.000000e+00 -0.000000e+00
   outer loop
     vertex -2.700000e+00  1.000000e+00  1.034955e+00
     vertex -2.700000e+00  1.000000e+00  1.000000e-01
     vertex -2.700000e+00 -1.000000e+00  1.000000e-01
   endloop
 endfacet
 facet normal -1.000000e+00 -0.000000e+00  0.000000e+00
   outer loop
     vertex -2.700000e+00  1.000000e+00  1.034955e+00
     vertex -2.700000e+00 -1.000000e+00  1.000000e-01
     vertex -2.700000e+00 -1.000000e+00  1.034955e+00
   endloop
 endfacet
 facet normal  0.000000e+00  0.000000e+00 -1.000000e+00
   outer loop
     vertex -1.700000e+00 -1.000000e+00  1.034955e+00
     vertex -2.600000e+00 -1.000000e+00  1.034955e+00
     vertex -1.700000e+00  1.000000e+00  1.034955e+00
   endloop
 endfacet
 facet normal  0.000000e+00  0.000000e+00 -1.000000e+00
   outer loop
     vertex -2.600000e+00 -1.000000e+00  1.034955e+00
     vertex -2.600000e+00  1.000000e+00  1.034955e+00
     vertex -1.700000e+00  1.000000e+00  1.034955e+00
   endloop
 endfacet
 facet normal -1.305262e-01  0.000000e+00 -9.914449e-01
   outer loop
     vertex -2.625882e+00  1.000000e+00  3.407417e-03
     vertex -2.600000e+00 -1.000000e+00 -1.387779e-17
     vertex -2.625882e+00 -1.000000e+00  3.407417e-03
   endloop
 endfacet
 facet normal -1.305262e-01 -0.000000e+00 -9.914449e-01
   outer loop
     vertex -2.625882e+00  1.000000e+00  3.407417e-03
     vertex -2.600000e+00  1.000000e+00 -1.387779e-17
     vertex -2.600000e+00 -1.000000e+00 -1.387779e-17
   endloop
 endfacet
 facet normal -3.826834e-01  0.000000e+00 -9.238795e-01
   outer loop
     vertex -2.650000e+00  1.000000e+00  1.339746e-02
     vertex -2.625882e+00 -1.000000e+00  3.407417e-03
     vertex -2.650000e+00 -1.000000e+00  1.339746e-02
   endloop
 endfacet
 facet normal -6.087614e-01 -0.000000e+00 -7.933533e-01
   outer loop
     vertex -2.650000e+00  1.000000e+00  1.339746e-02
     vertex -2.650000e+00 -1.000000e+00  1.339746e-02
     vertex -2.670711e+00 -1.000000e+00  2.928932e-02
   endloop
 endfacet
 facet normal -3.826834e-01 -0.000000e+00 -9.238795e-01
   outer loop
     vertex -2.650000e+00  1.000000e+00  1.339746e-02
     vertex -2.625882e+00  1.000000e+00  3.407417e-03
     vertex -2.625882e+00 -1.000000e+00  3.407417e-03
   endloop
 endfacet
 facet normal -6.087614e-01  0.000000e+00 -7.933533e-01
   outer loop
     vertex -2.670711e+00  1.000000e+00  2.928932e-02
     vertex -2.650000e+00  1.000000e+00  1.339746e-02
     vertex -2.670711e+00 -1.000000e+00  2.928932e-02
   endloop
 endfacet
 facet normal -7.933533e-01  0.000000e+00 -6.087614e-01
   outer loop
     vertex -2.686603e+00  1.000000e+00  5.000000e-02
     vertex -2.670711e+00 -1.000000e+00  2.928932e-02
     vertex -2.686603e+00 -1.000000e+00  5.000000e-02
   endloop
 endfacet
 facet normal -9.238795e-01 -0.000000e+00 -3.826834e-01
   outer loop
     vertex -2.686603e+00  1.000000e+00  5.000000e-02
     vertex -2.686603e+00 -1.000000e+00  5.000000e-02
     vertex -2.696593e+00 -1.000000e+00  7.411810e-02
   endloop
 endfacet
 facet normal -7.933533e-01 -0.000000e+00 -6.087614e-01
   outer loop
     vertex -2.686603e+00  1.000000e+00  5.000000e-02
     vertex -2.670711e+00  1.000000e+00  2.928932e-02
     vertex -2.670711e+00 -1.000000e+00  2.928932e-02
   endloop
 endfacet
 facet normal -9.238795e-01  0.000000e+00 -3.826834e-01
   outer loop
     vertex -2.696593e+00  1.000000e+00  7.411810e-02
     vertex -2.686603e+00  1.000000e+00  5.000000e-02
     vertex -2.696593e+00 -1.000000e+00  7.411810e-02
   endloop
 endfacet
 facet normal -9.914449e-01  0.000000e+00 -1.305262e-01
   outer loop
     vertex -2.700000e+00  1.000000e+00  1.000000e-01
     vertex -2.696593e+00 -1.000000e+00  7.411810e-02
     vertex -2.700000e+00 -1.000000e+00  1.000000e-01
   endloop
 endfacet
 facet normal -9.914449e-01 -0.000000e+00 -1.305262e-01
   outer loop
     vertex -2.700000e+00  1.000000e+00  1.000000e-01
     vertex -2.696593e+00  1.000000e+00  7.411810e-02
     vertex -2.696593e+00 -1.000000e+00  7.411810e-02
   endloop
 endfacet
 facet normal  1.000000e+00 -0.000000e+00  0.000000e+00
   outer loop
     vertex -2.600000e+00 -1.000000e+00  1.034955e+00
     vertex -2.600000e+00  1.000000e+00  1.000000e-01
     vertex -2.600000e+00  1.000000e+00  1.034955e+00
   endloop
 endfacet
 facet normal  1.000000e+00 -0.000000e+00  0.000000e+00
   outer loop
     vertex -2.600000e+00 -1.000000e+00  1.034955e+00
     vertex -2.600000e+00 -1.000000e+00  1.000000e-01
     vertex -2.600000e+00  1.000000e+00  1.000000e-01
   endloop
 endfacet
 facet normal  1.387779e-17  0.000000e+00 -1.000000e+00
   outer loop
     vertex -1.600000e+00 -1.000000e+00  0.000000e+00
     vertex -2.600000e+00 -1.000000e+00 -1.387779e-17
     vertex -2.600000e+00  1.000000e+00 -1.387779e-17
   endloop
 endfacet
 facet normal  1.387779e-17  0.000000e+00 -1.000000e+00
   outer loop
     vertex -1.600000e+00 -1.000000e+00  0.000000e+00
     vertex -2.600000e+00  1.000000e+00 -1.387779e-17
     vertex -1.600000e+00  1.000000e+00  0.000000e+00
   endloop
 endfacet
 facet normal -0.000000e+00  0.000000e+00  1.000000e+00
   outer loop
     vertex -2.600000e+00  1.000000e+00  1.000000e-01
     vertex -2.600000e+00 -1.000000e+00  1.000000e-01
     vertex -1.600000e+00 -1.000000e+00  1.000000e-01
   endloop
 endfacet
 facet normal  0.000000e+00  0.000000e+00  1.000000e+00
   outer loop
     vertex -1.600000e+00  1.000000e+00  1.000000e-01
     vertex -2.600000e+00  1.000000e+00  1.000000e-01
     vertex -1.600000e+00 -1.000000e+00  1.000000e-01
   endloop
 endfacet
 facet normal  1.000000e+00 -0.000000e+00  0.000000e+00
   outer loop
     vertex -1.600000e+00 -1.000000e+00  1.000000e-01
     vertex -1.600000e+00  1.000000e+00  0.000000e+00
     vertex -1.600000e+00  1.000000e+00  1.000000e-01
   endloop
 endfacet
 facet normal  1.000000e+00 -0.000000e+00  0.000000e+00
   outer loop
     vertex -1.600000e+00 -1.000000e+00  1.000000e-01
     vertex -1.600000e+00 -1.000000e+00  0.000000e+00
     vertex -1.600000e+00  1.000000e+00  0.000000e+00
   endloop
 endfacet
 facet normal  0.000000e+00  1.000000e+00  0.000000e+00
   outer loop
     vertex -2.600000e+00  1.000000e+00  1.000000e-01
     vertex -2.600000e+00  1.000000e+00 -1.387779e-17
     vertex -2.625882e+00  1.000000e+00  3.407417e-03
   endloop
 endfacet
 facet normal  0.000000e+00  1.000000e+00  0.000000e+00
   outer loop
     vertex -2.600000e+00  1.000000e+00  1.000000e-01
     vertex -2.625882e+00  1.000000e+00  3.407417e-03
     vertex -2.650000e+00  1.000000e+00  1.339746e-02
   endloop
 endfacet
 facet normal  0.000000e+00  1.000000e+00  0.000000e+00
   outer loop
     vertex -2.600000e+00  1.000000e+00  1.000000e-01
     vertex -2.650000e+00  1.000000e+00  1.339746e-02
     vertex -2.670711e+00  1.000000e+00  2.928932e-02
   endloop
 endfacet
 facet normal  0.000000e+00  1.000000e+00  0.000000e+00
   outer loop
     vertex -2.600000e+00  1.000000e+00  1.000000e-01
     vertex -2.670711e+00  1.000000e+00  2.928932e-02
     vertex -2.686603e+00  1.000000e+00  5.000000e-02
   endloop
 endfacet
 facet normal  0.000000e+00  1.000000e+00  0.000000e+00
   outer loop
     vertex -2.600000e+00  1.000000e+00  1.000000e-01
     vertex -2.686603e+00  1.000000e+00  5.000000e-02
     vertex -2.696593e+00  1.000000e+00  7.411810e-02
   endloop
 endfacet
 facet normal  0.000000e+00  1.000000e+00  0.000000e+00
   outer loop
     vertex -2.600000e+00  1.000000e+00  1.000000e-01
     vertex -2.696593e+00  1.000000e+00  7.411810e-02
     vertex -2.700000e+00  1.000000e+00  1.000000e-01
   endloop
 endfacet
 facet normal  0.000000e+00  1.000000e+00 -0.000000e+00
   outer loop
     vertex -1.600000e+00  1.000000e+00  0.000000e+00
     vertex -2.600000e+00  1.000000e+00 -1.387779e-17
     vertex -2.600000e+00  1.000000e+00  1.000000e-01
   endloop
 endfacet
 facet normal  0.000000e+00  1.000000e+00 -0.000000e+00
   outer loop
     vertex -2.600000e+00  1.000000e+00  1.034955e+00
     vertex -2.700000e+00  1.000000e+00  1.000000e-01
     vertex -2.700000e+00  1.000000e+00  1.034955e+00
   endloop
 endfacet
 facet normal  0.000000e+00  1.000000e+00 -0.000000e+00
   outer loop
     vertex -2.600000e+00  1.000000e+00  1.034955e+00
     vertex -2.700000e+00  1.000000e+00  1.034955e+00
     vertex -2.696593e+00  1.000000e+00  1.060837e+00
   endloop
 endfacet
 facet normal  0.000000e+00  1.000000e+00 -0.000000e+00
   outer loop
     vertex -2.600000e+00  1.000000e+00  1.034955e+00
     vertex -2.696593e+00  1.000000e+00  1.060837e+00
     vertex -2.686603e+00  1.000000e+00  1.084955e+00
   endloop
 endfacet
 facet normal  0.000000e+00  1.000000e+00 -0.000000e+00
   outer loop
     vertex -2.600000e+00  1.000000e+00  1.034955e+00
     vertex -2.686603e+00  1.000000e+00  1.084955e+00
     vertex -2.670711e+00  1.000000e+00  1.105666e+00
   endloop
 endfacet
 facet normal  0.000000e+00  1.000000e+00  0.000000e+00
   outer loop
     vertex -2.600000e+00  1.000000e+00  1.034955e+00
     vertex -2.600000e+00  1.000000e+00  1.000000e-01
     vertex -2.700000e+00  1.000000e+00  1.000000e-01
   endloop
 endfacet
 facet normal  0.000000e+00  1.000000e+00  0.000000e+00
   outer loop
     vertex -2.650000e+00  1.000000e+00  1.121558e+00
     vertex -2.600000e+00  1.000000e+00  1.034955e+00
     vertex -2.670711e+00  1.000000e+00  1.105666e+00
   endloop
 endfacet
 facet normal  0.000000e+00  1.000000e+00  0.000000e+00
   outer loop
     vertex -1.600000e+00  1.000000e+00  1.000000e-01
     vertex -1.600000e+00  1.000000e+00  0.000000e+00
     vertex -2.600000e+00  1.000000e+00  1.000000e-01
   endloop
 endfacet
 facet normal  0.000000e+00  1.000000e+00  0.000000e+00
   outer loop
     vertex -2.625882e+00  1.000000e+00  1.131548e+00
     vertex -2.600000e+00  1.000000e+00  1.034955e+00
     vertex -2.650000e+00  1.000000e+00  1.121558e+00
   endloop
 endfacet
 facet normal  0.000000e+00  1.000000e+00  0.000000e+00
   outer loop
     vertex -2.600000e+00  1.000000e+00  1.134955e+00
     vertex -2.600000e+00  1.000000e+00  1.034955e+00
     vertex -2.625882e+00  1.000000e+00  1.131548e+00
   endloop
 endfacet
 facet normal  0.000000e+00  1.000000e+00 -0.000000e+00
   outer loop
     vertex -1.700000e+00  1.000000e+00  1.034955e+00
     vertex -2.600000e+00  1.000000e+00  1.034955e+00
     vertex -2.600000e+00  1.000000e+00  1.134955e+00
   endloop
 endfacet
 facet normal  0.000000e+00  1.000000e+00  0.000000e+00
   outer loop
     vertex -1.700000e+00  1.000000e+00  1.134955e+00
     vertex -1.700000e+00  1.000000e+00  1.034955e+00
     vertex -2.600000e+00  1.000000e+00  1.134955e+00
   endloop
 endfacet
 facet normal  1.000000e+00  0.000000e+00  0.000000e+00
   outer loop
     vertex  2.700000e+00 -1.000000e+00  1.000000e-01
     vertex  2.700000e+00  1.000000e+00  1.000000e-01
     vertex  2.700000e+00  1.000000e+00  1.034955e+00
   endloop
 endfacet
 facet normal  1.000000e+00 -0.000000e+00  0.000000e+00
   outer loop
     vertex  2.700000e+00 -1.000000e+00  1.034955e+00
     vertex  2.700000e+00 -1.000000e+00  1.000000e-01
     vertex  2.700000e+00  1.000000e+00  1.034955e+00
   endloop
 endfacet
 facet normal  0.000000e+00 -1.000000e+00  0.000000e+00
   outer loop
     vertex  1.500000e+00 -1.000000e+00  1.000000e-01
     vertex  1.500000e+00 -1.000000e+00  0.000000e+00
     vertex  2.600000e+00 -1.000000e+00 -1.387779e-17
   endloop
 endfacet
 facet normal  0.000000e+00 -1.000000e+00  0.000000e+00
   outer loop
     vertex  2.625882e+00 -1.000000e+00  3.407417e-03
     vertex  2.650000e+00 -1.000000e+00  1.339746e-02
     vertex  2.600000e+00 -1.000000e+00  1.000000e-01
   endloop
 endfacet
 facet normal  0.000000e+00 -1.000000e+00  0.000000e+00
   outer loop
     vertex  2.600000e+00 -1.000000e+00 -1.387779e-17
     vertex  2.625882e+00 -1.000000e+00  3.407417e-03
     vertex  2.600000e+00 -1.000000e+00  1.000000e-01
   endloop
 endfacet
 facet normal  0.000000e+00 -1.000000e+00  0.000000e+00
   outer loop
     vertex  1.500000e+00 -1.000000e+00  1.000000e-01
     vertex  2.600000e+00 -1.000000e+00 -1.387779e-17
     vertex  2.600000e+00 -1.000000e+00  1.000000e-01
   endloop
 endfacet
 facet normal  0.000000e+00 -1.000000e+00  0.000000e+00
   outer loop
     vertex  2.600000e+00 -1.000000e+00  1.000000e-01
     vertex  2.650000e+00 -1.000000e+00  1.339746e-02
     vertex  2.670711e+00 -1.000000e+00  2.928932e-02
   endloop
 endfacet
 facet normal  0.000000e+00 -1.000000e+00  0.000000e+00
   outer loop
     vertex  2.600000e+00 -1.000000e+00  1.000000e-01
     vertex  2.670711e+00 -1.000000e+00  2.928932e-02
     vertex  2.686603e+00 -1.000000e+00  5.000000e-02
   endloop
 endfacet
 facet normal  0.000000e+00 -1.000000e+00  0.000000e+00
   outer loop
     vertex  2.600000e+00 -1.000000e+00  1.000000e-01
     vertex  2.686603e+00 -1.000000e+00  5.000000e-02
     vertex  2.696593e+00 -1.000000e+00  7.411810e-02
   endloop
 endfacet
 facet normal  0.000000e+00 -1.000000e+00  0.000000e+00
   outer loop
     vertex  2.600000e+00 -1.000000e+00  1.000000e-01
     vertex  2.696593e+00 -1.000000e+00  7.411810e-02
     vertex  2.700000e+00 -1.000000e+00  1.000000e-01
   endloop
 endfacet
 facet normal  0.000000e+00 -1.000000e+00  0.000000e+00
   outer loop
     vertex  1.600000e+00 -1.000000e+00  1.134955e+00
     vertex  1.600000e+00 -1.000000e+00  1.034955e+00
     vertex  2.600000e+00 -1.000000e+00  1.034955e+00
   endloop
 endfacet
 facet normal  0.000000e+00 -1.000000e+00  0.000000e+00
   outer loop
     vertex  2.600000e+00 -1.000000e+00  1.034955e+00
     vertex  2.600000e+00 -1.000000e+00  1.000000e-01
     vertex  2.700000e+00 -1.000000e+00  1.034955e+00
   endloop
 endfacet
 facet normal  0.000000e+00 -1.000000e+00  0.000000e+00
   outer loop
     vertex  2.600000e+00 -1.000000e+00  1.000000e-01
     vertex  2.700000e+00 -1.000000e+00  1.000000e-01
     vertex  2.700000e+00 -1.000000e+00  1.034955e+00
   endloop
 endfacet
 facet normal  0.000000e+00 -1.000000e+00  0.000000e+00
   outer loop
     vertex  1.600000e+00 -1.000000e+00  1.134955e+00
     vertex  2.600000e+00 -1.000000e+00  1.034955e+00
     vertex  2.600000e+00 -1.000000e+00  1.134955e+00
   endloop
 endfacet
 facet normal  0.000000e+00 -1.000000e+00  0.000000e+00
   outer loop
     vertex  2.600000e+00 -1.000000e+00  1.034955e+00
     vertex  2.700000e+00 -1.000000e+00  1.034955e+00
     vertex  2.696593e+00 -1.000000e+00  1.060837e+00
   endloop
 endfacet
 facet normal  0.000000e+00 -1.000000e+00  0.000000e+00
   outer loop
     vertex  2.600000e+00 -1.000000e+00  1.134955e+00
     vertex  2.600000e+00 -1.000000e+00  1.034955e+00
     vertex  2.625882e+00 -1.000000e+00  1.131548e+00
   endloop
 endfacet
 facet normal  0.000000e+00 -1.000000e+00 -0.000000e+00
   outer loop
     vertex  2.625882e+00 -1.000000e+00  1.131548e+00
     vertex  2.600000e+00 -1.000000e+00  1.034955e+00
     vertex  2.650000e+00 -1.000000e+00  1.121558e+00
   endloop
 endfacet
 facet normal  0.000000e+00 -1.000000e+00  0.000000e+00
   outer loop
     vertex  2.600000e+00 -1.000000e+00  1.034955e+00
     vertex  2.696593e+00 -1.000000e+00  1.060837e+00
     vertex  2.686603e+00 -1.000000e+00  1.084955e+00
   endloop
 endfacet
 facet normal  0.000000e+00 -1.000000e+00 -0.000000e+00
   outer loop
     vertex  2.650000e+00 -1.000000e+00  1.121558e+00
     vertex  2.600000e+00 -1.000000e+00  1.034955e+00
     vertex  2.670711e+00 -1.000000e+00  1.105666e+00
   endloop
 endfacet
 facet normal  0.000000e+00 -1.000000e+00  0.000000e+00
   outer loop
     vertex  2.600000e+00 -1.000000e+00  1.034955e+00
     vertex  2.686603e+00 -1.000000e+00  1.084955e+00
     vertex  2.670711e+00 -1.000000e+00  1.105666e+00
   endloop
 endfacet
 facet normal  9.914449e-01  0.000000e+00 -1.305262e-01
   outer loop
     vertex  2.696593e+00  1.000000e+00  7.411810e-02
     vertex  2.700000e+00 -1.000000e+00  1.000000e-01
     vertex  2.696593e+00 -1.000000e+00  7.411810e-02
   endloop
 endfacet
 facet normal  9.914449e-01  0.000000e+00 -1.305262e-01
   outer loop
     vertex  2.696593e+00  1.000000e+00  7.411810e-02
     vertex  2.700000e+00  1.000000e+00  1.000000e-01
     vertex  2.700000e+00 -1.000000e+00  1.000000e-01
   endloop
 endfacet
 facet normal  9.238795e-01  0.000000e+00 -3.826834e-01
   outer loop
     vertex  2.686603e+00  1.000000e+00  5.000000e-02
     vertex  2.696593e+00 -1.000000e+00  7.411810e-02
     vertex  2.686603e+00 -1.000000e+00  5.000000e-02
   endloop
 endfacet
 facet normal  7.933533e-01  0.000000e+00 -6.087614e-01
   outer loop
     vertex  2.686603e+00  1.000000e+00  5.000000e-02
     vertex  2.686603e+00 -1.000000e+00  5.000000e-02
     vertex  2.670711e+00 -1.000000e+00  2.928932e-02
   endloop
 endfacet
 facet normal  9.238795e-01  0.000000e+00 -3.826834e-01
   outer loop
     vertex  2.686603e+00  1.000000e+00  5.000000e-02
     vertex  2.696593e+00  1.000000e+00  7.411810e-02
     vertex  2.696593e+00 -1.000000e+00  7.411810e-02
   endloop
 endfacet
 facet normal  7.933533e-01  0.000000e+00 -6.087614e-01
   outer loop
     vertex  2.670711e+00  1.000000e+00  2.928932e-02
     vertex  2.686603e+00  1.000000e+00  5.000000e-02
     vertex  2.670711e+00 -1.000000e+00  2.928932e-02
   endloop
 endfacet
 facet normal  6.087614e-01  0.000000e+00 -7.933533e-01
   outer loop
     vertex  2.650000e+00  1.000000e+00  1.339746e-02
     vertex  2.670711e+00 -1.000000e+00  2.928932e-02
     vertex  2.650000e+00 -1.000000e+00  1.339746e-02
   endloop
 endfacet
 facet normal  6.087614e-01  0.000000e+00 -7.933533e-01
   outer loop
     vertex  2.650000e+00  1.000000e+00  1.339746e-02
     vertex  2.670711e+00  1.000000e+00  2.928932e-02
     vertex  2.670711e+00 -1.000000e+00  2.928932e-02
   endloop
 endfacet
 facet normal  3.826834e-01  0.000000e+00 -9.238795e-01
   outer loop
     vertex  2.625882e+00  1.000000e+00  3.407417e-03
     vertex  2.650000e+00 -1.000000e+00  1.339746e-02
     vertex  2.625882e+00 -1.000000e+00  3.407417e-03
   endloop
 endfacet
 facet normal  3.826834e-01  0.000000e+00 -9.238795e-01
   outer loop
     vertex  2.625882e+00  1.000000e+00  3.407417e-03
     vertex  2.650000e+00  1.000000e+00  1.339746e-02
     vertex  2.650000e+00 -1.000000e+00  1.339746e-02
   endloop
 endfacet
 facet normal  1.305262e-01  0.000000e+00 -9.914449e-01
   outer loop
     vertex  2.600000e+00  1.000000e+00 -1.387779e-17
     vertex  2.625882e+00 -1.000000e+00  3.407417e-03
     vertex  2.600000e+00 -1.000000e+00 -1.387779e-17
   endloop
 endfacet
 facet normal  1.305262e-01  0.000000e+00 -9.914449e-01
   outer loop
     vertex  2.600000e+00  1.000000e+00 -1.387779e-17
     vertex  2.625882e+00  1.000000e+00  3.407417e-03
     vertex  2.625882e+00 -1.000000e+00  3.407417e-03
   endloop
 endfacet
 facet normal  9.914449e-01 -0.000000e+00  1.305262e-01
   outer loop
     vertex  2.696593e+00 -1.000000e+00  1.060837e+00
     vertex  2.700000e+00 -1.000000e+00  1.034955e+00
     vertex  2.700000e+00  1.000000e+00  1.034955e+00
   endloop
 endfacet
 facet normal  9.238795e-01 -0.000000e+00  3.826834e-01
   outer loop
     vertex  2.686603e+00 -1.000000e+00  1.084955e+00
     vertex  2.696593e+00 -1.000000e+00  1.060837e+00
     vertex  2.696593e+00  1.000000e+00  1.060837e+00
   endloop
 endfacet
 facet normal  9.914449e-01  0.000000e+00  1.305262e-01
   outer loop
     vertex  2.696593e+00 -1.000000e+00  1.060837e+00
     vertex  2.700000e+00  1.000000e+00  1.034955e+00
     vertex  2.696593e+00  1.000000e+00  1.060837e+00
   endloop
 endfacet
 facet normal  7.933533e-01 -0.000000e+00  6.087614e-01
   outer loop
     vertex  2.670711e+00 -1.000000e+00  1.105666e+00
     vertex  2.686603e+00 -1.000000e+00  1.084955e+00
     vertex  2.686603e+00  1.000000e+00  1.084955e+00
   endloop
 endfacet
 facet normal  9.238795e-01  0.000000e+00  3.826834e-01
   outer loop
     vertex  2.686603e+00 -1.000000e+00  1.084955e+00
     vertex  2.696593e+00  1.000000e+00  1.060837e+00
     vertex  2.686603e+00  1.000000e+00  1.084955e+00
   endloop
 endfacet
 facet normal  7.933533e-01  0.000000e+00  6.087614e-01
   outer loop
     vertex  2.670711e+00 -1.000000e+00  1.105666e+00
     vertex  2.686603e+00  1.000000e+00  1.084955e+00
     vertex  2.670711e+00  1.000000e+00  1.105666e+00
   endloop
 endfacet
 facet normal  6.087614e-01  0.000000e+00  7.933533e-01
   outer loop
     vertex  2.650000e+00 -1.000000e+00  1.121558e+00
     vertex  2.670711e+00 -1.000000e+00  1.105666e+00
     vertex  2.650000e+00  1.000000e+00  1.121558e+00
   endloop
 endfacet
 facet normal  3.826834e-01 -0.000000e+00  9.238795e-01
   outer loop
     vertex  2.625882e+00 -1.000000e+00  1.131548e+00
     vertex  2.650000e+00 -1.000000e+00  1.121558e+00
     vertex  2.650000e+00  1.000000e+00  1.121558e+00
   endloop
 endfacet
 facet normal  6.087614e-01 -0.000000e+00  7.933533e-01
   outer loop
     vertex  2.670711e+00 -1.000000e+00  1.105666e+00
     vertex  2.670711e+00  1.000000e+00  1.105666e+00
     vertex  2.650000e+00  1.000000e+00  1.121558e+00
   endloop
 endfacet
 facet normal  3.826834e-01  0.000000e+00  9.238795e-01
   outer loop
     vertex  2.625882e+00 -1.000000e+00  1.131548e+00
     vertex  2.650000e+00  1.000000e+00  1.121558e+00
     vertex  2.625882e+00  1.000000e+00  1.131548e+00
   endloop
 endfacet
 facet normal  1.305262e-01  0.000000e+00  9.914449e-01
   outer loop
     vertex  2.600000e+00 -1.000000e+00  1.134955e+00
     vertex  2.625882e+00 -1.000000e+00  1.131548e+00
     vertex  2.600000e+00  1.000000e+00  1.134955e+00
   endloop
 endfacet
 facet normal  1.305262e-01 -0.000000e+00  9.914449e-01
   outer loop
     vertex  2.625882e+00 -1.000000e+00  1.131548e+00
     vertex  2.625882e+00  1.000000e+00  1.131548e+00
     vertex  2.600000e+00  1.000000e+00  1.134955e+00
   endloop
 endfacet
 facet normal  0.000000e+00  1.000000e+00 -0.000000e+00
   outer loop
     vertex  2.600000e+00  1.000000e+00 -1.387779e-17
     vertex  1.500000e+00  1.000000e+00  0.000000e+00
     vertex  1.500000e+00  1.000000e+00  1.000000e-01
   endloop
 endfacet
 facet normal  0.000000e+00  1.000000e+00  0.000000e+00
   outer loop
     vertex  2.600000e+00  1.000000e+00  1.000000e-01
     vertex  2.650000e+00  1.000000e+00  1.339746e-02
     vertex  2.625882e+00  1.000000e+00  3.407417e-03
   endloop
 endfacet
 facet normal  0.000000e+00  1.000000e+00  0.000000e+00
   outer loop
     vertex  2.600000e+00  1.000000e+00  1.000000e-01
     vertex  2.625882e+00  1.000000e+00  3.407417e-03
     vertex  2.600000e+00  1.000000e+00 -1.387779e-17
   endloop
 endfacet
 facet normal  0.000000e+00  1.000000e+00  0.000000e+00
   outer loop
     vertex  2.600000e+00  1.000000e+00  1.000000e-01
     vertex  2.600000e+00  1.000000e+00 -1.387779e-17
     vertex  1.500000e+00  1.000000e+00  1.000000e-01
   endloop
 endfacet
 facet normal  0.000000e+00  1.000000e+00  0.000000e+00
   outer loop
     vertex  2.670711e+00  1.000000e+00  2.928932e-02
     vertex  2.650000e+00  1.000000e+00  1.339746e-02
     vertex  2.600000e+00  1.000000e+00  1.000000e-01
   endloop
 endfacet
 facet normal  0.000000e+00  1.000000e+00  0.000000e+00
   outer loop
     vertex  2.686603e+00  1.000000e+00  5.000000e-02
     vertex  2.670711e+00  1.000000e+00  2.928932e-02
     vertex  2.600000e+00  1.000000e+00  1.000000e-01
   endloop
 endfacet
 facet normal  0.000000e+00  1.000000e+00  0.000000e+00
   outer loop
     vertex  2.696593e+00  1.000000e+00  7.411810e-02
     vertex  2.686603e+00  1.000000e+00  5.000000e-02
     vertex  2.600000e+00  1.000000e+00  1.000000e-01
   endloop
 endfacet
 facet normal  0.000000e+00  1.000000e+00  0.000000e+00
   outer loop
     vertex  2.700000e+00  1.000000e+00  1.000000e-01
     vertex  2.696593e+00  1.000000e+00  7.411810e-02
     vertex  2.600000e+00  1.000000e+00  1.000000e-01
   endloop
 endfacet
 facet normal  0.000000e+00  1.000000e+00 -0.000000e+00
   outer loop
     vertex  2.600000e+00  1.000000e+00  1.034955e+00
     vertex  1.600000e+00  1.000000e+00  1.034955e+00
     vertex  1.600000e+00  1.000000e+00  1.134955e+00
   endloop
 endfacet
 facet normal  0.000000e+00  1.000000e+00  0.000000e+00
   outer loop
     vertex  2.600000e+00  1.000000e+00  1.134955e+00
     vertex  2.600000e+00  1.000000e+00  1.034955e+00
     vertex  1.600000e+00  1.000000e+00  1.134955e+00
   endloop
 endfacet
 facet normal  0.000000e+00  1.000000e+00 -0.000000e+00
   outer loop
     vertex  2.700000e+00  1.000000e+00  1.034955e+00
     vertex  2.600000e+00  1.000000e+00  1.000000e-01
     vertex  2.600000e+00  1.000000e+00  1.034955e+00
   endloop
 endfacet
 facet normal  0.000000e+00  1.000000e+00  0.000000e+00
   outer loop
     vertex  2.700000e+00  1.000000e+00  1.034955e+00
     vertex  2.700000e+00  1.000000e+00  1.000000e-01
     vertex  2.600000e+00  1.000000e+00  1.000000e-01
   endloop
 endfacet
 facet normal  0.000000e+00  1.000000e+00  0.000000e+00
   outer loop
     vertex  2.696593e+00  1.000000e+00  1.060837e+00
     vertex  2.700000e+00  1.000000e+00  1.034955e+00
     vertex  2.600000e+00  1.000000e+00  1.034955e+00
   endloop
 endfacet
 facet normal  0.000000e+00  1.000000e+00 -0.000000e+00
   outer loop
     vertex  2.625882e+00  1.000000e+00  1.131548e+00
     vertex  2.600000e+00  1.000000e+00  1.034955e+00
     vertex  2.600000e+00  1.000000e+00  1.134955e+00
   endloop
 endfacet
 facet normal  0.000000e+00  1.000000e+00  0.000000e+00
   outer loop
     vertex  2.686603e+00  1.000000e+00  1.084955e+00
     vertex  2.696593e+00  1.000000e+00  1.060837e+00
     vertex  2.600000e+00  1.000000e+00  1.034955e+00
   endloop
 endfacet
 facet normal  0.000000e+00  1.000000e+00 -0.000000e+00
   outer loop
     vertex  2.650000e+00  1.000000e+00  1.121558e+00
     vertex  2.600000e+00  1.000000e+00  1.034955e+00
     vertex  2.625882e+00  1.000000e+00  1.131548e+00
   endloop
 endfacet
 facet normal  0.000000e+00  1.000000e+00  0.000000e+00
   outer loop
     vertex  2.670711e+00  1.000000e+00  1.105666e+00
     vertex  2.686603e+00  1.000000e+00  1.084955e+00
     vertex  2.600000e+00  1.000000e+00  1.034955e+00
   endloop
 endfacet
 facet normal  0.000000e+00  1.000000e+00 -0.000000e+00
   outer loop
     vertex  2.670711e+00  1.000000e+00  1.105666e+00
     vertex  2.600000e+00  1.000000e+00  1.034955e+00
     vertex  2.650000e+00  1.000000e+00  1.121558e+00
   endloop
 endfacet
 facet normal -1.261617e-17  0.000000e+00 -1.000000e+00
   outer loop
     vertex  2.600000e+00 -1.000000e+00 -1.387779e-17
     vertex  1.500000e+00 -1.000000e+00  0.000000e+00
     vertex  1.500000e+00  1.000000e+00  0.000000e+00
   endloop
 endfacet
 facet normal -1.261617e-17  0.000000e+00 -1.000000e+00
   outer loop
     vertex  2.600000e+00 -1.000000e+00 -1.387779e-17
     vertex  1.500000e+00  1.000000e+00  0.000000e+00
     vertex  2.600000e+00  1.000000e+00 -1.387779e-17
   endloop
 endfacet
 facet normal -1.000000e+00 -0.000000e+00 -0.000000e+00
   outer loop
     vertex  1.500000e+00  1.000000e+00  1.000000e-01
     vertex  1.500000e+00  1.000000e+00  0.000000e+00
     vertex  1.500000e+00 -1.000000e+00  1.000000e-01
   endloop
 endfacet
 facet normal -1.000000e+00  0.000000e+00  0.000000e+00
   outer loop
     vertex  1.500000e+00  1.000000e+00  0.000000e+00
     vertex  1.500000e+00 -1.000000e+00  0.000000e+00
     vertex  1.500000e+00 -1.000000e+00  1.000000e-01
   endloop
 endfacet
 facet normal -0.000000e+00  0.000000e+00  1.000000e+00
   outer loop
     vertex  1.500000e+00  1.000000e+00  1.000000e-01
     vertex  1.500000e+00 -1.000000e+00  1.000000e-01
     vertex  2.600000e+00 -1.000000e+00  1.000000e-01
   endloop
 endfacet
 facet normal  0.000000e+00  0.000000e+00  1.000000e+00
   outer loop
     vertex  2.600000e+00  1.000000e+00  1.000000e-01
     vertex  1.500000e+00  1.000000e+00  1.000000e-01
     vertex  2.600000e+00 -1.000000e+00  1.000000e-01
   endloop
 endfacet
 facet normal -1.000000e+00 -0.000000e+00 -0.000000e+00
   outer loop
     vertex  2.600000e+00  1.000000e+00  1.034955e+00
     vertex  2.600000e+00  1.000000e+00  1.000000e-01
     vertex  2.600000e+00 -1.000000e+00  1.034955e+00
   endloop
 endfacet
 facet normal -1.000000e+00  0.000000e+00  0.000000e+00
   outer loop
     vertex  2.600000e+00  1.000000e+00  1.000000e-01
     vertex  2.600000e+00 -1.000000e+00  1.000000e-01
     vertex  2.600000e+00 -1.000000e+00  1.034955e+00
   endloop
 endfacet
 facet normal  0.000000e+00 -0.000000e+00  1.000000e+00
   outer loop
     vertex  1.600000e+00 -1.000000e+00  1.134955e+00
     vertex  2.600000e+00 -1.000000e+00  1.134955e+00
     vertex  1.600000e+00  1.000000e+00  1.134955e+00
   endloop
 endfacet
 facet normal  0.000000e+00 -0.000000e+00  1.000000e+00
   outer loop
     vertex  2.600000e+00 -1.000000e+00  1.134955e+00
     vertex  2.600000e+00  1.000000e+00  1.134955e+00
     vertex  1.600000e+00  1.000000e+00  1.134955e+00
   endloop
 endfacet
 facet normal  0.000000e+00  0.000000e+00 -1.000000e+00
   outer loop
     vertex  1.600000e+00 -1.000000e+00  1.034955e+00
     vertex  1.600000e+00  1.000000e+00  1.034955e+00
     vertex  2.600000e+00  1.000000e+00  1.034955e+00
   endloop
 endfacet
 facet normal  0.000000e+00  0.000000e+00 -1.000000e+00
   outer loop
     vertex  2.600000e+00 -1.000000e+00  1.034955e+00
     vertex  1.600000e+00 -1.000000e+00  1.034955e+00
     vertex  2.600000e+00  1.000000e+00  1.034955e+00
   endloop
 endfacet
 facet normal -1.000000e+00 -0.000000e+00 -0.000000e+00
   outer loop
     vertex  1.600000e+00  1.000000e+00  1.134955e+00
     vertex  1.600000e+00  1.000000e+00  1.034955e+00
     vertex  1.600000e+00 -1.000000e+00  1.134955e+00
   endloop
 endfacet
 facet normal -1.000000e+00  0.000000e+00  0.000000e+00
   outer loop
     vertex  1.600000e+00  1.000000e+00  1.034955e+00
     vertex  1.600000e+00 -1.000000e+00  1.034955e+00
     vertex  1.600000e+00 -1.000000e+00  1.134955e+00
   endloop
 endfacet
endsolid
