G04 #@! TF.GenerationSoftware,KiCad,Pcbnew,(5.0.1)-3*
G04 #@! TF.CreationDate,2019-03-11T17:07:33+01:00*
G04 #@! TF.ProjectId,Arduino_Uno_R3_From_Scratch,41726475696E6F5F556E6F5F52335F46,rev?*
G04 #@! TF.SameCoordinates,Original*
G04 #@! TF.FileFunction,Soldermask,Top*
G04 #@! TF.FilePolarity,Negative*
%FSLAX46Y46*%
G04 Gerber Fmt 4.6, Leading zero omitted, Abs format (unit mm)*
G04 Created by KiCad (PCBNEW (5.0.1)-3) date 11/03/2019 17:07:33*
%MOMM*%
%LPD*%
G01*
G04 APERTURE LIST*
%ADD10C,0.100000*%
G04 APERTURE END LIST*
D10*
G36*
X118784630Y-145339299D02*
X118944855Y-145387903D01*
X119092520Y-145466831D01*
X119221949Y-145573051D01*
X119328169Y-145702480D01*
X119407097Y-145850145D01*
X119455701Y-146010370D01*
X119472112Y-146177000D01*
X119455701Y-146343630D01*
X119407097Y-146503855D01*
X119328169Y-146651520D01*
X119221949Y-146780949D01*
X119092520Y-146887169D01*
X118944855Y-146966097D01*
X118784630Y-147014701D01*
X118659752Y-147027000D01*
X118576248Y-147027000D01*
X118451370Y-147014701D01*
X118291145Y-146966097D01*
X118143480Y-146887169D01*
X118014051Y-146780949D01*
X117907831Y-146651520D01*
X117828903Y-146503855D01*
X117780299Y-146343630D01*
X117763888Y-146177000D01*
X117780299Y-146010370D01*
X117828903Y-145850145D01*
X117907831Y-145702480D01*
X118014051Y-145573051D01*
X118143480Y-145466831D01*
X118291145Y-145387903D01*
X118451370Y-145339299D01*
X118576248Y-145327000D01*
X118659752Y-145327000D01*
X118784630Y-145339299D01*
X118784630Y-145339299D01*
G37*
G36*
X116244630Y-145339299D02*
X116404855Y-145387903D01*
X116552520Y-145466831D01*
X116681949Y-145573051D01*
X116788169Y-145702480D01*
X116867097Y-145850145D01*
X116915701Y-146010370D01*
X116932112Y-146177000D01*
X116915701Y-146343630D01*
X116867097Y-146503855D01*
X116788169Y-146651520D01*
X116681949Y-146780949D01*
X116552520Y-146887169D01*
X116404855Y-146966097D01*
X116244630Y-147014701D01*
X116119752Y-147027000D01*
X116036248Y-147027000D01*
X115911370Y-147014701D01*
X115751145Y-146966097D01*
X115603480Y-146887169D01*
X115474051Y-146780949D01*
X115367831Y-146651520D01*
X115288903Y-146503855D01*
X115240299Y-146343630D01*
X115223888Y-146177000D01*
X115240299Y-146010370D01*
X115288903Y-145850145D01*
X115367831Y-145702480D01*
X115474051Y-145573051D01*
X115603480Y-145466831D01*
X115751145Y-145387903D01*
X115911370Y-145339299D01*
X116036248Y-145327000D01*
X116119752Y-145327000D01*
X116244630Y-145339299D01*
X116244630Y-145339299D01*
G37*
G36*
X113704630Y-145339299D02*
X113864855Y-145387903D01*
X114012520Y-145466831D01*
X114141949Y-145573051D01*
X114248169Y-145702480D01*
X114327097Y-145850145D01*
X114375701Y-146010370D01*
X114392112Y-146177000D01*
X114375701Y-146343630D01*
X114327097Y-146503855D01*
X114248169Y-146651520D01*
X114141949Y-146780949D01*
X114012520Y-146887169D01*
X113864855Y-146966097D01*
X113704630Y-147014701D01*
X113579752Y-147027000D01*
X113496248Y-147027000D01*
X113371370Y-147014701D01*
X113211145Y-146966097D01*
X113063480Y-146887169D01*
X112934051Y-146780949D01*
X112827831Y-146651520D01*
X112748903Y-146503855D01*
X112700299Y-146343630D01*
X112683888Y-146177000D01*
X112700299Y-146010370D01*
X112748903Y-145850145D01*
X112827831Y-145702480D01*
X112934051Y-145573051D01*
X113063480Y-145466831D01*
X113211145Y-145387903D01*
X113371370Y-145339299D01*
X113496248Y-145327000D01*
X113579752Y-145327000D01*
X113704630Y-145339299D01*
X113704630Y-145339299D01*
G37*
G36*
X111164630Y-145339299D02*
X111324855Y-145387903D01*
X111472520Y-145466831D01*
X111601949Y-145573051D01*
X111708169Y-145702480D01*
X111787097Y-145850145D01*
X111835701Y-146010370D01*
X111852112Y-146177000D01*
X111835701Y-146343630D01*
X111787097Y-146503855D01*
X111708169Y-146651520D01*
X111601949Y-146780949D01*
X111472520Y-146887169D01*
X111324855Y-146966097D01*
X111164630Y-147014701D01*
X111039752Y-147027000D01*
X110956248Y-147027000D01*
X110831370Y-147014701D01*
X110671145Y-146966097D01*
X110523480Y-146887169D01*
X110394051Y-146780949D01*
X110287831Y-146651520D01*
X110208903Y-146503855D01*
X110160299Y-146343630D01*
X110143888Y-146177000D01*
X110160299Y-146010370D01*
X110208903Y-145850145D01*
X110287831Y-145702480D01*
X110394051Y-145573051D01*
X110523480Y-145466831D01*
X110671145Y-145387903D01*
X110831370Y-145339299D01*
X110956248Y-145327000D01*
X111039752Y-145327000D01*
X111164630Y-145339299D01*
X111164630Y-145339299D01*
G37*
G36*
X108624630Y-145339299D02*
X108784855Y-145387903D01*
X108932520Y-145466831D01*
X109061949Y-145573051D01*
X109168169Y-145702480D01*
X109247097Y-145850145D01*
X109295701Y-146010370D01*
X109312112Y-146177000D01*
X109295701Y-146343630D01*
X109247097Y-146503855D01*
X109168169Y-146651520D01*
X109061949Y-146780949D01*
X108932520Y-146887169D01*
X108784855Y-146966097D01*
X108624630Y-147014701D01*
X108499752Y-147027000D01*
X108416248Y-147027000D01*
X108291370Y-147014701D01*
X108131145Y-146966097D01*
X107983480Y-146887169D01*
X107854051Y-146780949D01*
X107747831Y-146651520D01*
X107668903Y-146503855D01*
X107620299Y-146343630D01*
X107603888Y-146177000D01*
X107620299Y-146010370D01*
X107668903Y-145850145D01*
X107747831Y-145702480D01*
X107854051Y-145573051D01*
X107983480Y-145466831D01*
X108131145Y-145387903D01*
X108291370Y-145339299D01*
X108416248Y-145327000D01*
X108499752Y-145327000D01*
X108624630Y-145339299D01*
X108624630Y-145339299D01*
G37*
G36*
X103544630Y-145339299D02*
X103704855Y-145387903D01*
X103852520Y-145466831D01*
X103981949Y-145573051D01*
X104088169Y-145702480D01*
X104167097Y-145850145D01*
X104215701Y-146010370D01*
X104232112Y-146177000D01*
X104215701Y-146343630D01*
X104167097Y-146503855D01*
X104088169Y-146651520D01*
X103981949Y-146780949D01*
X103852520Y-146887169D01*
X103704855Y-146966097D01*
X103544630Y-147014701D01*
X103419752Y-147027000D01*
X103336248Y-147027000D01*
X103211370Y-147014701D01*
X103051145Y-146966097D01*
X102903480Y-146887169D01*
X102774051Y-146780949D01*
X102667831Y-146651520D01*
X102588903Y-146503855D01*
X102540299Y-146343630D01*
X102523888Y-146177000D01*
X102540299Y-146010370D01*
X102588903Y-145850145D01*
X102667831Y-145702480D01*
X102774051Y-145573051D01*
X102903480Y-145466831D01*
X103051145Y-145387903D01*
X103211370Y-145339299D01*
X103336248Y-145327000D01*
X103419752Y-145327000D01*
X103544630Y-145339299D01*
X103544630Y-145339299D01*
G37*
G36*
X106084630Y-145339299D02*
X106244855Y-145387903D01*
X106392520Y-145466831D01*
X106521949Y-145573051D01*
X106628169Y-145702480D01*
X106707097Y-145850145D01*
X106755701Y-146010370D01*
X106772112Y-146177000D01*
X106755701Y-146343630D01*
X106707097Y-146503855D01*
X106628169Y-146651520D01*
X106521949Y-146780949D01*
X106392520Y-146887169D01*
X106244855Y-146966097D01*
X106084630Y-147014701D01*
X105959752Y-147027000D01*
X105876248Y-147027000D01*
X105751370Y-147014701D01*
X105591145Y-146966097D01*
X105443480Y-146887169D01*
X105314051Y-146780949D01*
X105207831Y-146651520D01*
X105128903Y-146503855D01*
X105080299Y-146343630D01*
X105063888Y-146177000D01*
X105080299Y-146010370D01*
X105128903Y-145850145D01*
X105207831Y-145702480D01*
X105314051Y-145573051D01*
X105443480Y-145466831D01*
X105591145Y-145387903D01*
X105751370Y-145339299D01*
X105876248Y-145327000D01*
X105959752Y-145327000D01*
X106084630Y-145339299D01*
X106084630Y-145339299D01*
G37*
G36*
X101688000Y-147027000D02*
X99988000Y-147027000D01*
X99988000Y-145327000D01*
X101688000Y-145327000D01*
X101688000Y-147027000D01*
X101688000Y-147027000D01*
G37*
G36*
X99293024Y-139844955D02*
X99325736Y-139854879D01*
X99355890Y-139870997D01*
X99382316Y-139892684D01*
X99404003Y-139919110D01*
X99420121Y-139949264D01*
X99430045Y-139981976D01*
X99434000Y-140022138D01*
X99434000Y-141409862D01*
X99430045Y-141450024D01*
X99420121Y-141482736D01*
X99404003Y-141512890D01*
X99382316Y-141539316D01*
X99355890Y-141561003D01*
X99325736Y-141577121D01*
X99293024Y-141587045D01*
X99252862Y-141591000D01*
X98365138Y-141591000D01*
X98324976Y-141587045D01*
X98292264Y-141577121D01*
X98262110Y-141561003D01*
X98235684Y-141539316D01*
X98213997Y-141512890D01*
X98197879Y-141482736D01*
X98187955Y-141450024D01*
X98184000Y-141409862D01*
X98184000Y-140022138D01*
X98187955Y-139981976D01*
X98197879Y-139949264D01*
X98213997Y-139919110D01*
X98235684Y-139892684D01*
X98262110Y-139870997D01*
X98292264Y-139854879D01*
X98324976Y-139844955D01*
X98365138Y-139841000D01*
X99252862Y-139841000D01*
X99293024Y-139844955D01*
X99293024Y-139844955D01*
G37*
G36*
X96493024Y-139844955D02*
X96525736Y-139854879D01*
X96555890Y-139870997D01*
X96582316Y-139892684D01*
X96604003Y-139919110D01*
X96620121Y-139949264D01*
X96630045Y-139981976D01*
X96634000Y-140022138D01*
X96634000Y-141409862D01*
X96630045Y-141450024D01*
X96620121Y-141482736D01*
X96604003Y-141512890D01*
X96582316Y-141539316D01*
X96555890Y-141561003D01*
X96525736Y-141577121D01*
X96493024Y-141587045D01*
X96452862Y-141591000D01*
X95565138Y-141591000D01*
X95524976Y-141587045D01*
X95492264Y-141577121D01*
X95462110Y-141561003D01*
X95435684Y-141539316D01*
X95413997Y-141512890D01*
X95397879Y-141482736D01*
X95387955Y-141450024D01*
X95384000Y-141409862D01*
X95384000Y-140022138D01*
X95387955Y-139981976D01*
X95397879Y-139949264D01*
X95413997Y-139919110D01*
X95435684Y-139892684D01*
X95462110Y-139870997D01*
X95492264Y-139854879D01*
X95524976Y-139844955D01*
X95565138Y-139841000D01*
X96452862Y-139841000D01*
X96493024Y-139844955D01*
X96493024Y-139844955D01*
G37*
G36*
X105333800Y-141452600D02*
X104978200Y-141452600D01*
X104978200Y-139979400D01*
X105333800Y-139979400D01*
X105333800Y-141452600D01*
X105333800Y-141452600D01*
G37*
G36*
X100761800Y-141452600D02*
X100406200Y-141452600D01*
X100406200Y-139979400D01*
X100761800Y-139979400D01*
X100761800Y-141452600D01*
X100761800Y-141452600D01*
G37*
G36*
X101422200Y-141452600D02*
X101066600Y-141452600D01*
X101066600Y-139979400D01*
X101422200Y-139979400D01*
X101422200Y-141452600D01*
X101422200Y-141452600D01*
G37*
G36*
X102082600Y-141452600D02*
X101727000Y-141452600D01*
X101727000Y-139979400D01*
X102082600Y-139979400D01*
X102082600Y-141452600D01*
X102082600Y-141452600D01*
G37*
G36*
X102717600Y-141452600D02*
X102362000Y-141452600D01*
X102362000Y-139979400D01*
X102717600Y-139979400D01*
X102717600Y-141452600D01*
X102717600Y-141452600D01*
G37*
G36*
X103378000Y-141452600D02*
X103022400Y-141452600D01*
X103022400Y-139979400D01*
X103378000Y-139979400D01*
X103378000Y-141452600D01*
X103378000Y-141452600D01*
G37*
G36*
X104013000Y-141452600D02*
X103657400Y-141452600D01*
X103657400Y-139979400D01*
X104013000Y-139979400D01*
X104013000Y-141452600D01*
X104013000Y-141452600D01*
G37*
G36*
X104673400Y-141452600D02*
X104317800Y-141452600D01*
X104317800Y-139979400D01*
X104673400Y-139979400D01*
X104673400Y-141452600D01*
X104673400Y-141452600D01*
G37*
G36*
X117387630Y-139751299D02*
X117547855Y-139799903D01*
X117695520Y-139878831D01*
X117824949Y-139985051D01*
X117931169Y-140114480D01*
X118010097Y-140262145D01*
X118058701Y-140422370D01*
X118075112Y-140589000D01*
X118058701Y-140755630D01*
X118010097Y-140915855D01*
X117931169Y-141063520D01*
X117824949Y-141192949D01*
X117695520Y-141299169D01*
X117547855Y-141378097D01*
X117387630Y-141426701D01*
X117262752Y-141439000D01*
X117179248Y-141439000D01*
X117054370Y-141426701D01*
X116894145Y-141378097D01*
X116746480Y-141299169D01*
X116617051Y-141192949D01*
X116510831Y-141063520D01*
X116431903Y-140915855D01*
X116383299Y-140755630D01*
X116366888Y-140589000D01*
X116383299Y-140422370D01*
X116431903Y-140262145D01*
X116510831Y-140114480D01*
X116617051Y-139985051D01*
X116746480Y-139878831D01*
X116894145Y-139799903D01*
X117054370Y-139751299D01*
X117179248Y-139739000D01*
X117262752Y-139739000D01*
X117387630Y-139751299D01*
X117387630Y-139751299D01*
G37*
G36*
X114847630Y-139751299D02*
X115007855Y-139799903D01*
X115155520Y-139878831D01*
X115284949Y-139985051D01*
X115391169Y-140114480D01*
X115470097Y-140262145D01*
X115518701Y-140422370D01*
X115535112Y-140589000D01*
X115518701Y-140755630D01*
X115470097Y-140915855D01*
X115391169Y-141063520D01*
X115284949Y-141192949D01*
X115155520Y-141299169D01*
X115007855Y-141378097D01*
X114847630Y-141426701D01*
X114722752Y-141439000D01*
X114639248Y-141439000D01*
X114514370Y-141426701D01*
X114354145Y-141378097D01*
X114206480Y-141299169D01*
X114077051Y-141192949D01*
X113970831Y-141063520D01*
X113891903Y-140915855D01*
X113843299Y-140755630D01*
X113826888Y-140589000D01*
X113843299Y-140422370D01*
X113891903Y-140262145D01*
X113970831Y-140114480D01*
X114077051Y-139985051D01*
X114206480Y-139878831D01*
X114354145Y-139799903D01*
X114514370Y-139751299D01*
X114639248Y-139739000D01*
X114722752Y-139739000D01*
X114847630Y-139751299D01*
X114847630Y-139751299D01*
G37*
G36*
X120611000Y-141439000D02*
X118911000Y-141439000D01*
X118911000Y-139739000D01*
X120611000Y-139739000D01*
X120611000Y-141439000D01*
X120611000Y-141439000D01*
G37*
G36*
X125067024Y-138827955D02*
X125099736Y-138837879D01*
X125129890Y-138853997D01*
X125156316Y-138875684D01*
X125178003Y-138902110D01*
X125194121Y-138932264D01*
X125204045Y-138964976D01*
X125208000Y-139005138D01*
X125208000Y-139892862D01*
X125204045Y-139933024D01*
X125194121Y-139965736D01*
X125178003Y-139995890D01*
X125156316Y-140022316D01*
X125129890Y-140044003D01*
X125099736Y-140060121D01*
X125067024Y-140070045D01*
X125026862Y-140074000D01*
X123639138Y-140074000D01*
X123598976Y-140070045D01*
X123566264Y-140060121D01*
X123536110Y-140044003D01*
X123509684Y-140022316D01*
X123487997Y-139995890D01*
X123471879Y-139965736D01*
X123461955Y-139933024D01*
X123458000Y-139892862D01*
X123458000Y-139005138D01*
X123461955Y-138964976D01*
X123471879Y-138932264D01*
X123487997Y-138902110D01*
X123509684Y-138875684D01*
X123536110Y-138853997D01*
X123566264Y-138837879D01*
X123598976Y-138827955D01*
X123639138Y-138824000D01*
X125026862Y-138824000D01*
X125067024Y-138827955D01*
X125067024Y-138827955D01*
G37*
G36*
X125067024Y-136027955D02*
X125099736Y-136037879D01*
X125129890Y-136053997D01*
X125156316Y-136075684D01*
X125178003Y-136102110D01*
X125194121Y-136132264D01*
X125204045Y-136164976D01*
X125208000Y-136205138D01*
X125208000Y-137092862D01*
X125204045Y-137133024D01*
X125194121Y-137165736D01*
X125178003Y-137195890D01*
X125156316Y-137222316D01*
X125129890Y-137244003D01*
X125099736Y-137260121D01*
X125067024Y-137270045D01*
X125026862Y-137274000D01*
X123639138Y-137274000D01*
X123598976Y-137270045D01*
X123566264Y-137260121D01*
X123536110Y-137244003D01*
X123509684Y-137222316D01*
X123487997Y-137195890D01*
X123471879Y-137165736D01*
X123461955Y-137133024D01*
X123458000Y-137092862D01*
X123458000Y-136205138D01*
X123461955Y-136164976D01*
X123471879Y-136132264D01*
X123487997Y-136102110D01*
X123509684Y-136075684D01*
X123536110Y-136053997D01*
X123566264Y-136037879D01*
X123598976Y-136027955D01*
X123639138Y-136024000D01*
X125026862Y-136024000D01*
X125067024Y-136027955D01*
X125067024Y-136027955D01*
G37*
G36*
X80782190Y-134678400D02*
X80884934Y-134688519D01*
X81016761Y-134728508D01*
X81082676Y-134748503D01*
X81180085Y-134800570D01*
X81264914Y-134845912D01*
X81424648Y-134977002D01*
X81555737Y-135136735D01*
X81653147Y-135318974D01*
X81666561Y-135363196D01*
X81713131Y-135516716D01*
X81733385Y-135722360D01*
X81713131Y-135928004D01*
X81684011Y-136024000D01*
X81653147Y-136125746D01*
X81601080Y-136223155D01*
X81555738Y-136307984D01*
X81424648Y-136467718D01*
X81264914Y-136598808D01*
X81208053Y-136629201D01*
X81082676Y-136696217D01*
X81016761Y-136716212D01*
X80884934Y-136756201D01*
X80782190Y-136766320D01*
X80730819Y-136771380D01*
X78527181Y-136771380D01*
X78475810Y-136766320D01*
X78373066Y-136756201D01*
X78241239Y-136716212D01*
X78175324Y-136696217D01*
X78049947Y-136629201D01*
X77993086Y-136598808D01*
X77833352Y-136467718D01*
X77702262Y-136307984D01*
X77656920Y-136223155D01*
X77604853Y-136125746D01*
X77573989Y-136024000D01*
X77544869Y-135928004D01*
X77524615Y-135722360D01*
X77544869Y-135516716D01*
X77591439Y-135363196D01*
X77604853Y-135318974D01*
X77702263Y-135136735D01*
X77833352Y-134977002D01*
X77993086Y-134845912D01*
X78077915Y-134800570D01*
X78175324Y-134748503D01*
X78241239Y-134728508D01*
X78373066Y-134688519D01*
X78475810Y-134678400D01*
X78527181Y-134673340D01*
X80730819Y-134673340D01*
X80782190Y-134678400D01*
X80782190Y-134678400D01*
G37*
G36*
X134630190Y-134551400D02*
X134732934Y-134561519D01*
X134864761Y-134601508D01*
X134930676Y-134621503D01*
X135027655Y-134673340D01*
X135112914Y-134718912D01*
X135112916Y-134718913D01*
X135112915Y-134718913D01*
X135272648Y-134850002D01*
X135403737Y-135009735D01*
X135501147Y-135191974D01*
X135511779Y-135227024D01*
X135561131Y-135389716D01*
X135581385Y-135595360D01*
X135561131Y-135801004D01*
X135522607Y-135928002D01*
X135501147Y-135998746D01*
X135477476Y-136043030D01*
X135403738Y-136180984D01*
X135272648Y-136340718D01*
X135112914Y-136471808D01*
X135028085Y-136517150D01*
X134930676Y-136569217D01*
X134864761Y-136589212D01*
X134732934Y-136629201D01*
X134630190Y-136639320D01*
X134578819Y-136644380D01*
X132375181Y-136644380D01*
X132323810Y-136639320D01*
X132221066Y-136629201D01*
X132089239Y-136589212D01*
X132023324Y-136569217D01*
X131925915Y-136517150D01*
X131841086Y-136471808D01*
X131681352Y-136340718D01*
X131550262Y-136180984D01*
X131476524Y-136043030D01*
X131452853Y-135998746D01*
X131431393Y-135928002D01*
X131392869Y-135801004D01*
X131372615Y-135595360D01*
X131392869Y-135389716D01*
X131442221Y-135227024D01*
X131452853Y-135191974D01*
X131550263Y-135009735D01*
X131681352Y-134850002D01*
X131841085Y-134718913D01*
X131841084Y-134718913D01*
X131841086Y-134718912D01*
X131926345Y-134673340D01*
X132023324Y-134621503D01*
X132089239Y-134601508D01*
X132221066Y-134561519D01*
X132323810Y-134551400D01*
X132375181Y-134546340D01*
X134578819Y-134546340D01*
X134630190Y-134551400D01*
X134630190Y-134551400D01*
G37*
G36*
X101422200Y-135610600D02*
X101066600Y-135610600D01*
X101066600Y-134137400D01*
X101422200Y-134137400D01*
X101422200Y-135610600D01*
X101422200Y-135610600D01*
G37*
G36*
X100761800Y-135610600D02*
X100406200Y-135610600D01*
X100406200Y-134137400D01*
X100761800Y-134137400D01*
X100761800Y-135610600D01*
X100761800Y-135610600D01*
G37*
G36*
X104673400Y-135610600D02*
X104317800Y-135610600D01*
X104317800Y-134137400D01*
X104673400Y-134137400D01*
X104673400Y-135610600D01*
X104673400Y-135610600D01*
G37*
G36*
X104013000Y-135610600D02*
X103657400Y-135610600D01*
X103657400Y-134137400D01*
X104013000Y-134137400D01*
X104013000Y-135610600D01*
X104013000Y-135610600D01*
G37*
G36*
X102717600Y-135610600D02*
X102362000Y-135610600D01*
X102362000Y-134137400D01*
X102717600Y-134137400D01*
X102717600Y-135610600D01*
X102717600Y-135610600D01*
G37*
G36*
X105333800Y-135610600D02*
X104978200Y-135610600D01*
X104978200Y-134137400D01*
X105333800Y-134137400D01*
X105333800Y-135610600D01*
X105333800Y-135610600D01*
G37*
G36*
X102082600Y-135610600D02*
X101727000Y-135610600D01*
X101727000Y-134137400D01*
X102082600Y-134137400D01*
X102082600Y-135610600D01*
X102082600Y-135610600D01*
G37*
G36*
X103378000Y-135610600D02*
X103022400Y-135610600D01*
X103022400Y-134137400D01*
X103378000Y-134137400D01*
X103378000Y-135610600D01*
X103378000Y-135610600D01*
G37*
G36*
X98731000Y-135547000D02*
X96131000Y-135547000D01*
X96131000Y-133947000D01*
X98731000Y-133947000D01*
X98731000Y-135547000D01*
X98731000Y-135547000D01*
G37*
G36*
X95131000Y-135547000D02*
X92531000Y-135547000D01*
X92531000Y-133947000D01*
X95131000Y-133947000D01*
X95131000Y-135547000D01*
X95131000Y-135547000D01*
G37*
G36*
X113898024Y-133621955D02*
X113930736Y-133631879D01*
X113960890Y-133647997D01*
X113987316Y-133669684D01*
X114009003Y-133696110D01*
X114025121Y-133726264D01*
X114035045Y-133758976D01*
X114039000Y-133799138D01*
X114039000Y-135186862D01*
X114035045Y-135227024D01*
X114025121Y-135259736D01*
X114009003Y-135289890D01*
X113987316Y-135316316D01*
X113960890Y-135338003D01*
X113930736Y-135354121D01*
X113898024Y-135364045D01*
X113857862Y-135368000D01*
X112970138Y-135368000D01*
X112929976Y-135364045D01*
X112897264Y-135354121D01*
X112867110Y-135338003D01*
X112840684Y-135316316D01*
X112818997Y-135289890D01*
X112802879Y-135259736D01*
X112792955Y-135227024D01*
X112789000Y-135186862D01*
X112789000Y-133799138D01*
X112792955Y-133758976D01*
X112802879Y-133726264D01*
X112818997Y-133696110D01*
X112840684Y-133669684D01*
X112867110Y-133647997D01*
X112897264Y-133631879D01*
X112929976Y-133621955D01*
X112970138Y-133618000D01*
X113857862Y-133618000D01*
X113898024Y-133621955D01*
X113898024Y-133621955D01*
G37*
G36*
X111098024Y-133621955D02*
X111130736Y-133631879D01*
X111160890Y-133647997D01*
X111187316Y-133669684D01*
X111209003Y-133696110D01*
X111225121Y-133726264D01*
X111235045Y-133758976D01*
X111239000Y-133799138D01*
X111239000Y-135186862D01*
X111235045Y-135227024D01*
X111225121Y-135259736D01*
X111209003Y-135289890D01*
X111187316Y-135316316D01*
X111160890Y-135338003D01*
X111130736Y-135354121D01*
X111098024Y-135364045D01*
X111057862Y-135368000D01*
X110170138Y-135368000D01*
X110129976Y-135364045D01*
X110097264Y-135354121D01*
X110067110Y-135338003D01*
X110040684Y-135316316D01*
X110018997Y-135289890D01*
X110002879Y-135259736D01*
X109992955Y-135227024D01*
X109989000Y-135186862D01*
X109989000Y-133799138D01*
X109992955Y-133758976D01*
X110002879Y-133726264D01*
X110018997Y-133696110D01*
X110040684Y-133669684D01*
X110067110Y-133647997D01*
X110097264Y-133631879D01*
X110129976Y-133621955D01*
X110170138Y-133618000D01*
X111057862Y-133618000D01*
X111098024Y-133621955D01*
X111098024Y-133621955D01*
G37*
G36*
X122226000Y-135293000D02*
X119626000Y-135293000D01*
X119626000Y-133693000D01*
X122226000Y-133693000D01*
X122226000Y-135293000D01*
X122226000Y-135293000D01*
G37*
G36*
X118626000Y-135293000D02*
X116026000Y-135293000D01*
X116026000Y-133693000D01*
X118626000Y-133693000D01*
X118626000Y-135293000D01*
X118626000Y-135293000D01*
G37*
G36*
X80782190Y-129679680D02*
X80884934Y-129689799D01*
X81016761Y-129729788D01*
X81082676Y-129749783D01*
X81180085Y-129801850D01*
X81264914Y-129847192D01*
X81424648Y-129978282D01*
X81555737Y-130138015D01*
X81653147Y-130320254D01*
X81653147Y-130320255D01*
X81713131Y-130517996D01*
X81733385Y-130723640D01*
X81713131Y-130929284D01*
X81673142Y-131061111D01*
X81653147Y-131127026D01*
X81623621Y-131182264D01*
X81555738Y-131309264D01*
X81424648Y-131468998D01*
X81264914Y-131600088D01*
X81208053Y-131630481D01*
X81082676Y-131697497D01*
X81016761Y-131717492D01*
X80884934Y-131757481D01*
X80782190Y-131767600D01*
X80730819Y-131772660D01*
X78527181Y-131772660D01*
X78475810Y-131767600D01*
X78373066Y-131757481D01*
X78241239Y-131717492D01*
X78175324Y-131697497D01*
X78049947Y-131630481D01*
X77993086Y-131600088D01*
X77833352Y-131468998D01*
X77702262Y-131309264D01*
X77634379Y-131182264D01*
X77604853Y-131127026D01*
X77584858Y-131061111D01*
X77544869Y-130929284D01*
X77524615Y-130723640D01*
X77544869Y-130517996D01*
X77604853Y-130320255D01*
X77604853Y-130320254D01*
X77702263Y-130138015D01*
X77833352Y-129978282D01*
X77993086Y-129847192D01*
X78077915Y-129801850D01*
X78175324Y-129749783D01*
X78241239Y-129729788D01*
X78373066Y-129689799D01*
X78475810Y-129679680D01*
X78527181Y-129674620D01*
X80730819Y-129674620D01*
X80782190Y-129679680D01*
X80782190Y-129679680D01*
G37*
G36*
X134630190Y-129552680D02*
X134732934Y-129562799D01*
X134864761Y-129602788D01*
X134930676Y-129622783D01*
X135027655Y-129674620D01*
X135112914Y-129720192D01*
X135112916Y-129720193D01*
X135112915Y-129720193D01*
X135272648Y-129851282D01*
X135403737Y-130011015D01*
X135501147Y-130193254D01*
X135501147Y-130193255D01*
X135561131Y-130390996D01*
X135581385Y-130596640D01*
X135561131Y-130802284D01*
X135522607Y-130929282D01*
X135501147Y-131000026D01*
X135449080Y-131097435D01*
X135403738Y-131182264D01*
X135272648Y-131341998D01*
X135112914Y-131473088D01*
X135028085Y-131518430D01*
X134930676Y-131570497D01*
X134864761Y-131590492D01*
X134732934Y-131630481D01*
X134630190Y-131640600D01*
X134578819Y-131645660D01*
X132375181Y-131645660D01*
X132323810Y-131640600D01*
X132221066Y-131630481D01*
X132089239Y-131590492D01*
X132023324Y-131570497D01*
X131925915Y-131518430D01*
X131841086Y-131473088D01*
X131681352Y-131341998D01*
X131550262Y-131182264D01*
X131504920Y-131097435D01*
X131452853Y-131000026D01*
X131431393Y-130929282D01*
X131392869Y-130802284D01*
X131372615Y-130596640D01*
X131392869Y-130390996D01*
X131452853Y-130193255D01*
X131452853Y-130193254D01*
X131550263Y-130011015D01*
X131681352Y-129851282D01*
X131841085Y-129720193D01*
X131841084Y-129720193D01*
X131841086Y-129720192D01*
X131926345Y-129674620D01*
X132023324Y-129622783D01*
X132089239Y-129602788D01*
X132221066Y-129562799D01*
X132323810Y-129552680D01*
X132375181Y-129547620D01*
X134578819Y-129547620D01*
X134630190Y-129552680D01*
X134630190Y-129552680D01*
G37*
G36*
X90620000Y-130038000D02*
X88870000Y-130038000D01*
X88870000Y-122438000D01*
X90620000Y-122438000D01*
X90620000Y-130038000D01*
X90620000Y-130038000D01*
G37*
G36*
X97820000Y-130038000D02*
X96070000Y-130038000D01*
X96070000Y-122438000D01*
X97820000Y-122438000D01*
X97820000Y-130038000D01*
X97820000Y-130038000D01*
G37*
G36*
X120426000Y-129784000D02*
X118676000Y-129784000D01*
X118676000Y-122184000D01*
X120426000Y-122184000D01*
X120426000Y-129784000D01*
X120426000Y-129784000D01*
G37*
G36*
X113226000Y-129784000D02*
X111476000Y-129784000D01*
X111476000Y-122184000D01*
X113226000Y-122184000D01*
X113226000Y-129784000D01*
X113226000Y-129784000D01*
G37*
G36*
X108305600Y-128447800D02*
X106832400Y-128447800D01*
X106832400Y-128092200D01*
X108305600Y-128092200D01*
X108305600Y-128447800D01*
X108305600Y-128447800D01*
G37*
G36*
X102463600Y-128447800D02*
X100990400Y-128447800D01*
X100990400Y-128092200D01*
X102463600Y-128092200D01*
X102463600Y-128447800D01*
X102463600Y-128447800D01*
G37*
G36*
X102463600Y-127787400D02*
X100990400Y-127787400D01*
X100990400Y-127431800D01*
X102463600Y-127431800D01*
X102463600Y-127787400D01*
X102463600Y-127787400D01*
G37*
G36*
X108305600Y-127787400D02*
X106832400Y-127787400D01*
X106832400Y-127431800D01*
X108305600Y-127431800D01*
X108305600Y-127787400D01*
X108305600Y-127787400D01*
G37*
G36*
X108305600Y-127127000D02*
X106832400Y-127127000D01*
X106832400Y-126771400D01*
X108305600Y-126771400D01*
X108305600Y-127127000D01*
X108305600Y-127127000D01*
G37*
G36*
X102463600Y-127127000D02*
X100990400Y-127127000D01*
X100990400Y-126771400D01*
X102463600Y-126771400D01*
X102463600Y-127127000D01*
X102463600Y-127127000D01*
G37*
G36*
X102463600Y-126492000D02*
X100990400Y-126492000D01*
X100990400Y-126136400D01*
X102463600Y-126136400D01*
X102463600Y-126492000D01*
X102463600Y-126492000D01*
G37*
G36*
X108305600Y-126492000D02*
X106832400Y-126492000D01*
X106832400Y-126136400D01*
X108305600Y-126136400D01*
X108305600Y-126492000D01*
X108305600Y-126492000D01*
G37*
G36*
X108305600Y-125831600D02*
X106832400Y-125831600D01*
X106832400Y-125476000D01*
X108305600Y-125476000D01*
X108305600Y-125831600D01*
X108305600Y-125831600D01*
G37*
G36*
X102463600Y-125831600D02*
X100990400Y-125831600D01*
X100990400Y-125476000D01*
X102463600Y-125476000D01*
X102463600Y-125831600D01*
X102463600Y-125831600D01*
G37*
G36*
X134630190Y-123375400D02*
X134732934Y-123385519D01*
X134864761Y-123425508D01*
X134930676Y-123445503D01*
X135002698Y-123484000D01*
X135112914Y-123542912D01*
X135272648Y-123674002D01*
X135403738Y-123833736D01*
X135449080Y-123918565D01*
X135501147Y-124015974D01*
X135521142Y-124081889D01*
X135561131Y-124213716D01*
X135581385Y-124419360D01*
X135561131Y-124625004D01*
X135521142Y-124756831D01*
X135501147Y-124822746D01*
X135449080Y-124920155D01*
X135403738Y-125004984D01*
X135272648Y-125164718D01*
X135112914Y-125295808D01*
X135028085Y-125341150D01*
X134930676Y-125393217D01*
X134864761Y-125413212D01*
X134732934Y-125453201D01*
X134630190Y-125463320D01*
X134578819Y-125468380D01*
X132375181Y-125468380D01*
X132323810Y-125463320D01*
X132221066Y-125453201D01*
X132089239Y-125413212D01*
X132023324Y-125393217D01*
X131925915Y-125341150D01*
X131841086Y-125295808D01*
X131681352Y-125164718D01*
X131550262Y-125004984D01*
X131504920Y-124920155D01*
X131452853Y-124822746D01*
X131432858Y-124756831D01*
X131392869Y-124625004D01*
X131372615Y-124419360D01*
X131392869Y-124213716D01*
X131432858Y-124081889D01*
X131452853Y-124015974D01*
X131504920Y-123918565D01*
X131550262Y-123833736D01*
X131681352Y-123674002D01*
X131841086Y-123542912D01*
X131951302Y-123484000D01*
X132023324Y-123445503D01*
X132089239Y-123425508D01*
X132221066Y-123385519D01*
X132323810Y-123375400D01*
X132375181Y-123370340D01*
X134578819Y-123370340D01*
X134630190Y-123375400D01*
X134630190Y-123375400D01*
G37*
G36*
X80782190Y-123375400D02*
X80884934Y-123385519D01*
X81016761Y-123425508D01*
X81082676Y-123445503D01*
X81154698Y-123484000D01*
X81264914Y-123542912D01*
X81424648Y-123674002D01*
X81555738Y-123833736D01*
X81601080Y-123918565D01*
X81653147Y-124015974D01*
X81673142Y-124081889D01*
X81713131Y-124213716D01*
X81733385Y-124419360D01*
X81713131Y-124625004D01*
X81673142Y-124756831D01*
X81653147Y-124822746D01*
X81601080Y-124920155D01*
X81555738Y-125004984D01*
X81424648Y-125164718D01*
X81264914Y-125295808D01*
X81180085Y-125341150D01*
X81082676Y-125393217D01*
X81016761Y-125413212D01*
X80884934Y-125453201D01*
X80782190Y-125463320D01*
X80730819Y-125468380D01*
X78527181Y-125468380D01*
X78475810Y-125463320D01*
X78373066Y-125453201D01*
X78241239Y-125413212D01*
X78175324Y-125393217D01*
X78077915Y-125341150D01*
X77993086Y-125295808D01*
X77833352Y-125164718D01*
X77702262Y-125004984D01*
X77656920Y-124920155D01*
X77604853Y-124822746D01*
X77584858Y-124756831D01*
X77544869Y-124625004D01*
X77524615Y-124419360D01*
X77544869Y-124213716D01*
X77584858Y-124081889D01*
X77604853Y-124015974D01*
X77656920Y-123918565D01*
X77702262Y-123833736D01*
X77833352Y-123674002D01*
X77993086Y-123542912D01*
X78103302Y-123484000D01*
X78175324Y-123445503D01*
X78241239Y-123425508D01*
X78373066Y-123385519D01*
X78475810Y-123375400D01*
X78527181Y-123370340D01*
X80730819Y-123370340D01*
X80782190Y-123375400D01*
X80782190Y-123375400D01*
G37*
G36*
X102463600Y-125196600D02*
X100990400Y-125196600D01*
X100990400Y-124841000D01*
X102463600Y-124841000D01*
X102463600Y-125196600D01*
X102463600Y-125196600D01*
G37*
G36*
X108305600Y-125196600D02*
X106832400Y-125196600D01*
X106832400Y-124841000D01*
X108305600Y-124841000D01*
X108305600Y-125196600D01*
X108305600Y-125196600D01*
G37*
G36*
X108305600Y-124536200D02*
X106832400Y-124536200D01*
X106832400Y-124180600D01*
X108305600Y-124180600D01*
X108305600Y-124536200D01*
X108305600Y-124536200D01*
G37*
G36*
X102463600Y-124536200D02*
X100990400Y-124536200D01*
X100990400Y-124180600D01*
X102463600Y-124180600D01*
X102463600Y-124536200D01*
X102463600Y-124536200D01*
G37*
G36*
X125067024Y-122952955D02*
X125099736Y-122962879D01*
X125129890Y-122978997D01*
X125156316Y-123000684D01*
X125178003Y-123027110D01*
X125194121Y-123057264D01*
X125204045Y-123089976D01*
X125208000Y-123130138D01*
X125208000Y-124017862D01*
X125204045Y-124058024D01*
X125194121Y-124090736D01*
X125178003Y-124120890D01*
X125156316Y-124147316D01*
X125129890Y-124169003D01*
X125099736Y-124185121D01*
X125067024Y-124195045D01*
X125026862Y-124199000D01*
X123639138Y-124199000D01*
X123598976Y-124195045D01*
X123566264Y-124185121D01*
X123536110Y-124169003D01*
X123509684Y-124147316D01*
X123487997Y-124120890D01*
X123471879Y-124090736D01*
X123461955Y-124058024D01*
X123458000Y-124017862D01*
X123458000Y-123130138D01*
X123461955Y-123089976D01*
X123471879Y-123057264D01*
X123487997Y-123027110D01*
X123509684Y-123000684D01*
X123536110Y-122978997D01*
X123566264Y-122962879D01*
X123598976Y-122952955D01*
X123639138Y-122949000D01*
X125026862Y-122949000D01*
X125067024Y-122952955D01*
X125067024Y-122952955D01*
G37*
G36*
X108305600Y-123875800D02*
X106832400Y-123875800D01*
X106832400Y-123520200D01*
X108305600Y-123520200D01*
X108305600Y-123875800D01*
X108305600Y-123875800D01*
G37*
G36*
X102463600Y-123875800D02*
X100990400Y-123875800D01*
X100990400Y-123520200D01*
X102463600Y-123520200D01*
X102463600Y-123875800D01*
X102463600Y-123875800D01*
G37*
G36*
X103859024Y-120413955D02*
X103891736Y-120423879D01*
X103921890Y-120439997D01*
X103948316Y-120461684D01*
X103970003Y-120488110D01*
X103986121Y-120518264D01*
X103996045Y-120550976D01*
X104000000Y-120591138D01*
X104000000Y-121978862D01*
X103996045Y-122019024D01*
X103986121Y-122051736D01*
X103970003Y-122081890D01*
X103948316Y-122108316D01*
X103921890Y-122130003D01*
X103891736Y-122146121D01*
X103859024Y-122156045D01*
X103818862Y-122160000D01*
X102931138Y-122160000D01*
X102890976Y-122156045D01*
X102858264Y-122146121D01*
X102828110Y-122130003D01*
X102801684Y-122108316D01*
X102779997Y-122081890D01*
X102763879Y-122051736D01*
X102753955Y-122019024D01*
X102750000Y-121978862D01*
X102750000Y-120591138D01*
X102753955Y-120550976D01*
X102763879Y-120518264D01*
X102779997Y-120488110D01*
X102801684Y-120461684D01*
X102828110Y-120439997D01*
X102858264Y-120423879D01*
X102890976Y-120413955D01*
X102931138Y-120410000D01*
X103818862Y-120410000D01*
X103859024Y-120413955D01*
X103859024Y-120413955D01*
G37*
G36*
X106659024Y-120413955D02*
X106691736Y-120423879D01*
X106721890Y-120439997D01*
X106748316Y-120461684D01*
X106770003Y-120488110D01*
X106786121Y-120518264D01*
X106796045Y-120550976D01*
X106800000Y-120591138D01*
X106800000Y-121978862D01*
X106796045Y-122019024D01*
X106786121Y-122051736D01*
X106770003Y-122081890D01*
X106748316Y-122108316D01*
X106721890Y-122130003D01*
X106691736Y-122146121D01*
X106659024Y-122156045D01*
X106618862Y-122160000D01*
X105731138Y-122160000D01*
X105690976Y-122156045D01*
X105658264Y-122146121D01*
X105628110Y-122130003D01*
X105601684Y-122108316D01*
X105579997Y-122081890D01*
X105563879Y-122051736D01*
X105553955Y-122019024D01*
X105550000Y-121978862D01*
X105550000Y-120591138D01*
X105553955Y-120550976D01*
X105563879Y-120518264D01*
X105579997Y-120488110D01*
X105601684Y-120461684D01*
X105628110Y-120439997D01*
X105658264Y-120423879D01*
X105690976Y-120413955D01*
X105731138Y-120410000D01*
X106618862Y-120410000D01*
X106659024Y-120413955D01*
X106659024Y-120413955D01*
G37*
G36*
X125067024Y-120152955D02*
X125099736Y-120162879D01*
X125129890Y-120178997D01*
X125156316Y-120200684D01*
X125178003Y-120227110D01*
X125194121Y-120257264D01*
X125204045Y-120289976D01*
X125208000Y-120330138D01*
X125208000Y-121217862D01*
X125204045Y-121258024D01*
X125194121Y-121290736D01*
X125178003Y-121320890D01*
X125156316Y-121347316D01*
X125129890Y-121369003D01*
X125099736Y-121385121D01*
X125067024Y-121395045D01*
X125026862Y-121399000D01*
X123639138Y-121399000D01*
X123598976Y-121395045D01*
X123566264Y-121385121D01*
X123536110Y-121369003D01*
X123509684Y-121347316D01*
X123487997Y-121320890D01*
X123471879Y-121290736D01*
X123461955Y-121258024D01*
X123458000Y-121217862D01*
X123458000Y-120330138D01*
X123461955Y-120289976D01*
X123471879Y-120257264D01*
X123487997Y-120227110D01*
X123509684Y-120200684D01*
X123536110Y-120178997D01*
X123566264Y-120162879D01*
X123598976Y-120152955D01*
X123639138Y-120149000D01*
X125026862Y-120149000D01*
X125067024Y-120152955D01*
X125067024Y-120152955D01*
G37*
G36*
X134630190Y-118376680D02*
X134732934Y-118386799D01*
X134864761Y-118426788D01*
X134930676Y-118446783D01*
X135028085Y-118498850D01*
X135112914Y-118544192D01*
X135272648Y-118675282D01*
X135403738Y-118835016D01*
X135449080Y-118919845D01*
X135501147Y-119017254D01*
X135501147Y-119017255D01*
X135561131Y-119214996D01*
X135581385Y-119420640D01*
X135561131Y-119626284D01*
X135525712Y-119743045D01*
X135501147Y-119824026D01*
X135449080Y-119921435D01*
X135403738Y-120006264D01*
X135272648Y-120165998D01*
X135112914Y-120297088D01*
X135100188Y-120303890D01*
X134930676Y-120394497D01*
X134864761Y-120414492D01*
X134732934Y-120454481D01*
X134659800Y-120461684D01*
X134578819Y-120469660D01*
X132375181Y-120469660D01*
X132294200Y-120461684D01*
X132221066Y-120454481D01*
X132089239Y-120414492D01*
X132023324Y-120394497D01*
X131853812Y-120303890D01*
X131841086Y-120297088D01*
X131681352Y-120165998D01*
X131550262Y-120006264D01*
X131504920Y-119921435D01*
X131452853Y-119824026D01*
X131428288Y-119743045D01*
X131392869Y-119626284D01*
X131372615Y-119420640D01*
X131392869Y-119214996D01*
X131452853Y-119017255D01*
X131452853Y-119017254D01*
X131504920Y-118919845D01*
X131550262Y-118835016D01*
X131681352Y-118675282D01*
X131841086Y-118544192D01*
X131925915Y-118498850D01*
X132023324Y-118446783D01*
X132089239Y-118426788D01*
X132221066Y-118386799D01*
X132323810Y-118376680D01*
X132375181Y-118371620D01*
X134578819Y-118371620D01*
X134630190Y-118376680D01*
X134630190Y-118376680D01*
G37*
G36*
X80782190Y-118376680D02*
X80884934Y-118386799D01*
X81016761Y-118426788D01*
X81082676Y-118446783D01*
X81180085Y-118498850D01*
X81264914Y-118544192D01*
X81424648Y-118675282D01*
X81555738Y-118835016D01*
X81601080Y-118919845D01*
X81653147Y-119017254D01*
X81653147Y-119017255D01*
X81713131Y-119214996D01*
X81733385Y-119420640D01*
X81713131Y-119626284D01*
X81677712Y-119743045D01*
X81653147Y-119824026D01*
X81601080Y-119921435D01*
X81555738Y-120006264D01*
X81424648Y-120165998D01*
X81264914Y-120297088D01*
X81252188Y-120303890D01*
X81082676Y-120394497D01*
X81016761Y-120414492D01*
X80884934Y-120454481D01*
X80811800Y-120461684D01*
X80730819Y-120469660D01*
X78527181Y-120469660D01*
X78446200Y-120461684D01*
X78373066Y-120454481D01*
X78241239Y-120414492D01*
X78175324Y-120394497D01*
X78005812Y-120303890D01*
X77993086Y-120297088D01*
X77833352Y-120165998D01*
X77702262Y-120006264D01*
X77656920Y-119921435D01*
X77604853Y-119824026D01*
X77580288Y-119743045D01*
X77544869Y-119626284D01*
X77524615Y-119420640D01*
X77544869Y-119214996D01*
X77604853Y-119017255D01*
X77604853Y-119017254D01*
X77656920Y-118919845D01*
X77702262Y-118835016D01*
X77833352Y-118675282D01*
X77993086Y-118544192D01*
X78077915Y-118498850D01*
X78175324Y-118446783D01*
X78241239Y-118426788D01*
X78373066Y-118386799D01*
X78475810Y-118376680D01*
X78527181Y-118371620D01*
X80730819Y-118371620D01*
X80782190Y-118376680D01*
X80782190Y-118376680D01*
G37*
G36*
X95356024Y-118635955D02*
X95388736Y-118645879D01*
X95418890Y-118661997D01*
X95445316Y-118683684D01*
X95467003Y-118710110D01*
X95483121Y-118740264D01*
X95493045Y-118772976D01*
X95497000Y-118813138D01*
X95497000Y-120200862D01*
X95493045Y-120241024D01*
X95483121Y-120273736D01*
X95467003Y-120303890D01*
X95445316Y-120330316D01*
X95418890Y-120352003D01*
X95388736Y-120368121D01*
X95356024Y-120378045D01*
X95315862Y-120382000D01*
X94428138Y-120382000D01*
X94387976Y-120378045D01*
X94355264Y-120368121D01*
X94325110Y-120352003D01*
X94298684Y-120330316D01*
X94276997Y-120303890D01*
X94260879Y-120273736D01*
X94250955Y-120241024D01*
X94247000Y-120200862D01*
X94247000Y-118813138D01*
X94250955Y-118772976D01*
X94260879Y-118740264D01*
X94276997Y-118710110D01*
X94298684Y-118683684D01*
X94325110Y-118661997D01*
X94355264Y-118645879D01*
X94387976Y-118635955D01*
X94428138Y-118632000D01*
X95315862Y-118632000D01*
X95356024Y-118635955D01*
X95356024Y-118635955D01*
G37*
G36*
X92556024Y-118635955D02*
X92588736Y-118645879D01*
X92618890Y-118661997D01*
X92645316Y-118683684D01*
X92667003Y-118710110D01*
X92683121Y-118740264D01*
X92693045Y-118772976D01*
X92697000Y-118813138D01*
X92697000Y-120200862D01*
X92693045Y-120241024D01*
X92683121Y-120273736D01*
X92667003Y-120303890D01*
X92645316Y-120330316D01*
X92618890Y-120352003D01*
X92588736Y-120368121D01*
X92556024Y-120378045D01*
X92515862Y-120382000D01*
X91628138Y-120382000D01*
X91587976Y-120378045D01*
X91555264Y-120368121D01*
X91525110Y-120352003D01*
X91498684Y-120330316D01*
X91476997Y-120303890D01*
X91460879Y-120273736D01*
X91450955Y-120241024D01*
X91447000Y-120200862D01*
X91447000Y-118813138D01*
X91450955Y-118772976D01*
X91460879Y-118740264D01*
X91476997Y-118710110D01*
X91498684Y-118683684D01*
X91525110Y-118661997D01*
X91555264Y-118645879D01*
X91587976Y-118635955D01*
X91628138Y-118632000D01*
X92515862Y-118632000D01*
X92556024Y-118635955D01*
X92556024Y-118635955D01*
G37*
G36*
X89380024Y-118507955D02*
X89412736Y-118517879D01*
X89442890Y-118533997D01*
X89469316Y-118555684D01*
X89491003Y-118582110D01*
X89507121Y-118612264D01*
X89517045Y-118644976D01*
X89521000Y-118685138D01*
X89521000Y-119572862D01*
X89517045Y-119613024D01*
X89507121Y-119645736D01*
X89491003Y-119675890D01*
X89469316Y-119702316D01*
X89442890Y-119724003D01*
X89412736Y-119740121D01*
X89380024Y-119750045D01*
X89339862Y-119754000D01*
X87952138Y-119754000D01*
X87911976Y-119750045D01*
X87879264Y-119740121D01*
X87849110Y-119724003D01*
X87822684Y-119702316D01*
X87800997Y-119675890D01*
X87784879Y-119645736D01*
X87774955Y-119613024D01*
X87771000Y-119572862D01*
X87771000Y-118685138D01*
X87774955Y-118644976D01*
X87784879Y-118612264D01*
X87800997Y-118582110D01*
X87822684Y-118555684D01*
X87849110Y-118533997D01*
X87879264Y-118517879D01*
X87911976Y-118507955D01*
X87952138Y-118504000D01*
X89339862Y-118504000D01*
X89380024Y-118507955D01*
X89380024Y-118507955D01*
G37*
G36*
X112749024Y-118000955D02*
X112781736Y-118010879D01*
X112811890Y-118026997D01*
X112838316Y-118048684D01*
X112860003Y-118075110D01*
X112876121Y-118105264D01*
X112886045Y-118137976D01*
X112890000Y-118178138D01*
X112890000Y-119565862D01*
X112886045Y-119606024D01*
X112876121Y-119638736D01*
X112860003Y-119668890D01*
X112838316Y-119695316D01*
X112811890Y-119717003D01*
X112781736Y-119733121D01*
X112749024Y-119743045D01*
X112708862Y-119747000D01*
X111821138Y-119747000D01*
X111780976Y-119743045D01*
X111748264Y-119733121D01*
X111718110Y-119717003D01*
X111691684Y-119695316D01*
X111669997Y-119668890D01*
X111653879Y-119638736D01*
X111643955Y-119606024D01*
X111640000Y-119565862D01*
X111640000Y-118178138D01*
X111643955Y-118137976D01*
X111653879Y-118105264D01*
X111669997Y-118075110D01*
X111691684Y-118048684D01*
X111718110Y-118026997D01*
X111748264Y-118010879D01*
X111780976Y-118000955D01*
X111821138Y-117997000D01*
X112708862Y-117997000D01*
X112749024Y-118000955D01*
X112749024Y-118000955D01*
G37*
G36*
X115549024Y-118000955D02*
X115581736Y-118010879D01*
X115611890Y-118026997D01*
X115638316Y-118048684D01*
X115660003Y-118075110D01*
X115676121Y-118105264D01*
X115686045Y-118137976D01*
X115690000Y-118178138D01*
X115690000Y-119565862D01*
X115686045Y-119606024D01*
X115676121Y-119638736D01*
X115660003Y-119668890D01*
X115638316Y-119695316D01*
X115611890Y-119717003D01*
X115581736Y-119733121D01*
X115549024Y-119743045D01*
X115508862Y-119747000D01*
X114621138Y-119747000D01*
X114580976Y-119743045D01*
X114548264Y-119733121D01*
X114518110Y-119717003D01*
X114491684Y-119695316D01*
X114469997Y-119668890D01*
X114453879Y-119638736D01*
X114443955Y-119606024D01*
X114440000Y-119565862D01*
X114440000Y-118178138D01*
X114443955Y-118137976D01*
X114453879Y-118105264D01*
X114469997Y-118075110D01*
X114491684Y-118048684D01*
X114518110Y-118026997D01*
X114548264Y-118010879D01*
X114580976Y-118000955D01*
X114621138Y-117997000D01*
X115508862Y-117997000D01*
X115549024Y-118000955D01*
X115549024Y-118000955D01*
G37*
G36*
X106659024Y-116984955D02*
X106691736Y-116994879D01*
X106721890Y-117010997D01*
X106748316Y-117032684D01*
X106770003Y-117059110D01*
X106786121Y-117089264D01*
X106796045Y-117121976D01*
X106800000Y-117162138D01*
X106800000Y-118549862D01*
X106796045Y-118590024D01*
X106786121Y-118622736D01*
X106770003Y-118652890D01*
X106748316Y-118679316D01*
X106721890Y-118701003D01*
X106691736Y-118717121D01*
X106659024Y-118727045D01*
X106618862Y-118731000D01*
X105731138Y-118731000D01*
X105690976Y-118727045D01*
X105658264Y-118717121D01*
X105628110Y-118701003D01*
X105601684Y-118679316D01*
X105579997Y-118652890D01*
X105563879Y-118622736D01*
X105553955Y-118590024D01*
X105550000Y-118549862D01*
X105550000Y-117162138D01*
X105553955Y-117121976D01*
X105563879Y-117089264D01*
X105579997Y-117059110D01*
X105601684Y-117032684D01*
X105628110Y-117010997D01*
X105658264Y-116994879D01*
X105690976Y-116984955D01*
X105731138Y-116981000D01*
X106618862Y-116981000D01*
X106659024Y-116984955D01*
X106659024Y-116984955D01*
G37*
G36*
X103859024Y-116984955D02*
X103891736Y-116994879D01*
X103921890Y-117010997D01*
X103948316Y-117032684D01*
X103970003Y-117059110D01*
X103986121Y-117089264D01*
X103996045Y-117121976D01*
X104000000Y-117162138D01*
X104000000Y-118549862D01*
X103996045Y-118590024D01*
X103986121Y-118622736D01*
X103970003Y-118652890D01*
X103948316Y-118679316D01*
X103921890Y-118701003D01*
X103891736Y-118717121D01*
X103859024Y-118727045D01*
X103818862Y-118731000D01*
X102931138Y-118731000D01*
X102890976Y-118727045D01*
X102858264Y-118717121D01*
X102828110Y-118701003D01*
X102801684Y-118679316D01*
X102779997Y-118652890D01*
X102763879Y-118622736D01*
X102753955Y-118590024D01*
X102750000Y-118549862D01*
X102750000Y-117162138D01*
X102753955Y-117121976D01*
X102763879Y-117089264D01*
X102779997Y-117059110D01*
X102801684Y-117032684D01*
X102828110Y-117010997D01*
X102858264Y-116994879D01*
X102890976Y-116984955D01*
X102931138Y-116981000D01*
X103818862Y-116981000D01*
X103859024Y-116984955D01*
X103859024Y-116984955D01*
G37*
G36*
X125056000Y-118579000D02*
X123356000Y-118579000D01*
X123356000Y-116879000D01*
X125056000Y-116879000D01*
X125056000Y-118579000D01*
X125056000Y-118579000D01*
G37*
G36*
X95356024Y-115333955D02*
X95388736Y-115343879D01*
X95418890Y-115359997D01*
X95445316Y-115381684D01*
X95467003Y-115408110D01*
X95483121Y-115438264D01*
X95493045Y-115470976D01*
X95497000Y-115511138D01*
X95497000Y-116898862D01*
X95493045Y-116939024D01*
X95483121Y-116971736D01*
X95467003Y-117001890D01*
X95445316Y-117028316D01*
X95418890Y-117050003D01*
X95388736Y-117066121D01*
X95356024Y-117076045D01*
X95315862Y-117080000D01*
X94428138Y-117080000D01*
X94387976Y-117076045D01*
X94355264Y-117066121D01*
X94325110Y-117050003D01*
X94298684Y-117028316D01*
X94276997Y-117001890D01*
X94260879Y-116971736D01*
X94250955Y-116939024D01*
X94247000Y-116898862D01*
X94247000Y-115511138D01*
X94250955Y-115470976D01*
X94260879Y-115438264D01*
X94276997Y-115408110D01*
X94298684Y-115381684D01*
X94325110Y-115359997D01*
X94355264Y-115343879D01*
X94387976Y-115333955D01*
X94428138Y-115330000D01*
X95315862Y-115330000D01*
X95356024Y-115333955D01*
X95356024Y-115333955D01*
G37*
G36*
X92556024Y-115333955D02*
X92588736Y-115343879D01*
X92618890Y-115359997D01*
X92645316Y-115381684D01*
X92667003Y-115408110D01*
X92683121Y-115438264D01*
X92693045Y-115470976D01*
X92697000Y-115511138D01*
X92697000Y-116898862D01*
X92693045Y-116939024D01*
X92683121Y-116971736D01*
X92667003Y-117001890D01*
X92645316Y-117028316D01*
X92618890Y-117050003D01*
X92588736Y-117066121D01*
X92556024Y-117076045D01*
X92515862Y-117080000D01*
X91628138Y-117080000D01*
X91587976Y-117076045D01*
X91555264Y-117066121D01*
X91525110Y-117050003D01*
X91498684Y-117028316D01*
X91476997Y-117001890D01*
X91460879Y-116971736D01*
X91450955Y-116939024D01*
X91447000Y-116898862D01*
X91447000Y-115511138D01*
X91450955Y-115470976D01*
X91460879Y-115438264D01*
X91476997Y-115408110D01*
X91498684Y-115381684D01*
X91525110Y-115359997D01*
X91555264Y-115343879D01*
X91587976Y-115333955D01*
X91628138Y-115330000D01*
X92515862Y-115330000D01*
X92556024Y-115333955D01*
X92556024Y-115333955D01*
G37*
G36*
X89380024Y-115707955D02*
X89412736Y-115717879D01*
X89442890Y-115733997D01*
X89469316Y-115755684D01*
X89491003Y-115782110D01*
X89507121Y-115812264D01*
X89517045Y-115844976D01*
X89521000Y-115885138D01*
X89521000Y-116772862D01*
X89517045Y-116813024D01*
X89507121Y-116845736D01*
X89491003Y-116875890D01*
X89469316Y-116902316D01*
X89442890Y-116924003D01*
X89412736Y-116940121D01*
X89380024Y-116950045D01*
X89339862Y-116954000D01*
X87952138Y-116954000D01*
X87911976Y-116950045D01*
X87879264Y-116940121D01*
X87849110Y-116924003D01*
X87822684Y-116902316D01*
X87800997Y-116875890D01*
X87784879Y-116845736D01*
X87774955Y-116813024D01*
X87771000Y-116772862D01*
X87771000Y-115885138D01*
X87774955Y-115844976D01*
X87784879Y-115812264D01*
X87800997Y-115782110D01*
X87822684Y-115755684D01*
X87849110Y-115733997D01*
X87879264Y-115717879D01*
X87911976Y-115707955D01*
X87952138Y-115704000D01*
X89339862Y-115704000D01*
X89380024Y-115707955D01*
X89380024Y-115707955D01*
G37*
G36*
X112749024Y-114952955D02*
X112781736Y-114962879D01*
X112811890Y-114978997D01*
X112838316Y-115000684D01*
X112860003Y-115027110D01*
X112876121Y-115057264D01*
X112886045Y-115089976D01*
X112890000Y-115130138D01*
X112890000Y-116517862D01*
X112886045Y-116558024D01*
X112876121Y-116590736D01*
X112860003Y-116620890D01*
X112838316Y-116647316D01*
X112811890Y-116669003D01*
X112781736Y-116685121D01*
X112749024Y-116695045D01*
X112708862Y-116699000D01*
X111821138Y-116699000D01*
X111780976Y-116695045D01*
X111748264Y-116685121D01*
X111718110Y-116669003D01*
X111691684Y-116647316D01*
X111669997Y-116620890D01*
X111653879Y-116590736D01*
X111643955Y-116558024D01*
X111640000Y-116517862D01*
X111640000Y-115130138D01*
X111643955Y-115089976D01*
X111653879Y-115057264D01*
X111669997Y-115027110D01*
X111691684Y-115000684D01*
X111718110Y-114978997D01*
X111748264Y-114962879D01*
X111780976Y-114952955D01*
X111821138Y-114949000D01*
X112708862Y-114949000D01*
X112749024Y-114952955D01*
X112749024Y-114952955D01*
G37*
G36*
X115549024Y-114952955D02*
X115581736Y-114962879D01*
X115611890Y-114978997D01*
X115638316Y-115000684D01*
X115660003Y-115027110D01*
X115676121Y-115057264D01*
X115686045Y-115089976D01*
X115690000Y-115130138D01*
X115690000Y-116517862D01*
X115686045Y-116558024D01*
X115676121Y-116590736D01*
X115660003Y-116620890D01*
X115638316Y-116647316D01*
X115611890Y-116669003D01*
X115581736Y-116685121D01*
X115549024Y-116695045D01*
X115508862Y-116699000D01*
X114621138Y-116699000D01*
X114580976Y-116695045D01*
X114548264Y-116685121D01*
X114518110Y-116669003D01*
X114491684Y-116647316D01*
X114469997Y-116620890D01*
X114453879Y-116590736D01*
X114443955Y-116558024D01*
X114440000Y-116517862D01*
X114440000Y-115130138D01*
X114443955Y-115089976D01*
X114453879Y-115057264D01*
X114469997Y-115027110D01*
X114491684Y-115000684D01*
X114518110Y-114978997D01*
X114548264Y-114962879D01*
X114580976Y-114952955D01*
X114621138Y-114949000D01*
X115508862Y-114949000D01*
X115549024Y-114952955D01*
X115549024Y-114952955D01*
G37*
G36*
X124372630Y-114351299D02*
X124532855Y-114399903D01*
X124680520Y-114478831D01*
X124809949Y-114585051D01*
X124916169Y-114714480D01*
X124995097Y-114862145D01*
X125043701Y-115022370D01*
X125060112Y-115189000D01*
X125043701Y-115355630D01*
X124995097Y-115515855D01*
X124916169Y-115663520D01*
X124809949Y-115792949D01*
X124680520Y-115899169D01*
X124532855Y-115978097D01*
X124372630Y-116026701D01*
X124247752Y-116039000D01*
X124164248Y-116039000D01*
X124039370Y-116026701D01*
X123879145Y-115978097D01*
X123731480Y-115899169D01*
X123602051Y-115792949D01*
X123495831Y-115663520D01*
X123416903Y-115515855D01*
X123368299Y-115355630D01*
X123351888Y-115189000D01*
X123368299Y-115022370D01*
X123416903Y-114862145D01*
X123495831Y-114714480D01*
X123602051Y-114585051D01*
X123731480Y-114478831D01*
X123879145Y-114399903D01*
X124039370Y-114351299D01*
X124164248Y-114339000D01*
X124247752Y-114339000D01*
X124372630Y-114351299D01*
X124372630Y-114351299D01*
G37*
G36*
X121130024Y-114697955D02*
X121162736Y-114707879D01*
X121192890Y-114723997D01*
X121219316Y-114745684D01*
X121241003Y-114772110D01*
X121257121Y-114802264D01*
X121267045Y-114834976D01*
X121271000Y-114875138D01*
X121271000Y-115762862D01*
X121267045Y-115803024D01*
X121257121Y-115835736D01*
X121241003Y-115865890D01*
X121219316Y-115892316D01*
X121192890Y-115914003D01*
X121162736Y-115930121D01*
X121130024Y-115940045D01*
X121089862Y-115944000D01*
X119702138Y-115944000D01*
X119661976Y-115940045D01*
X119629264Y-115930121D01*
X119599110Y-115914003D01*
X119572684Y-115892316D01*
X119550997Y-115865890D01*
X119534879Y-115835736D01*
X119524955Y-115803024D01*
X119521000Y-115762862D01*
X119521000Y-114875138D01*
X119524955Y-114834976D01*
X119534879Y-114802264D01*
X119550997Y-114772110D01*
X119572684Y-114745684D01*
X119599110Y-114723997D01*
X119629264Y-114707879D01*
X119661976Y-114697955D01*
X119702138Y-114694000D01*
X121089862Y-114694000D01*
X121130024Y-114697955D01*
X121130024Y-114697955D01*
G37*
G36*
X86332024Y-114316955D02*
X86364736Y-114326879D01*
X86394890Y-114342997D01*
X86421316Y-114364684D01*
X86443003Y-114391110D01*
X86459121Y-114421264D01*
X86469045Y-114453976D01*
X86473000Y-114494138D01*
X86473000Y-115381862D01*
X86469045Y-115422024D01*
X86459121Y-115454736D01*
X86443003Y-115484890D01*
X86421316Y-115511316D01*
X86394890Y-115533003D01*
X86364736Y-115549121D01*
X86332024Y-115559045D01*
X86291862Y-115563000D01*
X84904138Y-115563000D01*
X84863976Y-115559045D01*
X84831264Y-115549121D01*
X84801110Y-115533003D01*
X84774684Y-115511316D01*
X84752997Y-115484890D01*
X84736879Y-115454736D01*
X84726955Y-115422024D01*
X84723000Y-115381862D01*
X84723000Y-114494138D01*
X84726955Y-114453976D01*
X84736879Y-114421264D01*
X84752997Y-114391110D01*
X84774684Y-114364684D01*
X84801110Y-114342997D01*
X84831264Y-114326879D01*
X84863976Y-114316955D01*
X84904138Y-114313000D01*
X86291862Y-114313000D01*
X86332024Y-114316955D01*
X86332024Y-114316955D01*
G37*
G36*
X133135630Y-113462299D02*
X133295855Y-113510903D01*
X133443520Y-113589831D01*
X133572949Y-113696051D01*
X133679169Y-113825480D01*
X133758097Y-113973145D01*
X133806701Y-114133370D01*
X133823112Y-114300000D01*
X133806701Y-114466630D01*
X133758097Y-114626855D01*
X133679169Y-114774520D01*
X133572949Y-114903949D01*
X133443520Y-115010169D01*
X133295855Y-115089097D01*
X133135630Y-115137701D01*
X133010752Y-115150000D01*
X132927248Y-115150000D01*
X132802370Y-115137701D01*
X132642145Y-115089097D01*
X132494480Y-115010169D01*
X132365051Y-114903949D01*
X132258831Y-114774520D01*
X132179903Y-114626855D01*
X132131299Y-114466630D01*
X132114888Y-114300000D01*
X132131299Y-114133370D01*
X132179903Y-113973145D01*
X132258831Y-113825480D01*
X132365051Y-113696051D01*
X132494480Y-113589831D01*
X132642145Y-113510903D01*
X132802370Y-113462299D01*
X132927248Y-113450000D01*
X133010752Y-113450000D01*
X133135630Y-113462299D01*
X133135630Y-113462299D01*
G37*
G36*
X130595630Y-113462299D02*
X130755855Y-113510903D01*
X130903520Y-113589831D01*
X131032949Y-113696051D01*
X131139169Y-113825480D01*
X131218097Y-113973145D01*
X131266701Y-114133370D01*
X131283112Y-114300000D01*
X131266701Y-114466630D01*
X131218097Y-114626855D01*
X131139169Y-114774520D01*
X131032949Y-114903949D01*
X130903520Y-115010169D01*
X130755855Y-115089097D01*
X130595630Y-115137701D01*
X130470752Y-115150000D01*
X130387248Y-115150000D01*
X130262370Y-115137701D01*
X130102145Y-115089097D01*
X129954480Y-115010169D01*
X129825051Y-114903949D01*
X129718831Y-114774520D01*
X129639903Y-114626855D01*
X129591299Y-114466630D01*
X129574888Y-114300000D01*
X129591299Y-114133370D01*
X129639903Y-113973145D01*
X129718831Y-113825480D01*
X129825051Y-113696051D01*
X129954480Y-113589831D01*
X130102145Y-113510903D01*
X130262370Y-113462299D01*
X130387248Y-113450000D01*
X130470752Y-113450000D01*
X130595630Y-113462299D01*
X130595630Y-113462299D01*
G37*
G36*
X82649024Y-113173955D02*
X82681736Y-113183879D01*
X82711890Y-113199997D01*
X82738316Y-113221684D01*
X82760003Y-113248110D01*
X82776121Y-113278264D01*
X82786045Y-113310976D01*
X82790000Y-113351138D01*
X82790000Y-114238862D01*
X82786045Y-114279024D01*
X82776121Y-114311736D01*
X82760003Y-114341890D01*
X82738316Y-114368316D01*
X82711890Y-114390003D01*
X82681736Y-114406121D01*
X82649024Y-114416045D01*
X82608862Y-114420000D01*
X81221138Y-114420000D01*
X81180976Y-114416045D01*
X81148264Y-114406121D01*
X81118110Y-114390003D01*
X81091684Y-114368316D01*
X81069997Y-114341890D01*
X81053879Y-114311736D01*
X81043955Y-114279024D01*
X81040000Y-114238862D01*
X81040000Y-113351138D01*
X81043955Y-113310976D01*
X81053879Y-113278264D01*
X81069997Y-113248110D01*
X81091684Y-113221684D01*
X81118110Y-113199997D01*
X81148264Y-113183879D01*
X81180976Y-113173955D01*
X81221138Y-113170000D01*
X82608862Y-113170000D01*
X82649024Y-113173955D01*
X82649024Y-113173955D01*
G37*
G36*
X116177024Y-112538955D02*
X116209736Y-112548879D01*
X116239890Y-112564997D01*
X116266316Y-112586684D01*
X116288003Y-112613110D01*
X116304121Y-112643264D01*
X116314045Y-112675976D01*
X116318000Y-112716138D01*
X116318000Y-113603862D01*
X116314045Y-113644024D01*
X116304121Y-113676736D01*
X116288003Y-113706890D01*
X116266316Y-113733316D01*
X116239890Y-113755003D01*
X116209736Y-113771121D01*
X116177024Y-113781045D01*
X116136862Y-113785000D01*
X114749138Y-113785000D01*
X114708976Y-113781045D01*
X114676264Y-113771121D01*
X114646110Y-113755003D01*
X114619684Y-113733316D01*
X114597997Y-113706890D01*
X114581879Y-113676736D01*
X114571955Y-113644024D01*
X114568000Y-113603862D01*
X114568000Y-112716138D01*
X114571955Y-112675976D01*
X114581879Y-112643264D01*
X114597997Y-112613110D01*
X114619684Y-112586684D01*
X114646110Y-112564997D01*
X114676264Y-112548879D01*
X114708976Y-112538955D01*
X114749138Y-112535000D01*
X116136862Y-112535000D01*
X116177024Y-112538955D01*
X116177024Y-112538955D01*
G37*
G36*
X124372630Y-111811299D02*
X124532855Y-111859903D01*
X124680520Y-111938831D01*
X124809949Y-112045051D01*
X124916169Y-112174480D01*
X124995097Y-112322145D01*
X125043701Y-112482370D01*
X125060112Y-112649000D01*
X125043701Y-112815630D01*
X124995097Y-112975855D01*
X124916169Y-113123520D01*
X124809949Y-113252949D01*
X124680520Y-113359169D01*
X124532855Y-113438097D01*
X124372630Y-113486701D01*
X124247752Y-113499000D01*
X124164248Y-113499000D01*
X124039370Y-113486701D01*
X123879145Y-113438097D01*
X123731480Y-113359169D01*
X123602051Y-113252949D01*
X123495831Y-113123520D01*
X123416903Y-112975855D01*
X123368299Y-112815630D01*
X123351888Y-112649000D01*
X123368299Y-112482370D01*
X123416903Y-112322145D01*
X123495831Y-112174480D01*
X123602051Y-112045051D01*
X123731480Y-111938831D01*
X123879145Y-111859903D01*
X124039370Y-111811299D01*
X124164248Y-111799000D01*
X124247752Y-111799000D01*
X124372630Y-111811299D01*
X124372630Y-111811299D01*
G37*
G36*
X121130024Y-111897955D02*
X121162736Y-111907879D01*
X121192890Y-111923997D01*
X121219316Y-111945684D01*
X121241003Y-111972110D01*
X121257121Y-112002264D01*
X121267045Y-112034976D01*
X121271000Y-112075138D01*
X121271000Y-112962862D01*
X121267045Y-113003024D01*
X121257121Y-113035736D01*
X121241003Y-113065890D01*
X121219316Y-113092316D01*
X121192890Y-113114003D01*
X121162736Y-113130121D01*
X121130024Y-113140045D01*
X121089862Y-113144000D01*
X119702138Y-113144000D01*
X119661976Y-113140045D01*
X119629264Y-113130121D01*
X119599110Y-113114003D01*
X119572684Y-113092316D01*
X119550997Y-113065890D01*
X119534879Y-113035736D01*
X119524955Y-113003024D01*
X119521000Y-112962862D01*
X119521000Y-112075138D01*
X119524955Y-112034976D01*
X119534879Y-112002264D01*
X119550997Y-111972110D01*
X119572684Y-111945684D01*
X119599110Y-111923997D01*
X119629264Y-111907879D01*
X119661976Y-111897955D01*
X119702138Y-111894000D01*
X121089862Y-111894000D01*
X121130024Y-111897955D01*
X121130024Y-111897955D01*
G37*
G36*
X86332024Y-111516955D02*
X86364736Y-111526879D01*
X86394890Y-111542997D01*
X86421316Y-111564684D01*
X86443003Y-111591110D01*
X86459121Y-111621264D01*
X86469045Y-111653976D01*
X86473000Y-111694138D01*
X86473000Y-112581862D01*
X86469045Y-112622024D01*
X86459121Y-112654736D01*
X86443003Y-112684890D01*
X86421316Y-112711316D01*
X86394890Y-112733003D01*
X86364736Y-112749121D01*
X86332024Y-112759045D01*
X86291862Y-112763000D01*
X84904138Y-112763000D01*
X84863976Y-112759045D01*
X84831264Y-112749121D01*
X84801110Y-112733003D01*
X84774684Y-112711316D01*
X84752997Y-112684890D01*
X84736879Y-112654736D01*
X84726955Y-112622024D01*
X84723000Y-112581862D01*
X84723000Y-111694138D01*
X84726955Y-111653976D01*
X84736879Y-111621264D01*
X84752997Y-111591110D01*
X84774684Y-111564684D01*
X84801110Y-111542997D01*
X84831264Y-111526879D01*
X84863976Y-111516955D01*
X84904138Y-111513000D01*
X86291862Y-111513000D01*
X86332024Y-111516955D01*
X86332024Y-111516955D01*
G37*
G36*
X133135630Y-110922299D02*
X133295855Y-110970903D01*
X133443520Y-111049831D01*
X133572949Y-111156051D01*
X133679169Y-111285480D01*
X133758097Y-111433145D01*
X133806701Y-111593370D01*
X133823112Y-111760000D01*
X133806701Y-111926630D01*
X133758097Y-112086855D01*
X133679169Y-112234520D01*
X133572949Y-112363949D01*
X133443520Y-112470169D01*
X133295855Y-112549097D01*
X133135630Y-112597701D01*
X133010752Y-112610000D01*
X132927248Y-112610000D01*
X132802370Y-112597701D01*
X132642145Y-112549097D01*
X132494480Y-112470169D01*
X132365051Y-112363949D01*
X132258831Y-112234520D01*
X132179903Y-112086855D01*
X132131299Y-111926630D01*
X132114888Y-111760000D01*
X132131299Y-111593370D01*
X132179903Y-111433145D01*
X132258831Y-111285480D01*
X132365051Y-111156051D01*
X132494480Y-111049831D01*
X132642145Y-110970903D01*
X132802370Y-110922299D01*
X132927248Y-110910000D01*
X133010752Y-110910000D01*
X133135630Y-110922299D01*
X133135630Y-110922299D01*
G37*
G36*
X130595630Y-110922299D02*
X130755855Y-110970903D01*
X130903520Y-111049831D01*
X131032949Y-111156051D01*
X131139169Y-111285480D01*
X131218097Y-111433145D01*
X131266701Y-111593370D01*
X131283112Y-111760000D01*
X131266701Y-111926630D01*
X131218097Y-112086855D01*
X131139169Y-112234520D01*
X131032949Y-112363949D01*
X130903520Y-112470169D01*
X130755855Y-112549097D01*
X130595630Y-112597701D01*
X130470752Y-112610000D01*
X130387248Y-112610000D01*
X130262370Y-112597701D01*
X130102145Y-112549097D01*
X129954480Y-112470169D01*
X129825051Y-112363949D01*
X129718831Y-112234520D01*
X129639903Y-112086855D01*
X129591299Y-111926630D01*
X129574888Y-111760000D01*
X129591299Y-111593370D01*
X129639903Y-111433145D01*
X129718831Y-111285480D01*
X129825051Y-111156051D01*
X129954480Y-111049831D01*
X130102145Y-110970903D01*
X130262370Y-110922299D01*
X130387248Y-110910000D01*
X130470752Y-110910000D01*
X130595630Y-110922299D01*
X130595630Y-110922299D01*
G37*
G36*
X99300328Y-110010829D02*
X99333040Y-110020753D01*
X99363194Y-110036871D01*
X99389620Y-110058558D01*
X99411307Y-110084984D01*
X99427425Y-110115138D01*
X99437349Y-110147850D01*
X99441304Y-110188012D01*
X99441304Y-111575736D01*
X99437349Y-111615898D01*
X99427425Y-111648610D01*
X99411307Y-111678764D01*
X99389620Y-111705190D01*
X99363194Y-111726877D01*
X99333040Y-111742995D01*
X99300328Y-111752919D01*
X99260166Y-111756874D01*
X98372442Y-111756874D01*
X98332280Y-111752919D01*
X98299568Y-111742995D01*
X98269414Y-111726877D01*
X98242988Y-111705190D01*
X98221301Y-111678764D01*
X98205183Y-111648610D01*
X98195259Y-111615898D01*
X98191304Y-111575736D01*
X98191304Y-110188012D01*
X98195259Y-110147850D01*
X98205183Y-110115138D01*
X98221301Y-110084984D01*
X98242988Y-110058558D01*
X98269414Y-110036871D01*
X98299568Y-110020753D01*
X98332280Y-110010829D01*
X98372442Y-110006874D01*
X99260166Y-110006874D01*
X99300328Y-110010829D01*
X99300328Y-110010829D01*
G37*
G36*
X96500328Y-110010829D02*
X96533040Y-110020753D01*
X96563194Y-110036871D01*
X96589620Y-110058558D01*
X96611307Y-110084984D01*
X96627425Y-110115138D01*
X96637349Y-110147850D01*
X96641304Y-110188012D01*
X96641304Y-111575736D01*
X96637349Y-111615898D01*
X96627425Y-111648610D01*
X96611307Y-111678764D01*
X96589620Y-111705190D01*
X96563194Y-111726877D01*
X96533040Y-111742995D01*
X96500328Y-111752919D01*
X96460166Y-111756874D01*
X95572442Y-111756874D01*
X95532280Y-111752919D01*
X95499568Y-111742995D01*
X95469414Y-111726877D01*
X95442988Y-111705190D01*
X95421301Y-111678764D01*
X95405183Y-111648610D01*
X95395259Y-111615898D01*
X95391304Y-111575736D01*
X95391304Y-110188012D01*
X95395259Y-110147850D01*
X95405183Y-110115138D01*
X95421301Y-110084984D01*
X95442988Y-110058558D01*
X95469414Y-110036871D01*
X95499568Y-110020753D01*
X95532280Y-110010829D01*
X95572442Y-110006874D01*
X96460166Y-110006874D01*
X96500328Y-110010829D01*
X96500328Y-110010829D01*
G37*
G36*
X82649024Y-110373955D02*
X82681736Y-110383879D01*
X82711890Y-110399997D01*
X82738316Y-110421684D01*
X82760003Y-110448110D01*
X82776121Y-110478264D01*
X82786045Y-110510976D01*
X82790000Y-110551138D01*
X82790000Y-111438862D01*
X82786045Y-111479024D01*
X82776121Y-111511736D01*
X82760003Y-111541890D01*
X82738316Y-111568316D01*
X82711890Y-111590003D01*
X82681736Y-111606121D01*
X82649024Y-111616045D01*
X82608862Y-111620000D01*
X81221138Y-111620000D01*
X81180976Y-111616045D01*
X81148264Y-111606121D01*
X81118110Y-111590003D01*
X81091684Y-111568316D01*
X81069997Y-111541890D01*
X81053879Y-111511736D01*
X81043955Y-111479024D01*
X81040000Y-111438862D01*
X81040000Y-110551138D01*
X81043955Y-110510976D01*
X81053879Y-110478264D01*
X81069997Y-110448110D01*
X81091684Y-110421684D01*
X81118110Y-110399997D01*
X81148264Y-110383879D01*
X81180976Y-110373955D01*
X81221138Y-110370000D01*
X82608862Y-110370000D01*
X82649024Y-110373955D01*
X82649024Y-110373955D01*
G37*
G36*
X103394296Y-110185950D02*
X103428187Y-110196231D01*
X103459415Y-110212922D01*
X103486789Y-110235389D01*
X103509256Y-110262763D01*
X103525947Y-110293991D01*
X103536228Y-110327882D01*
X103540304Y-110369265D01*
X103540304Y-111394483D01*
X103536228Y-111435866D01*
X103525947Y-111469757D01*
X103509256Y-111500985D01*
X103486789Y-111528359D01*
X103459415Y-111550826D01*
X103428187Y-111567517D01*
X103394296Y-111577798D01*
X103352913Y-111581874D01*
X102752695Y-111581874D01*
X102711312Y-111577798D01*
X102677421Y-111567517D01*
X102646193Y-111550826D01*
X102618819Y-111528359D01*
X102596352Y-111500985D01*
X102579661Y-111469757D01*
X102569380Y-111435866D01*
X102565304Y-111394483D01*
X102565304Y-110369265D01*
X102569380Y-110327882D01*
X102579661Y-110293991D01*
X102596352Y-110262763D01*
X102618819Y-110235389D01*
X102646193Y-110212922D01*
X102677421Y-110196231D01*
X102711312Y-110185950D01*
X102752695Y-110181874D01*
X103352913Y-110181874D01*
X103394296Y-110185950D01*
X103394296Y-110185950D01*
G37*
G36*
X101519296Y-110185950D02*
X101553187Y-110196231D01*
X101584415Y-110212922D01*
X101611789Y-110235389D01*
X101634256Y-110262763D01*
X101650947Y-110293991D01*
X101661228Y-110327882D01*
X101665304Y-110369265D01*
X101665304Y-111394483D01*
X101661228Y-111435866D01*
X101650947Y-111469757D01*
X101634256Y-111500985D01*
X101611789Y-111528359D01*
X101584415Y-111550826D01*
X101553187Y-111567517D01*
X101519296Y-111577798D01*
X101477913Y-111581874D01*
X100877695Y-111581874D01*
X100836312Y-111577798D01*
X100802421Y-111567517D01*
X100771193Y-111550826D01*
X100743819Y-111528359D01*
X100721352Y-111500985D01*
X100704661Y-111469757D01*
X100694380Y-111435866D01*
X100690304Y-111394483D01*
X100690304Y-110369265D01*
X100694380Y-110327882D01*
X100704661Y-110293991D01*
X100721352Y-110262763D01*
X100743819Y-110235389D01*
X100771193Y-110212922D01*
X100802421Y-110196231D01*
X100836312Y-110185950D01*
X100877695Y-110181874D01*
X101477913Y-110181874D01*
X101519296Y-110185950D01*
X101519296Y-110185950D01*
G37*
G36*
X116177024Y-109738955D02*
X116209736Y-109748879D01*
X116239890Y-109764997D01*
X116266316Y-109786684D01*
X116288003Y-109813110D01*
X116304121Y-109843264D01*
X116314045Y-109875976D01*
X116318000Y-109916138D01*
X116318000Y-110803862D01*
X116314045Y-110844024D01*
X116304121Y-110876736D01*
X116288003Y-110906890D01*
X116266316Y-110933316D01*
X116239890Y-110955003D01*
X116209736Y-110971121D01*
X116177024Y-110981045D01*
X116136862Y-110985000D01*
X114749138Y-110985000D01*
X114708976Y-110981045D01*
X114676264Y-110971121D01*
X114646110Y-110955003D01*
X114619684Y-110933316D01*
X114597997Y-110906890D01*
X114581879Y-110876736D01*
X114571955Y-110844024D01*
X114568000Y-110803862D01*
X114568000Y-109916138D01*
X114571955Y-109875976D01*
X114581879Y-109843264D01*
X114597997Y-109813110D01*
X114619684Y-109786684D01*
X114646110Y-109764997D01*
X114676264Y-109748879D01*
X114708976Y-109738955D01*
X114749138Y-109735000D01*
X116136862Y-109735000D01*
X116177024Y-109738955D01*
X116177024Y-109738955D01*
G37*
G36*
X130595630Y-108382299D02*
X130755855Y-108430903D01*
X130903520Y-108509831D01*
X131032949Y-108616051D01*
X131139169Y-108745480D01*
X131218097Y-108893145D01*
X131266701Y-109053370D01*
X131283112Y-109220000D01*
X131266701Y-109386630D01*
X131218097Y-109546855D01*
X131139169Y-109694520D01*
X131032949Y-109823949D01*
X130903520Y-109930169D01*
X130755855Y-110009097D01*
X130595630Y-110057701D01*
X130470752Y-110070000D01*
X130387248Y-110070000D01*
X130262370Y-110057701D01*
X130102145Y-110009097D01*
X129954480Y-109930169D01*
X129825051Y-109823949D01*
X129718831Y-109694520D01*
X129639903Y-109546855D01*
X129591299Y-109386630D01*
X129574888Y-109220000D01*
X129591299Y-109053370D01*
X129639903Y-108893145D01*
X129718831Y-108745480D01*
X129825051Y-108616051D01*
X129954480Y-108509831D01*
X130102145Y-108430903D01*
X130262370Y-108382299D01*
X130387248Y-108370000D01*
X130470752Y-108370000D01*
X130595630Y-108382299D01*
X130595630Y-108382299D01*
G37*
G36*
X133819000Y-110070000D02*
X132119000Y-110070000D01*
X132119000Y-108370000D01*
X133819000Y-108370000D01*
X133819000Y-110070000D01*
X133819000Y-110070000D01*
G37*
G36*
X94366000Y-108623000D02*
X90866000Y-108623000D01*
X90866000Y-107023000D01*
X94366000Y-107023000D01*
X94366000Y-108623000D01*
X94366000Y-108623000D01*
G37*
G36*
X88966000Y-108623000D02*
X85466000Y-108623000D01*
X85466000Y-107023000D01*
X88966000Y-107023000D01*
X88966000Y-108623000D01*
X88966000Y-108623000D01*
G37*
G36*
X110853898Y-106943651D02*
X110886610Y-106953575D01*
X110916764Y-106969693D01*
X110943190Y-106991380D01*
X110964877Y-107017806D01*
X110980995Y-107047960D01*
X110990919Y-107080672D01*
X110994874Y-107120834D01*
X110994874Y-108008558D01*
X110990919Y-108048720D01*
X110980995Y-108081432D01*
X110964877Y-108111586D01*
X110943190Y-108138012D01*
X110916764Y-108159699D01*
X110886610Y-108175817D01*
X110853898Y-108185741D01*
X110813736Y-108189696D01*
X109426012Y-108189696D01*
X109385850Y-108185741D01*
X109353138Y-108175817D01*
X109322984Y-108159699D01*
X109296558Y-108138012D01*
X109274871Y-108111586D01*
X109258753Y-108081432D01*
X109248829Y-108048720D01*
X109244874Y-108008558D01*
X109244874Y-107120834D01*
X109248829Y-107080672D01*
X109258753Y-107047960D01*
X109274871Y-107017806D01*
X109296558Y-106991380D01*
X109322984Y-106969693D01*
X109353138Y-106953575D01*
X109385850Y-106943651D01*
X109426012Y-106939696D01*
X110813736Y-106939696D01*
X110853898Y-106943651D01*
X110853898Y-106943651D01*
G37*
G36*
X115171898Y-106943651D02*
X115204610Y-106953575D01*
X115234764Y-106969693D01*
X115261190Y-106991380D01*
X115282877Y-107017806D01*
X115298995Y-107047960D01*
X115308919Y-107080672D01*
X115312874Y-107120834D01*
X115312874Y-108008558D01*
X115308919Y-108048720D01*
X115298995Y-108081432D01*
X115282877Y-108111586D01*
X115261190Y-108138012D01*
X115234764Y-108159699D01*
X115204610Y-108175817D01*
X115171898Y-108185741D01*
X115131736Y-108189696D01*
X113744012Y-108189696D01*
X113703850Y-108185741D01*
X113671138Y-108175817D01*
X113640984Y-108159699D01*
X113614558Y-108138012D01*
X113592871Y-108111586D01*
X113576753Y-108081432D01*
X113566829Y-108048720D01*
X113562874Y-108008558D01*
X113562874Y-107120834D01*
X113566829Y-107080672D01*
X113576753Y-107047960D01*
X113592871Y-107017806D01*
X113614558Y-106991380D01*
X113640984Y-106969693D01*
X113671138Y-106953575D01*
X113703850Y-106943651D01*
X113744012Y-106939696D01*
X115131736Y-106939696D01*
X115171898Y-106943651D01*
X115171898Y-106943651D01*
G37*
G36*
X119870898Y-106943651D02*
X119903610Y-106953575D01*
X119933764Y-106969693D01*
X119960190Y-106991380D01*
X119981877Y-107017806D01*
X119997995Y-107047960D01*
X120007919Y-107080672D01*
X120011874Y-107120834D01*
X120011874Y-108008558D01*
X120007919Y-108048720D01*
X119997995Y-108081432D01*
X119981877Y-108111586D01*
X119960190Y-108138012D01*
X119933764Y-108159699D01*
X119903610Y-108175817D01*
X119870898Y-108185741D01*
X119830736Y-108189696D01*
X118443012Y-108189696D01*
X118402850Y-108185741D01*
X118370138Y-108175817D01*
X118339984Y-108159699D01*
X118313558Y-108138012D01*
X118291871Y-108111586D01*
X118275753Y-108081432D01*
X118265829Y-108048720D01*
X118261874Y-108008558D01*
X118261874Y-107120834D01*
X118265829Y-107080672D01*
X118275753Y-107047960D01*
X118291871Y-107017806D01*
X118313558Y-106991380D01*
X118339984Y-106969693D01*
X118370138Y-106953575D01*
X118402850Y-106943651D01*
X118443012Y-106939696D01*
X119830736Y-106939696D01*
X119870898Y-106943651D01*
X119870898Y-106943651D01*
G37*
G36*
X124061898Y-106943651D02*
X124094610Y-106953575D01*
X124124764Y-106969693D01*
X124151190Y-106991380D01*
X124172877Y-107017806D01*
X124188995Y-107047960D01*
X124198919Y-107080672D01*
X124202874Y-107120834D01*
X124202874Y-108008558D01*
X124198919Y-108048720D01*
X124188995Y-108081432D01*
X124172877Y-108111586D01*
X124151190Y-108138012D01*
X124124764Y-108159699D01*
X124094610Y-108175817D01*
X124061898Y-108185741D01*
X124021736Y-108189696D01*
X122634012Y-108189696D01*
X122593850Y-108185741D01*
X122561138Y-108175817D01*
X122530984Y-108159699D01*
X122504558Y-108138012D01*
X122482871Y-108111586D01*
X122466753Y-108081432D01*
X122456829Y-108048720D01*
X122452874Y-108008558D01*
X122452874Y-107120834D01*
X122456829Y-107080672D01*
X122466753Y-107047960D01*
X122482871Y-107017806D01*
X122504558Y-106991380D01*
X122530984Y-106969693D01*
X122561138Y-106953575D01*
X122593850Y-106943651D01*
X122634012Y-106939696D01*
X124021736Y-106939696D01*
X124061898Y-106943651D01*
X124061898Y-106943651D01*
G37*
G36*
X101318024Y-105680955D02*
X101350736Y-105690879D01*
X101380890Y-105706997D01*
X101407316Y-105728684D01*
X101429003Y-105755110D01*
X101445121Y-105785264D01*
X101455045Y-105817976D01*
X101459000Y-105858138D01*
X101459000Y-106745862D01*
X101455045Y-106786024D01*
X101445121Y-106818736D01*
X101429003Y-106848890D01*
X101407316Y-106875316D01*
X101380890Y-106897003D01*
X101350736Y-106913121D01*
X101318024Y-106923045D01*
X101277862Y-106927000D01*
X99890138Y-106927000D01*
X99849976Y-106923045D01*
X99817264Y-106913121D01*
X99787110Y-106897003D01*
X99760684Y-106875316D01*
X99738997Y-106848890D01*
X99722879Y-106818736D01*
X99712955Y-106786024D01*
X99709000Y-106745862D01*
X99709000Y-105858138D01*
X99712955Y-105817976D01*
X99722879Y-105785264D01*
X99738997Y-105755110D01*
X99760684Y-105728684D01*
X99787110Y-105706997D01*
X99817264Y-105690879D01*
X99849976Y-105680955D01*
X99890138Y-105677000D01*
X101277862Y-105677000D01*
X101318024Y-105680955D01*
X101318024Y-105680955D01*
G37*
G36*
X98016024Y-105680955D02*
X98048736Y-105690879D01*
X98078890Y-105706997D01*
X98105316Y-105728684D01*
X98127003Y-105755110D01*
X98143121Y-105785264D01*
X98153045Y-105817976D01*
X98157000Y-105858138D01*
X98157000Y-106745862D01*
X98153045Y-106786024D01*
X98143121Y-106818736D01*
X98127003Y-106848890D01*
X98105316Y-106875316D01*
X98078890Y-106897003D01*
X98048736Y-106913121D01*
X98016024Y-106923045D01*
X97975862Y-106927000D01*
X96588138Y-106927000D01*
X96547976Y-106923045D01*
X96515264Y-106913121D01*
X96485110Y-106897003D01*
X96458684Y-106875316D01*
X96436997Y-106848890D01*
X96420879Y-106818736D01*
X96410955Y-106786024D01*
X96407000Y-106745862D01*
X96407000Y-105858138D01*
X96410955Y-105817976D01*
X96420879Y-105785264D01*
X96436997Y-105755110D01*
X96458684Y-105728684D01*
X96485110Y-105706997D01*
X96515264Y-105690879D01*
X96547976Y-105680955D01*
X96588138Y-105677000D01*
X97975862Y-105677000D01*
X98016024Y-105680955D01*
X98016024Y-105680955D01*
G37*
G36*
X124061898Y-104143651D02*
X124094610Y-104153575D01*
X124124764Y-104169693D01*
X124151190Y-104191380D01*
X124172877Y-104217806D01*
X124188995Y-104247960D01*
X124198919Y-104280672D01*
X124202874Y-104320834D01*
X124202874Y-105208558D01*
X124198919Y-105248720D01*
X124188995Y-105281432D01*
X124172877Y-105311586D01*
X124151190Y-105338012D01*
X124124764Y-105359699D01*
X124094610Y-105375817D01*
X124061898Y-105385741D01*
X124021736Y-105389696D01*
X122634012Y-105389696D01*
X122593850Y-105385741D01*
X122561138Y-105375817D01*
X122530984Y-105359699D01*
X122504558Y-105338012D01*
X122482871Y-105311586D01*
X122466753Y-105281432D01*
X122456829Y-105248720D01*
X122452874Y-105208558D01*
X122452874Y-104320834D01*
X122456829Y-104280672D01*
X122466753Y-104247960D01*
X122482871Y-104217806D01*
X122504558Y-104191380D01*
X122530984Y-104169693D01*
X122561138Y-104153575D01*
X122593850Y-104143651D01*
X122634012Y-104139696D01*
X124021736Y-104139696D01*
X124061898Y-104143651D01*
X124061898Y-104143651D01*
G37*
G36*
X119870898Y-104143651D02*
X119903610Y-104153575D01*
X119933764Y-104169693D01*
X119960190Y-104191380D01*
X119981877Y-104217806D01*
X119997995Y-104247960D01*
X120007919Y-104280672D01*
X120011874Y-104320834D01*
X120011874Y-105208558D01*
X120007919Y-105248720D01*
X119997995Y-105281432D01*
X119981877Y-105311586D01*
X119960190Y-105338012D01*
X119933764Y-105359699D01*
X119903610Y-105375817D01*
X119870898Y-105385741D01*
X119830736Y-105389696D01*
X118443012Y-105389696D01*
X118402850Y-105385741D01*
X118370138Y-105375817D01*
X118339984Y-105359699D01*
X118313558Y-105338012D01*
X118291871Y-105311586D01*
X118275753Y-105281432D01*
X118265829Y-105248720D01*
X118261874Y-105208558D01*
X118261874Y-104320834D01*
X118265829Y-104280672D01*
X118275753Y-104247960D01*
X118291871Y-104217806D01*
X118313558Y-104191380D01*
X118339984Y-104169693D01*
X118370138Y-104153575D01*
X118402850Y-104143651D01*
X118443012Y-104139696D01*
X119830736Y-104139696D01*
X119870898Y-104143651D01*
X119870898Y-104143651D01*
G37*
G36*
X115171898Y-104143651D02*
X115204610Y-104153575D01*
X115234764Y-104169693D01*
X115261190Y-104191380D01*
X115282877Y-104217806D01*
X115298995Y-104247960D01*
X115308919Y-104280672D01*
X115312874Y-104320834D01*
X115312874Y-105208558D01*
X115308919Y-105248720D01*
X115298995Y-105281432D01*
X115282877Y-105311586D01*
X115261190Y-105338012D01*
X115234764Y-105359699D01*
X115204610Y-105375817D01*
X115171898Y-105385741D01*
X115131736Y-105389696D01*
X113744012Y-105389696D01*
X113703850Y-105385741D01*
X113671138Y-105375817D01*
X113640984Y-105359699D01*
X113614558Y-105338012D01*
X113592871Y-105311586D01*
X113576753Y-105281432D01*
X113566829Y-105248720D01*
X113562874Y-105208558D01*
X113562874Y-104320834D01*
X113566829Y-104280672D01*
X113576753Y-104247960D01*
X113592871Y-104217806D01*
X113614558Y-104191380D01*
X113640984Y-104169693D01*
X113671138Y-104153575D01*
X113703850Y-104143651D01*
X113744012Y-104139696D01*
X115131736Y-104139696D01*
X115171898Y-104143651D01*
X115171898Y-104143651D01*
G37*
G36*
X110853898Y-104143651D02*
X110886610Y-104153575D01*
X110916764Y-104169693D01*
X110943190Y-104191380D01*
X110964877Y-104217806D01*
X110980995Y-104247960D01*
X110990919Y-104280672D01*
X110994874Y-104320834D01*
X110994874Y-105208558D01*
X110990919Y-105248720D01*
X110980995Y-105281432D01*
X110964877Y-105311586D01*
X110943190Y-105338012D01*
X110916764Y-105359699D01*
X110886610Y-105375817D01*
X110853898Y-105385741D01*
X110813736Y-105389696D01*
X109426012Y-105389696D01*
X109385850Y-105385741D01*
X109353138Y-105375817D01*
X109322984Y-105359699D01*
X109296558Y-105338012D01*
X109274871Y-105311586D01*
X109258753Y-105281432D01*
X109248829Y-105248720D01*
X109244874Y-105208558D01*
X109244874Y-104320834D01*
X109248829Y-104280672D01*
X109258753Y-104247960D01*
X109274871Y-104217806D01*
X109296558Y-104191380D01*
X109322984Y-104169693D01*
X109353138Y-104153575D01*
X109385850Y-104143651D01*
X109426012Y-104139696D01*
X110813736Y-104139696D01*
X110853898Y-104143651D01*
X110853898Y-104143651D01*
G37*
G36*
X134454000Y-104863000D02*
X132754000Y-104863000D01*
X132754000Y-103163000D01*
X134454000Y-103163000D01*
X134454000Y-104863000D01*
X134454000Y-104863000D01*
G37*
G36*
X98016024Y-102880955D02*
X98048736Y-102890879D01*
X98078890Y-102906997D01*
X98105316Y-102928684D01*
X98127003Y-102955110D01*
X98143121Y-102985264D01*
X98153045Y-103017976D01*
X98157000Y-103058138D01*
X98157000Y-103945862D01*
X98153045Y-103986024D01*
X98143121Y-104018736D01*
X98127003Y-104048890D01*
X98105316Y-104075316D01*
X98078890Y-104097003D01*
X98048736Y-104113121D01*
X98016024Y-104123045D01*
X97975862Y-104127000D01*
X96588138Y-104127000D01*
X96547976Y-104123045D01*
X96515264Y-104113121D01*
X96485110Y-104097003D01*
X96458684Y-104075316D01*
X96436997Y-104048890D01*
X96420879Y-104018736D01*
X96410955Y-103986024D01*
X96407000Y-103945862D01*
X96407000Y-103058138D01*
X96410955Y-103017976D01*
X96420879Y-102985264D01*
X96436997Y-102955110D01*
X96458684Y-102928684D01*
X96485110Y-102906997D01*
X96515264Y-102890879D01*
X96547976Y-102880955D01*
X96588138Y-102877000D01*
X97975862Y-102877000D01*
X98016024Y-102880955D01*
X98016024Y-102880955D01*
G37*
G36*
X101318024Y-102880955D02*
X101350736Y-102890879D01*
X101380890Y-102906997D01*
X101407316Y-102928684D01*
X101429003Y-102955110D01*
X101445121Y-102985264D01*
X101455045Y-103017976D01*
X101459000Y-103058138D01*
X101459000Y-103945862D01*
X101455045Y-103986024D01*
X101445121Y-104018736D01*
X101429003Y-104048890D01*
X101407316Y-104075316D01*
X101380890Y-104097003D01*
X101350736Y-104113121D01*
X101318024Y-104123045D01*
X101277862Y-104127000D01*
X99890138Y-104127000D01*
X99849976Y-104123045D01*
X99817264Y-104113121D01*
X99787110Y-104097003D01*
X99760684Y-104075316D01*
X99738997Y-104048890D01*
X99722879Y-104018736D01*
X99712955Y-103986024D01*
X99709000Y-103945862D01*
X99709000Y-103058138D01*
X99712955Y-103017976D01*
X99722879Y-102985264D01*
X99738997Y-102955110D01*
X99760684Y-102928684D01*
X99787110Y-102906997D01*
X99817264Y-102890879D01*
X99849976Y-102880955D01*
X99890138Y-102877000D01*
X101277862Y-102877000D01*
X101318024Y-102880955D01*
X101318024Y-102880955D01*
G37*
G36*
X80909190Y-100896400D02*
X81011934Y-100906519D01*
X81105187Y-100934807D01*
X81209676Y-100966503D01*
X81292326Y-101010681D01*
X81391914Y-101063912D01*
X81551648Y-101195002D01*
X81682738Y-101354736D01*
X81728080Y-101439565D01*
X81780147Y-101536974D01*
X81800142Y-101602889D01*
X81840131Y-101734716D01*
X81860385Y-101940360D01*
X81840131Y-102146004D01*
X81838437Y-102151587D01*
X81780147Y-102343746D01*
X81728080Y-102441155D01*
X81682738Y-102525984D01*
X81551648Y-102685718D01*
X81391914Y-102816808D01*
X81330533Y-102849617D01*
X81209676Y-102914217D01*
X81188495Y-102920642D01*
X81011934Y-102974201D01*
X80909190Y-102984320D01*
X80857819Y-102989380D01*
X78654181Y-102989380D01*
X78602810Y-102984320D01*
X78500066Y-102974201D01*
X78323505Y-102920642D01*
X78302324Y-102914217D01*
X78181467Y-102849617D01*
X78120086Y-102816808D01*
X77960352Y-102685718D01*
X77829262Y-102525984D01*
X77783920Y-102441155D01*
X77731853Y-102343746D01*
X77673563Y-102151587D01*
X77671869Y-102146004D01*
X77651615Y-101940360D01*
X77671869Y-101734716D01*
X77711858Y-101602889D01*
X77731853Y-101536974D01*
X77783920Y-101439565D01*
X77829262Y-101354736D01*
X77960352Y-101195002D01*
X78120086Y-101063912D01*
X78219674Y-101010681D01*
X78302324Y-100966503D01*
X78406813Y-100934807D01*
X78500066Y-100906519D01*
X78602810Y-100896400D01*
X78654181Y-100891340D01*
X80857819Y-100891340D01*
X80909190Y-100896400D01*
X80909190Y-100896400D01*
G37*
G36*
X124135866Y-101968272D02*
X124169757Y-101978553D01*
X124200985Y-101995244D01*
X124228359Y-102017711D01*
X124250826Y-102045085D01*
X124267517Y-102076313D01*
X124277798Y-102110204D01*
X124281874Y-102151587D01*
X124281874Y-102751805D01*
X124277798Y-102793188D01*
X124267517Y-102827079D01*
X124250826Y-102858307D01*
X124228359Y-102885681D01*
X124200985Y-102908148D01*
X124169757Y-102924839D01*
X124135866Y-102935120D01*
X124094483Y-102939196D01*
X123069265Y-102939196D01*
X123027882Y-102935120D01*
X122993991Y-102924839D01*
X122962763Y-102908148D01*
X122935389Y-102885681D01*
X122912922Y-102858307D01*
X122896231Y-102827079D01*
X122885950Y-102793188D01*
X122881874Y-102751805D01*
X122881874Y-102151587D01*
X122885950Y-102110204D01*
X122896231Y-102076313D01*
X122912922Y-102045085D01*
X122935389Y-102017711D01*
X122962763Y-101995244D01*
X122993991Y-101978553D01*
X123027882Y-101968272D01*
X123069265Y-101964196D01*
X124094483Y-101964196D01*
X124135866Y-101968272D01*
X124135866Y-101968272D01*
G37*
G36*
X119817866Y-101919772D02*
X119851757Y-101930053D01*
X119882985Y-101946744D01*
X119910359Y-101969211D01*
X119932826Y-101996585D01*
X119949517Y-102027813D01*
X119959798Y-102061704D01*
X119963874Y-102103087D01*
X119963874Y-102703305D01*
X119959798Y-102744688D01*
X119949517Y-102778579D01*
X119932826Y-102809807D01*
X119910359Y-102837181D01*
X119882985Y-102859648D01*
X119851757Y-102876339D01*
X119817866Y-102886620D01*
X119776483Y-102890696D01*
X118751265Y-102890696D01*
X118709882Y-102886620D01*
X118675991Y-102876339D01*
X118644763Y-102859648D01*
X118617389Y-102837181D01*
X118594922Y-102809807D01*
X118578231Y-102778579D01*
X118567950Y-102744688D01*
X118563874Y-102703305D01*
X118563874Y-102103087D01*
X118567950Y-102061704D01*
X118578231Y-102027813D01*
X118594922Y-101996585D01*
X118617389Y-101969211D01*
X118644763Y-101946744D01*
X118675991Y-101930053D01*
X118709882Y-101919772D01*
X118751265Y-101915696D01*
X119776483Y-101915696D01*
X119817866Y-101919772D01*
X119817866Y-101919772D01*
G37*
G36*
X110546866Y-101919772D02*
X110580757Y-101930053D01*
X110611985Y-101946744D01*
X110639359Y-101969211D01*
X110661826Y-101996585D01*
X110678517Y-102027813D01*
X110688798Y-102061704D01*
X110692874Y-102103087D01*
X110692874Y-102703305D01*
X110688798Y-102744688D01*
X110678517Y-102778579D01*
X110661826Y-102809807D01*
X110639359Y-102837181D01*
X110611985Y-102859648D01*
X110580757Y-102876339D01*
X110546866Y-102886620D01*
X110505483Y-102890696D01*
X109480265Y-102890696D01*
X109438882Y-102886620D01*
X109404991Y-102876339D01*
X109373763Y-102859648D01*
X109346389Y-102837181D01*
X109323922Y-102809807D01*
X109307231Y-102778579D01*
X109296950Y-102744688D01*
X109292874Y-102703305D01*
X109292874Y-102103087D01*
X109296950Y-102061704D01*
X109307231Y-102027813D01*
X109323922Y-101996585D01*
X109346389Y-101969211D01*
X109373763Y-101946744D01*
X109404991Y-101930053D01*
X109438882Y-101919772D01*
X109480265Y-101915696D01*
X110505483Y-101915696D01*
X110546866Y-101919772D01*
X110546866Y-101919772D01*
G37*
G36*
X115245866Y-101919772D02*
X115279757Y-101930053D01*
X115310985Y-101946744D01*
X115338359Y-101969211D01*
X115360826Y-101996585D01*
X115377517Y-102027813D01*
X115387798Y-102061704D01*
X115391874Y-102103087D01*
X115391874Y-102703305D01*
X115387798Y-102744688D01*
X115377517Y-102778579D01*
X115360826Y-102809807D01*
X115338359Y-102837181D01*
X115310985Y-102859648D01*
X115279757Y-102876339D01*
X115245866Y-102886620D01*
X115204483Y-102890696D01*
X114179265Y-102890696D01*
X114137882Y-102886620D01*
X114103991Y-102876339D01*
X114072763Y-102859648D01*
X114045389Y-102837181D01*
X114022922Y-102809807D01*
X114006231Y-102778579D01*
X113995950Y-102744688D01*
X113991874Y-102703305D01*
X113991874Y-102103087D01*
X113995950Y-102061704D01*
X114006231Y-102027813D01*
X114022922Y-101996585D01*
X114045389Y-101969211D01*
X114072763Y-101946744D01*
X114103991Y-101930053D01*
X114137882Y-101919772D01*
X114179265Y-101915696D01*
X115204483Y-101915696D01*
X115245866Y-101919772D01*
X115245866Y-101919772D01*
G37*
G36*
X87934800Y-102489000D02*
X85699600Y-102489000D01*
X85699600Y-101269800D01*
X87934800Y-101269800D01*
X87934800Y-102489000D01*
X87934800Y-102489000D01*
G37*
G36*
X133770630Y-100635299D02*
X133930855Y-100683903D01*
X134078520Y-100762831D01*
X134207949Y-100869051D01*
X134314169Y-100998480D01*
X134393097Y-101146145D01*
X134441701Y-101306370D01*
X134458112Y-101473000D01*
X134441701Y-101639630D01*
X134393097Y-101799855D01*
X134314169Y-101947520D01*
X134207949Y-102076949D01*
X134078520Y-102183169D01*
X133930855Y-102262097D01*
X133770630Y-102310701D01*
X133645752Y-102323000D01*
X133562248Y-102323000D01*
X133437370Y-102310701D01*
X133277145Y-102262097D01*
X133129480Y-102183169D01*
X133000051Y-102076949D01*
X132893831Y-101947520D01*
X132814903Y-101799855D01*
X132766299Y-101639630D01*
X132749888Y-101473000D01*
X132766299Y-101306370D01*
X132814903Y-101146145D01*
X132893831Y-100998480D01*
X133000051Y-100869051D01*
X133129480Y-100762831D01*
X133277145Y-100683903D01*
X133437370Y-100635299D01*
X133562248Y-100623000D01*
X133645752Y-100623000D01*
X133770630Y-100635299D01*
X133770630Y-100635299D01*
G37*
G36*
X103604024Y-100473955D02*
X103636736Y-100483879D01*
X103666890Y-100499997D01*
X103693316Y-100521684D01*
X103715003Y-100548110D01*
X103731121Y-100578264D01*
X103741045Y-100610976D01*
X103745000Y-100651138D01*
X103745000Y-101538862D01*
X103741045Y-101579024D01*
X103731121Y-101611736D01*
X103715003Y-101641890D01*
X103693316Y-101668316D01*
X103666890Y-101690003D01*
X103636736Y-101706121D01*
X103604024Y-101716045D01*
X103563862Y-101720000D01*
X102176138Y-101720000D01*
X102135976Y-101716045D01*
X102103264Y-101706121D01*
X102073110Y-101690003D01*
X102046684Y-101668316D01*
X102024997Y-101641890D01*
X102008879Y-101611736D01*
X101998955Y-101579024D01*
X101995000Y-101538862D01*
X101995000Y-100651138D01*
X101998955Y-100610976D01*
X102008879Y-100578264D01*
X102024997Y-100548110D01*
X102046684Y-100521684D01*
X102073110Y-100499997D01*
X102103264Y-100483879D01*
X102135976Y-100473955D01*
X102176138Y-100470000D01*
X103563862Y-100470000D01*
X103604024Y-100473955D01*
X103604024Y-100473955D01*
G37*
G36*
X94115000Y-101368000D02*
X91915000Y-101368000D01*
X91915000Y-97768000D01*
X94115000Y-97768000D01*
X94115000Y-101368000D01*
X94115000Y-101368000D01*
G37*
G36*
X124135866Y-100093272D02*
X124169757Y-100103553D01*
X124200985Y-100120244D01*
X124228359Y-100142711D01*
X124250826Y-100170085D01*
X124267517Y-100201313D01*
X124277798Y-100235204D01*
X124281874Y-100276587D01*
X124281874Y-100876805D01*
X124277798Y-100918188D01*
X124267517Y-100952079D01*
X124250826Y-100983307D01*
X124228359Y-101010681D01*
X124200985Y-101033148D01*
X124169757Y-101049839D01*
X124135866Y-101060120D01*
X124094483Y-101064196D01*
X123069265Y-101064196D01*
X123027882Y-101060120D01*
X122993991Y-101049839D01*
X122962763Y-101033148D01*
X122935389Y-101010681D01*
X122912922Y-100983307D01*
X122896231Y-100952079D01*
X122885950Y-100918188D01*
X122881874Y-100876805D01*
X122881874Y-100276587D01*
X122885950Y-100235204D01*
X122896231Y-100201313D01*
X122912922Y-100170085D01*
X122935389Y-100142711D01*
X122962763Y-100120244D01*
X122993991Y-100103553D01*
X123027882Y-100093272D01*
X123069265Y-100089196D01*
X124094483Y-100089196D01*
X124135866Y-100093272D01*
X124135866Y-100093272D01*
G37*
G36*
X119817866Y-100044772D02*
X119851757Y-100055053D01*
X119882985Y-100071744D01*
X119910359Y-100094211D01*
X119932826Y-100121585D01*
X119949517Y-100152813D01*
X119959798Y-100186704D01*
X119963874Y-100228087D01*
X119963874Y-100828305D01*
X119959798Y-100869688D01*
X119949517Y-100903579D01*
X119932826Y-100934807D01*
X119910359Y-100962181D01*
X119882985Y-100984648D01*
X119851757Y-101001339D01*
X119817866Y-101011620D01*
X119776483Y-101015696D01*
X118751265Y-101015696D01*
X118709882Y-101011620D01*
X118675991Y-101001339D01*
X118644763Y-100984648D01*
X118617389Y-100962181D01*
X118594922Y-100934807D01*
X118578231Y-100903579D01*
X118567950Y-100869688D01*
X118563874Y-100828305D01*
X118563874Y-100228087D01*
X118567950Y-100186704D01*
X118578231Y-100152813D01*
X118594922Y-100121585D01*
X118617389Y-100094211D01*
X118644763Y-100071744D01*
X118675991Y-100055053D01*
X118709882Y-100044772D01*
X118751265Y-100040696D01*
X119776483Y-100040696D01*
X119817866Y-100044772D01*
X119817866Y-100044772D01*
G37*
G36*
X110546866Y-100044772D02*
X110580757Y-100055053D01*
X110611985Y-100071744D01*
X110639359Y-100094211D01*
X110661826Y-100121585D01*
X110678517Y-100152813D01*
X110688798Y-100186704D01*
X110692874Y-100228087D01*
X110692874Y-100828305D01*
X110688798Y-100869688D01*
X110678517Y-100903579D01*
X110661826Y-100934807D01*
X110639359Y-100962181D01*
X110611985Y-100984648D01*
X110580757Y-101001339D01*
X110546866Y-101011620D01*
X110505483Y-101015696D01*
X109480265Y-101015696D01*
X109438882Y-101011620D01*
X109404991Y-101001339D01*
X109373763Y-100984648D01*
X109346389Y-100962181D01*
X109323922Y-100934807D01*
X109307231Y-100903579D01*
X109296950Y-100869688D01*
X109292874Y-100828305D01*
X109292874Y-100228087D01*
X109296950Y-100186704D01*
X109307231Y-100152813D01*
X109323922Y-100121585D01*
X109346389Y-100094211D01*
X109373763Y-100071744D01*
X109404991Y-100055053D01*
X109438882Y-100044772D01*
X109480265Y-100040696D01*
X110505483Y-100040696D01*
X110546866Y-100044772D01*
X110546866Y-100044772D01*
G37*
G36*
X115245866Y-100044772D02*
X115279757Y-100055053D01*
X115310985Y-100071744D01*
X115338359Y-100094211D01*
X115360826Y-100121585D01*
X115377517Y-100152813D01*
X115387798Y-100186704D01*
X115391874Y-100228087D01*
X115391874Y-100828305D01*
X115387798Y-100869688D01*
X115377517Y-100903579D01*
X115360826Y-100934807D01*
X115338359Y-100962181D01*
X115310985Y-100984648D01*
X115279757Y-101001339D01*
X115245866Y-101011620D01*
X115204483Y-101015696D01*
X114179265Y-101015696D01*
X114137882Y-101011620D01*
X114103991Y-101001339D01*
X114072763Y-100984648D01*
X114045389Y-100962181D01*
X114022922Y-100934807D01*
X114006231Y-100903579D01*
X113995950Y-100869688D01*
X113991874Y-100828305D01*
X113991874Y-100228087D01*
X113995950Y-100186704D01*
X114006231Y-100152813D01*
X114022922Y-100121585D01*
X114045389Y-100094211D01*
X114072763Y-100071744D01*
X114103991Y-100055053D01*
X114137882Y-100044772D01*
X114179265Y-100040696D01*
X115204483Y-100040696D01*
X115245866Y-100044772D01*
X115245866Y-100044772D01*
G37*
G36*
X97802000Y-100818000D02*
X96702000Y-100818000D01*
X96702000Y-100218000D01*
X97802000Y-100218000D01*
X97802000Y-100818000D01*
X97802000Y-100818000D01*
G37*
G36*
X100402000Y-100818000D02*
X99302000Y-100818000D01*
X99302000Y-100218000D01*
X100402000Y-100218000D01*
X100402000Y-100818000D01*
X100402000Y-100818000D01*
G37*
G36*
X87934800Y-100177600D02*
X85699600Y-100177600D01*
X85699600Y-98958400D01*
X87934800Y-98958400D01*
X87934800Y-100177600D01*
X87934800Y-100177600D01*
G37*
G36*
X97802000Y-99868000D02*
X96702000Y-99868000D01*
X96702000Y-99268000D01*
X97802000Y-99268000D01*
X97802000Y-99868000D01*
X97802000Y-99868000D01*
G37*
G36*
X133770630Y-98095299D02*
X133930855Y-98143903D01*
X134078520Y-98222831D01*
X134207949Y-98329051D01*
X134314169Y-98458480D01*
X134393097Y-98606145D01*
X134441701Y-98766370D01*
X134458112Y-98933000D01*
X134441701Y-99099630D01*
X134393097Y-99259855D01*
X134314169Y-99407520D01*
X134207949Y-99536949D01*
X134078520Y-99643169D01*
X133930855Y-99722097D01*
X133770630Y-99770701D01*
X133645752Y-99783000D01*
X133562248Y-99783000D01*
X133437370Y-99770701D01*
X133277145Y-99722097D01*
X133129480Y-99643169D01*
X133000051Y-99536949D01*
X132893831Y-99407520D01*
X132814903Y-99259855D01*
X132766299Y-99099630D01*
X132749888Y-98933000D01*
X132766299Y-98766370D01*
X132814903Y-98606145D01*
X132893831Y-98458480D01*
X133000051Y-98329051D01*
X133129480Y-98222831D01*
X133277145Y-98143903D01*
X133437370Y-98095299D01*
X133562248Y-98083000D01*
X133645752Y-98083000D01*
X133770630Y-98095299D01*
X133770630Y-98095299D01*
G37*
G36*
X103604024Y-97673955D02*
X103636736Y-97683879D01*
X103666890Y-97699997D01*
X103693316Y-97721684D01*
X103715003Y-97748110D01*
X103731121Y-97778264D01*
X103741045Y-97810976D01*
X103745000Y-97851138D01*
X103745000Y-98738862D01*
X103741045Y-98779024D01*
X103731121Y-98811736D01*
X103715003Y-98841890D01*
X103693316Y-98868316D01*
X103666890Y-98890003D01*
X103636736Y-98906121D01*
X103604024Y-98916045D01*
X103563862Y-98920000D01*
X102176138Y-98920000D01*
X102135976Y-98916045D01*
X102103264Y-98906121D01*
X102073110Y-98890003D01*
X102046684Y-98868316D01*
X102024997Y-98841890D01*
X102008879Y-98811736D01*
X101998955Y-98779024D01*
X101995000Y-98738862D01*
X101995000Y-97851138D01*
X101998955Y-97810976D01*
X102008879Y-97778264D01*
X102024997Y-97748110D01*
X102046684Y-97721684D01*
X102073110Y-97699997D01*
X102103264Y-97683879D01*
X102135976Y-97673955D01*
X102176138Y-97670000D01*
X103563862Y-97670000D01*
X103604024Y-97673955D01*
X103604024Y-97673955D01*
G37*
G36*
X97802000Y-98918000D02*
X96702000Y-98918000D01*
X96702000Y-98318000D01*
X97802000Y-98318000D01*
X97802000Y-98918000D01*
X97802000Y-98918000D01*
G37*
G36*
X100402000Y-98918000D02*
X99302000Y-98918000D01*
X99302000Y-98318000D01*
X100402000Y-98318000D01*
X100402000Y-98918000D01*
X100402000Y-98918000D01*
G37*
G36*
X80909190Y-95897680D02*
X81011934Y-95907799D01*
X81143761Y-95947788D01*
X81209676Y-95967783D01*
X81307085Y-96019850D01*
X81391914Y-96065192D01*
X81551648Y-96196282D01*
X81576341Y-96226370D01*
X81682737Y-96356015D01*
X81780147Y-96538254D01*
X81780147Y-96538255D01*
X81840131Y-96735996D01*
X81860385Y-96941640D01*
X81840131Y-97147284D01*
X81814827Y-97230700D01*
X81780147Y-97345026D01*
X81728080Y-97442435D01*
X81682738Y-97527264D01*
X81551648Y-97686998D01*
X81391914Y-97818088D01*
X81330082Y-97851138D01*
X81209676Y-97915497D01*
X81194831Y-97920000D01*
X81011934Y-97975481D01*
X80909190Y-97985600D01*
X80857819Y-97990660D01*
X78654181Y-97990660D01*
X78602810Y-97985600D01*
X78500066Y-97975481D01*
X78317169Y-97920000D01*
X78302324Y-97915497D01*
X78181918Y-97851138D01*
X78120086Y-97818088D01*
X77960352Y-97686998D01*
X77829262Y-97527264D01*
X77783920Y-97442435D01*
X77731853Y-97345026D01*
X77697173Y-97230700D01*
X77671869Y-97147284D01*
X77651615Y-96941640D01*
X77671869Y-96735996D01*
X77731853Y-96538255D01*
X77731853Y-96538254D01*
X77829263Y-96356015D01*
X77935660Y-96226370D01*
X77960352Y-96196282D01*
X78120086Y-96065192D01*
X78204915Y-96019850D01*
X78302324Y-95967783D01*
X78368239Y-95947788D01*
X78500066Y-95907799D01*
X78602810Y-95897680D01*
X78654181Y-95892620D01*
X80857819Y-95892620D01*
X80909190Y-95897680D01*
X80909190Y-95897680D01*
G37*
G36*
X87934800Y-97866200D02*
X85699600Y-97866200D01*
X85699600Y-96647000D01*
X87934800Y-96647000D01*
X87934800Y-97866200D01*
X87934800Y-97866200D01*
G37*
G36*
X133770630Y-95555299D02*
X133930855Y-95603903D01*
X134078520Y-95682831D01*
X134207949Y-95789051D01*
X134314169Y-95918480D01*
X134393097Y-96066145D01*
X134441701Y-96226370D01*
X134458112Y-96393000D01*
X134441701Y-96559630D01*
X134393097Y-96719855D01*
X134314169Y-96867520D01*
X134207949Y-96996949D01*
X134078520Y-97103169D01*
X133930855Y-97182097D01*
X133770630Y-97230701D01*
X133645752Y-97243000D01*
X133562248Y-97243000D01*
X133437370Y-97230701D01*
X133277145Y-97182097D01*
X133129480Y-97103169D01*
X133000051Y-96996949D01*
X132893831Y-96867520D01*
X132814903Y-96719855D01*
X132766299Y-96559630D01*
X132749888Y-96393000D01*
X132766299Y-96226370D01*
X132814903Y-96066145D01*
X132893831Y-95918480D01*
X133000051Y-95789051D01*
X133129480Y-95682831D01*
X133277145Y-95603903D01*
X133437370Y-95555299D01*
X133562248Y-95543000D01*
X133645752Y-95543000D01*
X133770630Y-95555299D01*
X133770630Y-95555299D01*
G37*
G36*
X113383024Y-95012955D02*
X113415736Y-95022879D01*
X113445890Y-95038997D01*
X113472316Y-95060684D01*
X113494003Y-95087110D01*
X113510121Y-95117264D01*
X113520045Y-95149976D01*
X113524000Y-95190138D01*
X113524000Y-96077862D01*
X113520045Y-96118024D01*
X113510121Y-96150736D01*
X113494003Y-96180890D01*
X113472316Y-96207316D01*
X113445890Y-96229003D01*
X113415736Y-96245121D01*
X113383024Y-96255045D01*
X113342862Y-96259000D01*
X111955138Y-96259000D01*
X111914976Y-96255045D01*
X111882264Y-96245121D01*
X111852110Y-96229003D01*
X111825684Y-96207316D01*
X111803997Y-96180890D01*
X111787879Y-96150736D01*
X111777955Y-96118024D01*
X111774000Y-96077862D01*
X111774000Y-95190138D01*
X111777955Y-95149976D01*
X111787879Y-95117264D01*
X111803997Y-95087110D01*
X111825684Y-95060684D01*
X111852110Y-95038997D01*
X111882264Y-95022879D01*
X111914976Y-95012955D01*
X111955138Y-95009000D01*
X113342862Y-95009000D01*
X113383024Y-95012955D01*
X113383024Y-95012955D01*
G37*
G36*
X123344000Y-95474000D02*
X117194000Y-95474000D01*
X117194000Y-93874000D01*
X123344000Y-93874000D01*
X123344000Y-95474000D01*
X123344000Y-95474000D01*
G37*
G36*
X133770630Y-93015299D02*
X133930855Y-93063903D01*
X134078520Y-93142831D01*
X134207949Y-93249051D01*
X134314169Y-93378480D01*
X134393097Y-93526145D01*
X134441701Y-93686370D01*
X134458112Y-93853000D01*
X134441701Y-94019630D01*
X134393097Y-94179855D01*
X134314169Y-94327520D01*
X134207949Y-94456949D01*
X134078520Y-94563169D01*
X133930855Y-94642097D01*
X133770630Y-94690701D01*
X133645752Y-94703000D01*
X133562248Y-94703000D01*
X133437370Y-94690701D01*
X133277145Y-94642097D01*
X133129480Y-94563169D01*
X133000051Y-94456949D01*
X132893831Y-94327520D01*
X132814903Y-94179855D01*
X132766299Y-94019630D01*
X132749888Y-93853000D01*
X132766299Y-93686370D01*
X132814903Y-93526145D01*
X132893831Y-93378480D01*
X133000051Y-93249051D01*
X133129480Y-93142831D01*
X133277145Y-93063903D01*
X133437370Y-93015299D01*
X133562248Y-93003000D01*
X133645752Y-93003000D01*
X133770630Y-93015299D01*
X133770630Y-93015299D01*
G37*
G36*
X108823000Y-94638000D02*
X106823000Y-94638000D01*
X106823000Y-90138000D01*
X108823000Y-90138000D01*
X108823000Y-94638000D01*
X108823000Y-94638000D01*
G37*
G36*
X100208000Y-93637000D02*
X96708000Y-93637000D01*
X96708000Y-92037000D01*
X100208000Y-92037000D01*
X100208000Y-93637000D01*
X100208000Y-93637000D01*
G37*
G36*
X94808000Y-93637000D02*
X91308000Y-93637000D01*
X91308000Y-92037000D01*
X94808000Y-92037000D01*
X94808000Y-93637000D01*
X94808000Y-93637000D01*
G37*
G36*
X116819000Y-93499000D02*
X115219000Y-93499000D01*
X115219000Y-87349000D01*
X116819000Y-87349000D01*
X116819000Y-93499000D01*
X116819000Y-93499000D01*
G37*
G36*
X125319000Y-93499000D02*
X123719000Y-93499000D01*
X123719000Y-87349000D01*
X125319000Y-87349000D01*
X125319000Y-93499000D01*
X125319000Y-93499000D01*
G37*
G36*
X129512024Y-92218955D02*
X129544736Y-92228879D01*
X129574890Y-92244997D01*
X129601316Y-92266684D01*
X129623003Y-92293110D01*
X129639121Y-92323264D01*
X129649045Y-92355976D01*
X129653000Y-92396138D01*
X129653000Y-93283862D01*
X129649045Y-93324024D01*
X129639121Y-93356736D01*
X129623003Y-93386890D01*
X129601316Y-93413316D01*
X129574890Y-93435003D01*
X129544736Y-93451121D01*
X129512024Y-93461045D01*
X129471862Y-93465000D01*
X128084138Y-93465000D01*
X128043976Y-93461045D01*
X128011264Y-93451121D01*
X127981110Y-93435003D01*
X127954684Y-93413316D01*
X127932997Y-93386890D01*
X127916879Y-93356736D01*
X127906955Y-93324024D01*
X127903000Y-93283862D01*
X127903000Y-92396138D01*
X127906955Y-92355976D01*
X127916879Y-92323264D01*
X127932997Y-92293110D01*
X127954684Y-92266684D01*
X127981110Y-92244997D01*
X128011264Y-92228879D01*
X128043976Y-92218955D01*
X128084138Y-92215000D01*
X129471862Y-92215000D01*
X129512024Y-92218955D01*
X129512024Y-92218955D01*
G37*
G36*
X113383024Y-92212955D02*
X113415736Y-92222879D01*
X113445890Y-92238997D01*
X113472316Y-92260684D01*
X113494003Y-92287110D01*
X113510121Y-92317264D01*
X113520045Y-92349976D01*
X113524000Y-92390138D01*
X113524000Y-93277862D01*
X113520045Y-93318024D01*
X113510121Y-93350736D01*
X113494003Y-93380890D01*
X113472316Y-93407316D01*
X113445890Y-93429003D01*
X113415736Y-93445121D01*
X113383024Y-93455045D01*
X113342862Y-93459000D01*
X111955138Y-93459000D01*
X111914976Y-93455045D01*
X111882264Y-93445121D01*
X111852110Y-93429003D01*
X111825684Y-93407316D01*
X111803997Y-93380890D01*
X111787879Y-93350736D01*
X111777955Y-93318024D01*
X111774000Y-93277862D01*
X111774000Y-92390138D01*
X111777955Y-92349976D01*
X111787879Y-92317264D01*
X111803997Y-92287110D01*
X111825684Y-92260684D01*
X111852110Y-92238997D01*
X111882264Y-92222879D01*
X111914976Y-92212955D01*
X111955138Y-92209000D01*
X113342862Y-92209000D01*
X113383024Y-92212955D01*
X113383024Y-92212955D01*
G37*
G36*
X133770630Y-90475299D02*
X133930855Y-90523903D01*
X134078520Y-90602831D01*
X134207949Y-90709051D01*
X134314169Y-90838480D01*
X134393097Y-90986145D01*
X134441701Y-91146370D01*
X134458112Y-91313000D01*
X134441701Y-91479630D01*
X134393097Y-91639855D01*
X134314169Y-91787520D01*
X134207949Y-91916949D01*
X134078520Y-92023169D01*
X133930855Y-92102097D01*
X133770630Y-92150701D01*
X133645752Y-92163000D01*
X133562248Y-92163000D01*
X133437370Y-92150701D01*
X133277145Y-92102097D01*
X133129480Y-92023169D01*
X133000051Y-91916949D01*
X132893831Y-91787520D01*
X132814903Y-91639855D01*
X132766299Y-91479630D01*
X132749888Y-91313000D01*
X132766299Y-91146370D01*
X132814903Y-90986145D01*
X132893831Y-90838480D01*
X133000051Y-90709051D01*
X133129480Y-90602831D01*
X133277145Y-90523903D01*
X133437370Y-90475299D01*
X133562248Y-90463000D01*
X133645752Y-90463000D01*
X133770630Y-90475299D01*
X133770630Y-90475299D01*
G37*
G36*
X129512024Y-89418955D02*
X129544736Y-89428879D01*
X129574890Y-89444997D01*
X129601316Y-89466684D01*
X129623003Y-89493110D01*
X129639121Y-89523264D01*
X129649045Y-89555976D01*
X129653000Y-89596138D01*
X129653000Y-90483862D01*
X129649045Y-90524024D01*
X129639121Y-90556736D01*
X129623003Y-90586890D01*
X129601316Y-90613316D01*
X129574890Y-90635003D01*
X129544736Y-90651121D01*
X129512024Y-90661045D01*
X129471862Y-90665000D01*
X128084138Y-90665000D01*
X128043976Y-90661045D01*
X128011264Y-90651121D01*
X127981110Y-90635003D01*
X127954684Y-90613316D01*
X127932997Y-90586890D01*
X127916879Y-90556736D01*
X127906955Y-90524024D01*
X127903000Y-90483862D01*
X127903000Y-89596138D01*
X127906955Y-89555976D01*
X127916879Y-89523264D01*
X127932997Y-89493110D01*
X127954684Y-89466684D01*
X127981110Y-89444997D01*
X128011264Y-89428879D01*
X128043976Y-89418955D01*
X128084138Y-89415000D01*
X129471862Y-89415000D01*
X129512024Y-89418955D01*
X129512024Y-89418955D01*
G37*
G36*
X89955630Y-88697299D02*
X90115855Y-88745903D01*
X90263520Y-88824831D01*
X90392949Y-88931051D01*
X90499169Y-89060480D01*
X90578097Y-89208145D01*
X90626701Y-89368370D01*
X90643112Y-89535000D01*
X90626701Y-89701630D01*
X90578097Y-89861855D01*
X90499169Y-90009520D01*
X90392949Y-90138949D01*
X90263520Y-90245169D01*
X90115855Y-90324097D01*
X89955630Y-90372701D01*
X89830752Y-90385000D01*
X89747248Y-90385000D01*
X89622370Y-90372701D01*
X89462145Y-90324097D01*
X89314480Y-90245169D01*
X89185051Y-90138949D01*
X89078831Y-90009520D01*
X88999903Y-89861855D01*
X88951299Y-89701630D01*
X88934888Y-89535000D01*
X88951299Y-89368370D01*
X88999903Y-89208145D01*
X89078831Y-89060480D01*
X89185051Y-88931051D01*
X89314480Y-88824831D01*
X89462145Y-88745903D01*
X89622370Y-88697299D01*
X89747248Y-88685000D01*
X89830752Y-88685000D01*
X89955630Y-88697299D01*
X89955630Y-88697299D01*
G37*
G36*
X85891630Y-88697299D02*
X86051855Y-88745903D01*
X86199520Y-88824831D01*
X86328949Y-88931051D01*
X86435169Y-89060480D01*
X86514097Y-89208145D01*
X86562701Y-89368370D01*
X86579112Y-89535000D01*
X86562701Y-89701630D01*
X86514097Y-89861855D01*
X86435169Y-90009520D01*
X86328949Y-90138949D01*
X86199520Y-90245169D01*
X86051855Y-90324097D01*
X85891630Y-90372701D01*
X85766752Y-90385000D01*
X85683248Y-90385000D01*
X85558370Y-90372701D01*
X85398145Y-90324097D01*
X85250480Y-90245169D01*
X85121051Y-90138949D01*
X85014831Y-90009520D01*
X84935903Y-89861855D01*
X84887299Y-89701630D01*
X84870888Y-89535000D01*
X84887299Y-89368370D01*
X84935903Y-89208145D01*
X85014831Y-89060480D01*
X85121051Y-88931051D01*
X85250480Y-88824831D01*
X85398145Y-88745903D01*
X85558370Y-88697299D01*
X85683248Y-88685000D01*
X85766752Y-88685000D01*
X85891630Y-88697299D01*
X85891630Y-88697299D01*
G37*
G36*
X85891630Y-86157299D02*
X86051855Y-86205903D01*
X86199520Y-86284831D01*
X86328949Y-86391051D01*
X86435169Y-86520480D01*
X86514097Y-86668145D01*
X86562701Y-86828370D01*
X86579112Y-86995000D01*
X86562701Y-87161630D01*
X86514097Y-87321855D01*
X86435169Y-87469520D01*
X86328949Y-87598949D01*
X86199520Y-87705169D01*
X86051855Y-87784097D01*
X85891630Y-87832701D01*
X85766752Y-87845000D01*
X85683248Y-87845000D01*
X85558370Y-87832701D01*
X85398145Y-87784097D01*
X85250480Y-87705169D01*
X85121051Y-87598949D01*
X85014831Y-87469520D01*
X84935903Y-87321855D01*
X84887299Y-87161630D01*
X84870888Y-86995000D01*
X84887299Y-86828370D01*
X84935903Y-86668145D01*
X85014831Y-86520480D01*
X85121051Y-86391051D01*
X85250480Y-86284831D01*
X85398145Y-86205903D01*
X85558370Y-86157299D01*
X85683248Y-86145000D01*
X85766752Y-86145000D01*
X85891630Y-86157299D01*
X85891630Y-86157299D01*
G37*
G36*
X89955630Y-86157299D02*
X90115855Y-86205903D01*
X90263520Y-86284831D01*
X90392949Y-86391051D01*
X90499169Y-86520480D01*
X90578097Y-86668145D01*
X90626701Y-86828370D01*
X90643112Y-86995000D01*
X90626701Y-87161630D01*
X90578097Y-87321855D01*
X90499169Y-87469520D01*
X90392949Y-87598949D01*
X90263520Y-87705169D01*
X90115855Y-87784097D01*
X89955630Y-87832701D01*
X89830752Y-87845000D01*
X89747248Y-87845000D01*
X89622370Y-87832701D01*
X89462145Y-87784097D01*
X89314480Y-87705169D01*
X89185051Y-87598949D01*
X89078831Y-87469520D01*
X88999903Y-87321855D01*
X88951299Y-87161630D01*
X88934888Y-86995000D01*
X88951299Y-86828370D01*
X88999903Y-86668145D01*
X89078831Y-86520480D01*
X89185051Y-86391051D01*
X89314480Y-86284831D01*
X89462145Y-86205903D01*
X89622370Y-86157299D01*
X89747248Y-86145000D01*
X89830752Y-86145000D01*
X89955630Y-86157299D01*
X89955630Y-86157299D01*
G37*
G36*
X123344000Y-86974000D02*
X117194000Y-86974000D01*
X117194000Y-85374000D01*
X123344000Y-85374000D01*
X123344000Y-86974000D01*
X123344000Y-86974000D01*
G37*
G36*
X108823000Y-86138000D02*
X106823000Y-86138000D01*
X106823000Y-81638000D01*
X108823000Y-81638000D01*
X108823000Y-86138000D01*
X108823000Y-86138000D01*
G37*
G36*
X99607630Y-84252299D02*
X99767855Y-84300903D01*
X99915520Y-84379831D01*
X100044949Y-84486051D01*
X100151169Y-84615480D01*
X100230097Y-84763145D01*
X100278701Y-84923370D01*
X100295112Y-85090000D01*
X100278701Y-85256630D01*
X100230097Y-85416855D01*
X100151169Y-85564520D01*
X100044949Y-85693949D01*
X99915520Y-85800169D01*
X99767855Y-85879097D01*
X99607630Y-85927701D01*
X99482752Y-85940000D01*
X99399248Y-85940000D01*
X99274370Y-85927701D01*
X99114145Y-85879097D01*
X98966480Y-85800169D01*
X98837051Y-85693949D01*
X98730831Y-85564520D01*
X98651903Y-85416855D01*
X98603299Y-85256630D01*
X98586888Y-85090000D01*
X98603299Y-84923370D01*
X98651903Y-84763145D01*
X98730831Y-84615480D01*
X98837051Y-84486051D01*
X98966480Y-84379831D01*
X99114145Y-84300903D01*
X99274370Y-84252299D01*
X99399248Y-84240000D01*
X99482752Y-84240000D01*
X99607630Y-84252299D01*
X99607630Y-84252299D01*
G37*
G36*
X89955630Y-83617299D02*
X90115855Y-83665903D01*
X90263520Y-83744831D01*
X90392949Y-83851051D01*
X90499169Y-83980480D01*
X90578097Y-84128145D01*
X90626701Y-84288370D01*
X90643112Y-84455000D01*
X90626701Y-84621630D01*
X90578097Y-84781855D01*
X90499169Y-84929520D01*
X90392949Y-85058949D01*
X90263520Y-85165169D01*
X90115855Y-85244097D01*
X89955630Y-85292701D01*
X89830752Y-85305000D01*
X89747248Y-85305000D01*
X89622370Y-85292701D01*
X89462145Y-85244097D01*
X89314480Y-85165169D01*
X89185051Y-85058949D01*
X89078831Y-84929520D01*
X88999903Y-84781855D01*
X88951299Y-84621630D01*
X88934888Y-84455000D01*
X88951299Y-84288370D01*
X88999903Y-84128145D01*
X89078831Y-83980480D01*
X89185051Y-83851051D01*
X89314480Y-83744831D01*
X89462145Y-83665903D01*
X89622370Y-83617299D01*
X89747248Y-83605000D01*
X89830752Y-83605000D01*
X89955630Y-83617299D01*
X89955630Y-83617299D01*
G37*
G36*
X85891630Y-83617299D02*
X86051855Y-83665903D01*
X86199520Y-83744831D01*
X86328949Y-83851051D01*
X86435169Y-83980480D01*
X86514097Y-84128145D01*
X86562701Y-84288370D01*
X86579112Y-84455000D01*
X86562701Y-84621630D01*
X86514097Y-84781855D01*
X86435169Y-84929520D01*
X86328949Y-85058949D01*
X86199520Y-85165169D01*
X86051855Y-85244097D01*
X85891630Y-85292701D01*
X85766752Y-85305000D01*
X85683248Y-85305000D01*
X85558370Y-85292701D01*
X85398145Y-85244097D01*
X85250480Y-85165169D01*
X85121051Y-85058949D01*
X85014831Y-84929520D01*
X84935903Y-84781855D01*
X84887299Y-84621630D01*
X84870888Y-84455000D01*
X84887299Y-84288370D01*
X84935903Y-84128145D01*
X85014831Y-83980480D01*
X85121051Y-83851051D01*
X85250480Y-83744831D01*
X85398145Y-83665903D01*
X85558370Y-83617299D01*
X85683248Y-83605000D01*
X85766752Y-83605000D01*
X85891630Y-83617299D01*
X85891630Y-83617299D01*
G37*
G36*
X94957000Y-85305000D02*
X93257000Y-85305000D01*
X93257000Y-83605000D01*
X94957000Y-83605000D01*
X94957000Y-85305000D01*
X94957000Y-85305000D01*
G37*
G36*
X135184000Y-84307000D02*
X133634000Y-84307000D01*
X133634000Y-83007000D01*
X135184000Y-83007000D01*
X135184000Y-84307000D01*
X135184000Y-84307000D01*
G37*
G36*
X127224000Y-84307000D02*
X125674000Y-84307000D01*
X125674000Y-83007000D01*
X127224000Y-83007000D01*
X127224000Y-84307000D01*
X127224000Y-84307000D01*
G37*
G36*
X99607630Y-81712299D02*
X99767855Y-81760903D01*
X99915520Y-81839831D01*
X100044949Y-81946051D01*
X100151169Y-82075480D01*
X100230097Y-82223145D01*
X100278701Y-82383370D01*
X100295112Y-82550000D01*
X100278701Y-82716630D01*
X100230097Y-82876855D01*
X100151169Y-83024520D01*
X100044949Y-83153949D01*
X99915520Y-83260169D01*
X99767855Y-83339097D01*
X99607630Y-83387701D01*
X99482752Y-83400000D01*
X99399248Y-83400000D01*
X99274370Y-83387701D01*
X99114145Y-83339097D01*
X98966480Y-83260169D01*
X98837051Y-83153949D01*
X98730831Y-83024520D01*
X98651903Y-82876855D01*
X98603299Y-82716630D01*
X98586888Y-82550000D01*
X98603299Y-82383370D01*
X98651903Y-82223145D01*
X98730831Y-82075480D01*
X98837051Y-81946051D01*
X98966480Y-81839831D01*
X99114145Y-81760903D01*
X99274370Y-81712299D01*
X99399248Y-81700000D01*
X99482752Y-81700000D01*
X99607630Y-81712299D01*
X99607630Y-81712299D01*
G37*
G36*
X119861024Y-81043955D02*
X119893736Y-81053879D01*
X119923890Y-81069997D01*
X119950316Y-81091684D01*
X119972003Y-81118110D01*
X119988121Y-81148264D01*
X119998045Y-81180976D01*
X120002000Y-81221138D01*
X120002000Y-82608862D01*
X119998045Y-82649024D01*
X119988121Y-82681736D01*
X119972003Y-82711890D01*
X119950316Y-82738316D01*
X119923890Y-82760003D01*
X119893736Y-82776121D01*
X119861024Y-82786045D01*
X119820862Y-82790000D01*
X118933138Y-82790000D01*
X118892976Y-82786045D01*
X118860264Y-82776121D01*
X118830110Y-82760003D01*
X118803684Y-82738316D01*
X118781997Y-82711890D01*
X118765879Y-82681736D01*
X118755955Y-82649024D01*
X118752000Y-82608862D01*
X118752000Y-81221138D01*
X118755955Y-81180976D01*
X118765879Y-81148264D01*
X118781997Y-81118110D01*
X118803684Y-81091684D01*
X118830110Y-81069997D01*
X118860264Y-81053879D01*
X118892976Y-81043955D01*
X118933138Y-81040000D01*
X119820862Y-81040000D01*
X119861024Y-81043955D01*
X119861024Y-81043955D01*
G37*
G36*
X122661024Y-81043955D02*
X122693736Y-81053879D01*
X122723890Y-81069997D01*
X122750316Y-81091684D01*
X122772003Y-81118110D01*
X122788121Y-81148264D01*
X122798045Y-81180976D01*
X122802000Y-81221138D01*
X122802000Y-82608862D01*
X122798045Y-82649024D01*
X122788121Y-82681736D01*
X122772003Y-82711890D01*
X122750316Y-82738316D01*
X122723890Y-82760003D01*
X122693736Y-82776121D01*
X122661024Y-82786045D01*
X122620862Y-82790000D01*
X121733138Y-82790000D01*
X121692976Y-82786045D01*
X121660264Y-82776121D01*
X121630110Y-82760003D01*
X121603684Y-82738316D01*
X121581997Y-82711890D01*
X121565879Y-82681736D01*
X121555955Y-82649024D01*
X121552000Y-82608862D01*
X121552000Y-81221138D01*
X121555955Y-81180976D01*
X121565879Y-81148264D01*
X121581997Y-81118110D01*
X121603684Y-81091684D01*
X121630110Y-81069997D01*
X121660264Y-81053879D01*
X121692976Y-81043955D01*
X121733138Y-81040000D01*
X122620862Y-81040000D01*
X122661024Y-81043955D01*
X122661024Y-81043955D01*
G37*
G36*
X94273630Y-81077299D02*
X94433855Y-81125903D01*
X94581520Y-81204831D01*
X94710949Y-81311051D01*
X94817169Y-81440480D01*
X94896097Y-81588145D01*
X94944701Y-81748370D01*
X94961112Y-81915000D01*
X94944701Y-82081630D01*
X94896097Y-82241855D01*
X94817169Y-82389520D01*
X94710949Y-82518949D01*
X94581520Y-82625169D01*
X94433855Y-82704097D01*
X94273630Y-82752701D01*
X94148752Y-82765000D01*
X94065248Y-82765000D01*
X93940370Y-82752701D01*
X93780145Y-82704097D01*
X93632480Y-82625169D01*
X93503051Y-82518949D01*
X93396831Y-82389520D01*
X93317903Y-82241855D01*
X93269299Y-82081630D01*
X93252888Y-81915000D01*
X93269299Y-81748370D01*
X93317903Y-81588145D01*
X93396831Y-81440480D01*
X93503051Y-81311051D01*
X93632480Y-81204831D01*
X93780145Y-81125903D01*
X93940370Y-81077299D01*
X94065248Y-81065000D01*
X94148752Y-81065000D01*
X94273630Y-81077299D01*
X94273630Y-81077299D01*
G37*
G36*
X85891630Y-81077299D02*
X86051855Y-81125903D01*
X86199520Y-81204831D01*
X86328949Y-81311051D01*
X86435169Y-81440480D01*
X86514097Y-81588145D01*
X86562701Y-81748370D01*
X86579112Y-81915000D01*
X86562701Y-82081630D01*
X86514097Y-82241855D01*
X86435169Y-82389520D01*
X86328949Y-82518949D01*
X86199520Y-82625169D01*
X86051855Y-82704097D01*
X85891630Y-82752701D01*
X85766752Y-82765000D01*
X85683248Y-82765000D01*
X85558370Y-82752701D01*
X85398145Y-82704097D01*
X85250480Y-82625169D01*
X85121051Y-82518949D01*
X85014831Y-82389520D01*
X84935903Y-82241855D01*
X84887299Y-82081630D01*
X84870888Y-81915000D01*
X84887299Y-81748370D01*
X84935903Y-81588145D01*
X85014831Y-81440480D01*
X85121051Y-81311051D01*
X85250480Y-81204831D01*
X85398145Y-81125903D01*
X85558370Y-81077299D01*
X85683248Y-81065000D01*
X85766752Y-81065000D01*
X85891630Y-81077299D01*
X85891630Y-81077299D01*
G37*
G36*
X89955630Y-81077299D02*
X90115855Y-81125903D01*
X90263520Y-81204831D01*
X90392949Y-81311051D01*
X90499169Y-81440480D01*
X90578097Y-81588145D01*
X90626701Y-81748370D01*
X90643112Y-81915000D01*
X90626701Y-82081630D01*
X90578097Y-82241855D01*
X90499169Y-82389520D01*
X90392949Y-82518949D01*
X90263520Y-82625169D01*
X90115855Y-82704097D01*
X89955630Y-82752701D01*
X89830752Y-82765000D01*
X89747248Y-82765000D01*
X89622370Y-82752701D01*
X89462145Y-82704097D01*
X89314480Y-82625169D01*
X89185051Y-82518949D01*
X89078831Y-82389520D01*
X88999903Y-82241855D01*
X88951299Y-82081630D01*
X88934888Y-81915000D01*
X88951299Y-81748370D01*
X88999903Y-81588145D01*
X89078831Y-81440480D01*
X89185051Y-81311051D01*
X89314480Y-81204831D01*
X89462145Y-81125903D01*
X89622370Y-81077299D01*
X89747248Y-81065000D01*
X89830752Y-81065000D01*
X89955630Y-81077299D01*
X89955630Y-81077299D01*
G37*
G36*
X117574024Y-79772955D02*
X117606736Y-79782879D01*
X117636890Y-79798997D01*
X117663316Y-79820684D01*
X117685003Y-79847110D01*
X117701121Y-79877264D01*
X117711045Y-79909976D01*
X117715000Y-79950138D01*
X117715000Y-80837862D01*
X117711045Y-80878024D01*
X117701121Y-80910736D01*
X117685003Y-80940890D01*
X117663316Y-80967316D01*
X117636890Y-80989003D01*
X117606736Y-81005121D01*
X117574024Y-81015045D01*
X117533862Y-81019000D01*
X116146138Y-81019000D01*
X116105976Y-81015045D01*
X116073264Y-81005121D01*
X116043110Y-80989003D01*
X116016684Y-80967316D01*
X115994997Y-80940890D01*
X115978879Y-80910736D01*
X115968955Y-80878024D01*
X115965000Y-80837862D01*
X115965000Y-79950138D01*
X115968955Y-79909976D01*
X115978879Y-79877264D01*
X115994997Y-79847110D01*
X116016684Y-79820684D01*
X116043110Y-79798997D01*
X116073264Y-79782879D01*
X116105976Y-79772955D01*
X116146138Y-79769000D01*
X117533862Y-79769000D01*
X117574024Y-79772955D01*
X117574024Y-79772955D01*
G37*
G36*
X99607630Y-79172299D02*
X99767855Y-79220903D01*
X99915520Y-79299831D01*
X100044949Y-79406051D01*
X100151169Y-79535480D01*
X100230097Y-79683145D01*
X100278701Y-79843370D01*
X100295112Y-80010000D01*
X100278701Y-80176630D01*
X100230097Y-80336855D01*
X100151169Y-80484520D01*
X100044949Y-80613949D01*
X99915520Y-80720169D01*
X99767855Y-80799097D01*
X99607630Y-80847701D01*
X99482752Y-80860000D01*
X99399248Y-80860000D01*
X99274370Y-80847701D01*
X99114145Y-80799097D01*
X98966480Y-80720169D01*
X98837051Y-80613949D01*
X98730831Y-80484520D01*
X98651903Y-80336855D01*
X98603299Y-80176630D01*
X98586888Y-80010000D01*
X98603299Y-79843370D01*
X98651903Y-79683145D01*
X98730831Y-79535480D01*
X98837051Y-79406051D01*
X98966480Y-79299831D01*
X99114145Y-79220903D01*
X99274370Y-79172299D01*
X99399248Y-79160000D01*
X99482752Y-79160000D01*
X99607630Y-79172299D01*
X99607630Y-79172299D01*
G37*
G36*
X119861024Y-78503955D02*
X119893736Y-78513879D01*
X119923890Y-78529997D01*
X119950316Y-78551684D01*
X119972003Y-78578110D01*
X119988121Y-78608264D01*
X119998045Y-78640976D01*
X120002000Y-78681138D01*
X120002000Y-80068862D01*
X119998045Y-80109024D01*
X119988121Y-80141736D01*
X119972003Y-80171890D01*
X119950316Y-80198316D01*
X119923890Y-80220003D01*
X119893736Y-80236121D01*
X119861024Y-80246045D01*
X119820862Y-80250000D01*
X118933138Y-80250000D01*
X118892976Y-80246045D01*
X118860264Y-80236121D01*
X118830110Y-80220003D01*
X118803684Y-80198316D01*
X118781997Y-80171890D01*
X118765879Y-80141736D01*
X118755955Y-80109024D01*
X118752000Y-80068862D01*
X118752000Y-78681138D01*
X118755955Y-78640976D01*
X118765879Y-78608264D01*
X118781997Y-78578110D01*
X118803684Y-78551684D01*
X118830110Y-78529997D01*
X118860264Y-78513879D01*
X118892976Y-78503955D01*
X118933138Y-78500000D01*
X119820862Y-78500000D01*
X119861024Y-78503955D01*
X119861024Y-78503955D01*
G37*
G36*
X122661024Y-78503955D02*
X122693736Y-78513879D01*
X122723890Y-78529997D01*
X122750316Y-78551684D01*
X122772003Y-78578110D01*
X122788121Y-78608264D01*
X122798045Y-78640976D01*
X122802000Y-78681138D01*
X122802000Y-80068862D01*
X122798045Y-80109024D01*
X122788121Y-80141736D01*
X122772003Y-80171890D01*
X122750316Y-80198316D01*
X122723890Y-80220003D01*
X122693736Y-80236121D01*
X122661024Y-80246045D01*
X122620862Y-80250000D01*
X121733138Y-80250000D01*
X121692976Y-80246045D01*
X121660264Y-80236121D01*
X121630110Y-80220003D01*
X121603684Y-80198316D01*
X121581997Y-80171890D01*
X121565879Y-80141736D01*
X121555955Y-80109024D01*
X121552000Y-80068862D01*
X121552000Y-78681138D01*
X121555955Y-78640976D01*
X121565879Y-78608264D01*
X121581997Y-78578110D01*
X121603684Y-78551684D01*
X121630110Y-78529997D01*
X121660264Y-78513879D01*
X121692976Y-78503955D01*
X121733138Y-78500000D01*
X122620862Y-78500000D01*
X122661024Y-78503955D01*
X122661024Y-78503955D01*
G37*
G36*
X85891630Y-78537299D02*
X86051855Y-78585903D01*
X86199520Y-78664831D01*
X86328949Y-78771051D01*
X86435169Y-78900480D01*
X86514097Y-79048145D01*
X86562701Y-79208370D01*
X86579112Y-79375000D01*
X86562701Y-79541630D01*
X86514097Y-79701855D01*
X86435169Y-79849520D01*
X86328949Y-79978949D01*
X86199520Y-80085169D01*
X86051855Y-80164097D01*
X85891630Y-80212701D01*
X85766752Y-80225000D01*
X85683248Y-80225000D01*
X85558370Y-80212701D01*
X85398145Y-80164097D01*
X85250480Y-80085169D01*
X85121051Y-79978949D01*
X85014831Y-79849520D01*
X84935903Y-79701855D01*
X84887299Y-79541630D01*
X84870888Y-79375000D01*
X84887299Y-79208370D01*
X84935903Y-79048145D01*
X85014831Y-78900480D01*
X85121051Y-78771051D01*
X85250480Y-78664831D01*
X85398145Y-78585903D01*
X85558370Y-78537299D01*
X85683248Y-78525000D01*
X85766752Y-78525000D01*
X85891630Y-78537299D01*
X85891630Y-78537299D01*
G37*
G36*
X89955630Y-78537299D02*
X90115855Y-78585903D01*
X90263520Y-78664831D01*
X90392949Y-78771051D01*
X90499169Y-78900480D01*
X90578097Y-79048145D01*
X90626701Y-79208370D01*
X90643112Y-79375000D01*
X90626701Y-79541630D01*
X90578097Y-79701855D01*
X90499169Y-79849520D01*
X90392949Y-79978949D01*
X90263520Y-80085169D01*
X90115855Y-80164097D01*
X89955630Y-80212701D01*
X89830752Y-80225000D01*
X89747248Y-80225000D01*
X89622370Y-80212701D01*
X89462145Y-80164097D01*
X89314480Y-80085169D01*
X89185051Y-79978949D01*
X89078831Y-79849520D01*
X88999903Y-79701855D01*
X88951299Y-79541630D01*
X88934888Y-79375000D01*
X88951299Y-79208370D01*
X88999903Y-79048145D01*
X89078831Y-78900480D01*
X89185051Y-78771051D01*
X89314480Y-78664831D01*
X89462145Y-78585903D01*
X89622370Y-78537299D01*
X89747248Y-78525000D01*
X89830752Y-78525000D01*
X89955630Y-78537299D01*
X89955630Y-78537299D01*
G37*
G36*
X94273630Y-78537299D02*
X94433855Y-78585903D01*
X94581520Y-78664831D01*
X94710949Y-78771051D01*
X94817169Y-78900480D01*
X94896097Y-79048145D01*
X94944701Y-79208370D01*
X94961112Y-79375000D01*
X94944701Y-79541630D01*
X94896097Y-79701855D01*
X94817169Y-79849520D01*
X94710949Y-79978949D01*
X94581520Y-80085169D01*
X94433855Y-80164097D01*
X94273630Y-80212701D01*
X94148752Y-80225000D01*
X94065248Y-80225000D01*
X93940370Y-80212701D01*
X93780145Y-80164097D01*
X93632480Y-80085169D01*
X93503051Y-79978949D01*
X93396831Y-79849520D01*
X93317903Y-79701855D01*
X93269299Y-79541630D01*
X93252888Y-79375000D01*
X93269299Y-79208370D01*
X93317903Y-79048145D01*
X93396831Y-78900480D01*
X93503051Y-78771051D01*
X93632480Y-78664831D01*
X93780145Y-78585903D01*
X93940370Y-78537299D01*
X94065248Y-78525000D01*
X94148752Y-78525000D01*
X94273630Y-78537299D01*
X94273630Y-78537299D01*
G37*
G36*
X127224000Y-79807000D02*
X125674000Y-79807000D01*
X125674000Y-78507000D01*
X127224000Y-78507000D01*
X127224000Y-79807000D01*
X127224000Y-79807000D01*
G37*
G36*
X135184000Y-79807000D02*
X133634000Y-79807000D01*
X133634000Y-78507000D01*
X135184000Y-78507000D01*
X135184000Y-79807000D01*
X135184000Y-79807000D01*
G37*
G36*
X99607630Y-76632299D02*
X99767855Y-76680903D01*
X99915520Y-76759831D01*
X100044949Y-76866051D01*
X100151169Y-76995480D01*
X100230097Y-77143145D01*
X100278701Y-77303370D01*
X100295112Y-77470000D01*
X100278701Y-77636630D01*
X100230097Y-77796855D01*
X100151169Y-77944520D01*
X100044949Y-78073949D01*
X99915520Y-78180169D01*
X99767855Y-78259097D01*
X99607630Y-78307701D01*
X99482752Y-78320000D01*
X99399248Y-78320000D01*
X99274370Y-78307701D01*
X99114145Y-78259097D01*
X98966480Y-78180169D01*
X98837051Y-78073949D01*
X98730831Y-77944520D01*
X98651903Y-77796855D01*
X98603299Y-77636630D01*
X98586888Y-77470000D01*
X98603299Y-77303370D01*
X98651903Y-77143145D01*
X98730831Y-76995480D01*
X98837051Y-76866051D01*
X98966480Y-76759831D01*
X99114145Y-76680903D01*
X99274370Y-76632299D01*
X99399248Y-76620000D01*
X99482752Y-76620000D01*
X99607630Y-76632299D01*
X99607630Y-76632299D01*
G37*
G36*
X117574024Y-76972955D02*
X117606736Y-76982879D01*
X117636890Y-76998997D01*
X117663316Y-77020684D01*
X117685003Y-77047110D01*
X117701121Y-77077264D01*
X117711045Y-77109976D01*
X117715000Y-77150138D01*
X117715000Y-78037862D01*
X117711045Y-78078024D01*
X117701121Y-78110736D01*
X117685003Y-78140890D01*
X117663316Y-78167316D01*
X117636890Y-78189003D01*
X117606736Y-78205121D01*
X117574024Y-78215045D01*
X117533862Y-78219000D01*
X116146138Y-78219000D01*
X116105976Y-78215045D01*
X116073264Y-78205121D01*
X116043110Y-78189003D01*
X116016684Y-78167316D01*
X115994997Y-78140890D01*
X115978879Y-78110736D01*
X115968955Y-78078024D01*
X115965000Y-78037862D01*
X115965000Y-77150138D01*
X115968955Y-77109976D01*
X115978879Y-77077264D01*
X115994997Y-77047110D01*
X116016684Y-77020684D01*
X116043110Y-76998997D01*
X116073264Y-76982879D01*
X116105976Y-76972955D01*
X116146138Y-76969000D01*
X117533862Y-76969000D01*
X117574024Y-76972955D01*
X117574024Y-76972955D01*
G37*
G36*
X89955630Y-75997299D02*
X90115855Y-76045903D01*
X90263520Y-76124831D01*
X90392949Y-76231051D01*
X90499169Y-76360480D01*
X90578097Y-76508145D01*
X90626701Y-76668370D01*
X90643112Y-76835000D01*
X90626701Y-77001630D01*
X90578097Y-77161855D01*
X90499169Y-77309520D01*
X90392949Y-77438949D01*
X90263520Y-77545169D01*
X90115855Y-77624097D01*
X89955630Y-77672701D01*
X89830752Y-77685000D01*
X89747248Y-77685000D01*
X89622370Y-77672701D01*
X89462145Y-77624097D01*
X89314480Y-77545169D01*
X89185051Y-77438949D01*
X89078831Y-77309520D01*
X88999903Y-77161855D01*
X88951299Y-77001630D01*
X88934888Y-76835000D01*
X88951299Y-76668370D01*
X88999903Y-76508145D01*
X89078831Y-76360480D01*
X89185051Y-76231051D01*
X89314480Y-76124831D01*
X89462145Y-76045903D01*
X89622370Y-75997299D01*
X89747248Y-75985000D01*
X89830752Y-75985000D01*
X89955630Y-75997299D01*
X89955630Y-75997299D01*
G37*
G36*
X94273630Y-75997299D02*
X94433855Y-76045903D01*
X94581520Y-76124831D01*
X94710949Y-76231051D01*
X94817169Y-76360480D01*
X94896097Y-76508145D01*
X94944701Y-76668370D01*
X94961112Y-76835000D01*
X94944701Y-77001630D01*
X94896097Y-77161855D01*
X94817169Y-77309520D01*
X94710949Y-77438949D01*
X94581520Y-77545169D01*
X94433855Y-77624097D01*
X94273630Y-77672701D01*
X94148752Y-77685000D01*
X94065248Y-77685000D01*
X93940370Y-77672701D01*
X93780145Y-77624097D01*
X93632480Y-77545169D01*
X93503051Y-77438949D01*
X93396831Y-77309520D01*
X93317903Y-77161855D01*
X93269299Y-77001630D01*
X93252888Y-76835000D01*
X93269299Y-76668370D01*
X93317903Y-76508145D01*
X93396831Y-76360480D01*
X93503051Y-76231051D01*
X93632480Y-76124831D01*
X93780145Y-76045903D01*
X93940370Y-75997299D01*
X94065248Y-75985000D01*
X94148752Y-75985000D01*
X94273630Y-75997299D01*
X94273630Y-75997299D01*
G37*
G36*
X85891630Y-75997299D02*
X86051855Y-76045903D01*
X86199520Y-76124831D01*
X86328949Y-76231051D01*
X86435169Y-76360480D01*
X86514097Y-76508145D01*
X86562701Y-76668370D01*
X86579112Y-76835000D01*
X86562701Y-77001630D01*
X86514097Y-77161855D01*
X86435169Y-77309520D01*
X86328949Y-77438949D01*
X86199520Y-77545169D01*
X86051855Y-77624097D01*
X85891630Y-77672701D01*
X85766752Y-77685000D01*
X85683248Y-77685000D01*
X85558370Y-77672701D01*
X85398145Y-77624097D01*
X85250480Y-77545169D01*
X85121051Y-77438949D01*
X85014831Y-77309520D01*
X84935903Y-77161855D01*
X84887299Y-77001630D01*
X84870888Y-76835000D01*
X84887299Y-76668370D01*
X84935903Y-76508145D01*
X85014831Y-76360480D01*
X85121051Y-76231051D01*
X85250480Y-76124831D01*
X85398145Y-76045903D01*
X85558370Y-75997299D01*
X85683248Y-75985000D01*
X85766752Y-75985000D01*
X85891630Y-75997299D01*
X85891630Y-75997299D01*
G37*
G36*
X99607630Y-74092299D02*
X99767855Y-74140903D01*
X99915520Y-74219831D01*
X100044949Y-74326051D01*
X100151169Y-74455480D01*
X100230097Y-74603145D01*
X100278701Y-74763370D01*
X100295112Y-74930000D01*
X100278701Y-75096630D01*
X100230097Y-75256855D01*
X100151169Y-75404520D01*
X100044949Y-75533949D01*
X99915520Y-75640169D01*
X99767855Y-75719097D01*
X99607630Y-75767701D01*
X99482752Y-75780000D01*
X99399248Y-75780000D01*
X99274370Y-75767701D01*
X99114145Y-75719097D01*
X98966480Y-75640169D01*
X98837051Y-75533949D01*
X98730831Y-75404520D01*
X98651903Y-75256855D01*
X98603299Y-75096630D01*
X98586888Y-74930000D01*
X98603299Y-74763370D01*
X98651903Y-74603145D01*
X98730831Y-74455480D01*
X98837051Y-74326051D01*
X98966480Y-74219831D01*
X99114145Y-74140903D01*
X99274370Y-74092299D01*
X99399248Y-74080000D01*
X99482752Y-74080000D01*
X99607630Y-74092299D01*
X99607630Y-74092299D01*
G37*
G36*
X89955630Y-73457299D02*
X90115855Y-73505903D01*
X90263520Y-73584831D01*
X90392949Y-73691051D01*
X90499169Y-73820480D01*
X90578097Y-73968145D01*
X90626701Y-74128370D01*
X90643112Y-74295000D01*
X90626701Y-74461630D01*
X90578097Y-74621855D01*
X90499169Y-74769520D01*
X90392949Y-74898949D01*
X90263520Y-75005169D01*
X90115855Y-75084097D01*
X89955630Y-75132701D01*
X89830752Y-75145000D01*
X89747248Y-75145000D01*
X89622370Y-75132701D01*
X89462145Y-75084097D01*
X89314480Y-75005169D01*
X89185051Y-74898949D01*
X89078831Y-74769520D01*
X88999903Y-74621855D01*
X88951299Y-74461630D01*
X88934888Y-74295000D01*
X88951299Y-74128370D01*
X88999903Y-73968145D01*
X89078831Y-73820480D01*
X89185051Y-73691051D01*
X89314480Y-73584831D01*
X89462145Y-73505903D01*
X89622370Y-73457299D01*
X89747248Y-73445000D01*
X89830752Y-73445000D01*
X89955630Y-73457299D01*
X89955630Y-73457299D01*
G37*
G36*
X85891630Y-73457299D02*
X86051855Y-73505903D01*
X86199520Y-73584831D01*
X86328949Y-73691051D01*
X86435169Y-73820480D01*
X86514097Y-73968145D01*
X86562701Y-74128370D01*
X86579112Y-74295000D01*
X86562701Y-74461630D01*
X86514097Y-74621855D01*
X86435169Y-74769520D01*
X86328949Y-74898949D01*
X86199520Y-75005169D01*
X86051855Y-75084097D01*
X85891630Y-75132701D01*
X85766752Y-75145000D01*
X85683248Y-75145000D01*
X85558370Y-75132701D01*
X85398145Y-75084097D01*
X85250480Y-75005169D01*
X85121051Y-74898949D01*
X85014831Y-74769520D01*
X84935903Y-74621855D01*
X84887299Y-74461630D01*
X84870888Y-74295000D01*
X84887299Y-74128370D01*
X84935903Y-73968145D01*
X85014831Y-73820480D01*
X85121051Y-73691051D01*
X85250480Y-73584831D01*
X85398145Y-73505903D01*
X85558370Y-73457299D01*
X85683248Y-73445000D01*
X85766752Y-73445000D01*
X85891630Y-73457299D01*
X85891630Y-73457299D01*
G37*
G36*
X94273630Y-73457299D02*
X94433855Y-73505903D01*
X94581520Y-73584831D01*
X94710949Y-73691051D01*
X94817169Y-73820480D01*
X94896097Y-73968145D01*
X94944701Y-74128370D01*
X94961112Y-74295000D01*
X94944701Y-74461630D01*
X94896097Y-74621855D01*
X94817169Y-74769520D01*
X94710949Y-74898949D01*
X94581520Y-75005169D01*
X94433855Y-75084097D01*
X94273630Y-75132701D01*
X94148752Y-75145000D01*
X94065248Y-75145000D01*
X93940370Y-75132701D01*
X93780145Y-75084097D01*
X93632480Y-75005169D01*
X93503051Y-74898949D01*
X93396831Y-74769520D01*
X93317903Y-74621855D01*
X93269299Y-74461630D01*
X93252888Y-74295000D01*
X93269299Y-74128370D01*
X93317903Y-73968145D01*
X93396831Y-73820480D01*
X93503051Y-73691051D01*
X93632480Y-73584831D01*
X93780145Y-73505903D01*
X93940370Y-73457299D01*
X94065248Y-73445000D01*
X94148752Y-73445000D01*
X94273630Y-73457299D01*
X94273630Y-73457299D01*
G37*
G36*
X116244630Y-72949299D02*
X116404855Y-72997903D01*
X116552520Y-73076831D01*
X116681949Y-73183051D01*
X116788169Y-73312480D01*
X116867097Y-73460145D01*
X116915701Y-73620370D01*
X116932112Y-73787000D01*
X116915701Y-73953630D01*
X116867097Y-74113855D01*
X116788169Y-74261520D01*
X116681949Y-74390949D01*
X116552520Y-74497169D01*
X116404855Y-74576097D01*
X116244630Y-74624701D01*
X116119752Y-74637000D01*
X116036248Y-74637000D01*
X115911370Y-74624701D01*
X115751145Y-74576097D01*
X115603480Y-74497169D01*
X115474051Y-74390949D01*
X115367831Y-74261520D01*
X115288903Y-74113855D01*
X115240299Y-73953630D01*
X115223888Y-73787000D01*
X115240299Y-73620370D01*
X115288903Y-73460145D01*
X115367831Y-73312480D01*
X115474051Y-73183051D01*
X115603480Y-73076831D01*
X115751145Y-72997903D01*
X115911370Y-72949299D01*
X116036248Y-72937000D01*
X116119752Y-72937000D01*
X116244630Y-72949299D01*
X116244630Y-72949299D01*
G37*
G36*
X108624630Y-72949299D02*
X108784855Y-72997903D01*
X108932520Y-73076831D01*
X109061949Y-73183051D01*
X109168169Y-73312480D01*
X109247097Y-73460145D01*
X109295701Y-73620370D01*
X109312112Y-73787000D01*
X109295701Y-73953630D01*
X109247097Y-74113855D01*
X109168169Y-74261520D01*
X109061949Y-74390949D01*
X108932520Y-74497169D01*
X108784855Y-74576097D01*
X108624630Y-74624701D01*
X108499752Y-74637000D01*
X108416248Y-74637000D01*
X108291370Y-74624701D01*
X108131145Y-74576097D01*
X107983480Y-74497169D01*
X107854051Y-74390949D01*
X107747831Y-74261520D01*
X107668903Y-74113855D01*
X107620299Y-73953630D01*
X107603888Y-73787000D01*
X107620299Y-73620370D01*
X107668903Y-73460145D01*
X107747831Y-73312480D01*
X107854051Y-73183051D01*
X107983480Y-73076831D01*
X108131145Y-72997903D01*
X108291370Y-72949299D01*
X108416248Y-72937000D01*
X108499752Y-72937000D01*
X108624630Y-72949299D01*
X108624630Y-72949299D01*
G37*
G36*
X111164630Y-72949299D02*
X111324855Y-72997903D01*
X111472520Y-73076831D01*
X111601949Y-73183051D01*
X111708169Y-73312480D01*
X111787097Y-73460145D01*
X111835701Y-73620370D01*
X111852112Y-73787000D01*
X111835701Y-73953630D01*
X111787097Y-74113855D01*
X111708169Y-74261520D01*
X111601949Y-74390949D01*
X111472520Y-74497169D01*
X111324855Y-74576097D01*
X111164630Y-74624701D01*
X111039752Y-74637000D01*
X110956248Y-74637000D01*
X110831370Y-74624701D01*
X110671145Y-74576097D01*
X110523480Y-74497169D01*
X110394051Y-74390949D01*
X110287831Y-74261520D01*
X110208903Y-74113855D01*
X110160299Y-73953630D01*
X110143888Y-73787000D01*
X110160299Y-73620370D01*
X110208903Y-73460145D01*
X110287831Y-73312480D01*
X110394051Y-73183051D01*
X110523480Y-73076831D01*
X110671145Y-72997903D01*
X110831370Y-72949299D01*
X110956248Y-72937000D01*
X111039752Y-72937000D01*
X111164630Y-72949299D01*
X111164630Y-72949299D01*
G37*
G36*
X113704630Y-72949299D02*
X113864855Y-72997903D01*
X114012520Y-73076831D01*
X114141949Y-73183051D01*
X114248169Y-73312480D01*
X114327097Y-73460145D01*
X114375701Y-73620370D01*
X114392112Y-73787000D01*
X114375701Y-73953630D01*
X114327097Y-74113855D01*
X114248169Y-74261520D01*
X114141949Y-74390949D01*
X114012520Y-74497169D01*
X113864855Y-74576097D01*
X113704630Y-74624701D01*
X113579752Y-74637000D01*
X113496248Y-74637000D01*
X113371370Y-74624701D01*
X113211145Y-74576097D01*
X113063480Y-74497169D01*
X112934051Y-74390949D01*
X112827831Y-74261520D01*
X112748903Y-74113855D01*
X112700299Y-73953630D01*
X112683888Y-73787000D01*
X112700299Y-73620370D01*
X112748903Y-73460145D01*
X112827831Y-73312480D01*
X112934051Y-73183051D01*
X113063480Y-73076831D01*
X113211145Y-72997903D01*
X113371370Y-72949299D01*
X113496248Y-72937000D01*
X113579752Y-72937000D01*
X113704630Y-72949299D01*
X113704630Y-72949299D01*
G37*
G36*
X127088000Y-74637000D02*
X125388000Y-74637000D01*
X125388000Y-72937000D01*
X127088000Y-72937000D01*
X127088000Y-74637000D01*
X127088000Y-74637000D01*
G37*
G36*
X123864630Y-72949299D02*
X124024855Y-72997903D01*
X124172520Y-73076831D01*
X124301949Y-73183051D01*
X124408169Y-73312480D01*
X124487097Y-73460145D01*
X124535701Y-73620370D01*
X124552112Y-73787000D01*
X124535701Y-73953630D01*
X124487097Y-74113855D01*
X124408169Y-74261520D01*
X124301949Y-74390949D01*
X124172520Y-74497169D01*
X124024855Y-74576097D01*
X123864630Y-74624701D01*
X123739752Y-74637000D01*
X123656248Y-74637000D01*
X123531370Y-74624701D01*
X123371145Y-74576097D01*
X123223480Y-74497169D01*
X123094051Y-74390949D01*
X122987831Y-74261520D01*
X122908903Y-74113855D01*
X122860299Y-73953630D01*
X122843888Y-73787000D01*
X122860299Y-73620370D01*
X122908903Y-73460145D01*
X122987831Y-73312480D01*
X123094051Y-73183051D01*
X123223480Y-73076831D01*
X123371145Y-72997903D01*
X123531370Y-72949299D01*
X123656248Y-72937000D01*
X123739752Y-72937000D01*
X123864630Y-72949299D01*
X123864630Y-72949299D01*
G37*
G36*
X121324630Y-72949299D02*
X121484855Y-72997903D01*
X121632520Y-73076831D01*
X121761949Y-73183051D01*
X121868169Y-73312480D01*
X121947097Y-73460145D01*
X121995701Y-73620370D01*
X122012112Y-73787000D01*
X121995701Y-73953630D01*
X121947097Y-74113855D01*
X121868169Y-74261520D01*
X121761949Y-74390949D01*
X121632520Y-74497169D01*
X121484855Y-74576097D01*
X121324630Y-74624701D01*
X121199752Y-74637000D01*
X121116248Y-74637000D01*
X120991370Y-74624701D01*
X120831145Y-74576097D01*
X120683480Y-74497169D01*
X120554051Y-74390949D01*
X120447831Y-74261520D01*
X120368903Y-74113855D01*
X120320299Y-73953630D01*
X120303888Y-73787000D01*
X120320299Y-73620370D01*
X120368903Y-73460145D01*
X120447831Y-73312480D01*
X120554051Y-73183051D01*
X120683480Y-73076831D01*
X120831145Y-72997903D01*
X120991370Y-72949299D01*
X121116248Y-72937000D01*
X121199752Y-72937000D01*
X121324630Y-72949299D01*
X121324630Y-72949299D01*
G37*
G36*
X118784630Y-72949299D02*
X118944855Y-72997903D01*
X119092520Y-73076831D01*
X119221949Y-73183051D01*
X119328169Y-73312480D01*
X119407097Y-73460145D01*
X119455701Y-73620370D01*
X119472112Y-73787000D01*
X119455701Y-73953630D01*
X119407097Y-74113855D01*
X119328169Y-74261520D01*
X119221949Y-74390949D01*
X119092520Y-74497169D01*
X118944855Y-74576097D01*
X118784630Y-74624701D01*
X118659752Y-74637000D01*
X118576248Y-74637000D01*
X118451370Y-74624701D01*
X118291145Y-74576097D01*
X118143480Y-74497169D01*
X118014051Y-74390949D01*
X117907831Y-74261520D01*
X117828903Y-74113855D01*
X117780299Y-73953630D01*
X117763888Y-73787000D01*
X117780299Y-73620370D01*
X117828903Y-73460145D01*
X117907831Y-73312480D01*
X118014051Y-73183051D01*
X118143480Y-73076831D01*
X118291145Y-72997903D01*
X118451370Y-72949299D01*
X118576248Y-72937000D01*
X118659752Y-72937000D01*
X118784630Y-72949299D01*
X118784630Y-72949299D01*
G37*
G36*
X100291000Y-73240000D02*
X98591000Y-73240000D01*
X98591000Y-71540000D01*
X100291000Y-71540000D01*
X100291000Y-73240000D01*
X100291000Y-73240000D01*
G37*
G36*
X86575000Y-72605000D02*
X84875000Y-72605000D01*
X84875000Y-70905000D01*
X86575000Y-70905000D01*
X86575000Y-72605000D01*
X86575000Y-72605000D01*
G37*
G36*
X90639000Y-72605000D02*
X88939000Y-72605000D01*
X88939000Y-70905000D01*
X90639000Y-70905000D01*
X90639000Y-72605000D01*
X90639000Y-72605000D01*
G37*
G36*
X94273630Y-70917299D02*
X94433855Y-70965903D01*
X94581520Y-71044831D01*
X94710949Y-71151051D01*
X94817169Y-71280480D01*
X94896097Y-71428145D01*
X94944701Y-71588370D01*
X94961112Y-71755000D01*
X94944701Y-71921630D01*
X94896097Y-72081855D01*
X94817169Y-72229520D01*
X94710949Y-72358949D01*
X94581520Y-72465169D01*
X94433855Y-72544097D01*
X94273630Y-72592701D01*
X94148752Y-72605000D01*
X94065248Y-72605000D01*
X93940370Y-72592701D01*
X93780145Y-72544097D01*
X93632480Y-72465169D01*
X93503051Y-72358949D01*
X93396831Y-72229520D01*
X93317903Y-72081855D01*
X93269299Y-71921630D01*
X93252888Y-71755000D01*
X93269299Y-71588370D01*
X93317903Y-71428145D01*
X93396831Y-71280480D01*
X93503051Y-71151051D01*
X93632480Y-71044831D01*
X93780145Y-70965903D01*
X93940370Y-70917299D01*
X94065248Y-70905000D01*
X94148752Y-70905000D01*
X94273630Y-70917299D01*
X94273630Y-70917299D01*
G37*
M02*
