G04 #@! TF.GenerationSoftware,KiCad,Pcbnew,(5.0.1)-3*
G04 #@! TF.CreationDate,2019-03-11T17:07:32+01:00*
G04 #@! TF.ProjectId,Arduino_Uno_R3_From_Scratch,41726475696E6F5F556E6F5F52335F46,rev?*
G04 #@! TF.SameCoordinates,Original*
G04 #@! TF.FileFunction,Legend,Top*
G04 #@! TF.FilePolarity,Positive*
%FSLAX46Y46*%
G04 Gerber Fmt 4.6, Leading zero omitted, Abs format (unit mm)*
G04 Created by KiCad (PCBNEW (5.0.1)-3) date 11/03/2019 17:07:32*
%MOMM*%
%LPD*%
G01*
G04 APERTURE LIST*
%ADD10C,0.100000*%
%ADD11C,0.120000*%
%ADD12C,0.127000*%
%ADD13C,0.152400*%
%ADD14C,0.150000*%
%ADD15C,0.203200*%
%ADD16C,0.060000*%
%ADD17C,0.228600*%
%ADD18C,0.080000*%
%ADD19C,0.050000*%
G04 APERTURE END LIST*
D10*
X118491023Y-144152880D02*
X117919595Y-144152880D01*
X118205309Y-144152880D02*
X118205309Y-143152880D01*
X118110071Y-143295738D01*
X118014833Y-143390976D01*
X117919595Y-143438595D01*
X118871976Y-143248119D02*
X118919595Y-143200500D01*
X119014833Y-143152880D01*
X119252928Y-143152880D01*
X119348166Y-143200500D01*
X119395785Y-143248119D01*
X119443404Y-143343357D01*
X119443404Y-143438595D01*
X119395785Y-143581452D01*
X118824357Y-144152880D01*
X119443404Y-144152880D01*
X115951023Y-144152880D02*
X115379595Y-144152880D01*
X115665309Y-144152880D02*
X115665309Y-143152880D01*
X115570071Y-143295738D01*
X115474833Y-143390976D01*
X115379595Y-143438595D01*
X116903404Y-144152880D02*
X116331976Y-144152880D01*
X116617690Y-144152880D02*
X116617690Y-143152880D01*
X116522452Y-143295738D01*
X116427214Y-143390976D01*
X116331976Y-143438595D01*
X113284023Y-144152880D02*
X112712595Y-144152880D01*
X112998309Y-144152880D02*
X112998309Y-143152880D01*
X112903071Y-143295738D01*
X112807833Y-143390976D01*
X112712595Y-143438595D01*
X113903071Y-143152880D02*
X113998309Y-143152880D01*
X114093547Y-143200500D01*
X114141166Y-143248119D01*
X114188785Y-143343357D01*
X114236404Y-143533833D01*
X114236404Y-143771928D01*
X114188785Y-143962404D01*
X114141166Y-144057642D01*
X114093547Y-144105261D01*
X113998309Y-144152880D01*
X113903071Y-144152880D01*
X113807833Y-144105261D01*
X113760214Y-144057642D01*
X113712595Y-143962404D01*
X113664976Y-143771928D01*
X113664976Y-143533833D01*
X113712595Y-143343357D01*
X113760214Y-143248119D01*
X113807833Y-143200500D01*
X113903071Y-143152880D01*
X110807523Y-144152880D02*
X110998000Y-144152880D01*
X111093238Y-144105261D01*
X111140857Y-144057642D01*
X111236095Y-143914785D01*
X111283714Y-143724309D01*
X111283714Y-143343357D01*
X111236095Y-143248119D01*
X111188476Y-143200500D01*
X111093238Y-143152880D01*
X110902761Y-143152880D01*
X110807523Y-143200500D01*
X110759904Y-143248119D01*
X110712285Y-143343357D01*
X110712285Y-143581452D01*
X110759904Y-143676690D01*
X110807523Y-143724309D01*
X110902761Y-143771928D01*
X111093238Y-143771928D01*
X111188476Y-143724309D01*
X111236095Y-143676690D01*
X111283714Y-143581452D01*
X108124666Y-143152880D02*
X108791333Y-143152880D01*
X108362761Y-144152880D01*
X106044976Y-143152880D02*
X105854500Y-143152880D01*
X105759261Y-143200500D01*
X105711642Y-143248119D01*
X105616404Y-143390976D01*
X105568785Y-143581452D01*
X105568785Y-143962404D01*
X105616404Y-144057642D01*
X105664023Y-144105261D01*
X105759261Y-144152880D01*
X105949738Y-144152880D01*
X106044976Y-144105261D01*
X106092595Y-144057642D01*
X106140214Y-143962404D01*
X106140214Y-143724309D01*
X106092595Y-143629071D01*
X106044976Y-143581452D01*
X105949738Y-143533833D01*
X105759261Y-143533833D01*
X105664023Y-143581452D01*
X105616404Y-143629071D01*
X105568785Y-143724309D01*
X103616095Y-143152880D02*
X103139904Y-143152880D01*
X103092285Y-143629071D01*
X103139904Y-143581452D01*
X103235142Y-143533833D01*
X103473238Y-143533833D01*
X103568476Y-143581452D01*
X103616095Y-143629071D01*
X103663714Y-143724309D01*
X103663714Y-143962404D01*
X103616095Y-144057642D01*
X103568476Y-144105261D01*
X103473238Y-144152880D01*
X103235142Y-144152880D01*
X103139904Y-144105261D01*
X103092285Y-144057642D01*
X101028476Y-143486214D02*
X101028476Y-144152880D01*
X100790380Y-143105261D02*
X100552285Y-143819547D01*
X101171333Y-143819547D01*
X119951595Y-137612500D02*
X119856357Y-137564880D01*
X119713500Y-137564880D01*
X119570642Y-137612500D01*
X119475404Y-137707738D01*
X119427785Y-137802976D01*
X119380166Y-137993452D01*
X119380166Y-138136309D01*
X119427785Y-138326785D01*
X119475404Y-138422023D01*
X119570642Y-138517261D01*
X119713500Y-138564880D01*
X119808738Y-138564880D01*
X119951595Y-138517261D01*
X119999214Y-138469642D01*
X119999214Y-138136309D01*
X119808738Y-138136309D01*
X120427785Y-138564880D02*
X120427785Y-137564880D01*
X120999214Y-138564880D01*
X120999214Y-137564880D01*
X121475404Y-138564880D02*
X121475404Y-137564880D01*
X121713500Y-137564880D01*
X121856357Y-137612500D01*
X121951595Y-137707738D01*
X121999214Y-137802976D01*
X122046833Y-137993452D01*
X122046833Y-138136309D01*
X121999214Y-138326785D01*
X121951595Y-138422023D01*
X121856357Y-138517261D01*
X121713500Y-138564880D01*
X121475404Y-138564880D01*
X115840047Y-138564880D02*
X115840047Y-137564880D01*
X116316238Y-138564880D02*
X116316238Y-137564880D01*
X116887666Y-138564880D01*
X116887666Y-137564880D01*
X117221000Y-137564880D02*
X117792428Y-137564880D01*
X117506714Y-138564880D02*
X117506714Y-137564880D01*
X118649571Y-138564880D02*
X118078142Y-138564880D01*
X118363857Y-138564880D02*
X118363857Y-137564880D01*
X118268619Y-137707738D01*
X118173380Y-137802976D01*
X118078142Y-137850595D01*
X112284047Y-138564880D02*
X112284047Y-137564880D01*
X112760238Y-138564880D02*
X112760238Y-137564880D01*
X113331666Y-138564880D01*
X113331666Y-137564880D01*
X113665000Y-137564880D02*
X114236428Y-137564880D01*
X113950714Y-138564880D02*
X113950714Y-137564880D01*
X114522142Y-137660119D02*
X114569761Y-137612500D01*
X114665000Y-137564880D01*
X114903095Y-137564880D01*
X114998333Y-137612500D01*
X115045952Y-137660119D01*
X115093571Y-137755357D01*
X115093571Y-137850595D01*
X115045952Y-137993452D01*
X114474523Y-138564880D01*
X115093571Y-138564880D01*
X119562761Y-110831261D02*
X119705619Y-110878880D01*
X119943714Y-110878880D01*
X120038952Y-110831261D01*
X120086571Y-110783642D01*
X120134190Y-110688404D01*
X120134190Y-110593166D01*
X120086571Y-110497928D01*
X120038952Y-110450309D01*
X119943714Y-110402690D01*
X119753238Y-110355071D01*
X119658000Y-110307452D01*
X119610380Y-110259833D01*
X119562761Y-110164595D01*
X119562761Y-110069357D01*
X119610380Y-109974119D01*
X119658000Y-109926500D01*
X119753238Y-109878880D01*
X119991333Y-109878880D01*
X120134190Y-109926500D01*
X120419904Y-109878880D02*
X120991333Y-109878880D01*
X120705619Y-110878880D02*
X120705619Y-109878880D01*
X121658000Y-110355071D02*
X121800857Y-110402690D01*
X121848476Y-110450309D01*
X121896095Y-110545547D01*
X121896095Y-110688404D01*
X121848476Y-110783642D01*
X121800857Y-110831261D01*
X121705619Y-110878880D01*
X121324666Y-110878880D01*
X121324666Y-109878880D01*
X121658000Y-109878880D01*
X121753238Y-109926500D01*
X121800857Y-109974119D01*
X121848476Y-110069357D01*
X121848476Y-110164595D01*
X121800857Y-110259833D01*
X121753238Y-110307452D01*
X121658000Y-110355071D01*
X121324666Y-110355071D01*
X122515142Y-110402690D02*
X122515142Y-110878880D01*
X122181809Y-109878880D02*
X122515142Y-110402690D01*
X122848476Y-109878880D01*
X121158023Y-116609880D02*
X120681833Y-116609880D01*
X120634214Y-117086071D01*
X120681833Y-117038452D01*
X120777071Y-116990833D01*
X121015166Y-116990833D01*
X121110404Y-117038452D01*
X121158023Y-117086071D01*
X121205642Y-117181309D01*
X121205642Y-117419404D01*
X121158023Y-117514642D01*
X121110404Y-117562261D01*
X121015166Y-117609880D01*
X120777071Y-117609880D01*
X120681833Y-117562261D01*
X120634214Y-117514642D01*
X121491357Y-116609880D02*
X121824690Y-117609880D01*
X122158023Y-116609880D01*
X120142095Y-118308500D02*
X120046857Y-118260880D01*
X119904000Y-118260880D01*
X119761142Y-118308500D01*
X119665904Y-118403738D01*
X119618285Y-118498976D01*
X119570666Y-118689452D01*
X119570666Y-118832309D01*
X119618285Y-119022785D01*
X119665904Y-119118023D01*
X119761142Y-119213261D01*
X119904000Y-119260880D01*
X119999238Y-119260880D01*
X120142095Y-119213261D01*
X120189714Y-119165642D01*
X120189714Y-118832309D01*
X119999238Y-118832309D01*
X120618285Y-119260880D02*
X120618285Y-118260880D01*
X121189714Y-119260880D01*
X121189714Y-118260880D01*
X121665904Y-119260880D02*
X121665904Y-118260880D01*
X121904000Y-118260880D01*
X122046857Y-118308500D01*
X122142095Y-118403738D01*
X122189714Y-118498976D01*
X122237333Y-118689452D01*
X122237333Y-118832309D01*
X122189714Y-119022785D01*
X122142095Y-119118023D01*
X122046857Y-119213261D01*
X121904000Y-119260880D01*
X121665904Y-119260880D01*
X126619095Y-113927000D02*
X126523857Y-113879380D01*
X126381000Y-113879380D01*
X126238142Y-113927000D01*
X126142904Y-114022238D01*
X126095285Y-114117476D01*
X126047666Y-114307952D01*
X126047666Y-114450809D01*
X126095285Y-114641285D01*
X126142904Y-114736523D01*
X126238142Y-114831761D01*
X126381000Y-114879380D01*
X126476238Y-114879380D01*
X126619095Y-114831761D01*
X126666714Y-114784142D01*
X126666714Y-114450809D01*
X126476238Y-114450809D01*
X127095285Y-114879380D02*
X127095285Y-113879380D01*
X127666714Y-114879380D01*
X127666714Y-113879380D01*
X128142904Y-114879380D02*
X128142904Y-113879380D01*
X128381000Y-113879380D01*
X128523857Y-113927000D01*
X128619095Y-114022238D01*
X128666714Y-114117476D01*
X128714333Y-114307952D01*
X128714333Y-114450809D01*
X128666714Y-114641285D01*
X128619095Y-114736523D01*
X128523857Y-114831761D01*
X128381000Y-114879380D01*
X128142904Y-114879380D01*
X125809571Y-112275880D02*
X125809571Y-111275880D01*
X126142904Y-111990166D01*
X126476238Y-111275880D01*
X126476238Y-112275880D01*
X127142904Y-111275880D02*
X127333380Y-111275880D01*
X127428619Y-111323500D01*
X127523857Y-111418738D01*
X127571476Y-111609214D01*
X127571476Y-111942547D01*
X127523857Y-112133023D01*
X127428619Y-112228261D01*
X127333380Y-112275880D01*
X127142904Y-112275880D01*
X127047666Y-112228261D01*
X126952428Y-112133023D01*
X126904809Y-111942547D01*
X126904809Y-111609214D01*
X126952428Y-111418738D01*
X127047666Y-111323500D01*
X127142904Y-111275880D01*
X127952428Y-112228261D02*
X128095285Y-112275880D01*
X128333380Y-112275880D01*
X128428619Y-112228261D01*
X128476238Y-112180642D01*
X128523857Y-112085404D01*
X128523857Y-111990166D01*
X128476238Y-111894928D01*
X128428619Y-111847309D01*
X128333380Y-111799690D01*
X128142904Y-111752071D01*
X128047666Y-111704452D01*
X128000047Y-111656833D01*
X127952428Y-111561595D01*
X127952428Y-111466357D01*
X128000047Y-111371119D01*
X128047666Y-111323500D01*
X128142904Y-111275880D01*
X128381000Y-111275880D01*
X128523857Y-111323500D01*
X128952428Y-112275880D02*
X128952428Y-111275880D01*
X127381023Y-108862880D02*
X126904833Y-108862880D01*
X126857214Y-109339071D01*
X126904833Y-109291452D01*
X127000071Y-109243833D01*
X127238166Y-109243833D01*
X127333404Y-109291452D01*
X127381023Y-109339071D01*
X127428642Y-109434309D01*
X127428642Y-109672404D01*
X127381023Y-109767642D01*
X127333404Y-109815261D01*
X127238166Y-109862880D01*
X127000071Y-109862880D01*
X126904833Y-109815261D01*
X126857214Y-109767642D01*
X127714357Y-108862880D02*
X128047690Y-109862880D01*
X128381023Y-108862880D01*
X135144071Y-109608880D02*
X135144071Y-108608880D01*
X135477404Y-109323166D01*
X135810738Y-108608880D01*
X135810738Y-109608880D01*
X136286928Y-109608880D02*
X136286928Y-108608880D01*
X136715500Y-109561261D02*
X136858357Y-109608880D01*
X137096452Y-109608880D01*
X137191690Y-109561261D01*
X137239309Y-109513642D01*
X137286928Y-109418404D01*
X137286928Y-109323166D01*
X137239309Y-109227928D01*
X137191690Y-109180309D01*
X137096452Y-109132690D01*
X136905976Y-109085071D01*
X136810738Y-109037452D01*
X136763119Y-108989833D01*
X136715500Y-108894595D01*
X136715500Y-108799357D01*
X136763119Y-108704119D01*
X136810738Y-108656500D01*
X136905976Y-108608880D01*
X137144071Y-108608880D01*
X137286928Y-108656500D01*
X137905976Y-108608880D02*
X138096452Y-108608880D01*
X138191690Y-108656500D01*
X138286928Y-108751738D01*
X138334547Y-108942214D01*
X138334547Y-109275547D01*
X138286928Y-109466023D01*
X138191690Y-109561261D01*
X138096452Y-109608880D01*
X137905976Y-109608880D01*
X137810738Y-109561261D01*
X137715500Y-109466023D01*
X137667880Y-109275547D01*
X137667880Y-108942214D01*
X137715500Y-108751738D01*
X137810738Y-108656500D01*
X137905976Y-108608880D01*
X135048785Y-112164761D02*
X135191642Y-112212380D01*
X135429738Y-112212380D01*
X135524976Y-112164761D01*
X135572595Y-112117142D01*
X135620214Y-112021904D01*
X135620214Y-111926666D01*
X135572595Y-111831428D01*
X135524976Y-111783809D01*
X135429738Y-111736190D01*
X135239261Y-111688571D01*
X135144023Y-111640952D01*
X135096404Y-111593333D01*
X135048785Y-111498095D01*
X135048785Y-111402857D01*
X135096404Y-111307619D01*
X135144023Y-111260000D01*
X135239261Y-111212380D01*
X135477357Y-111212380D01*
X135620214Y-111260000D01*
X136620214Y-112117142D02*
X136572595Y-112164761D01*
X136429738Y-112212380D01*
X136334500Y-112212380D01*
X136191642Y-112164761D01*
X136096404Y-112069523D01*
X136048785Y-111974285D01*
X136001166Y-111783809D01*
X136001166Y-111640952D01*
X136048785Y-111450476D01*
X136096404Y-111355238D01*
X136191642Y-111260000D01*
X136334500Y-111212380D01*
X136429738Y-111212380D01*
X136572595Y-111260000D01*
X136620214Y-111307619D01*
X137048785Y-112212380D02*
X137048785Y-111212380D01*
X137620214Y-112212380D02*
X137191642Y-111640952D01*
X137620214Y-111212380D02*
X137048785Y-111783809D01*
X135723380Y-114942880D02*
X135390047Y-114466690D01*
X135151952Y-114942880D02*
X135151952Y-113942880D01*
X135532904Y-113942880D01*
X135628142Y-113990500D01*
X135675761Y-114038119D01*
X135723380Y-114133357D01*
X135723380Y-114276214D01*
X135675761Y-114371452D01*
X135628142Y-114419071D01*
X135532904Y-114466690D01*
X135151952Y-114466690D01*
X136104333Y-114895261D02*
X136247190Y-114942880D01*
X136485285Y-114942880D01*
X136580523Y-114895261D01*
X136628142Y-114847642D01*
X136675761Y-114752404D01*
X136675761Y-114657166D01*
X136628142Y-114561928D01*
X136580523Y-114514309D01*
X136485285Y-114466690D01*
X136294809Y-114419071D01*
X136199571Y-114371452D01*
X136151952Y-114323833D01*
X136104333Y-114228595D01*
X136104333Y-114133357D01*
X136151952Y-114038119D01*
X136199571Y-113990500D01*
X136294809Y-113942880D01*
X136532904Y-113942880D01*
X136675761Y-113990500D01*
X136961476Y-113942880D02*
X137532904Y-113942880D01*
X137247190Y-114942880D02*
X137247190Y-113942880D01*
X115181214Y-76541261D02*
X115324071Y-76588880D01*
X115562166Y-76588880D01*
X115657404Y-76541261D01*
X115705023Y-76493642D01*
X115752642Y-76398404D01*
X115752642Y-76303166D01*
X115705023Y-76207928D01*
X115657404Y-76160309D01*
X115562166Y-76112690D01*
X115371690Y-76065071D01*
X115276452Y-76017452D01*
X115228833Y-75969833D01*
X115181214Y-75874595D01*
X115181214Y-75779357D01*
X115228833Y-75684119D01*
X115276452Y-75636500D01*
X115371690Y-75588880D01*
X115609785Y-75588880D01*
X115752642Y-75636500D01*
X116181214Y-76588880D02*
X116181214Y-75588880D01*
X116419309Y-75588880D01*
X116562166Y-75636500D01*
X116657404Y-75731738D01*
X116705023Y-75826976D01*
X116752642Y-76017452D01*
X116752642Y-76160309D01*
X116705023Y-76350785D01*
X116657404Y-76446023D01*
X116562166Y-76541261D01*
X116419309Y-76588880D01*
X116181214Y-76588880D01*
X117133595Y-76303166D02*
X117609785Y-76303166D01*
X117038357Y-76588880D02*
X117371690Y-75588880D01*
X117705023Y-76588880D01*
X112284023Y-76541261D02*
X112426880Y-76588880D01*
X112664976Y-76588880D01*
X112760214Y-76541261D01*
X112807833Y-76493642D01*
X112855452Y-76398404D01*
X112855452Y-76303166D01*
X112807833Y-76207928D01*
X112760214Y-76160309D01*
X112664976Y-76112690D01*
X112474500Y-76065071D01*
X112379261Y-76017452D01*
X112331642Y-75969833D01*
X112284023Y-75874595D01*
X112284023Y-75779357D01*
X112331642Y-75684119D01*
X112379261Y-75636500D01*
X112474500Y-75588880D01*
X112712595Y-75588880D01*
X112855452Y-75636500D01*
X113855452Y-76493642D02*
X113807833Y-76541261D01*
X113664976Y-76588880D01*
X113569738Y-76588880D01*
X113426880Y-76541261D01*
X113331642Y-76446023D01*
X113284023Y-76350785D01*
X113236404Y-76160309D01*
X113236404Y-76017452D01*
X113284023Y-75826976D01*
X113331642Y-75731738D01*
X113426880Y-75636500D01*
X113569738Y-75588880D01*
X113664976Y-75588880D01*
X113807833Y-75636500D01*
X113855452Y-75684119D01*
X114760214Y-76588880D02*
X114284023Y-76588880D01*
X114284023Y-75588880D01*
X136628166Y-92805047D02*
X136628166Y-92328857D01*
X136913880Y-92900285D02*
X135913880Y-92566952D01*
X136913880Y-92233619D01*
X136913880Y-91328857D02*
X136437690Y-91662190D01*
X136913880Y-91900285D02*
X135913880Y-91900285D01*
X135913880Y-91519333D01*
X135961500Y-91424095D01*
X136009119Y-91376476D01*
X136104357Y-91328857D01*
X136247214Y-91328857D01*
X136342452Y-91376476D01*
X136390071Y-91424095D01*
X136437690Y-91519333D01*
X136437690Y-91900285D01*
X136390071Y-90900285D02*
X136390071Y-90566952D01*
X136913880Y-90424095D02*
X136913880Y-90900285D01*
X135913880Y-90900285D01*
X135913880Y-90424095D01*
X136390071Y-89662190D02*
X136390071Y-89995523D01*
X136913880Y-89995523D02*
X135913880Y-89995523D01*
X135913880Y-89519333D01*
X129476595Y-94051500D02*
X129381357Y-94003880D01*
X129238500Y-94003880D01*
X129095642Y-94051500D01*
X129000404Y-94146738D01*
X128952785Y-94241976D01*
X128905166Y-94432452D01*
X128905166Y-94575309D01*
X128952785Y-94765785D01*
X129000404Y-94861023D01*
X129095642Y-94956261D01*
X129238500Y-95003880D01*
X129333738Y-95003880D01*
X129476595Y-94956261D01*
X129524214Y-94908642D01*
X129524214Y-94575309D01*
X129333738Y-94575309D01*
X129952785Y-95003880D02*
X129952785Y-94003880D01*
X130524214Y-95003880D01*
X130524214Y-94003880D01*
X131000404Y-95003880D02*
X131000404Y-94003880D01*
X131238500Y-94003880D01*
X131381357Y-94051500D01*
X131476595Y-94146738D01*
X131524214Y-94241976D01*
X131571833Y-94432452D01*
X131571833Y-94575309D01*
X131524214Y-94765785D01*
X131476595Y-94861023D01*
X131381357Y-94956261D01*
X131238500Y-95003880D01*
X131000404Y-95003880D01*
X128762285Y-96797761D02*
X128905142Y-96845380D01*
X129143238Y-96845380D01*
X129238476Y-96797761D01*
X129286095Y-96750142D01*
X129333714Y-96654904D01*
X129333714Y-96559666D01*
X129286095Y-96464428D01*
X129238476Y-96416809D01*
X129143238Y-96369190D01*
X128952761Y-96321571D01*
X128857523Y-96273952D01*
X128809904Y-96226333D01*
X128762285Y-96131095D01*
X128762285Y-96035857D01*
X128809904Y-95940619D01*
X128857523Y-95893000D01*
X128952761Y-95845380D01*
X129190857Y-95845380D01*
X129333714Y-95893000D01*
X130333714Y-96750142D02*
X130286095Y-96797761D01*
X130143238Y-96845380D01*
X130048000Y-96845380D01*
X129905142Y-96797761D01*
X129809904Y-96702523D01*
X129762285Y-96607285D01*
X129714666Y-96416809D01*
X129714666Y-96273952D01*
X129762285Y-96083476D01*
X129809904Y-95988238D01*
X129905142Y-95893000D01*
X130048000Y-95845380D01*
X130143238Y-95845380D01*
X130286095Y-95893000D01*
X130333714Y-95940619D01*
X130762285Y-96845380D02*
X130762285Y-95845380D01*
X131333714Y-96845380D02*
X130905142Y-96273952D01*
X131333714Y-95845380D02*
X130762285Y-96416809D01*
X128222571Y-99385380D02*
X128222571Y-98385380D01*
X128555904Y-99099666D01*
X128889238Y-98385380D01*
X128889238Y-99385380D01*
X129365428Y-99385380D02*
X129365428Y-98385380D01*
X129794000Y-99337761D02*
X129936857Y-99385380D01*
X130174952Y-99385380D01*
X130270190Y-99337761D01*
X130317809Y-99290142D01*
X130365428Y-99194904D01*
X130365428Y-99099666D01*
X130317809Y-99004428D01*
X130270190Y-98956809D01*
X130174952Y-98909190D01*
X129984476Y-98861571D01*
X129889238Y-98813952D01*
X129841619Y-98766333D01*
X129794000Y-98671095D01*
X129794000Y-98575857D01*
X129841619Y-98480619D01*
X129889238Y-98433000D01*
X129984476Y-98385380D01*
X130222571Y-98385380D01*
X130365428Y-98433000D01*
X130984476Y-98385380D02*
X131174952Y-98385380D01*
X131270190Y-98433000D01*
X131365428Y-98528238D01*
X131413047Y-98718714D01*
X131413047Y-99052047D01*
X131365428Y-99242523D01*
X131270190Y-99337761D01*
X131174952Y-99385380D01*
X130984476Y-99385380D01*
X130889238Y-99337761D01*
X130794000Y-99242523D01*
X130746380Y-99052047D01*
X130746380Y-98718714D01*
X130794000Y-98528238D01*
X130889238Y-98433000D01*
X130984476Y-98385380D01*
X128222571Y-101988880D02*
X128222571Y-100988880D01*
X128555904Y-101703166D01*
X128889238Y-100988880D01*
X128889238Y-101988880D01*
X129555904Y-100988880D02*
X129746380Y-100988880D01*
X129841619Y-101036500D01*
X129936857Y-101131738D01*
X129984476Y-101322214D01*
X129984476Y-101655547D01*
X129936857Y-101846023D01*
X129841619Y-101941261D01*
X129746380Y-101988880D01*
X129555904Y-101988880D01*
X129460666Y-101941261D01*
X129365428Y-101846023D01*
X129317809Y-101655547D01*
X129317809Y-101322214D01*
X129365428Y-101131738D01*
X129460666Y-101036500D01*
X129555904Y-100988880D01*
X130365428Y-101941261D02*
X130508285Y-101988880D01*
X130746380Y-101988880D01*
X130841619Y-101941261D01*
X130889238Y-101893642D01*
X130936857Y-101798404D01*
X130936857Y-101703166D01*
X130889238Y-101607928D01*
X130841619Y-101560309D01*
X130746380Y-101512690D01*
X130555904Y-101465071D01*
X130460666Y-101417452D01*
X130413047Y-101369833D01*
X130365428Y-101274595D01*
X130365428Y-101179357D01*
X130413047Y-101084119D01*
X130460666Y-101036500D01*
X130555904Y-100988880D01*
X130794000Y-100988880D01*
X130936857Y-101036500D01*
X131365428Y-101988880D02*
X131365428Y-100988880D01*
X126738357Y-104735261D02*
X126881214Y-104782880D01*
X127119309Y-104782880D01*
X127214547Y-104735261D01*
X127262166Y-104687642D01*
X127309785Y-104592404D01*
X127309785Y-104497166D01*
X127262166Y-104401928D01*
X127214547Y-104354309D01*
X127119309Y-104306690D01*
X126928833Y-104259071D01*
X126833595Y-104211452D01*
X126785976Y-104163833D01*
X126738357Y-104068595D01*
X126738357Y-103973357D01*
X126785976Y-103878119D01*
X126833595Y-103830500D01*
X126928833Y-103782880D01*
X127166928Y-103782880D01*
X127309785Y-103830500D01*
X127738357Y-104782880D02*
X127738357Y-103782880D01*
X128119309Y-103782880D01*
X128214547Y-103830500D01*
X128262166Y-103878119D01*
X128309785Y-103973357D01*
X128309785Y-104116214D01*
X128262166Y-104211452D01*
X128214547Y-104259071D01*
X128119309Y-104306690D01*
X127738357Y-104306690D01*
X128738357Y-104782880D02*
X128738357Y-103782880D01*
X128976452Y-104878119D02*
X129738357Y-104878119D01*
X129928833Y-104735261D02*
X130071690Y-104782880D01*
X130309785Y-104782880D01*
X130405023Y-104735261D01*
X130452642Y-104687642D01*
X130500261Y-104592404D01*
X130500261Y-104497166D01*
X130452642Y-104401928D01*
X130405023Y-104354309D01*
X130309785Y-104306690D01*
X130119309Y-104259071D01*
X130024071Y-104211452D01*
X129976452Y-104163833D01*
X129928833Y-104068595D01*
X129928833Y-103973357D01*
X129976452Y-103878119D01*
X130024071Y-103830500D01*
X130119309Y-103782880D01*
X130357404Y-103782880D01*
X130500261Y-103830500D01*
X130881214Y-104735261D02*
X131024071Y-104782880D01*
X131262166Y-104782880D01*
X131357404Y-104735261D01*
X131405023Y-104687642D01*
X131452642Y-104592404D01*
X131452642Y-104497166D01*
X131405023Y-104401928D01*
X131357404Y-104354309D01*
X131262166Y-104306690D01*
X131071690Y-104259071D01*
X130976452Y-104211452D01*
X130928833Y-104163833D01*
X130881214Y-104068595D01*
X130881214Y-103973357D01*
X130928833Y-103878119D01*
X130976452Y-103830500D01*
X131071690Y-103782880D01*
X131309785Y-103782880D01*
X131452642Y-103830500D01*
X125650714Y-71286666D02*
X126126904Y-71286666D01*
X125555476Y-71572380D02*
X125888809Y-70572380D01*
X126222142Y-71572380D01*
X126745952Y-70572380D02*
X126841190Y-70572380D01*
X126936428Y-70620000D01*
X126984047Y-70667619D01*
X127031666Y-70762857D01*
X127079285Y-70953333D01*
X127079285Y-71191428D01*
X127031666Y-71381904D01*
X126984047Y-71477142D01*
X126936428Y-71524761D01*
X126841190Y-71572380D01*
X126745952Y-71572380D01*
X126650714Y-71524761D01*
X126603095Y-71477142D01*
X126555476Y-71381904D01*
X126507857Y-71191428D01*
X126507857Y-70953333D01*
X126555476Y-70762857D01*
X126603095Y-70667619D01*
X126650714Y-70620000D01*
X126745952Y-70572380D01*
X123047214Y-71286666D02*
X123523404Y-71286666D01*
X122951976Y-71572380D02*
X123285309Y-70572380D01*
X123618642Y-71572380D01*
X124475785Y-71572380D02*
X123904357Y-71572380D01*
X124190071Y-71572380D02*
X124190071Y-70572380D01*
X124094833Y-70715238D01*
X123999595Y-70810476D01*
X123904357Y-70858095D01*
X120507214Y-71286666D02*
X120983404Y-71286666D01*
X120411976Y-71572380D02*
X120745309Y-70572380D01*
X121078642Y-71572380D01*
X121364357Y-70667619D02*
X121411976Y-70620000D01*
X121507214Y-70572380D01*
X121745309Y-70572380D01*
X121840547Y-70620000D01*
X121888166Y-70667619D01*
X121935785Y-70762857D01*
X121935785Y-70858095D01*
X121888166Y-71000952D01*
X121316738Y-71572380D01*
X121935785Y-71572380D01*
X118094214Y-71350166D02*
X118570404Y-71350166D01*
X117998976Y-71635880D02*
X118332309Y-70635880D01*
X118665642Y-71635880D01*
X118903738Y-70635880D02*
X119522785Y-70635880D01*
X119189452Y-71016833D01*
X119332309Y-71016833D01*
X119427547Y-71064452D01*
X119475166Y-71112071D01*
X119522785Y-71207309D01*
X119522785Y-71445404D01*
X119475166Y-71540642D01*
X119427547Y-71588261D01*
X119332309Y-71635880D01*
X119046595Y-71635880D01*
X118951357Y-71588261D01*
X118903738Y-71540642D01*
X115490714Y-71350166D02*
X115966904Y-71350166D01*
X115395476Y-71635880D02*
X115728809Y-70635880D01*
X116062142Y-71635880D01*
X116824047Y-70969214D02*
X116824047Y-71635880D01*
X116585952Y-70588261D02*
X116347857Y-71302547D01*
X116966904Y-71302547D01*
X112887214Y-71350166D02*
X113363404Y-71350166D01*
X112791976Y-71635880D02*
X113125309Y-70635880D01*
X113458642Y-71635880D01*
X114268166Y-70635880D02*
X113791976Y-70635880D01*
X113744357Y-71112071D01*
X113791976Y-71064452D01*
X113887214Y-71016833D01*
X114125309Y-71016833D01*
X114220547Y-71064452D01*
X114268166Y-71112071D01*
X114315785Y-71207309D01*
X114315785Y-71445404D01*
X114268166Y-71540642D01*
X114220547Y-71588261D01*
X114125309Y-71635880D01*
X113887214Y-71635880D01*
X113791976Y-71588261D01*
X113744357Y-71540642D01*
X108061214Y-71413666D02*
X108537404Y-71413666D01*
X107965976Y-71699380D02*
X108299309Y-70699380D01*
X108632642Y-71699380D01*
X108870738Y-70699380D02*
X109537404Y-70699380D01*
X109108833Y-71699380D01*
X110410714Y-71350166D02*
X110886904Y-71350166D01*
X110315476Y-71635880D02*
X110648809Y-70635880D01*
X110982142Y-71635880D01*
X111744047Y-70635880D02*
X111553571Y-70635880D01*
X111458333Y-70683500D01*
X111410714Y-70731119D01*
X111315476Y-70873976D01*
X111267857Y-71064452D01*
X111267857Y-71445404D01*
X111315476Y-71540642D01*
X111363095Y-71588261D01*
X111458333Y-71635880D01*
X111648809Y-71635880D01*
X111744047Y-71588261D01*
X111791666Y-71540642D01*
X111839285Y-71445404D01*
X111839285Y-71207309D01*
X111791666Y-71112071D01*
X111744047Y-71064452D01*
X111648809Y-71016833D01*
X111458333Y-71016833D01*
X111363095Y-71064452D01*
X111315476Y-71112071D01*
X111267857Y-71207309D01*
X102496880Y-73064595D02*
X101496880Y-73064595D01*
X101496880Y-72826500D01*
X101544500Y-72683642D01*
X101639738Y-72588404D01*
X101734976Y-72540785D01*
X101925452Y-72493166D01*
X102068309Y-72493166D01*
X102258785Y-72540785D01*
X102354023Y-72588404D01*
X102449261Y-72683642D01*
X102496880Y-72826500D01*
X102496880Y-73064595D01*
X101496880Y-71874119D02*
X101496880Y-71778880D01*
X101544500Y-71683642D01*
X101592119Y-71636023D01*
X101687357Y-71588404D01*
X101877833Y-71540785D01*
X102115928Y-71540785D01*
X102306404Y-71588404D01*
X102401642Y-71636023D01*
X102449261Y-71683642D01*
X102496880Y-71778880D01*
X102496880Y-71874119D01*
X102449261Y-71969357D01*
X102401642Y-72016976D01*
X102306404Y-72064595D01*
X102115928Y-72112214D01*
X101877833Y-72112214D01*
X101687357Y-72064595D01*
X101592119Y-72016976D01*
X101544500Y-71969357D01*
X101496880Y-71874119D01*
X102496880Y-75541095D02*
X101496880Y-75541095D01*
X101496880Y-75303000D01*
X101544500Y-75160142D01*
X101639738Y-75064904D01*
X101734976Y-75017285D01*
X101925452Y-74969666D01*
X102068309Y-74969666D01*
X102258785Y-75017285D01*
X102354023Y-75064904D01*
X102449261Y-75160142D01*
X102496880Y-75303000D01*
X102496880Y-75541095D01*
X102496880Y-74017285D02*
X102496880Y-74588714D01*
X102496880Y-74303000D02*
X101496880Y-74303000D01*
X101639738Y-74398238D01*
X101734976Y-74493476D01*
X101782595Y-74588714D01*
X102496880Y-78208095D02*
X101496880Y-78208095D01*
X101496880Y-77970000D01*
X101544500Y-77827142D01*
X101639738Y-77731904D01*
X101734976Y-77684285D01*
X101925452Y-77636666D01*
X102068309Y-77636666D01*
X102258785Y-77684285D01*
X102354023Y-77731904D01*
X102449261Y-77827142D01*
X102496880Y-77970000D01*
X102496880Y-78208095D01*
X101592119Y-77255714D02*
X101544500Y-77208095D01*
X101496880Y-77112857D01*
X101496880Y-76874761D01*
X101544500Y-76779523D01*
X101592119Y-76731904D01*
X101687357Y-76684285D01*
X101782595Y-76684285D01*
X101925452Y-76731904D01*
X102496880Y-77303333D01*
X102496880Y-76684285D01*
X102496880Y-80684595D02*
X101496880Y-80684595D01*
X101496880Y-80446500D01*
X101544500Y-80303642D01*
X101639738Y-80208404D01*
X101734976Y-80160785D01*
X101925452Y-80113166D01*
X102068309Y-80113166D01*
X102258785Y-80160785D01*
X102354023Y-80208404D01*
X102449261Y-80303642D01*
X102496880Y-80446500D01*
X102496880Y-80684595D01*
X101830214Y-79256023D02*
X102496880Y-79256023D01*
X101449261Y-79494119D02*
X102163547Y-79732214D01*
X102163547Y-79113166D01*
X102496880Y-83224595D02*
X101496880Y-83224595D01*
X101496880Y-82986500D01*
X101544500Y-82843642D01*
X101639738Y-82748404D01*
X101734976Y-82700785D01*
X101925452Y-82653166D01*
X102068309Y-82653166D01*
X102258785Y-82700785D01*
X102354023Y-82748404D01*
X102449261Y-82843642D01*
X102496880Y-82986500D01*
X102496880Y-83224595D01*
X101496880Y-82319833D02*
X101496880Y-81653166D01*
X102496880Y-82081738D01*
X102433380Y-85891595D02*
X101433380Y-85891595D01*
X101433380Y-85653500D01*
X101481000Y-85510642D01*
X101576238Y-85415404D01*
X101671476Y-85367785D01*
X101861952Y-85320166D01*
X102004809Y-85320166D01*
X102195285Y-85367785D01*
X102290523Y-85415404D01*
X102385761Y-85510642D01*
X102433380Y-85653500D01*
X102433380Y-85891595D01*
X101861952Y-84748738D02*
X101814333Y-84843976D01*
X101766714Y-84891595D01*
X101671476Y-84939214D01*
X101623857Y-84939214D01*
X101528619Y-84891595D01*
X101481000Y-84843976D01*
X101433380Y-84748738D01*
X101433380Y-84558261D01*
X101481000Y-84463023D01*
X101528619Y-84415404D01*
X101623857Y-84367785D01*
X101671476Y-84367785D01*
X101766714Y-84415404D01*
X101814333Y-84463023D01*
X101861952Y-84558261D01*
X101861952Y-84748738D01*
X101909571Y-84843976D01*
X101957190Y-84891595D01*
X102052428Y-84939214D01*
X102242904Y-84939214D01*
X102338142Y-84891595D01*
X102385761Y-84843976D01*
X102433380Y-84748738D01*
X102433380Y-84558261D01*
X102385761Y-84463023D01*
X102338142Y-84415404D01*
X102242904Y-84367785D01*
X102052428Y-84367785D01*
X101957190Y-84415404D01*
X101909571Y-84463023D01*
X101861952Y-84558261D01*
X96210500Y-83883404D02*
X96162880Y-83978642D01*
X96162880Y-84121500D01*
X96210500Y-84264357D01*
X96305738Y-84359595D01*
X96400976Y-84407214D01*
X96591452Y-84454833D01*
X96734309Y-84454833D01*
X96924785Y-84407214D01*
X97020023Y-84359595D01*
X97115261Y-84264357D01*
X97162880Y-84121500D01*
X97162880Y-84026261D01*
X97115261Y-83883404D01*
X97067642Y-83835785D01*
X96734309Y-83835785D01*
X96734309Y-84026261D01*
X97162880Y-83407214D02*
X96162880Y-83407214D01*
X97162880Y-82835785D01*
X96162880Y-82835785D01*
X97162880Y-82359595D02*
X96162880Y-82359595D01*
X96162880Y-82121500D01*
X96210500Y-81978642D01*
X96305738Y-81883404D01*
X96400976Y-81835785D01*
X96591452Y-81788166D01*
X96734309Y-81788166D01*
X96924785Y-81835785D01*
X97020023Y-81883404D01*
X97115261Y-81978642D01*
X97162880Y-82121500D01*
X97162880Y-82359595D01*
X96162880Y-79343095D02*
X96162880Y-78724047D01*
X96543833Y-79057380D01*
X96543833Y-78914523D01*
X96591452Y-78819285D01*
X96639071Y-78771666D01*
X96734309Y-78724047D01*
X96972404Y-78724047D01*
X97067642Y-78771666D01*
X97115261Y-78819285D01*
X97162880Y-78914523D01*
X97162880Y-79200238D01*
X97115261Y-79295476D01*
X97067642Y-79343095D01*
X96162880Y-78438333D02*
X97162880Y-78105000D01*
X96162880Y-77771666D01*
X96162880Y-77533571D02*
X96162880Y-76914523D01*
X96543833Y-77247857D01*
X96543833Y-77105000D01*
X96591452Y-77009761D01*
X96639071Y-76962142D01*
X96734309Y-76914523D01*
X96972404Y-76914523D01*
X97067642Y-76962142D01*
X97115261Y-77009761D01*
X97162880Y-77105000D01*
X97162880Y-77390714D01*
X97115261Y-77485952D01*
X97067642Y-77533571D01*
X96162880Y-74421976D02*
X96162880Y-74898166D01*
X96639071Y-74945785D01*
X96591452Y-74898166D01*
X96543833Y-74802928D01*
X96543833Y-74564833D01*
X96591452Y-74469595D01*
X96639071Y-74421976D01*
X96734309Y-74374357D01*
X96972404Y-74374357D01*
X97067642Y-74421976D01*
X97115261Y-74469595D01*
X97162880Y-74564833D01*
X97162880Y-74802928D01*
X97115261Y-74898166D01*
X97067642Y-74945785D01*
X96162880Y-74088642D02*
X97162880Y-73755309D01*
X96162880Y-73421976D01*
X97162880Y-71858119D02*
X96686690Y-72191452D01*
X97162880Y-72429547D02*
X96162880Y-72429547D01*
X96162880Y-72048595D01*
X96210500Y-71953357D01*
X96258119Y-71905738D01*
X96353357Y-71858119D01*
X96496214Y-71858119D01*
X96591452Y-71905738D01*
X96639071Y-71953357D01*
X96686690Y-72048595D01*
X96686690Y-72429547D01*
X97115261Y-71477166D02*
X97162880Y-71334309D01*
X97162880Y-71096214D01*
X97115261Y-71000976D01*
X97067642Y-70953357D01*
X96972404Y-70905738D01*
X96877166Y-70905738D01*
X96781928Y-70953357D01*
X96734309Y-71000976D01*
X96686690Y-71096214D01*
X96639071Y-71286690D01*
X96591452Y-71381928D01*
X96543833Y-71429547D01*
X96448595Y-71477166D01*
X96353357Y-71477166D01*
X96258119Y-71429547D01*
X96210500Y-71381928D01*
X96162880Y-71286690D01*
X96162880Y-71048595D01*
X96210500Y-70905738D01*
X96162880Y-70620023D02*
X96162880Y-70048595D01*
X97162880Y-70334309D02*
X96162880Y-70334309D01*
X82240500Y-82613404D02*
X82192880Y-82708642D01*
X82192880Y-82851500D01*
X82240500Y-82994357D01*
X82335738Y-83089595D01*
X82430976Y-83137214D01*
X82621452Y-83184833D01*
X82764309Y-83184833D01*
X82954785Y-83137214D01*
X83050023Y-83089595D01*
X83145261Y-82994357D01*
X83192880Y-82851500D01*
X83192880Y-82756261D01*
X83145261Y-82613404D01*
X83097642Y-82565785D01*
X82764309Y-82565785D01*
X82764309Y-82756261D01*
X83192880Y-82137214D02*
X82192880Y-82137214D01*
X83192880Y-81565785D01*
X82192880Y-81565785D01*
X83192880Y-81089595D02*
X82192880Y-81089595D01*
X82192880Y-80851500D01*
X82240500Y-80708642D01*
X82335738Y-80613404D01*
X82430976Y-80565785D01*
X82621452Y-80518166D01*
X82764309Y-80518166D01*
X82954785Y-80565785D01*
X83050023Y-80613404D01*
X83145261Y-80708642D01*
X83192880Y-80851500D01*
X83192880Y-81089595D01*
D11*
G04 #@! TO.C,SW1*
X133659000Y-78177000D02*
X127199000Y-78177000D01*
X133659000Y-82707000D02*
X133659000Y-80107000D01*
X133659000Y-84637000D02*
X127199000Y-84637000D01*
X127199000Y-82707000D02*
X127199000Y-80107000D01*
X133659000Y-84607000D02*
X133659000Y-84637000D01*
X133659000Y-78177000D02*
X133659000Y-78207000D01*
X127199000Y-78177000D02*
X127199000Y-78207000D01*
X127199000Y-84637000D02*
X127199000Y-84607000D01*
G04 #@! TO.C,C1*
X93326000Y-111233000D02*
X93326000Y-108883000D01*
X93326000Y-104413000D02*
X93326000Y-106763000D01*
X87570437Y-104413000D02*
X93326000Y-104413000D01*
X87570437Y-111233000D02*
X93326000Y-111233000D01*
X86506000Y-110168563D02*
X86506000Y-108883000D01*
X86506000Y-105477437D02*
X86506000Y-106763000D01*
X86506000Y-105477437D02*
X87570437Y-104413000D01*
X86506000Y-110168563D02*
X87570437Y-111233000D01*
X85478500Y-105975500D02*
X86266000Y-105975500D01*
X85872250Y-105581750D02*
X85872250Y-106369250D01*
G04 #@! TO.C,C2*
X99801750Y-95078250D02*
X99801750Y-94290750D01*
X100195500Y-94684500D02*
X99408000Y-94684500D01*
X99168000Y-90491437D02*
X98103563Y-89427000D01*
X99168000Y-95182563D02*
X98103563Y-96247000D01*
X99168000Y-95182563D02*
X99168000Y-93897000D01*
X99168000Y-90491437D02*
X99168000Y-91777000D01*
X98103563Y-89427000D02*
X92348000Y-89427000D01*
X98103563Y-96247000D02*
X92348000Y-96247000D01*
X92348000Y-96247000D02*
X92348000Y-93897000D01*
X92348000Y-89427000D02*
X92348000Y-91777000D01*
G04 #@! TO.C,C3*
X96372000Y-104299936D02*
X96372000Y-105504064D01*
X98192000Y-104299936D02*
X98192000Y-105504064D01*
G04 #@! TO.C,C4*
X125243000Y-121571936D02*
X125243000Y-122776064D01*
X123423000Y-121571936D02*
X123423000Y-122776064D01*
G04 #@! TO.C,C5*
X89556000Y-117126936D02*
X89556000Y-118331064D01*
X87736000Y-117126936D02*
X87736000Y-118331064D01*
G04 #@! TO.C,C6*
X103780000Y-99092936D02*
X103780000Y-100297064D01*
X101960000Y-99092936D02*
X101960000Y-100297064D01*
G04 #@! TO.C,C7*
X81005000Y-111792936D02*
X81005000Y-112997064D01*
X82825000Y-111792936D02*
X82825000Y-112997064D01*
G04 #@! TO.C,C8*
X113062936Y-119782000D02*
X114267064Y-119782000D01*
X113062936Y-117962000D02*
X114267064Y-117962000D01*
G04 #@! TO.C,C9*
X121386000Y-136753000D02*
X121386000Y-135553000D01*
X121386000Y-132233000D02*
X121386000Y-133433000D01*
X117930437Y-132233000D02*
X121386000Y-132233000D01*
X117930437Y-136753000D02*
X121386000Y-136753000D01*
X116866000Y-135688563D02*
X116866000Y-135553000D01*
X116866000Y-133297437D02*
X116866000Y-133433000D01*
X116866000Y-133297437D02*
X117930437Y-132233000D01*
X116866000Y-135688563D02*
X117930437Y-136753000D01*
X116126000Y-132933000D02*
X116626000Y-132933000D01*
X116376000Y-132683000D02*
X116376000Y-133183000D01*
G04 #@! TO.C,C10*
X92881000Y-132937000D02*
X92881000Y-133437000D01*
X92631000Y-133187000D02*
X93131000Y-133187000D01*
X93371000Y-135942563D02*
X94435437Y-137007000D01*
X93371000Y-133551437D02*
X94435437Y-132487000D01*
X93371000Y-133551437D02*
X93371000Y-133687000D01*
X93371000Y-135942563D02*
X93371000Y-135807000D01*
X94435437Y-137007000D02*
X97891000Y-137007000D01*
X94435437Y-132487000D02*
X97891000Y-132487000D01*
X97891000Y-132487000D02*
X97891000Y-133687000D01*
X97891000Y-137007000D02*
X97891000Y-135807000D01*
G04 #@! TO.C,C11*
X101494000Y-104299936D02*
X101494000Y-105504064D01*
X99674000Y-104299936D02*
X99674000Y-105504064D01*
G04 #@! TO.C,C12*
X105377064Y-118766000D02*
X104172936Y-118766000D01*
X105377064Y-116946000D02*
X104172936Y-116946000D01*
G04 #@! TO.C,C13*
X116353000Y-112362064D02*
X116353000Y-111157936D01*
X114533000Y-112362064D02*
X114533000Y-111157936D01*
G04 #@! TO.C,C14*
X129688000Y-92042064D02*
X129688000Y-90837936D01*
X127868000Y-92042064D02*
X127868000Y-90837936D01*
G04 #@! TO.C,C15*
X94074064Y-115295000D02*
X92869936Y-115295000D01*
X94074064Y-117115000D02*
X92869936Y-117115000D01*
G04 #@! TO.C,C16*
X105377064Y-120375000D02*
X104172936Y-120375000D01*
X105377064Y-122195000D02*
X104172936Y-122195000D01*
G04 #@! TO.C,C17*
X98011064Y-141626000D02*
X96806936Y-141626000D01*
X98011064Y-139806000D02*
X96806936Y-139806000D01*
G04 #@! TO.C,C18*
X94074064Y-118597000D02*
X92869936Y-118597000D01*
X94074064Y-120417000D02*
X92869936Y-120417000D01*
D12*
G04 #@! TO.C,GND*
X84254340Y-94442280D02*
X84254340Y-104439720D01*
X84254340Y-104439720D02*
X76657200Y-104439720D01*
X76657200Y-104439720D02*
X76657200Y-94442280D01*
X76657200Y-94442280D02*
X82255360Y-94442280D01*
X82255360Y-94442280D02*
X82755740Y-94442280D01*
X82755740Y-94442280D02*
X84254340Y-94442280D01*
X82255360Y-94442280D02*
X82255360Y-93941900D01*
X82255360Y-93941900D02*
X82755740Y-93941900D01*
X82755740Y-93941900D02*
X82755740Y-94442280D01*
X75930760Y-96629220D02*
X76405740Y-96946720D01*
X76405740Y-96946720D02*
X75930760Y-97264220D01*
X75930760Y-97264220D02*
X75930760Y-96629220D01*
D11*
G04 #@! TO.C,ICSP2*
X129099000Y-107890000D02*
X131699000Y-107890000D01*
X129099000Y-107890000D02*
X129099000Y-115630000D01*
X129099000Y-115630000D02*
X134299000Y-115630000D01*
X134299000Y-110490000D02*
X134299000Y-115630000D01*
X131699000Y-110490000D02*
X134299000Y-110490000D01*
X131699000Y-107890000D02*
X131699000Y-110490000D01*
X134299000Y-107890000D02*
X134299000Y-109220000D01*
X132969000Y-107890000D02*
X134299000Y-107890000D01*
G04 #@! TO.C,IO_Expander (IC2)*
X102108000Y-147507000D02*
X102108000Y-144847000D01*
X102108000Y-147507000D02*
X119948000Y-147507000D01*
X119948000Y-147507000D02*
X119948000Y-144847000D01*
X102108000Y-144847000D02*
X119948000Y-144847000D01*
X99508000Y-144847000D02*
X100838000Y-144847000D01*
X99508000Y-146177000D02*
X99508000Y-144847000D01*
D10*
G04 #@! TO.C,IO_EXPANDER_IC1*
X104952800Y-123444000D02*
G75*
G02X104343200Y-123444000I-304800J0D01*
G01*
D13*
X104343200Y-123444000D02*
X102768400Y-123444000D01*
X104952800Y-123444000D02*
X104343200Y-123444000D01*
X106527600Y-123444000D02*
X104952800Y-123444000D01*
X102768400Y-128524000D02*
X106527600Y-128524000D01*
D10*
G04 #@! TO.C,IO_EXPANDER_IC2*
X100330000Y-137490200D02*
G75*
G02X100330000Y-138099800I0J-304800D01*
G01*
D13*
X100330000Y-138099800D02*
X100330000Y-139674600D01*
X100330000Y-137490200D02*
X100330000Y-138099800D01*
X100330000Y-135915400D02*
X100330000Y-137490200D01*
X105410000Y-139674600D02*
X105410000Y-135915400D01*
D11*
G04 #@! TO.C,J1*
X118491000Y-139259000D02*
X118491000Y-141919000D01*
X118491000Y-139259000D02*
X113351000Y-139259000D01*
X113351000Y-139259000D02*
X113351000Y-141919000D01*
X118491000Y-141919000D02*
X113351000Y-141919000D01*
X121091000Y-141919000D02*
X119761000Y-141919000D01*
X121091000Y-140589000D02*
X121091000Y-141919000D01*
G04 #@! TO.C,J2*
X124206000Y-119059000D02*
X122876000Y-119059000D01*
X122876000Y-119059000D02*
X122876000Y-117729000D01*
X122876000Y-116459000D02*
X122876000Y-111319000D01*
X125536000Y-111319000D02*
X122876000Y-111319000D01*
X125536000Y-116459000D02*
X125536000Y-111319000D01*
X125536000Y-116459000D02*
X122876000Y-116459000D01*
G04 #@! TO.C,LED1*
X103115304Y-109921874D02*
X100430304Y-109921874D01*
X100430304Y-109921874D02*
X100430304Y-111841874D01*
X100430304Y-111841874D02*
X103115304Y-111841874D01*
G04 #@! TO.C,D9(PWM)*
X122621874Y-100514196D02*
X122621874Y-103199196D01*
X122621874Y-103199196D02*
X124541874Y-103199196D01*
X124541874Y-103199196D02*
X124541874Y-100514196D01*
G04 #@! TO.C,D6(PWM)*
X120223874Y-103150696D02*
X120223874Y-100465696D01*
X118303874Y-103150696D02*
X120223874Y-103150696D01*
X118303874Y-100465696D02*
X118303874Y-103150696D01*
G04 #@! TO.C,D5(PWM)*
X113731874Y-100465696D02*
X113731874Y-103150696D01*
X113731874Y-103150696D02*
X115651874Y-103150696D01*
X115651874Y-103150696D02*
X115651874Y-100465696D01*
G04 #@! TO.C,D3(PWM)*
X110952874Y-103150696D02*
X110952874Y-100465696D01*
X109032874Y-103150696D02*
X110952874Y-103150696D01*
X109032874Y-100465696D02*
X109032874Y-103150696D01*
D12*
G04 #@! TO.C,MA-1A1*
X84127340Y-116921280D02*
X84127340Y-126918720D01*
X84127340Y-126918720D02*
X76530200Y-126918720D01*
X76530200Y-126918720D02*
X76530200Y-116921280D01*
X76530200Y-116921280D02*
X82128360Y-116921280D01*
X82128360Y-116921280D02*
X82628740Y-116921280D01*
X82628740Y-116921280D02*
X84127340Y-116921280D01*
X82128360Y-116921280D02*
X82128360Y-116420900D01*
X82128360Y-116420900D02*
X82628740Y-116420900D01*
X82628740Y-116420900D02*
X82628740Y-116921280D01*
X75803760Y-119108220D02*
X76278740Y-119425720D01*
X76278740Y-119425720D02*
X75803760Y-119743220D01*
X75803760Y-119743220D02*
X75803760Y-119108220D01*
G04 #@! TO.C,MB-1A1*
X75803760Y-131046220D02*
X75803760Y-130411220D01*
X76278740Y-130728720D02*
X75803760Y-131046220D01*
X75803760Y-130411220D02*
X76278740Y-130728720D01*
X82628740Y-127723900D02*
X82628740Y-128224280D01*
X82128360Y-127723900D02*
X82628740Y-127723900D01*
X82128360Y-128224280D02*
X82128360Y-127723900D01*
X82628740Y-128224280D02*
X84127340Y-128224280D01*
X82128360Y-128224280D02*
X82628740Y-128224280D01*
X76530200Y-128224280D02*
X82128360Y-128224280D01*
X76530200Y-138221720D02*
X76530200Y-128224280D01*
X84127340Y-138221720D02*
X76530200Y-138221720D01*
X84127340Y-128224280D02*
X84127340Y-138221720D01*
G04 #@! TO.C,MC-1A1*
X128978660Y-138094720D02*
X128978660Y-128097280D01*
X128978660Y-128097280D02*
X136575800Y-128097280D01*
X136575800Y-128097280D02*
X136575800Y-138094720D01*
X136575800Y-138094720D02*
X130977640Y-138094720D01*
X130977640Y-138094720D02*
X130477260Y-138094720D01*
X130477260Y-138094720D02*
X128978660Y-138094720D01*
X130977640Y-138094720D02*
X130977640Y-138595100D01*
X130977640Y-138595100D02*
X130477260Y-138595100D01*
X130477260Y-138595100D02*
X130477260Y-138094720D01*
X137302240Y-135907780D02*
X136827260Y-135590280D01*
X136827260Y-135590280D02*
X137302240Y-135272780D01*
X137302240Y-135272780D02*
X137302240Y-135907780D01*
G04 #@! TO.C,MD-1A1*
X137302240Y-124096780D02*
X137302240Y-124731780D01*
X136827260Y-124414280D02*
X137302240Y-124096780D01*
X137302240Y-124731780D02*
X136827260Y-124414280D01*
X130477260Y-127419100D02*
X130477260Y-126918720D01*
X130977640Y-127419100D02*
X130477260Y-127419100D01*
X130977640Y-126918720D02*
X130977640Y-127419100D01*
X130477260Y-126918720D02*
X128978660Y-126918720D01*
X130977640Y-126918720D02*
X130477260Y-126918720D01*
X136575800Y-126918720D02*
X130977640Y-126918720D01*
X136575800Y-116921280D02*
X136575800Y-126918720D01*
X128978660Y-116921280D02*
X136575800Y-116921280D01*
X128978660Y-126918720D02*
X128978660Y-116921280D01*
D14*
G04 #@! TO.C,MOTOR_DRIVER_IC1*
X90470000Y-122138000D02*
X88870000Y-122138000D01*
X90470000Y-130563000D02*
X96220000Y-130563000D01*
X90470000Y-121913000D02*
X96220000Y-121913000D01*
X90470000Y-130563000D02*
X90470000Y-130263000D01*
X96220000Y-130563000D02*
X96220000Y-130263000D01*
X96220000Y-121913000D02*
X96220000Y-122213000D01*
X90470000Y-121913000D02*
X90470000Y-122138000D01*
G04 #@! TO.C,MOTOR_DRIVER_IC2*
X118826000Y-130309000D02*
X118826000Y-130084000D01*
X113076000Y-130309000D02*
X113076000Y-130009000D01*
X113076000Y-121659000D02*
X113076000Y-121959000D01*
X118826000Y-121659000D02*
X118826000Y-121959000D01*
X118826000Y-130309000D02*
X113076000Y-130309000D01*
X118826000Y-121659000D02*
X113076000Y-121659000D01*
X118826000Y-130084000D02*
X120426000Y-130084000D01*
D11*
G04 #@! TO.C,P1*
X95437000Y-83185000D02*
X92777000Y-83185000D01*
X95437000Y-83185000D02*
X95437000Y-70425000D01*
X95437000Y-70425000D02*
X92777000Y-70425000D01*
X92777000Y-83185000D02*
X92777000Y-70425000D01*
X92777000Y-85785000D02*
X92777000Y-84455000D01*
X94107000Y-85785000D02*
X92777000Y-85785000D01*
G04 #@! TO.C,P2*
X127568000Y-73787000D02*
X127568000Y-75117000D01*
X127568000Y-75117000D02*
X126238000Y-75117000D01*
X124968000Y-75117000D02*
X107128000Y-75117000D01*
X107128000Y-72457000D02*
X107128000Y-75117000D01*
X124968000Y-72457000D02*
X107128000Y-72457000D01*
X124968000Y-72457000D02*
X124968000Y-75117000D01*
G04 #@! TO.C,P3*
X133604000Y-105343000D02*
X132274000Y-105343000D01*
X132274000Y-105343000D02*
X132274000Y-104013000D01*
X132274000Y-102743000D02*
X132274000Y-89983000D01*
X134934000Y-89983000D02*
X132274000Y-89983000D01*
X134934000Y-102743000D02*
X134934000Y-89983000D01*
X134934000Y-102743000D02*
X132274000Y-102743000D01*
G04 #@! TO.C,P4*
X98111000Y-73660000D02*
X100771000Y-73660000D01*
X98111000Y-73660000D02*
X98111000Y-86420000D01*
X98111000Y-86420000D02*
X100771000Y-86420000D01*
X100771000Y-73660000D02*
X100771000Y-86420000D01*
X100771000Y-71060000D02*
X100771000Y-72390000D01*
X99441000Y-71060000D02*
X100771000Y-71060000D01*
G04 #@! TO.C,P5*
X85725000Y-70425000D02*
X87055000Y-70425000D01*
X87055000Y-70425000D02*
X87055000Y-71755000D01*
X87055000Y-73025000D02*
X87055000Y-90865000D01*
X84395000Y-90865000D02*
X87055000Y-90865000D01*
X84395000Y-73025000D02*
X84395000Y-90865000D01*
X84395000Y-73025000D02*
X87055000Y-73025000D01*
G04 #@! TO.C,P6*
X88459000Y-73025000D02*
X91119000Y-73025000D01*
X88459000Y-73025000D02*
X88459000Y-90865000D01*
X88459000Y-90865000D02*
X91119000Y-90865000D01*
X91119000Y-73025000D02*
X91119000Y-90865000D01*
X91119000Y-70425000D02*
X91119000Y-71755000D01*
X89789000Y-70425000D02*
X91119000Y-70425000D01*
G04 #@! TO.C,R1*
X124237874Y-106766760D02*
X124237874Y-105562632D01*
X122417874Y-106766760D02*
X122417874Y-105562632D01*
G04 #@! TO.C,R2*
X120046874Y-106766760D02*
X120046874Y-105562632D01*
X118226874Y-106766760D02*
X118226874Y-105562632D01*
G04 #@! TO.C,R3*
X113527874Y-106766760D02*
X113527874Y-105562632D01*
X115347874Y-106766760D02*
X115347874Y-105562632D01*
G04 #@! TO.C,R4*
X111029874Y-106766760D02*
X111029874Y-105562632D01*
X109209874Y-106766760D02*
X109209874Y-105562632D01*
G04 #@! TO.C,R5*
X119486000Y-114521064D02*
X119486000Y-113316936D01*
X121306000Y-114521064D02*
X121306000Y-113316936D01*
G04 #@! TO.C,R6*
X120174936Y-82825000D02*
X121379064Y-82825000D01*
X120174936Y-81005000D02*
X121379064Y-81005000D01*
G04 #@! TO.C,R7*
X120174936Y-78465000D02*
X121379064Y-78465000D01*
X120174936Y-80285000D02*
X121379064Y-80285000D01*
G04 #@! TO.C,R8*
X112616064Y-133583000D02*
X111411936Y-133583000D01*
X112616064Y-135403000D02*
X111411936Y-135403000D01*
G04 #@! TO.C,R9*
X125243000Y-137446936D02*
X125243000Y-138651064D01*
X123423000Y-137446936D02*
X123423000Y-138651064D01*
G04 #@! TO.C,R10*
X96814240Y-109971874D02*
X98018368Y-109971874D01*
X96814240Y-111791874D02*
X98018368Y-111791874D01*
G04 #@! TO.C,R11*
X86508000Y-112935936D02*
X86508000Y-114140064D01*
X84688000Y-112935936D02*
X84688000Y-114140064D01*
G04 #@! TO.C,R12*
X113062936Y-116734000D02*
X114267064Y-116734000D01*
X113062936Y-114914000D02*
X114267064Y-114914000D01*
G04 #@! TO.C,R16*
X115930000Y-78391936D02*
X115930000Y-79596064D01*
X117750000Y-78391936D02*
X117750000Y-79596064D01*
G04 #@! TO.C,R17*
X111739000Y-94836064D02*
X111739000Y-93631936D01*
X113559000Y-94836064D02*
X113559000Y-93631936D01*
D15*
G04 #@! TO.C,U1*
X91694000Y-102844600D02*
X88138000Y-102844600D01*
X88138000Y-102844600D02*
X88138000Y-96291400D01*
X88138000Y-96291400D02*
X91694000Y-96291400D01*
X91694000Y-96291400D02*
X91694000Y-102844600D01*
D12*
X86868000Y-95885000D02*
G75*
G03X86868000Y-95885000I-127000J0D01*
G01*
D14*
G04 #@! TO.C,U2*
X116644000Y-86799000D02*
X116644000Y-87024000D01*
X123894000Y-86799000D02*
X123894000Y-87124000D01*
X123894000Y-94049000D02*
X123894000Y-93724000D01*
X116644000Y-94049000D02*
X116644000Y-93724000D01*
X116644000Y-86799000D02*
X116969000Y-86799000D01*
X116644000Y-94049000D02*
X116969000Y-94049000D01*
X123894000Y-94049000D02*
X123569000Y-94049000D01*
X123894000Y-86799000D02*
X123569000Y-86799000D01*
X116644000Y-87024000D02*
X115219000Y-87024000D01*
D12*
G04 #@! TO.C,U3*
X96475610Y-98568000D02*
G75*
G03X96475610Y-98568000I-223610J0D01*
G01*
X96393420Y-98568000D02*
G75*
G03X96393420Y-98568000I-141420J0D01*
G01*
X96352000Y-98568000D02*
G75*
G03X96352000Y-98568000I-100000J0D01*
G01*
X96252000Y-98568000D02*
G75*
G03X96252000Y-98568000I-100000J0D01*
G01*
D11*
G04 #@! TO.C,Y1*
X110373000Y-94038000D02*
X110373000Y-81438000D01*
X110373000Y-81438000D02*
X105273000Y-81438000D01*
X105273000Y-81438000D02*
X105273000Y-94038000D01*
G04 #@! TO.C,SW1*
D14*
X129095666Y-85861761D02*
X129238523Y-85909380D01*
X129476619Y-85909380D01*
X129571857Y-85861761D01*
X129619476Y-85814142D01*
X129667095Y-85718904D01*
X129667095Y-85623666D01*
X129619476Y-85528428D01*
X129571857Y-85480809D01*
X129476619Y-85433190D01*
X129286142Y-85385571D01*
X129190904Y-85337952D01*
X129143285Y-85290333D01*
X129095666Y-85195095D01*
X129095666Y-85099857D01*
X129143285Y-85004619D01*
X129190904Y-84957000D01*
X129286142Y-84909380D01*
X129524238Y-84909380D01*
X129667095Y-84957000D01*
X130000428Y-84909380D02*
X130238523Y-85909380D01*
X130429000Y-85195095D01*
X130619476Y-85909380D01*
X130857571Y-84909380D01*
X131762333Y-85909380D02*
X131190904Y-85909380D01*
X131476619Y-85909380D02*
X131476619Y-84909380D01*
X131381380Y-85052238D01*
X131286142Y-85147476D01*
X131190904Y-85195095D01*
G04 #@! TO.C,C1*
X83843833Y-108180142D02*
X83796214Y-108227761D01*
X83653357Y-108275380D01*
X83558119Y-108275380D01*
X83415261Y-108227761D01*
X83320023Y-108132523D01*
X83272404Y-108037285D01*
X83224785Y-107846809D01*
X83224785Y-107703952D01*
X83272404Y-107513476D01*
X83320023Y-107418238D01*
X83415261Y-107323000D01*
X83558119Y-107275380D01*
X83653357Y-107275380D01*
X83796214Y-107323000D01*
X83843833Y-107370619D01*
X84796214Y-108275380D02*
X84224785Y-108275380D01*
X84510500Y-108275380D02*
X84510500Y-107275380D01*
X84415261Y-107418238D01*
X84320023Y-107513476D01*
X84224785Y-107561095D01*
G04 #@! TO.C,C2*
X101941333Y-93257642D02*
X101893714Y-93305261D01*
X101750857Y-93352880D01*
X101655619Y-93352880D01*
X101512761Y-93305261D01*
X101417523Y-93210023D01*
X101369904Y-93114785D01*
X101322285Y-92924309D01*
X101322285Y-92781452D01*
X101369904Y-92590976D01*
X101417523Y-92495738D01*
X101512761Y-92400500D01*
X101655619Y-92352880D01*
X101750857Y-92352880D01*
X101893714Y-92400500D01*
X101941333Y-92448119D01*
X102322285Y-92448119D02*
X102369904Y-92400500D01*
X102465142Y-92352880D01*
X102703238Y-92352880D01*
X102798476Y-92400500D01*
X102846095Y-92448119D01*
X102893714Y-92543357D01*
X102893714Y-92638595D01*
X102846095Y-92781452D01*
X102274666Y-93352880D01*
X102893714Y-93352880D01*
G04 #@! TO.C,C3*
X99459142Y-105068666D02*
X99506761Y-105116285D01*
X99554380Y-105259142D01*
X99554380Y-105354380D01*
X99506761Y-105497238D01*
X99411523Y-105592476D01*
X99316285Y-105640095D01*
X99125809Y-105687714D01*
X98982952Y-105687714D01*
X98792476Y-105640095D01*
X98697238Y-105592476D01*
X98602000Y-105497238D01*
X98554380Y-105354380D01*
X98554380Y-105259142D01*
X98602000Y-105116285D01*
X98649619Y-105068666D01*
X98554380Y-104735333D02*
X98554380Y-104116285D01*
X98935333Y-104449619D01*
X98935333Y-104306761D01*
X98982952Y-104211523D01*
X99030571Y-104163904D01*
X99125809Y-104116285D01*
X99363904Y-104116285D01*
X99459142Y-104163904D01*
X99506761Y-104211523D01*
X99554380Y-104306761D01*
X99554380Y-104592476D01*
X99506761Y-104687714D01*
X99459142Y-104735333D01*
G04 #@! TO.C,C4*
X122721642Y-122340666D02*
X122769261Y-122388285D01*
X122816880Y-122531142D01*
X122816880Y-122626380D01*
X122769261Y-122769238D01*
X122674023Y-122864476D01*
X122578785Y-122912095D01*
X122388309Y-122959714D01*
X122245452Y-122959714D01*
X122054976Y-122912095D01*
X121959738Y-122864476D01*
X121864500Y-122769238D01*
X121816880Y-122626380D01*
X121816880Y-122531142D01*
X121864500Y-122388285D01*
X121912119Y-122340666D01*
X122150214Y-121483523D02*
X122816880Y-121483523D01*
X121769261Y-121721619D02*
X122483547Y-121959714D01*
X122483547Y-121340666D01*
G04 #@! TO.C,C5*
X90823142Y-117895666D02*
X90870761Y-117943285D01*
X90918380Y-118086142D01*
X90918380Y-118181380D01*
X90870761Y-118324238D01*
X90775523Y-118419476D01*
X90680285Y-118467095D01*
X90489809Y-118514714D01*
X90346952Y-118514714D01*
X90156476Y-118467095D01*
X90061238Y-118419476D01*
X89966000Y-118324238D01*
X89918380Y-118181380D01*
X89918380Y-118086142D01*
X89966000Y-117943285D01*
X90013619Y-117895666D01*
X89918380Y-116990904D02*
X89918380Y-117467095D01*
X90394571Y-117514714D01*
X90346952Y-117467095D01*
X90299333Y-117371857D01*
X90299333Y-117133761D01*
X90346952Y-117038523D01*
X90394571Y-116990904D01*
X90489809Y-116943285D01*
X90727904Y-116943285D01*
X90823142Y-116990904D01*
X90870761Y-117038523D01*
X90918380Y-117133761D01*
X90918380Y-117371857D01*
X90870761Y-117467095D01*
X90823142Y-117514714D01*
G04 #@! TO.C,C6*
X105047142Y-99861666D02*
X105094761Y-99909285D01*
X105142380Y-100052142D01*
X105142380Y-100147380D01*
X105094761Y-100290238D01*
X104999523Y-100385476D01*
X104904285Y-100433095D01*
X104713809Y-100480714D01*
X104570952Y-100480714D01*
X104380476Y-100433095D01*
X104285238Y-100385476D01*
X104190000Y-100290238D01*
X104142380Y-100147380D01*
X104142380Y-100052142D01*
X104190000Y-99909285D01*
X104237619Y-99861666D01*
X104142380Y-99004523D02*
X104142380Y-99195000D01*
X104190000Y-99290238D01*
X104237619Y-99337857D01*
X104380476Y-99433095D01*
X104570952Y-99480714D01*
X104951904Y-99480714D01*
X105047142Y-99433095D01*
X105094761Y-99385476D01*
X105142380Y-99290238D01*
X105142380Y-99099761D01*
X105094761Y-99004523D01*
X105047142Y-98956904D01*
X104951904Y-98909285D01*
X104713809Y-98909285D01*
X104618571Y-98956904D01*
X104570952Y-99004523D01*
X104523333Y-99099761D01*
X104523333Y-99290238D01*
X104570952Y-99385476D01*
X104618571Y-99433095D01*
X104713809Y-99480714D01*
G04 #@! TO.C,C7*
X84092142Y-112561666D02*
X84139761Y-112609285D01*
X84187380Y-112752142D01*
X84187380Y-112847380D01*
X84139761Y-112990238D01*
X84044523Y-113085476D01*
X83949285Y-113133095D01*
X83758809Y-113180714D01*
X83615952Y-113180714D01*
X83425476Y-113133095D01*
X83330238Y-113085476D01*
X83235000Y-112990238D01*
X83187380Y-112847380D01*
X83187380Y-112752142D01*
X83235000Y-112609285D01*
X83282619Y-112561666D01*
X83187380Y-112228333D02*
X83187380Y-111561666D01*
X84187380Y-111990238D01*
G04 #@! TO.C,C8*
X110069333Y-119165642D02*
X110021714Y-119213261D01*
X109878857Y-119260880D01*
X109783619Y-119260880D01*
X109640761Y-119213261D01*
X109545523Y-119118023D01*
X109497904Y-119022785D01*
X109450285Y-118832309D01*
X109450285Y-118689452D01*
X109497904Y-118498976D01*
X109545523Y-118403738D01*
X109640761Y-118308500D01*
X109783619Y-118260880D01*
X109878857Y-118260880D01*
X110021714Y-118308500D01*
X110069333Y-118356119D01*
X110640761Y-118689452D02*
X110545523Y-118641833D01*
X110497904Y-118594214D01*
X110450285Y-118498976D01*
X110450285Y-118451357D01*
X110497904Y-118356119D01*
X110545523Y-118308500D01*
X110640761Y-118260880D01*
X110831238Y-118260880D01*
X110926476Y-118308500D01*
X110974095Y-118356119D01*
X111021714Y-118451357D01*
X111021714Y-118498976D01*
X110974095Y-118594214D01*
X110926476Y-118641833D01*
X110831238Y-118689452D01*
X110640761Y-118689452D01*
X110545523Y-118737071D01*
X110497904Y-118784690D01*
X110450285Y-118879928D01*
X110450285Y-119070404D01*
X110497904Y-119165642D01*
X110545523Y-119213261D01*
X110640761Y-119260880D01*
X110831238Y-119260880D01*
X110926476Y-119213261D01*
X110974095Y-119165642D01*
X111021714Y-119070404D01*
X111021714Y-118879928D01*
X110974095Y-118784690D01*
X110926476Y-118737071D01*
X110831238Y-118689452D01*
G04 #@! TO.C,C9*
X123404333Y-133834142D02*
X123356714Y-133881761D01*
X123213857Y-133929380D01*
X123118619Y-133929380D01*
X122975761Y-133881761D01*
X122880523Y-133786523D01*
X122832904Y-133691285D01*
X122785285Y-133500809D01*
X122785285Y-133357952D01*
X122832904Y-133167476D01*
X122880523Y-133072238D01*
X122975761Y-132977000D01*
X123118619Y-132929380D01*
X123213857Y-132929380D01*
X123356714Y-132977000D01*
X123404333Y-133024619D01*
X123880523Y-133929380D02*
X124071000Y-133929380D01*
X124166238Y-133881761D01*
X124213857Y-133834142D01*
X124309095Y-133691285D01*
X124356714Y-133500809D01*
X124356714Y-133119857D01*
X124309095Y-133024619D01*
X124261476Y-132977000D01*
X124166238Y-132929380D01*
X123975761Y-132929380D01*
X123880523Y-132977000D01*
X123832904Y-133024619D01*
X123785285Y-133119857D01*
X123785285Y-133357952D01*
X123832904Y-133453190D01*
X123880523Y-133500809D01*
X123975761Y-133548428D01*
X124166238Y-133548428D01*
X124261476Y-133500809D01*
X124309095Y-133453190D01*
X124356714Y-133357952D01*
G04 #@! TO.C,C10*
X95496142Y-138469642D02*
X95448523Y-138517261D01*
X95305666Y-138564880D01*
X95210428Y-138564880D01*
X95067571Y-138517261D01*
X94972333Y-138422023D01*
X94924714Y-138326785D01*
X94877095Y-138136309D01*
X94877095Y-137993452D01*
X94924714Y-137802976D01*
X94972333Y-137707738D01*
X95067571Y-137612500D01*
X95210428Y-137564880D01*
X95305666Y-137564880D01*
X95448523Y-137612500D01*
X95496142Y-137660119D01*
X96448523Y-138564880D02*
X95877095Y-138564880D01*
X96162809Y-138564880D02*
X96162809Y-137564880D01*
X96067571Y-137707738D01*
X95972333Y-137802976D01*
X95877095Y-137850595D01*
X97067571Y-137564880D02*
X97162809Y-137564880D01*
X97258047Y-137612500D01*
X97305666Y-137660119D01*
X97353285Y-137755357D01*
X97400904Y-137945833D01*
X97400904Y-138183928D01*
X97353285Y-138374404D01*
X97305666Y-138469642D01*
X97258047Y-138517261D01*
X97162809Y-138564880D01*
X97067571Y-138564880D01*
X96972333Y-138517261D01*
X96924714Y-138469642D01*
X96877095Y-138374404D01*
X96829476Y-138183928D01*
X96829476Y-137945833D01*
X96877095Y-137755357D01*
X96924714Y-137660119D01*
X96972333Y-137612500D01*
X97067571Y-137564880D01*
G04 #@! TO.C,C11*
X102761142Y-105544857D02*
X102808761Y-105592476D01*
X102856380Y-105735333D01*
X102856380Y-105830571D01*
X102808761Y-105973428D01*
X102713523Y-106068666D01*
X102618285Y-106116285D01*
X102427809Y-106163904D01*
X102284952Y-106163904D01*
X102094476Y-106116285D01*
X101999238Y-106068666D01*
X101904000Y-105973428D01*
X101856380Y-105830571D01*
X101856380Y-105735333D01*
X101904000Y-105592476D01*
X101951619Y-105544857D01*
X102856380Y-104592476D02*
X102856380Y-105163904D01*
X102856380Y-104878190D02*
X101856380Y-104878190D01*
X101999238Y-104973428D01*
X102094476Y-105068666D01*
X102142095Y-105163904D01*
X102856380Y-103640095D02*
X102856380Y-104211523D01*
X102856380Y-103925809D02*
X101856380Y-103925809D01*
X101999238Y-104021047D01*
X102094476Y-104116285D01*
X102142095Y-104211523D01*
G04 #@! TO.C,C12*
X100322142Y-118467142D02*
X100274523Y-118514761D01*
X100131666Y-118562380D01*
X100036428Y-118562380D01*
X99893571Y-118514761D01*
X99798333Y-118419523D01*
X99750714Y-118324285D01*
X99703095Y-118133809D01*
X99703095Y-117990952D01*
X99750714Y-117800476D01*
X99798333Y-117705238D01*
X99893571Y-117610000D01*
X100036428Y-117562380D01*
X100131666Y-117562380D01*
X100274523Y-117610000D01*
X100322142Y-117657619D01*
X101274523Y-118562380D02*
X100703095Y-118562380D01*
X100988809Y-118562380D02*
X100988809Y-117562380D01*
X100893571Y-117705238D01*
X100798333Y-117800476D01*
X100703095Y-117848095D01*
X101655476Y-117657619D02*
X101703095Y-117610000D01*
X101798333Y-117562380D01*
X102036428Y-117562380D01*
X102131666Y-117610000D01*
X102179285Y-117657619D01*
X102226904Y-117752857D01*
X102226904Y-117848095D01*
X102179285Y-117990952D01*
X101607857Y-118562380D01*
X102226904Y-118562380D01*
G04 #@! TO.C,C13*
X113980142Y-112402857D02*
X114027761Y-112450476D01*
X114075380Y-112593333D01*
X114075380Y-112688571D01*
X114027761Y-112831428D01*
X113932523Y-112926666D01*
X113837285Y-112974285D01*
X113646809Y-113021904D01*
X113503952Y-113021904D01*
X113313476Y-112974285D01*
X113218238Y-112926666D01*
X113123000Y-112831428D01*
X113075380Y-112688571D01*
X113075380Y-112593333D01*
X113123000Y-112450476D01*
X113170619Y-112402857D01*
X114075380Y-111450476D02*
X114075380Y-112021904D01*
X114075380Y-111736190D02*
X113075380Y-111736190D01*
X113218238Y-111831428D01*
X113313476Y-111926666D01*
X113361095Y-112021904D01*
X113075380Y-111117142D02*
X113075380Y-110498095D01*
X113456333Y-110831428D01*
X113456333Y-110688571D01*
X113503952Y-110593333D01*
X113551571Y-110545714D01*
X113646809Y-110498095D01*
X113884904Y-110498095D01*
X113980142Y-110545714D01*
X114027761Y-110593333D01*
X114075380Y-110688571D01*
X114075380Y-110974285D01*
X114027761Y-111069523D01*
X113980142Y-111117142D01*
G04 #@! TO.C,C14*
X127315142Y-92082857D02*
X127362761Y-92130476D01*
X127410380Y-92273333D01*
X127410380Y-92368571D01*
X127362761Y-92511428D01*
X127267523Y-92606666D01*
X127172285Y-92654285D01*
X126981809Y-92701904D01*
X126838952Y-92701904D01*
X126648476Y-92654285D01*
X126553238Y-92606666D01*
X126458000Y-92511428D01*
X126410380Y-92368571D01*
X126410380Y-92273333D01*
X126458000Y-92130476D01*
X126505619Y-92082857D01*
X127410380Y-91130476D02*
X127410380Y-91701904D01*
X127410380Y-91416190D02*
X126410380Y-91416190D01*
X126553238Y-91511428D01*
X126648476Y-91606666D01*
X126696095Y-91701904D01*
X126743714Y-90273333D02*
X127410380Y-90273333D01*
X126362761Y-90511428D02*
X127077047Y-90749523D01*
X127077047Y-90130476D01*
G04 #@! TO.C,C15*
X96512142Y-116689142D02*
X96464523Y-116736761D01*
X96321666Y-116784380D01*
X96226428Y-116784380D01*
X96083571Y-116736761D01*
X95988333Y-116641523D01*
X95940714Y-116546285D01*
X95893095Y-116355809D01*
X95893095Y-116212952D01*
X95940714Y-116022476D01*
X95988333Y-115927238D01*
X96083571Y-115832000D01*
X96226428Y-115784380D01*
X96321666Y-115784380D01*
X96464523Y-115832000D01*
X96512142Y-115879619D01*
X97464523Y-116784380D02*
X96893095Y-116784380D01*
X97178809Y-116784380D02*
X97178809Y-115784380D01*
X97083571Y-115927238D01*
X96988333Y-116022476D01*
X96893095Y-116070095D01*
X98369285Y-115784380D02*
X97893095Y-115784380D01*
X97845476Y-116260571D01*
X97893095Y-116212952D01*
X97988333Y-116165333D01*
X98226428Y-116165333D01*
X98321666Y-116212952D01*
X98369285Y-116260571D01*
X98416904Y-116355809D01*
X98416904Y-116593904D01*
X98369285Y-116689142D01*
X98321666Y-116736761D01*
X98226428Y-116784380D01*
X97988333Y-116784380D01*
X97893095Y-116736761D01*
X97845476Y-116689142D01*
G04 #@! TO.C,C16*
X100322142Y-121515142D02*
X100274523Y-121562761D01*
X100131666Y-121610380D01*
X100036428Y-121610380D01*
X99893571Y-121562761D01*
X99798333Y-121467523D01*
X99750714Y-121372285D01*
X99703095Y-121181809D01*
X99703095Y-121038952D01*
X99750714Y-120848476D01*
X99798333Y-120753238D01*
X99893571Y-120658000D01*
X100036428Y-120610380D01*
X100131666Y-120610380D01*
X100274523Y-120658000D01*
X100322142Y-120705619D01*
X101274523Y-121610380D02*
X100703095Y-121610380D01*
X100988809Y-121610380D02*
X100988809Y-120610380D01*
X100893571Y-120753238D01*
X100798333Y-120848476D01*
X100703095Y-120896095D01*
X102131666Y-120610380D02*
X101941190Y-120610380D01*
X101845952Y-120658000D01*
X101798333Y-120705619D01*
X101703095Y-120848476D01*
X101655476Y-121038952D01*
X101655476Y-121419904D01*
X101703095Y-121515142D01*
X101750714Y-121562761D01*
X101845952Y-121610380D01*
X102036428Y-121610380D01*
X102131666Y-121562761D01*
X102179285Y-121515142D01*
X102226904Y-121419904D01*
X102226904Y-121181809D01*
X102179285Y-121086571D01*
X102131666Y-121038952D01*
X102036428Y-120991333D01*
X101845952Y-120991333D01*
X101750714Y-121038952D01*
X101703095Y-121086571D01*
X101655476Y-121181809D01*
G04 #@! TO.C,C17*
X96766142Y-142893142D02*
X96718523Y-142940761D01*
X96575666Y-142988380D01*
X96480428Y-142988380D01*
X96337571Y-142940761D01*
X96242333Y-142845523D01*
X96194714Y-142750285D01*
X96147095Y-142559809D01*
X96147095Y-142416952D01*
X96194714Y-142226476D01*
X96242333Y-142131238D01*
X96337571Y-142036000D01*
X96480428Y-141988380D01*
X96575666Y-141988380D01*
X96718523Y-142036000D01*
X96766142Y-142083619D01*
X97718523Y-142988380D02*
X97147095Y-142988380D01*
X97432809Y-142988380D02*
X97432809Y-141988380D01*
X97337571Y-142131238D01*
X97242333Y-142226476D01*
X97147095Y-142274095D01*
X98051857Y-141988380D02*
X98718523Y-141988380D01*
X98289952Y-142988380D01*
G04 #@! TO.C,C18*
X96639142Y-119864142D02*
X96591523Y-119911761D01*
X96448666Y-119959380D01*
X96353428Y-119959380D01*
X96210571Y-119911761D01*
X96115333Y-119816523D01*
X96067714Y-119721285D01*
X96020095Y-119530809D01*
X96020095Y-119387952D01*
X96067714Y-119197476D01*
X96115333Y-119102238D01*
X96210571Y-119007000D01*
X96353428Y-118959380D01*
X96448666Y-118959380D01*
X96591523Y-119007000D01*
X96639142Y-119054619D01*
X97591523Y-119959380D02*
X97020095Y-119959380D01*
X97305809Y-119959380D02*
X97305809Y-118959380D01*
X97210571Y-119102238D01*
X97115333Y-119197476D01*
X97020095Y-119245095D01*
X98162952Y-119387952D02*
X98067714Y-119340333D01*
X98020095Y-119292714D01*
X97972476Y-119197476D01*
X97972476Y-119149857D01*
X98020095Y-119054619D01*
X98067714Y-119007000D01*
X98162952Y-118959380D01*
X98353428Y-118959380D01*
X98448666Y-119007000D01*
X98496285Y-119054619D01*
X98543904Y-119149857D01*
X98543904Y-119197476D01*
X98496285Y-119292714D01*
X98448666Y-119340333D01*
X98353428Y-119387952D01*
X98162952Y-119387952D01*
X98067714Y-119435571D01*
X98020095Y-119483190D01*
X97972476Y-119578428D01*
X97972476Y-119768904D01*
X98020095Y-119864142D01*
X98067714Y-119911761D01*
X98162952Y-119959380D01*
X98353428Y-119959380D01*
X98448666Y-119911761D01*
X98496285Y-119864142D01*
X98543904Y-119768904D01*
X98543904Y-119578428D01*
X98496285Y-119483190D01*
X98448666Y-119435571D01*
X98353428Y-119387952D01*
G04 #@! TO.C,GND*
D10*
X78534380Y-92583000D02*
X78413428Y-92522523D01*
X78232000Y-92522523D01*
X78050571Y-92583000D01*
X77929619Y-92703952D01*
X77869142Y-92824904D01*
X77808666Y-93066809D01*
X77808666Y-93248238D01*
X77869142Y-93490142D01*
X77929619Y-93611095D01*
X78050571Y-93732047D01*
X78232000Y-93792523D01*
X78352952Y-93792523D01*
X78534380Y-93732047D01*
X78594857Y-93671571D01*
X78594857Y-93248238D01*
X78352952Y-93248238D01*
X79139142Y-93792523D02*
X79139142Y-92522523D01*
X79864857Y-93792523D01*
X79864857Y-92522523D01*
X80469619Y-93792523D02*
X80469619Y-92522523D01*
X80772000Y-92522523D01*
X80953428Y-92583000D01*
X81074380Y-92703952D01*
X81134857Y-92824904D01*
X81195333Y-93066809D01*
X81195333Y-93248238D01*
X81134857Y-93490142D01*
X81074380Y-93611095D01*
X80953428Y-93732047D01*
X80772000Y-93792523D01*
X80469619Y-93792523D01*
X78969809Y-106492523D02*
X78244095Y-106492523D01*
X78606952Y-106492523D02*
X78606952Y-105222523D01*
X78486000Y-105403952D01*
X78365047Y-105524904D01*
X78244095Y-105585380D01*
X79453619Y-105343476D02*
X79514095Y-105283000D01*
X79635047Y-105222523D01*
X79937428Y-105222523D01*
X80058380Y-105283000D01*
X80118857Y-105343476D01*
X80179333Y-105464428D01*
X80179333Y-105585380D01*
X80118857Y-105766809D01*
X79393142Y-106492523D01*
X80179333Y-106492523D01*
X80542190Y-105222523D02*
X80965523Y-106492523D01*
X81388857Y-105222523D01*
G04 #@! TO.C,ICSP2*
D14*
X129683119Y-107195880D02*
X129683119Y-106195880D01*
X130730738Y-107100642D02*
X130683119Y-107148261D01*
X130540261Y-107195880D01*
X130445023Y-107195880D01*
X130302166Y-107148261D01*
X130206928Y-107053023D01*
X130159309Y-106957785D01*
X130111690Y-106767309D01*
X130111690Y-106624452D01*
X130159309Y-106433976D01*
X130206928Y-106338738D01*
X130302166Y-106243500D01*
X130445023Y-106195880D01*
X130540261Y-106195880D01*
X130683119Y-106243500D01*
X130730738Y-106291119D01*
X131111690Y-107148261D02*
X131254547Y-107195880D01*
X131492642Y-107195880D01*
X131587880Y-107148261D01*
X131635500Y-107100642D01*
X131683119Y-107005404D01*
X131683119Y-106910166D01*
X131635500Y-106814928D01*
X131587880Y-106767309D01*
X131492642Y-106719690D01*
X131302166Y-106672071D01*
X131206928Y-106624452D01*
X131159309Y-106576833D01*
X131111690Y-106481595D01*
X131111690Y-106386357D01*
X131159309Y-106291119D01*
X131206928Y-106243500D01*
X131302166Y-106195880D01*
X131540261Y-106195880D01*
X131683119Y-106243500D01*
X132111690Y-107195880D02*
X132111690Y-106195880D01*
X132492642Y-106195880D01*
X132587880Y-106243500D01*
X132635500Y-106291119D01*
X132683119Y-106386357D01*
X132683119Y-106529214D01*
X132635500Y-106624452D01*
X132587880Y-106672071D01*
X132492642Y-106719690D01*
X132111690Y-106719690D01*
X133064071Y-106291119D02*
X133111690Y-106243500D01*
X133206928Y-106195880D01*
X133445023Y-106195880D01*
X133540261Y-106243500D01*
X133587880Y-106291119D01*
X133635500Y-106386357D01*
X133635500Y-106481595D01*
X133587880Y-106624452D01*
X133016452Y-107195880D01*
X133635500Y-107195880D01*
G04 #@! TO.C,IO_Expander (IC2)*
X85122571Y-146438880D02*
X85122571Y-145438880D01*
X85789238Y-145438880D02*
X85979714Y-145438880D01*
X86074952Y-145486500D01*
X86170190Y-145581738D01*
X86217809Y-145772214D01*
X86217809Y-146105547D01*
X86170190Y-146296023D01*
X86074952Y-146391261D01*
X85979714Y-146438880D01*
X85789238Y-146438880D01*
X85694000Y-146391261D01*
X85598761Y-146296023D01*
X85551142Y-146105547D01*
X85551142Y-145772214D01*
X85598761Y-145581738D01*
X85694000Y-145486500D01*
X85789238Y-145438880D01*
X86408285Y-146534119D02*
X87170190Y-146534119D01*
X87408285Y-145915071D02*
X87741619Y-145915071D01*
X87884476Y-146438880D02*
X87408285Y-146438880D01*
X87408285Y-145438880D01*
X87884476Y-145438880D01*
X88217809Y-146438880D02*
X88741619Y-145772214D01*
X88217809Y-145772214D02*
X88741619Y-146438880D01*
X89122571Y-145772214D02*
X89122571Y-146772214D01*
X89122571Y-145819833D02*
X89217809Y-145772214D01*
X89408285Y-145772214D01*
X89503523Y-145819833D01*
X89551142Y-145867452D01*
X89598761Y-145962690D01*
X89598761Y-146248404D01*
X89551142Y-146343642D01*
X89503523Y-146391261D01*
X89408285Y-146438880D01*
X89217809Y-146438880D01*
X89122571Y-146391261D01*
X90455904Y-146438880D02*
X90455904Y-145915071D01*
X90408285Y-145819833D01*
X90313047Y-145772214D01*
X90122571Y-145772214D01*
X90027333Y-145819833D01*
X90455904Y-146391261D02*
X90360666Y-146438880D01*
X90122571Y-146438880D01*
X90027333Y-146391261D01*
X89979714Y-146296023D01*
X89979714Y-146200785D01*
X90027333Y-146105547D01*
X90122571Y-146057928D01*
X90360666Y-146057928D01*
X90455904Y-146010309D01*
X90932095Y-145772214D02*
X90932095Y-146438880D01*
X90932095Y-145867452D02*
X90979714Y-145819833D01*
X91074952Y-145772214D01*
X91217809Y-145772214D01*
X91313047Y-145819833D01*
X91360666Y-145915071D01*
X91360666Y-146438880D01*
X92265428Y-146438880D02*
X92265428Y-145438880D01*
X92265428Y-146391261D02*
X92170190Y-146438880D01*
X91979714Y-146438880D01*
X91884476Y-146391261D01*
X91836857Y-146343642D01*
X91789238Y-146248404D01*
X91789238Y-145962690D01*
X91836857Y-145867452D01*
X91884476Y-145819833D01*
X91979714Y-145772214D01*
X92170190Y-145772214D01*
X92265428Y-145819833D01*
X93122571Y-146391261D02*
X93027333Y-146438880D01*
X92836857Y-146438880D01*
X92741619Y-146391261D01*
X92694000Y-146296023D01*
X92694000Y-145915071D01*
X92741619Y-145819833D01*
X92836857Y-145772214D01*
X93027333Y-145772214D01*
X93122571Y-145819833D01*
X93170190Y-145915071D01*
X93170190Y-146010309D01*
X92694000Y-146105547D01*
X93598761Y-146438880D02*
X93598761Y-145772214D01*
X93598761Y-145962690D02*
X93646380Y-145867452D01*
X93694000Y-145819833D01*
X93789238Y-145772214D01*
X93884476Y-145772214D01*
X95265428Y-146819833D02*
X95217809Y-146772214D01*
X95122571Y-146629357D01*
X95074952Y-146534119D01*
X95027333Y-146391261D01*
X94979714Y-146153166D01*
X94979714Y-145962690D01*
X95027333Y-145724595D01*
X95074952Y-145581738D01*
X95122571Y-145486500D01*
X95217809Y-145343642D01*
X95265428Y-145296023D01*
X95646380Y-146438880D02*
X95646380Y-145438880D01*
X96694000Y-146343642D02*
X96646380Y-146391261D01*
X96503523Y-146438880D01*
X96408285Y-146438880D01*
X96265428Y-146391261D01*
X96170190Y-146296023D01*
X96122571Y-146200785D01*
X96074952Y-146010309D01*
X96074952Y-145867452D01*
X96122571Y-145676976D01*
X96170190Y-145581738D01*
X96265428Y-145486500D01*
X96408285Y-145438880D01*
X96503523Y-145438880D01*
X96646380Y-145486500D01*
X96694000Y-145534119D01*
X97074952Y-145534119D02*
X97122571Y-145486500D01*
X97217809Y-145438880D01*
X97455904Y-145438880D01*
X97551142Y-145486500D01*
X97598761Y-145534119D01*
X97646380Y-145629357D01*
X97646380Y-145724595D01*
X97598761Y-145867452D01*
X97027333Y-146438880D01*
X97646380Y-146438880D01*
X97979714Y-146819833D02*
X98027333Y-146772214D01*
X98122571Y-146629357D01*
X98170190Y-146534119D01*
X98217809Y-146391261D01*
X98265428Y-146153166D01*
X98265428Y-145962690D01*
X98217809Y-145724595D01*
X98170190Y-145581738D01*
X98122571Y-145486500D01*
X98027333Y-145343642D01*
X97979714Y-145296023D01*
G04 #@! TO.C,IO_EXPANDER_IC1*
D16*
X100089333Y-130092404D02*
X100089333Y-129292404D01*
X100622666Y-129292404D02*
X100775047Y-129292404D01*
X100851238Y-129330500D01*
X100927428Y-129406690D01*
X100965523Y-129559071D01*
X100965523Y-129825738D01*
X100927428Y-129978119D01*
X100851238Y-130054309D01*
X100775047Y-130092404D01*
X100622666Y-130092404D01*
X100546476Y-130054309D01*
X100470285Y-129978119D01*
X100432190Y-129825738D01*
X100432190Y-129559071D01*
X100470285Y-129406690D01*
X100546476Y-129330500D01*
X100622666Y-129292404D01*
X101117904Y-130168595D02*
X101727428Y-130168595D01*
X101917904Y-129673357D02*
X102184571Y-129673357D01*
X102298857Y-130092404D02*
X101917904Y-130092404D01*
X101917904Y-129292404D01*
X102298857Y-129292404D01*
X102565523Y-129292404D02*
X103098857Y-130092404D01*
X103098857Y-129292404D02*
X102565523Y-130092404D01*
X103403619Y-130092404D02*
X103403619Y-129292404D01*
X103708380Y-129292404D01*
X103784571Y-129330500D01*
X103822666Y-129368595D01*
X103860761Y-129444785D01*
X103860761Y-129559071D01*
X103822666Y-129635261D01*
X103784571Y-129673357D01*
X103708380Y-129711452D01*
X103403619Y-129711452D01*
X104165523Y-129863833D02*
X104546476Y-129863833D01*
X104089333Y-130092404D02*
X104356000Y-129292404D01*
X104622666Y-130092404D01*
X104889333Y-130092404D02*
X104889333Y-129292404D01*
X105346476Y-130092404D01*
X105346476Y-129292404D01*
X105727428Y-130092404D02*
X105727428Y-129292404D01*
X105917904Y-129292404D01*
X106032190Y-129330500D01*
X106108380Y-129406690D01*
X106146476Y-129482880D01*
X106184571Y-129635261D01*
X106184571Y-129749547D01*
X106146476Y-129901928D01*
X106108380Y-129978119D01*
X106032190Y-130054309D01*
X105917904Y-130092404D01*
X105727428Y-130092404D01*
X106527428Y-129673357D02*
X106794095Y-129673357D01*
X106908380Y-130092404D02*
X106527428Y-130092404D01*
X106527428Y-129292404D01*
X106908380Y-129292404D01*
X107708380Y-130092404D02*
X107441714Y-129711452D01*
X107251238Y-130092404D02*
X107251238Y-129292404D01*
X107556000Y-129292404D01*
X107632190Y-129330500D01*
X107670285Y-129368595D01*
X107708380Y-129444785D01*
X107708380Y-129559071D01*
X107670285Y-129635261D01*
X107632190Y-129673357D01*
X107556000Y-129711452D01*
X107251238Y-129711452D01*
X107860761Y-130168595D02*
X108470285Y-130168595D01*
X108660761Y-130092404D02*
X108660761Y-129292404D01*
X109498857Y-130016214D02*
X109460761Y-130054309D01*
X109346476Y-130092404D01*
X109270285Y-130092404D01*
X109156000Y-130054309D01*
X109079809Y-129978119D01*
X109041714Y-129901928D01*
X109003619Y-129749547D01*
X109003619Y-129635261D01*
X109041714Y-129482880D01*
X109079809Y-129406690D01*
X109156000Y-129330500D01*
X109270285Y-129292404D01*
X109346476Y-129292404D01*
X109460761Y-129330500D01*
X109498857Y-129368595D01*
X110260761Y-130092404D02*
X109803619Y-130092404D01*
X110032190Y-130092404D02*
X110032190Y-129292404D01*
X109956000Y-129406690D01*
X109879809Y-129482880D01*
X109803619Y-129520976D01*
X100832119Y-130625904D02*
X101289261Y-130625904D01*
X101060690Y-131425904D02*
X101060690Y-130625904D01*
X102013071Y-131349714D02*
X101974976Y-131387809D01*
X101860690Y-131425904D01*
X101784500Y-131425904D01*
X101670214Y-131387809D01*
X101594023Y-131311619D01*
X101555928Y-131235428D01*
X101517833Y-131083047D01*
X101517833Y-130968761D01*
X101555928Y-130816380D01*
X101594023Y-130740190D01*
X101670214Y-130664000D01*
X101784500Y-130625904D01*
X101860690Y-130625904D01*
X101974976Y-130664000D01*
X102013071Y-130702095D01*
X102317833Y-131197333D02*
X102698785Y-131197333D01*
X102241642Y-131425904D02*
X102508309Y-130625904D01*
X102774976Y-131425904D01*
X103079738Y-131425904D02*
X103232119Y-131425904D01*
X103308309Y-131387809D01*
X103346404Y-131349714D01*
X103422595Y-131235428D01*
X103460690Y-131083047D01*
X103460690Y-130778285D01*
X103422595Y-130702095D01*
X103384500Y-130664000D01*
X103308309Y-130625904D01*
X103155928Y-130625904D01*
X103079738Y-130664000D01*
X103041642Y-130702095D01*
X103003547Y-130778285D01*
X103003547Y-130968761D01*
X103041642Y-131044952D01*
X103079738Y-131083047D01*
X103155928Y-131121142D01*
X103308309Y-131121142D01*
X103384500Y-131083047D01*
X103422595Y-131044952D01*
X103460690Y-130968761D01*
X104184500Y-130625904D02*
X103803547Y-130625904D01*
X103765452Y-131006857D01*
X103803547Y-130968761D01*
X103879738Y-130930666D01*
X104070214Y-130930666D01*
X104146404Y-130968761D01*
X104184500Y-131006857D01*
X104222595Y-131083047D01*
X104222595Y-131273523D01*
X104184500Y-131349714D01*
X104146404Y-131387809D01*
X104070214Y-131425904D01*
X103879738Y-131425904D01*
X103803547Y-131387809D01*
X103765452Y-131349714D01*
X104946404Y-130625904D02*
X104565452Y-130625904D01*
X104527357Y-131006857D01*
X104565452Y-130968761D01*
X104641642Y-130930666D01*
X104832119Y-130930666D01*
X104908309Y-130968761D01*
X104946404Y-131006857D01*
X104984500Y-131083047D01*
X104984500Y-131273523D01*
X104946404Y-131349714D01*
X104908309Y-131387809D01*
X104832119Y-131425904D01*
X104641642Y-131425904D01*
X104565452Y-131387809D01*
X104527357Y-131349714D01*
X105670214Y-130892571D02*
X105670214Y-131425904D01*
X105479738Y-130587809D02*
X105289261Y-131159238D01*
X105784500Y-131159238D01*
X106089261Y-131425904D02*
X106089261Y-130625904D01*
X106394023Y-130625904D01*
X106470214Y-130664000D01*
X106508309Y-130702095D01*
X106546404Y-130778285D01*
X106546404Y-130892571D01*
X106508309Y-130968761D01*
X106470214Y-131006857D01*
X106394023Y-131044952D01*
X106089261Y-131044952D01*
X106813071Y-130625904D02*
X107003547Y-131425904D01*
X107155928Y-130854476D01*
X107308309Y-131425904D01*
X107498785Y-130625904D01*
X108260690Y-131425904D02*
X107994023Y-131044952D01*
X107803547Y-131425904D02*
X107803547Y-130625904D01*
X108108309Y-130625904D01*
X108184500Y-130664000D01*
X108222595Y-130702095D01*
X108260690Y-130778285D01*
X108260690Y-130892571D01*
X108222595Y-130968761D01*
X108184500Y-131006857D01*
X108108309Y-131044952D01*
X107803547Y-131044952D01*
G04 #@! TO.C,IO_EXPANDER_IC2*
X107041904Y-142798166D02*
X106241904Y-142798166D01*
X106241904Y-142264833D02*
X106241904Y-142112452D01*
X106280000Y-142036261D01*
X106356190Y-141960071D01*
X106508571Y-141921976D01*
X106775238Y-141921976D01*
X106927619Y-141960071D01*
X107003809Y-142036261D01*
X107041904Y-142112452D01*
X107041904Y-142264833D01*
X107003809Y-142341023D01*
X106927619Y-142417214D01*
X106775238Y-142455309D01*
X106508571Y-142455309D01*
X106356190Y-142417214D01*
X106280000Y-142341023D01*
X106241904Y-142264833D01*
X107118095Y-141769595D02*
X107118095Y-141160071D01*
X106622857Y-140969595D02*
X106622857Y-140702928D01*
X107041904Y-140588642D02*
X107041904Y-140969595D01*
X106241904Y-140969595D01*
X106241904Y-140588642D01*
X106241904Y-140321976D02*
X107041904Y-139788642D01*
X106241904Y-139788642D02*
X107041904Y-140321976D01*
X107041904Y-139483880D02*
X106241904Y-139483880D01*
X106241904Y-139179119D01*
X106280000Y-139102928D01*
X106318095Y-139064833D01*
X106394285Y-139026738D01*
X106508571Y-139026738D01*
X106584761Y-139064833D01*
X106622857Y-139102928D01*
X106660952Y-139179119D01*
X106660952Y-139483880D01*
X106813333Y-138721976D02*
X106813333Y-138341023D01*
X107041904Y-138798166D02*
X106241904Y-138531500D01*
X107041904Y-138264833D01*
X107041904Y-137998166D02*
X106241904Y-137998166D01*
X107041904Y-137541023D01*
X106241904Y-137541023D01*
X107041904Y-137160071D02*
X106241904Y-137160071D01*
X106241904Y-136969595D01*
X106280000Y-136855309D01*
X106356190Y-136779119D01*
X106432380Y-136741023D01*
X106584761Y-136702928D01*
X106699047Y-136702928D01*
X106851428Y-136741023D01*
X106927619Y-136779119D01*
X107003809Y-136855309D01*
X107041904Y-136969595D01*
X107041904Y-137160071D01*
X106622857Y-136360071D02*
X106622857Y-136093404D01*
X107041904Y-135979119D02*
X107041904Y-136360071D01*
X106241904Y-136360071D01*
X106241904Y-135979119D01*
X107041904Y-135179119D02*
X106660952Y-135445785D01*
X107041904Y-135636261D02*
X106241904Y-135636261D01*
X106241904Y-135331500D01*
X106280000Y-135255309D01*
X106318095Y-135217214D01*
X106394285Y-135179119D01*
X106508571Y-135179119D01*
X106584761Y-135217214D01*
X106622857Y-135255309D01*
X106660952Y-135331500D01*
X106660952Y-135636261D01*
X107118095Y-135026738D02*
X107118095Y-134417214D01*
X107041904Y-134226738D02*
X106241904Y-134226738D01*
X106965714Y-133388642D02*
X107003809Y-133426738D01*
X107041904Y-133541023D01*
X107041904Y-133617214D01*
X107003809Y-133731500D01*
X106927619Y-133807690D01*
X106851428Y-133845785D01*
X106699047Y-133883880D01*
X106584761Y-133883880D01*
X106432380Y-133845785D01*
X106356190Y-133807690D01*
X106280000Y-133731500D01*
X106241904Y-133617214D01*
X106241904Y-133541023D01*
X106280000Y-133426738D01*
X106318095Y-133388642D01*
X106318095Y-133083880D02*
X106280000Y-133045785D01*
X106241904Y-132969595D01*
X106241904Y-132779119D01*
X106280000Y-132702928D01*
X106318095Y-132664833D01*
X106394285Y-132626738D01*
X106470476Y-132626738D01*
X106584761Y-132664833D01*
X107041904Y-133121976D01*
X107041904Y-132626738D01*
X107638904Y-141420380D02*
X107638904Y-140963238D01*
X108438904Y-141191809D02*
X107638904Y-141191809D01*
X108362714Y-140239428D02*
X108400809Y-140277523D01*
X108438904Y-140391809D01*
X108438904Y-140468000D01*
X108400809Y-140582285D01*
X108324619Y-140658476D01*
X108248428Y-140696571D01*
X108096047Y-140734666D01*
X107981761Y-140734666D01*
X107829380Y-140696571D01*
X107753190Y-140658476D01*
X107677000Y-140582285D01*
X107638904Y-140468000D01*
X107638904Y-140391809D01*
X107677000Y-140277523D01*
X107715095Y-140239428D01*
X108210333Y-139934666D02*
X108210333Y-139553714D01*
X108438904Y-140010857D02*
X107638904Y-139744190D01*
X108438904Y-139477523D01*
X108438904Y-139172761D02*
X108438904Y-139020380D01*
X108400809Y-138944190D01*
X108362714Y-138906095D01*
X108248428Y-138829904D01*
X108096047Y-138791809D01*
X107791285Y-138791809D01*
X107715095Y-138829904D01*
X107677000Y-138868000D01*
X107638904Y-138944190D01*
X107638904Y-139096571D01*
X107677000Y-139172761D01*
X107715095Y-139210857D01*
X107791285Y-139248952D01*
X107981761Y-139248952D01*
X108057952Y-139210857D01*
X108096047Y-139172761D01*
X108134142Y-139096571D01*
X108134142Y-138944190D01*
X108096047Y-138868000D01*
X108057952Y-138829904D01*
X107981761Y-138791809D01*
X107638904Y-138068000D02*
X107638904Y-138448952D01*
X108019857Y-138487047D01*
X107981761Y-138448952D01*
X107943666Y-138372761D01*
X107943666Y-138182285D01*
X107981761Y-138106095D01*
X108019857Y-138068000D01*
X108096047Y-138029904D01*
X108286523Y-138029904D01*
X108362714Y-138068000D01*
X108400809Y-138106095D01*
X108438904Y-138182285D01*
X108438904Y-138372761D01*
X108400809Y-138448952D01*
X108362714Y-138487047D01*
X107638904Y-137306095D02*
X107638904Y-137687047D01*
X108019857Y-137725142D01*
X107981761Y-137687047D01*
X107943666Y-137610857D01*
X107943666Y-137420380D01*
X107981761Y-137344190D01*
X108019857Y-137306095D01*
X108096047Y-137268000D01*
X108286523Y-137268000D01*
X108362714Y-137306095D01*
X108400809Y-137344190D01*
X108438904Y-137420380D01*
X108438904Y-137610857D01*
X108400809Y-137687047D01*
X108362714Y-137725142D01*
X107905571Y-136582285D02*
X108438904Y-136582285D01*
X107600809Y-136772761D02*
X108172238Y-136963238D01*
X108172238Y-136468000D01*
X108438904Y-136163238D02*
X107638904Y-136163238D01*
X107638904Y-135858476D01*
X107677000Y-135782285D01*
X107715095Y-135744190D01*
X107791285Y-135706095D01*
X107905571Y-135706095D01*
X107981761Y-135744190D01*
X108019857Y-135782285D01*
X108057952Y-135858476D01*
X108057952Y-136163238D01*
X107638904Y-135439428D02*
X108438904Y-135248952D01*
X107867476Y-135096571D01*
X108438904Y-134944190D01*
X107638904Y-134753714D01*
X108438904Y-133991809D02*
X108057952Y-134258476D01*
X108438904Y-134448952D02*
X107638904Y-134448952D01*
X107638904Y-134144190D01*
X107677000Y-134068000D01*
X107715095Y-134029904D01*
X107791285Y-133991809D01*
X107905571Y-133991809D01*
X107981761Y-134029904D01*
X108019857Y-134068000D01*
X108057952Y-134144190D01*
X108057952Y-134448952D01*
G04 #@! TO.C,J1*
D14*
X121983380Y-140922333D02*
X122697666Y-140922333D01*
X122840523Y-140969952D01*
X122935761Y-141065190D01*
X122983380Y-141208047D01*
X122983380Y-141303285D01*
X122983380Y-139922333D02*
X122983380Y-140493761D01*
X122983380Y-140208047D02*
X121983380Y-140208047D01*
X122126238Y-140303285D01*
X122221476Y-140398523D01*
X122269095Y-140493761D01*
G04 #@! TO.C,J2*
X123809166Y-109561380D02*
X123809166Y-110275666D01*
X123761547Y-110418523D01*
X123666309Y-110513761D01*
X123523452Y-110561380D01*
X123428214Y-110561380D01*
X124237738Y-109656619D02*
X124285357Y-109609000D01*
X124380595Y-109561380D01*
X124618690Y-109561380D01*
X124713928Y-109609000D01*
X124761547Y-109656619D01*
X124809166Y-109751857D01*
X124809166Y-109847095D01*
X124761547Y-109989952D01*
X124190119Y-110561380D01*
X124809166Y-110561380D01*
G04 #@! TO.C,LED1*
X100996256Y-109684254D02*
X100520065Y-109684254D01*
X100520065Y-108684254D01*
X101329589Y-109160445D02*
X101662923Y-109160445D01*
X101805780Y-109684254D02*
X101329589Y-109684254D01*
X101329589Y-108684254D01*
X101805780Y-108684254D01*
X102234351Y-109684254D02*
X102234351Y-108684254D01*
X102472446Y-108684254D01*
X102615304Y-108731874D01*
X102710542Y-108827112D01*
X102758161Y-108922350D01*
X102805780Y-109112826D01*
X102805780Y-109255683D01*
X102758161Y-109446159D01*
X102710542Y-109541397D01*
X102615304Y-109636635D01*
X102472446Y-109684254D01*
X102234351Y-109684254D01*
X103758161Y-109684254D02*
X103186732Y-109684254D01*
X103472446Y-109684254D02*
X103472446Y-108684254D01*
X103377208Y-108827112D01*
X103281970Y-108922350D01*
X103186732Y-108969969D01*
G04 #@! TO.C,D9(PWM)*
D10*
X121964404Y-104419095D02*
X121164404Y-104419095D01*
X121164404Y-104228619D01*
X121202500Y-104114333D01*
X121278690Y-104038142D01*
X121354880Y-104000047D01*
X121507261Y-103961952D01*
X121621547Y-103961952D01*
X121773928Y-104000047D01*
X121850119Y-104038142D01*
X121926309Y-104114333D01*
X121964404Y-104228619D01*
X121964404Y-104419095D01*
X121964404Y-103581000D02*
X121964404Y-103428619D01*
X121926309Y-103352428D01*
X121888214Y-103314333D01*
X121773928Y-103238142D01*
X121621547Y-103200047D01*
X121316785Y-103200047D01*
X121240595Y-103238142D01*
X121202500Y-103276238D01*
X121164404Y-103352428D01*
X121164404Y-103504809D01*
X121202500Y-103581000D01*
X121240595Y-103619095D01*
X121316785Y-103657190D01*
X121507261Y-103657190D01*
X121583452Y-103619095D01*
X121621547Y-103581000D01*
X121659642Y-103504809D01*
X121659642Y-103352428D01*
X121621547Y-103276238D01*
X121583452Y-103238142D01*
X121507261Y-103200047D01*
X122269166Y-102628619D02*
X122231071Y-102666714D01*
X122116785Y-102742904D01*
X122040595Y-102781000D01*
X121926309Y-102819095D01*
X121735833Y-102857190D01*
X121583452Y-102857190D01*
X121392976Y-102819095D01*
X121278690Y-102781000D01*
X121202500Y-102742904D01*
X121088214Y-102666714D01*
X121050119Y-102628619D01*
X121964404Y-102323857D02*
X121164404Y-102323857D01*
X121164404Y-102019095D01*
X121202500Y-101942904D01*
X121240595Y-101904809D01*
X121316785Y-101866714D01*
X121431071Y-101866714D01*
X121507261Y-101904809D01*
X121545357Y-101942904D01*
X121583452Y-102019095D01*
X121583452Y-102323857D01*
X121164404Y-101600047D02*
X121964404Y-101409571D01*
X121392976Y-101257190D01*
X121964404Y-101104809D01*
X121164404Y-100914333D01*
X121964404Y-100609571D02*
X121164404Y-100609571D01*
X121735833Y-100342904D01*
X121164404Y-100076238D01*
X121964404Y-100076238D01*
X122269166Y-99771476D02*
X122231071Y-99733380D01*
X122116785Y-99657190D01*
X122040595Y-99619095D01*
X121926309Y-99581000D01*
X121735833Y-99542904D01*
X121583452Y-99542904D01*
X121392976Y-99581000D01*
X121278690Y-99619095D01*
X121202500Y-99657190D01*
X121088214Y-99733380D01*
X121050119Y-99771476D01*
G04 #@! TO.C,D6(PWM)*
X117455904Y-104482595D02*
X116655904Y-104482595D01*
X116655904Y-104292119D01*
X116694000Y-104177833D01*
X116770190Y-104101642D01*
X116846380Y-104063547D01*
X116998761Y-104025452D01*
X117113047Y-104025452D01*
X117265428Y-104063547D01*
X117341619Y-104101642D01*
X117417809Y-104177833D01*
X117455904Y-104292119D01*
X117455904Y-104482595D01*
X116655904Y-103339738D02*
X116655904Y-103492119D01*
X116694000Y-103568309D01*
X116732095Y-103606404D01*
X116846380Y-103682595D01*
X116998761Y-103720690D01*
X117303523Y-103720690D01*
X117379714Y-103682595D01*
X117417809Y-103644500D01*
X117455904Y-103568309D01*
X117455904Y-103415928D01*
X117417809Y-103339738D01*
X117379714Y-103301642D01*
X117303523Y-103263547D01*
X117113047Y-103263547D01*
X117036857Y-103301642D01*
X116998761Y-103339738D01*
X116960666Y-103415928D01*
X116960666Y-103568309D01*
X116998761Y-103644500D01*
X117036857Y-103682595D01*
X117113047Y-103720690D01*
X117760666Y-102692119D02*
X117722571Y-102730214D01*
X117608285Y-102806404D01*
X117532095Y-102844500D01*
X117417809Y-102882595D01*
X117227333Y-102920690D01*
X117074952Y-102920690D01*
X116884476Y-102882595D01*
X116770190Y-102844500D01*
X116694000Y-102806404D01*
X116579714Y-102730214D01*
X116541619Y-102692119D01*
X117455904Y-102387357D02*
X116655904Y-102387357D01*
X116655904Y-102082595D01*
X116694000Y-102006404D01*
X116732095Y-101968309D01*
X116808285Y-101930214D01*
X116922571Y-101930214D01*
X116998761Y-101968309D01*
X117036857Y-102006404D01*
X117074952Y-102082595D01*
X117074952Y-102387357D01*
X116655904Y-101663547D02*
X117455904Y-101473071D01*
X116884476Y-101320690D01*
X117455904Y-101168309D01*
X116655904Y-100977833D01*
X117455904Y-100673071D02*
X116655904Y-100673071D01*
X117227333Y-100406404D01*
X116655904Y-100139738D01*
X117455904Y-100139738D01*
X117760666Y-99834976D02*
X117722571Y-99796880D01*
X117608285Y-99720690D01*
X117532095Y-99682595D01*
X117417809Y-99644500D01*
X117227333Y-99606404D01*
X117074952Y-99606404D01*
X116884476Y-99644500D01*
X116770190Y-99682595D01*
X116694000Y-99720690D01*
X116579714Y-99796880D01*
X116541619Y-99834976D01*
G04 #@! TO.C,D5(PWM)*
X112883904Y-104482595D02*
X112083904Y-104482595D01*
X112083904Y-104292119D01*
X112122000Y-104177833D01*
X112198190Y-104101642D01*
X112274380Y-104063547D01*
X112426761Y-104025452D01*
X112541047Y-104025452D01*
X112693428Y-104063547D01*
X112769619Y-104101642D01*
X112845809Y-104177833D01*
X112883904Y-104292119D01*
X112883904Y-104482595D01*
X112083904Y-103301642D02*
X112083904Y-103682595D01*
X112464857Y-103720690D01*
X112426761Y-103682595D01*
X112388666Y-103606404D01*
X112388666Y-103415928D01*
X112426761Y-103339738D01*
X112464857Y-103301642D01*
X112541047Y-103263547D01*
X112731523Y-103263547D01*
X112807714Y-103301642D01*
X112845809Y-103339738D01*
X112883904Y-103415928D01*
X112883904Y-103606404D01*
X112845809Y-103682595D01*
X112807714Y-103720690D01*
X113188666Y-102692119D02*
X113150571Y-102730214D01*
X113036285Y-102806404D01*
X112960095Y-102844500D01*
X112845809Y-102882595D01*
X112655333Y-102920690D01*
X112502952Y-102920690D01*
X112312476Y-102882595D01*
X112198190Y-102844500D01*
X112122000Y-102806404D01*
X112007714Y-102730214D01*
X111969619Y-102692119D01*
X112883904Y-102387357D02*
X112083904Y-102387357D01*
X112083904Y-102082595D01*
X112122000Y-102006404D01*
X112160095Y-101968309D01*
X112236285Y-101930214D01*
X112350571Y-101930214D01*
X112426761Y-101968309D01*
X112464857Y-102006404D01*
X112502952Y-102082595D01*
X112502952Y-102387357D01*
X112083904Y-101663547D02*
X112883904Y-101473071D01*
X112312476Y-101320690D01*
X112883904Y-101168309D01*
X112083904Y-100977833D01*
X112883904Y-100673071D02*
X112083904Y-100673071D01*
X112655333Y-100406404D01*
X112083904Y-100139738D01*
X112883904Y-100139738D01*
X113188666Y-99834976D02*
X113150571Y-99796880D01*
X113036285Y-99720690D01*
X112960095Y-99682595D01*
X112845809Y-99644500D01*
X112655333Y-99606404D01*
X112502952Y-99606404D01*
X112312476Y-99644500D01*
X112198190Y-99682595D01*
X112122000Y-99720690D01*
X112007714Y-99796880D01*
X111969619Y-99834976D01*
G04 #@! TO.C,D3(PWM)*
X108438904Y-104482595D02*
X107638904Y-104482595D01*
X107638904Y-104292119D01*
X107677000Y-104177833D01*
X107753190Y-104101642D01*
X107829380Y-104063547D01*
X107981761Y-104025452D01*
X108096047Y-104025452D01*
X108248428Y-104063547D01*
X108324619Y-104101642D01*
X108400809Y-104177833D01*
X108438904Y-104292119D01*
X108438904Y-104482595D01*
X107638904Y-103758785D02*
X107638904Y-103263547D01*
X107943666Y-103530214D01*
X107943666Y-103415928D01*
X107981761Y-103339738D01*
X108019857Y-103301642D01*
X108096047Y-103263547D01*
X108286523Y-103263547D01*
X108362714Y-103301642D01*
X108400809Y-103339738D01*
X108438904Y-103415928D01*
X108438904Y-103644500D01*
X108400809Y-103720690D01*
X108362714Y-103758785D01*
X108743666Y-102692119D02*
X108705571Y-102730214D01*
X108591285Y-102806404D01*
X108515095Y-102844500D01*
X108400809Y-102882595D01*
X108210333Y-102920690D01*
X108057952Y-102920690D01*
X107867476Y-102882595D01*
X107753190Y-102844500D01*
X107677000Y-102806404D01*
X107562714Y-102730214D01*
X107524619Y-102692119D01*
X108438904Y-102387357D02*
X107638904Y-102387357D01*
X107638904Y-102082595D01*
X107677000Y-102006404D01*
X107715095Y-101968309D01*
X107791285Y-101930214D01*
X107905571Y-101930214D01*
X107981761Y-101968309D01*
X108019857Y-102006404D01*
X108057952Y-102082595D01*
X108057952Y-102387357D01*
X107638904Y-101663547D02*
X108438904Y-101473071D01*
X107867476Y-101320690D01*
X108438904Y-101168309D01*
X107638904Y-100977833D01*
X108438904Y-100673071D02*
X107638904Y-100673071D01*
X108210333Y-100406404D01*
X107638904Y-100139738D01*
X108438904Y-100139738D01*
X108743666Y-99834976D02*
X108705571Y-99796880D01*
X108591285Y-99720690D01*
X108515095Y-99682595D01*
X108400809Y-99644500D01*
X108210333Y-99606404D01*
X108057952Y-99606404D01*
X107867476Y-99644500D01*
X107753190Y-99682595D01*
X107677000Y-99720690D01*
X107562714Y-99796880D01*
X107524619Y-99834976D01*
G04 #@! TO.C,MA-1A1*
D17*
X85982023Y-122697119D02*
X84712023Y-122697119D01*
X85619166Y-122273785D01*
X84712023Y-121850452D01*
X85982023Y-121850452D01*
X85619166Y-121306166D02*
X85619166Y-120701404D01*
X85982023Y-121427119D02*
X84712023Y-121003785D01*
X85982023Y-120580452D01*
G04 #@! TO.C,MB-1A1*
X86045523Y-134217833D02*
X84775523Y-134217833D01*
X85682666Y-133794500D01*
X84775523Y-133371166D01*
X86045523Y-133371166D01*
X85380285Y-132343071D02*
X85440761Y-132161642D01*
X85501238Y-132101166D01*
X85622190Y-132040690D01*
X85803619Y-132040690D01*
X85924571Y-132101166D01*
X85985047Y-132161642D01*
X86045523Y-132282595D01*
X86045523Y-132766404D01*
X84775523Y-132766404D01*
X84775523Y-132343071D01*
X84836000Y-132222119D01*
X84896476Y-132161642D01*
X85017428Y-132101166D01*
X85138380Y-132101166D01*
X85259333Y-132161642D01*
X85319809Y-132222119D01*
X85380285Y-132343071D01*
X85380285Y-132766404D01*
G04 #@! TO.C,MC-1A1*
X128336523Y-134154333D02*
X127066523Y-134154333D01*
X127973666Y-133731000D01*
X127066523Y-133307666D01*
X128336523Y-133307666D01*
X128215571Y-131977190D02*
X128276047Y-132037666D01*
X128336523Y-132219095D01*
X128336523Y-132340047D01*
X128276047Y-132521476D01*
X128155095Y-132642428D01*
X128034142Y-132702904D01*
X127792238Y-132763380D01*
X127610809Y-132763380D01*
X127368904Y-132702904D01*
X127247952Y-132642428D01*
X127127000Y-132521476D01*
X127066523Y-132340047D01*
X127066523Y-132219095D01*
X127127000Y-132037666D01*
X127187476Y-131977190D01*
G04 #@! TO.C,MD-1A1*
X128273023Y-122978333D02*
X127003023Y-122978333D01*
X127910166Y-122555000D01*
X127003023Y-122131666D01*
X128273023Y-122131666D01*
X128273023Y-121526904D02*
X127003023Y-121526904D01*
X127003023Y-121224523D01*
X127063500Y-121043095D01*
X127184452Y-120922142D01*
X127305404Y-120861666D01*
X127547309Y-120801190D01*
X127728738Y-120801190D01*
X127970642Y-120861666D01*
X128091595Y-120922142D01*
X128212547Y-121043095D01*
X128273023Y-121224523D01*
X128273023Y-121526904D01*
G04 #@! TO.C,MOTOR_DRIVER_IC1*
D16*
X88430785Y-131933904D02*
X88430785Y-131133904D01*
X88697452Y-131705333D01*
X88964119Y-131133904D01*
X88964119Y-131933904D01*
X89497452Y-131133904D02*
X89649833Y-131133904D01*
X89726023Y-131172000D01*
X89802214Y-131248190D01*
X89840309Y-131400571D01*
X89840309Y-131667238D01*
X89802214Y-131819619D01*
X89726023Y-131895809D01*
X89649833Y-131933904D01*
X89497452Y-131933904D01*
X89421261Y-131895809D01*
X89345071Y-131819619D01*
X89306976Y-131667238D01*
X89306976Y-131400571D01*
X89345071Y-131248190D01*
X89421261Y-131172000D01*
X89497452Y-131133904D01*
X90068880Y-131133904D02*
X90526023Y-131133904D01*
X90297452Y-131933904D02*
X90297452Y-131133904D01*
X90945071Y-131133904D02*
X91097452Y-131133904D01*
X91173642Y-131172000D01*
X91249833Y-131248190D01*
X91287928Y-131400571D01*
X91287928Y-131667238D01*
X91249833Y-131819619D01*
X91173642Y-131895809D01*
X91097452Y-131933904D01*
X90945071Y-131933904D01*
X90868880Y-131895809D01*
X90792690Y-131819619D01*
X90754595Y-131667238D01*
X90754595Y-131400571D01*
X90792690Y-131248190D01*
X90868880Y-131172000D01*
X90945071Y-131133904D01*
X92087928Y-131933904D02*
X91821261Y-131552952D01*
X91630785Y-131933904D02*
X91630785Y-131133904D01*
X91935547Y-131133904D01*
X92011738Y-131172000D01*
X92049833Y-131210095D01*
X92087928Y-131286285D01*
X92087928Y-131400571D01*
X92049833Y-131476761D01*
X92011738Y-131514857D01*
X91935547Y-131552952D01*
X91630785Y-131552952D01*
X92240309Y-132010095D02*
X92849833Y-132010095D01*
X93040309Y-131933904D02*
X93040309Y-131133904D01*
X93230785Y-131133904D01*
X93345071Y-131172000D01*
X93421261Y-131248190D01*
X93459357Y-131324380D01*
X93497452Y-131476761D01*
X93497452Y-131591047D01*
X93459357Y-131743428D01*
X93421261Y-131819619D01*
X93345071Y-131895809D01*
X93230785Y-131933904D01*
X93040309Y-131933904D01*
X94297452Y-131933904D02*
X94030785Y-131552952D01*
X93840309Y-131933904D02*
X93840309Y-131133904D01*
X94145071Y-131133904D01*
X94221261Y-131172000D01*
X94259357Y-131210095D01*
X94297452Y-131286285D01*
X94297452Y-131400571D01*
X94259357Y-131476761D01*
X94221261Y-131514857D01*
X94145071Y-131552952D01*
X93840309Y-131552952D01*
X94640309Y-131933904D02*
X94640309Y-131133904D01*
X94906976Y-131133904D02*
X95173642Y-131933904D01*
X95440309Y-131133904D01*
X95706976Y-131514857D02*
X95973642Y-131514857D01*
X96087928Y-131933904D02*
X95706976Y-131933904D01*
X95706976Y-131133904D01*
X96087928Y-131133904D01*
X96887928Y-131933904D02*
X96621261Y-131552952D01*
X96430785Y-131933904D02*
X96430785Y-131133904D01*
X96735547Y-131133904D01*
X96811738Y-131172000D01*
X96849833Y-131210095D01*
X96887928Y-131286285D01*
X96887928Y-131400571D01*
X96849833Y-131476761D01*
X96811738Y-131514857D01*
X96735547Y-131552952D01*
X96430785Y-131552952D01*
X97040309Y-132010095D02*
X97649833Y-132010095D01*
X97840309Y-131933904D02*
X97840309Y-131133904D01*
X98678404Y-131857714D02*
X98640309Y-131895809D01*
X98526023Y-131933904D01*
X98449833Y-131933904D01*
X98335547Y-131895809D01*
X98259357Y-131819619D01*
X98221261Y-131743428D01*
X98183166Y-131591047D01*
X98183166Y-131476761D01*
X98221261Y-131324380D01*
X98259357Y-131248190D01*
X98335547Y-131172000D01*
X98449833Y-131133904D01*
X98526023Y-131133904D01*
X98640309Y-131172000D01*
X98678404Y-131210095D01*
X99440309Y-131933904D02*
X98983166Y-131933904D01*
X99211738Y-131933904D02*
X99211738Y-131133904D01*
X99135547Y-131248190D01*
X99059357Y-131324380D01*
X98983166Y-131362476D01*
G04 #@! TO.C,MOTOR_DRIVER_IC2*
D18*
X112497285Y-131806904D02*
X112497285Y-131006904D01*
X112763952Y-131578333D01*
X113030619Y-131006904D01*
X113030619Y-131806904D01*
X113563952Y-131006904D02*
X113716333Y-131006904D01*
X113792523Y-131045000D01*
X113868714Y-131121190D01*
X113906809Y-131273571D01*
X113906809Y-131540238D01*
X113868714Y-131692619D01*
X113792523Y-131768809D01*
X113716333Y-131806904D01*
X113563952Y-131806904D01*
X113487761Y-131768809D01*
X113411571Y-131692619D01*
X113373476Y-131540238D01*
X113373476Y-131273571D01*
X113411571Y-131121190D01*
X113487761Y-131045000D01*
X113563952Y-131006904D01*
X114135380Y-131006904D02*
X114592523Y-131006904D01*
X114363952Y-131806904D02*
X114363952Y-131006904D01*
X115011571Y-131006904D02*
X115163952Y-131006904D01*
X115240142Y-131045000D01*
X115316333Y-131121190D01*
X115354428Y-131273571D01*
X115354428Y-131540238D01*
X115316333Y-131692619D01*
X115240142Y-131768809D01*
X115163952Y-131806904D01*
X115011571Y-131806904D01*
X114935380Y-131768809D01*
X114859190Y-131692619D01*
X114821095Y-131540238D01*
X114821095Y-131273571D01*
X114859190Y-131121190D01*
X114935380Y-131045000D01*
X115011571Y-131006904D01*
X116154428Y-131806904D02*
X115887761Y-131425952D01*
X115697285Y-131806904D02*
X115697285Y-131006904D01*
X116002047Y-131006904D01*
X116078238Y-131045000D01*
X116116333Y-131083095D01*
X116154428Y-131159285D01*
X116154428Y-131273571D01*
X116116333Y-131349761D01*
X116078238Y-131387857D01*
X116002047Y-131425952D01*
X115697285Y-131425952D01*
X116306809Y-131883095D02*
X116916333Y-131883095D01*
X117106809Y-131806904D02*
X117106809Y-131006904D01*
X117297285Y-131006904D01*
X117411571Y-131045000D01*
X117487761Y-131121190D01*
X117525857Y-131197380D01*
X117563952Y-131349761D01*
X117563952Y-131464047D01*
X117525857Y-131616428D01*
X117487761Y-131692619D01*
X117411571Y-131768809D01*
X117297285Y-131806904D01*
X117106809Y-131806904D01*
X118363952Y-131806904D02*
X118097285Y-131425952D01*
X117906809Y-131806904D02*
X117906809Y-131006904D01*
X118211571Y-131006904D01*
X118287761Y-131045000D01*
X118325857Y-131083095D01*
X118363952Y-131159285D01*
X118363952Y-131273571D01*
X118325857Y-131349761D01*
X118287761Y-131387857D01*
X118211571Y-131425952D01*
X117906809Y-131425952D01*
X118706809Y-131806904D02*
X118706809Y-131006904D01*
X118973476Y-131006904D02*
X119240142Y-131806904D01*
X119506809Y-131006904D01*
X119773476Y-131387857D02*
X120040142Y-131387857D01*
X120154428Y-131806904D02*
X119773476Y-131806904D01*
X119773476Y-131006904D01*
X120154428Y-131006904D01*
X120954428Y-131806904D02*
X120687761Y-131425952D01*
X120497285Y-131806904D02*
X120497285Y-131006904D01*
X120802047Y-131006904D01*
X120878238Y-131045000D01*
X120916333Y-131083095D01*
X120954428Y-131159285D01*
X120954428Y-131273571D01*
X120916333Y-131349761D01*
X120878238Y-131387857D01*
X120802047Y-131425952D01*
X120497285Y-131425952D01*
X121106809Y-131883095D02*
X121716333Y-131883095D01*
X121906809Y-131806904D02*
X121906809Y-131006904D01*
X122744904Y-131730714D02*
X122706809Y-131768809D01*
X122592523Y-131806904D01*
X122516333Y-131806904D01*
X122402047Y-131768809D01*
X122325857Y-131692619D01*
X122287761Y-131616428D01*
X122249666Y-131464047D01*
X122249666Y-131349761D01*
X122287761Y-131197380D01*
X122325857Y-131121190D01*
X122402047Y-131045000D01*
X122516333Y-131006904D01*
X122592523Y-131006904D01*
X122706809Y-131045000D01*
X122744904Y-131083095D01*
X123049666Y-131083095D02*
X123087761Y-131045000D01*
X123163952Y-131006904D01*
X123354428Y-131006904D01*
X123430619Y-131045000D01*
X123468714Y-131083095D01*
X123506809Y-131159285D01*
X123506809Y-131235476D01*
X123468714Y-131349761D01*
X123011571Y-131806904D01*
X123506809Y-131806904D01*
G04 #@! TO.C,P1*
D14*
X93368904Y-87677380D02*
X93368904Y-86677380D01*
X93749857Y-86677380D01*
X93845095Y-86725000D01*
X93892714Y-86772619D01*
X93940333Y-86867857D01*
X93940333Y-87010714D01*
X93892714Y-87105952D01*
X93845095Y-87153571D01*
X93749857Y-87201190D01*
X93368904Y-87201190D01*
X94892714Y-87677380D02*
X94321285Y-87677380D01*
X94607000Y-87677380D02*
X94607000Y-86677380D01*
X94511761Y-86820238D01*
X94416523Y-86915476D01*
X94321285Y-86963095D01*
G04 #@! TO.C,P2*
X129460380Y-74525095D02*
X128460380Y-74525095D01*
X128460380Y-74144142D01*
X128508000Y-74048904D01*
X128555619Y-74001285D01*
X128650857Y-73953666D01*
X128793714Y-73953666D01*
X128888952Y-74001285D01*
X128936571Y-74048904D01*
X128984190Y-74144142D01*
X128984190Y-74525095D01*
X128555619Y-73572714D02*
X128508000Y-73525095D01*
X128460380Y-73429857D01*
X128460380Y-73191761D01*
X128508000Y-73096523D01*
X128555619Y-73048904D01*
X128650857Y-73001285D01*
X128746095Y-73001285D01*
X128888952Y-73048904D01*
X129460380Y-73620333D01*
X129460380Y-73001285D01*
G04 #@! TO.C,P3*
X132992904Y-88971380D02*
X132992904Y-87971380D01*
X133373857Y-87971380D01*
X133469095Y-88019000D01*
X133516714Y-88066619D01*
X133564333Y-88161857D01*
X133564333Y-88304714D01*
X133516714Y-88399952D01*
X133469095Y-88447571D01*
X133373857Y-88495190D01*
X132992904Y-88495190D01*
X133897666Y-87971380D02*
X134516714Y-87971380D01*
X134183380Y-88352333D01*
X134326238Y-88352333D01*
X134421476Y-88399952D01*
X134469095Y-88447571D01*
X134516714Y-88542809D01*
X134516714Y-88780904D01*
X134469095Y-88876142D01*
X134421476Y-88923761D01*
X134326238Y-88971380D01*
X134040523Y-88971380D01*
X133945285Y-88923761D01*
X133897666Y-88876142D01*
G04 #@! TO.C,P4*
X98702904Y-88082380D02*
X98702904Y-87082380D01*
X99083857Y-87082380D01*
X99179095Y-87130000D01*
X99226714Y-87177619D01*
X99274333Y-87272857D01*
X99274333Y-87415714D01*
X99226714Y-87510952D01*
X99179095Y-87558571D01*
X99083857Y-87606190D01*
X98702904Y-87606190D01*
X100131476Y-87415714D02*
X100131476Y-88082380D01*
X99893380Y-87034761D02*
X99655285Y-87749047D01*
X100274333Y-87749047D01*
G04 #@! TO.C,P5*
X82065904Y-91130380D02*
X82065904Y-90130380D01*
X82446857Y-90130380D01*
X82542095Y-90178000D01*
X82589714Y-90225619D01*
X82637333Y-90320857D01*
X82637333Y-90463714D01*
X82589714Y-90558952D01*
X82542095Y-90606571D01*
X82446857Y-90654190D01*
X82065904Y-90654190D01*
X83542095Y-90130380D02*
X83065904Y-90130380D01*
X83018285Y-90606571D01*
X83065904Y-90558952D01*
X83161142Y-90511333D01*
X83399238Y-90511333D01*
X83494476Y-90558952D01*
X83542095Y-90606571D01*
X83589714Y-90701809D01*
X83589714Y-90939904D01*
X83542095Y-91035142D01*
X83494476Y-91082761D01*
X83399238Y-91130380D01*
X83161142Y-91130380D01*
X83065904Y-91082761D01*
X83018285Y-91035142D01*
G04 #@! TO.C,P6*
X89050904Y-92781380D02*
X89050904Y-91781380D01*
X89431857Y-91781380D01*
X89527095Y-91829000D01*
X89574714Y-91876619D01*
X89622333Y-91971857D01*
X89622333Y-92114714D01*
X89574714Y-92209952D01*
X89527095Y-92257571D01*
X89431857Y-92305190D01*
X89050904Y-92305190D01*
X90479476Y-91781380D02*
X90289000Y-91781380D01*
X90193761Y-91829000D01*
X90146142Y-91876619D01*
X90050904Y-92019476D01*
X90003285Y-92209952D01*
X90003285Y-92590904D01*
X90050904Y-92686142D01*
X90098523Y-92733761D01*
X90193761Y-92781380D01*
X90384238Y-92781380D01*
X90479476Y-92733761D01*
X90527095Y-92686142D01*
X90574714Y-92590904D01*
X90574714Y-92352809D01*
X90527095Y-92257571D01*
X90479476Y-92209952D01*
X90384238Y-92162333D01*
X90193761Y-92162333D01*
X90098523Y-92209952D01*
X90050904Y-92257571D01*
X90003285Y-92352809D01*
X92019428Y-89296714D02*
X92019428Y-88534809D01*
X92400380Y-88915761D02*
X91638476Y-88915761D01*
X91400380Y-87582428D02*
X91400380Y-88058619D01*
X91876571Y-88106238D01*
X91828952Y-88058619D01*
X91781333Y-87963380D01*
X91781333Y-87725285D01*
X91828952Y-87630047D01*
X91876571Y-87582428D01*
X91971809Y-87534809D01*
X92209904Y-87534809D01*
X92305142Y-87582428D01*
X92352761Y-87630047D01*
X92400380Y-87725285D01*
X92400380Y-87963380D01*
X92352761Y-88058619D01*
X92305142Y-88106238D01*
X91400380Y-87249095D02*
X92400380Y-86915761D01*
X91400380Y-86582428D01*
G04 #@! TO.C,R1*
X121960254Y-106331362D02*
X121484064Y-106664696D01*
X121960254Y-106902791D02*
X120960254Y-106902791D01*
X120960254Y-106521838D01*
X121007874Y-106426600D01*
X121055493Y-106378981D01*
X121150731Y-106331362D01*
X121293588Y-106331362D01*
X121388826Y-106378981D01*
X121436445Y-106426600D01*
X121484064Y-106521838D01*
X121484064Y-106902791D01*
X121960254Y-105378981D02*
X121960254Y-105950410D01*
X121960254Y-105664696D02*
X120960254Y-105664696D01*
X121103112Y-105759934D01*
X121198350Y-105855172D01*
X121245969Y-105950410D01*
G04 #@! TO.C,R2*
X117769254Y-106331362D02*
X117293064Y-106664696D01*
X117769254Y-106902791D02*
X116769254Y-106902791D01*
X116769254Y-106521838D01*
X116816874Y-106426600D01*
X116864493Y-106378981D01*
X116959731Y-106331362D01*
X117102588Y-106331362D01*
X117197826Y-106378981D01*
X117245445Y-106426600D01*
X117293064Y-106521838D01*
X117293064Y-106902791D01*
X116864493Y-105950410D02*
X116816874Y-105902791D01*
X116769254Y-105807553D01*
X116769254Y-105569457D01*
X116816874Y-105474219D01*
X116864493Y-105426600D01*
X116959731Y-105378981D01*
X117054969Y-105378981D01*
X117197826Y-105426600D01*
X117769254Y-105998029D01*
X117769254Y-105378981D01*
G04 #@! TO.C,R3*
X113070254Y-106331362D02*
X112594064Y-106664696D01*
X113070254Y-106902791D02*
X112070254Y-106902791D01*
X112070254Y-106521838D01*
X112117874Y-106426600D01*
X112165493Y-106378981D01*
X112260731Y-106331362D01*
X112403588Y-106331362D01*
X112498826Y-106378981D01*
X112546445Y-106426600D01*
X112594064Y-106521838D01*
X112594064Y-106902791D01*
X112070254Y-105998029D02*
X112070254Y-105378981D01*
X112451207Y-105712315D01*
X112451207Y-105569457D01*
X112498826Y-105474219D01*
X112546445Y-105426600D01*
X112641683Y-105378981D01*
X112879778Y-105378981D01*
X112975016Y-105426600D01*
X113022635Y-105474219D01*
X113070254Y-105569457D01*
X113070254Y-105855172D01*
X113022635Y-105950410D01*
X112975016Y-105998029D01*
G04 #@! TO.C,R4*
X108529380Y-106402166D02*
X108053190Y-106735500D01*
X108529380Y-106973595D02*
X107529380Y-106973595D01*
X107529380Y-106592642D01*
X107577000Y-106497404D01*
X107624619Y-106449785D01*
X107719857Y-106402166D01*
X107862714Y-106402166D01*
X107957952Y-106449785D01*
X108005571Y-106497404D01*
X108053190Y-106592642D01*
X108053190Y-106973595D01*
X107862714Y-105545023D02*
X108529380Y-105545023D01*
X107481761Y-105783119D02*
X108196047Y-106021214D01*
X108196047Y-105402166D01*
G04 #@! TO.C,R5*
X119028380Y-114085666D02*
X118552190Y-114419000D01*
X119028380Y-114657095D02*
X118028380Y-114657095D01*
X118028380Y-114276142D01*
X118076000Y-114180904D01*
X118123619Y-114133285D01*
X118218857Y-114085666D01*
X118361714Y-114085666D01*
X118456952Y-114133285D01*
X118504571Y-114180904D01*
X118552190Y-114276142D01*
X118552190Y-114657095D01*
X118028380Y-113180904D02*
X118028380Y-113657095D01*
X118504571Y-113704714D01*
X118456952Y-113657095D01*
X118409333Y-113561857D01*
X118409333Y-113323761D01*
X118456952Y-113228523D01*
X118504571Y-113180904D01*
X118599809Y-113133285D01*
X118837904Y-113133285D01*
X118933142Y-113180904D01*
X118980761Y-113228523D01*
X119028380Y-113323761D01*
X119028380Y-113561857D01*
X118980761Y-113657095D01*
X118933142Y-113704714D01*
G04 #@! TO.C,R6*
X123912333Y-83256380D02*
X123579000Y-82780190D01*
X123340904Y-83256380D02*
X123340904Y-82256380D01*
X123721857Y-82256380D01*
X123817095Y-82304000D01*
X123864714Y-82351619D01*
X123912333Y-82446857D01*
X123912333Y-82589714D01*
X123864714Y-82684952D01*
X123817095Y-82732571D01*
X123721857Y-82780190D01*
X123340904Y-82780190D01*
X124769476Y-82256380D02*
X124579000Y-82256380D01*
X124483761Y-82304000D01*
X124436142Y-82351619D01*
X124340904Y-82494476D01*
X124293285Y-82684952D01*
X124293285Y-83065904D01*
X124340904Y-83161142D01*
X124388523Y-83208761D01*
X124483761Y-83256380D01*
X124674238Y-83256380D01*
X124769476Y-83208761D01*
X124817095Y-83161142D01*
X124864714Y-83065904D01*
X124864714Y-82827809D01*
X124817095Y-82732571D01*
X124769476Y-82684952D01*
X124674238Y-82637333D01*
X124483761Y-82637333D01*
X124388523Y-82684952D01*
X124340904Y-82732571D01*
X124293285Y-82827809D01*
G04 #@! TO.C,R7*
X124039333Y-79954380D02*
X123706000Y-79478190D01*
X123467904Y-79954380D02*
X123467904Y-78954380D01*
X123848857Y-78954380D01*
X123944095Y-79002000D01*
X123991714Y-79049619D01*
X124039333Y-79144857D01*
X124039333Y-79287714D01*
X123991714Y-79382952D01*
X123944095Y-79430571D01*
X123848857Y-79478190D01*
X123467904Y-79478190D01*
X124372666Y-78954380D02*
X125039333Y-78954380D01*
X124610761Y-79954380D01*
G04 #@! TO.C,R8*
X111847333Y-136765380D02*
X111514000Y-136289190D01*
X111275904Y-136765380D02*
X111275904Y-135765380D01*
X111656857Y-135765380D01*
X111752095Y-135813000D01*
X111799714Y-135860619D01*
X111847333Y-135955857D01*
X111847333Y-136098714D01*
X111799714Y-136193952D01*
X111752095Y-136241571D01*
X111656857Y-136289190D01*
X111275904Y-136289190D01*
X112418761Y-136193952D02*
X112323523Y-136146333D01*
X112275904Y-136098714D01*
X112228285Y-136003476D01*
X112228285Y-135955857D01*
X112275904Y-135860619D01*
X112323523Y-135813000D01*
X112418761Y-135765380D01*
X112609238Y-135765380D01*
X112704476Y-135813000D01*
X112752095Y-135860619D01*
X112799714Y-135955857D01*
X112799714Y-136003476D01*
X112752095Y-136098714D01*
X112704476Y-136146333D01*
X112609238Y-136193952D01*
X112418761Y-136193952D01*
X112323523Y-136241571D01*
X112275904Y-136289190D01*
X112228285Y-136384428D01*
X112228285Y-136574904D01*
X112275904Y-136670142D01*
X112323523Y-136717761D01*
X112418761Y-136765380D01*
X112609238Y-136765380D01*
X112704476Y-136717761D01*
X112752095Y-136670142D01*
X112799714Y-136574904D01*
X112799714Y-136384428D01*
X112752095Y-136289190D01*
X112704476Y-136241571D01*
X112609238Y-136193952D01*
G04 #@! TO.C,R9*
X126605380Y-138215666D02*
X126129190Y-138549000D01*
X126605380Y-138787095D02*
X125605380Y-138787095D01*
X125605380Y-138406142D01*
X125653000Y-138310904D01*
X125700619Y-138263285D01*
X125795857Y-138215666D01*
X125938714Y-138215666D01*
X126033952Y-138263285D01*
X126081571Y-138310904D01*
X126129190Y-138406142D01*
X126129190Y-138787095D01*
X126605380Y-137739476D02*
X126605380Y-137549000D01*
X126557761Y-137453761D01*
X126510142Y-137406142D01*
X126367285Y-137310904D01*
X126176809Y-137263285D01*
X125795857Y-137263285D01*
X125700619Y-137310904D01*
X125653000Y-137358523D01*
X125605380Y-137453761D01*
X125605380Y-137644238D01*
X125653000Y-137739476D01*
X125700619Y-137787095D01*
X125795857Y-137834714D01*
X126033952Y-137834714D01*
X126129190Y-137787095D01*
X126176809Y-137739476D01*
X126224428Y-137644238D01*
X126224428Y-137453761D01*
X126176809Y-137358523D01*
X126129190Y-137310904D01*
X126033952Y-137263285D01*
G04 #@! TO.C,R10*
X96773446Y-109514254D02*
X96440113Y-109038064D01*
X96202018Y-109514254D02*
X96202018Y-108514254D01*
X96582970Y-108514254D01*
X96678208Y-108561874D01*
X96725827Y-108609493D01*
X96773446Y-108704731D01*
X96773446Y-108847588D01*
X96725827Y-108942826D01*
X96678208Y-108990445D01*
X96582970Y-109038064D01*
X96202018Y-109038064D01*
X97725827Y-109514254D02*
X97154399Y-109514254D01*
X97440113Y-109514254D02*
X97440113Y-108514254D01*
X97344875Y-108657112D01*
X97249637Y-108752350D01*
X97154399Y-108799969D01*
X98344875Y-108514254D02*
X98440113Y-108514254D01*
X98535351Y-108561874D01*
X98582970Y-108609493D01*
X98630589Y-108704731D01*
X98678208Y-108895207D01*
X98678208Y-109133302D01*
X98630589Y-109323778D01*
X98582970Y-109419016D01*
X98535351Y-109466635D01*
X98440113Y-109514254D01*
X98344875Y-109514254D01*
X98249637Y-109466635D01*
X98202018Y-109419016D01*
X98154399Y-109323778D01*
X98106780Y-109133302D01*
X98106780Y-108895207D01*
X98154399Y-108704731D01*
X98202018Y-108609493D01*
X98249637Y-108561874D01*
X98344875Y-108514254D01*
G04 #@! TO.C,R11*
X87870380Y-114180857D02*
X87394190Y-114514190D01*
X87870380Y-114752285D02*
X86870380Y-114752285D01*
X86870380Y-114371333D01*
X86918000Y-114276095D01*
X86965619Y-114228476D01*
X87060857Y-114180857D01*
X87203714Y-114180857D01*
X87298952Y-114228476D01*
X87346571Y-114276095D01*
X87394190Y-114371333D01*
X87394190Y-114752285D01*
X87870380Y-113228476D02*
X87870380Y-113799904D01*
X87870380Y-113514190D02*
X86870380Y-113514190D01*
X87013238Y-113609428D01*
X87108476Y-113704666D01*
X87156095Y-113799904D01*
X87870380Y-112276095D02*
X87870380Y-112847523D01*
X87870380Y-112561809D02*
X86870380Y-112561809D01*
X87013238Y-112657047D01*
X87108476Y-112752285D01*
X87156095Y-112847523D01*
G04 #@! TO.C,R12*
X109085142Y-116212880D02*
X108751809Y-115736690D01*
X108513714Y-116212880D02*
X108513714Y-115212880D01*
X108894666Y-115212880D01*
X108989904Y-115260500D01*
X109037523Y-115308119D01*
X109085142Y-115403357D01*
X109085142Y-115546214D01*
X109037523Y-115641452D01*
X108989904Y-115689071D01*
X108894666Y-115736690D01*
X108513714Y-115736690D01*
X110037523Y-116212880D02*
X109466095Y-116212880D01*
X109751809Y-116212880D02*
X109751809Y-115212880D01*
X109656571Y-115355738D01*
X109561333Y-115450976D01*
X109466095Y-115498595D01*
X110418476Y-115308119D02*
X110466095Y-115260500D01*
X110561333Y-115212880D01*
X110799428Y-115212880D01*
X110894666Y-115260500D01*
X110942285Y-115308119D01*
X110989904Y-115403357D01*
X110989904Y-115498595D01*
X110942285Y-115641452D01*
X110370857Y-116212880D01*
X110989904Y-116212880D01*
G04 #@! TO.C,R16*
X115387380Y-79763857D02*
X114911190Y-80097190D01*
X115387380Y-80335285D02*
X114387380Y-80335285D01*
X114387380Y-79954333D01*
X114435000Y-79859095D01*
X114482619Y-79811476D01*
X114577857Y-79763857D01*
X114720714Y-79763857D01*
X114815952Y-79811476D01*
X114863571Y-79859095D01*
X114911190Y-79954333D01*
X114911190Y-80335285D01*
X115387380Y-78811476D02*
X115387380Y-79382904D01*
X115387380Y-79097190D02*
X114387380Y-79097190D01*
X114530238Y-79192428D01*
X114625476Y-79287666D01*
X114673095Y-79382904D01*
X114387380Y-77954333D02*
X114387380Y-78144809D01*
X114435000Y-78240047D01*
X114482619Y-78287666D01*
X114625476Y-78382904D01*
X114815952Y-78430523D01*
X115196904Y-78430523D01*
X115292142Y-78382904D01*
X115339761Y-78335285D01*
X115387380Y-78240047D01*
X115387380Y-78049571D01*
X115339761Y-77954333D01*
X115292142Y-77906714D01*
X115196904Y-77859095D01*
X114958809Y-77859095D01*
X114863571Y-77906714D01*
X114815952Y-77954333D01*
X114768333Y-78049571D01*
X114768333Y-78240047D01*
X114815952Y-78335285D01*
X114863571Y-78382904D01*
X114958809Y-78430523D01*
G04 #@! TO.C,R17*
X113101380Y-90939857D02*
X112625190Y-91273190D01*
X113101380Y-91511285D02*
X112101380Y-91511285D01*
X112101380Y-91130333D01*
X112149000Y-91035095D01*
X112196619Y-90987476D01*
X112291857Y-90939857D01*
X112434714Y-90939857D01*
X112529952Y-90987476D01*
X112577571Y-91035095D01*
X112625190Y-91130333D01*
X112625190Y-91511285D01*
X113101380Y-89987476D02*
X113101380Y-90558904D01*
X113101380Y-90273190D02*
X112101380Y-90273190D01*
X112244238Y-90368428D01*
X112339476Y-90463666D01*
X112387095Y-90558904D01*
X112101380Y-89654142D02*
X112101380Y-88987476D01*
X113101380Y-89416047D01*
G04 #@! TO.C,U1*
D19*
X90054529Y-100331817D02*
X90866085Y-100331817D01*
X90961562Y-100284078D01*
X91009300Y-100236340D01*
X91057039Y-100140862D01*
X91057039Y-99949908D01*
X91009300Y-99854431D01*
X90961562Y-99806692D01*
X90866085Y-99758954D01*
X90054529Y-99758954D01*
X91057039Y-98756444D02*
X91057039Y-99329307D01*
X91057039Y-99042875D02*
X90054529Y-99042875D01*
X90197745Y-99138352D01*
X90293222Y-99233830D01*
X90340960Y-99329307D01*
X89681952Y-103403763D02*
X88679262Y-103403763D01*
X89681952Y-102830797D01*
X88679262Y-102830797D01*
X89586458Y-101780360D02*
X89634205Y-101828107D01*
X89681952Y-101971349D01*
X89681952Y-102066843D01*
X89634205Y-102210085D01*
X89538711Y-102305579D01*
X89443217Y-102353326D01*
X89252228Y-102401073D01*
X89108987Y-102401073D01*
X88917998Y-102353326D01*
X88822504Y-102305579D01*
X88727010Y-102210085D01*
X88679262Y-102066843D01*
X88679262Y-101971349D01*
X88727010Y-101828107D01*
X88774757Y-101780360D01*
X89681952Y-101350636D02*
X88679262Y-101350636D01*
X88679262Y-100968659D01*
X88727010Y-100873165D01*
X88774757Y-100825417D01*
X88870251Y-100777670D01*
X89013492Y-100777670D01*
X89108987Y-100825417D01*
X89156734Y-100873165D01*
X89204481Y-100968659D01*
X89204481Y-101350636D01*
X89681952Y-99822727D02*
X89681952Y-100395693D01*
X89681952Y-100109210D02*
X88679262Y-100109210D01*
X88822504Y-100204705D01*
X88917998Y-100300199D01*
X88965745Y-100395693D01*
X89681952Y-98867785D02*
X89681952Y-99440750D01*
X89681952Y-99154267D02*
X88679262Y-99154267D01*
X88822504Y-99249762D01*
X88917998Y-99345256D01*
X88965745Y-99440750D01*
X89681952Y-97912842D02*
X89681952Y-98485807D01*
X89681952Y-98199325D02*
X88679262Y-98199325D01*
X88822504Y-98294819D01*
X88917998Y-98390313D01*
X88965745Y-98485807D01*
X88679262Y-97578612D02*
X88679262Y-96910152D01*
X89681952Y-97339876D01*
X85252466Y-100044070D02*
X85871514Y-100044070D01*
X85538180Y-100425023D01*
X85681038Y-100425023D01*
X85776276Y-100472642D01*
X85823895Y-100520261D01*
X85871514Y-100615499D01*
X85871514Y-100853594D01*
X85823895Y-100948832D01*
X85776276Y-100996451D01*
X85681038Y-101044070D01*
X85395323Y-101044070D01*
X85300085Y-100996451D01*
X85252466Y-100948832D01*
X92649376Y-101260884D02*
X92649376Y-101927550D01*
X92411280Y-100879931D02*
X92173185Y-101594217D01*
X92792233Y-101594217D01*
X85873064Y-96559270D02*
X85301635Y-96559270D01*
X85587350Y-96559270D02*
X85587350Y-95559270D01*
X85492111Y-95702128D01*
X85396873Y-95797366D01*
X85301635Y-95844985D01*
X85301345Y-97824559D02*
X85348964Y-97776940D01*
X85444202Y-97729320D01*
X85682298Y-97729320D01*
X85777536Y-97776940D01*
X85825155Y-97824559D01*
X85872774Y-97919797D01*
X85872774Y-98015035D01*
X85825155Y-98157892D01*
X85253726Y-98729320D01*
X85872774Y-98729320D01*
G04 #@! TO.C,U2*
D14*
X119507095Y-83826380D02*
X119507095Y-84635904D01*
X119554714Y-84731142D01*
X119602333Y-84778761D01*
X119697571Y-84826380D01*
X119888047Y-84826380D01*
X119983285Y-84778761D01*
X120030904Y-84731142D01*
X120078523Y-84635904D01*
X120078523Y-83826380D01*
X120507095Y-83921619D02*
X120554714Y-83874000D01*
X120649952Y-83826380D01*
X120888047Y-83826380D01*
X120983285Y-83874000D01*
X121030904Y-83921619D01*
X121078523Y-84016857D01*
X121078523Y-84112095D01*
X121030904Y-84254952D01*
X120459476Y-84826380D01*
X121078523Y-84826380D01*
G04 #@! TO.C,U3*
D19*
X98279802Y-96682269D02*
X98279802Y-97492667D01*
X98327472Y-97588008D01*
X98375143Y-97635679D01*
X98470484Y-97683349D01*
X98661166Y-97683349D01*
X98756507Y-97635679D01*
X98804177Y-97588008D01*
X98851848Y-97492667D01*
X98851848Y-96682269D01*
X99233211Y-96682269D02*
X99852928Y-96682269D01*
X99519234Y-97063633D01*
X99662246Y-97063633D01*
X99757587Y-97111303D01*
X99805257Y-97158974D01*
X99852928Y-97254315D01*
X99852928Y-97492667D01*
X99805257Y-97588008D01*
X99757587Y-97635679D01*
X99662246Y-97683349D01*
X99376223Y-97683349D01*
X99280882Y-97635679D01*
X99233211Y-97588008D01*
X94369357Y-102188928D02*
X94083642Y-102188928D01*
X94083642Y-101588928D01*
X94569357Y-102188928D02*
X94569357Y-101588928D01*
X94797928Y-101588928D01*
X94855071Y-101617500D01*
X94883642Y-101646071D01*
X94912214Y-101703214D01*
X94912214Y-101788928D01*
X94883642Y-101846071D01*
X94855071Y-101874642D01*
X94797928Y-101903214D01*
X94569357Y-101903214D01*
X95140785Y-101646071D02*
X95169357Y-101617500D01*
X95226500Y-101588928D01*
X95369357Y-101588928D01*
X95426500Y-101617500D01*
X95455071Y-101646071D01*
X95483642Y-101703214D01*
X95483642Y-101760357D01*
X95455071Y-101846071D01*
X95112214Y-102188928D01*
X95483642Y-102188928D01*
X95769357Y-102188928D02*
X95883642Y-102188928D01*
X95940785Y-102160357D01*
X95969357Y-102131785D01*
X96026500Y-102046071D01*
X96055071Y-101931785D01*
X96055071Y-101703214D01*
X96026500Y-101646071D01*
X95997928Y-101617500D01*
X95940785Y-101588928D01*
X95826500Y-101588928D01*
X95769357Y-101617500D01*
X95740785Y-101646071D01*
X95712214Y-101703214D01*
X95712214Y-101846071D01*
X95740785Y-101903214D01*
X95769357Y-101931785D01*
X95826500Y-101960357D01*
X95940785Y-101960357D01*
X95997928Y-101931785D01*
X96026500Y-101903214D01*
X96055071Y-101846071D01*
X96397928Y-101846071D02*
X96340785Y-101817500D01*
X96312214Y-101788928D01*
X96283642Y-101731785D01*
X96283642Y-101703214D01*
X96312214Y-101646071D01*
X96340785Y-101617500D01*
X96397928Y-101588928D01*
X96512214Y-101588928D01*
X96569357Y-101617500D01*
X96597928Y-101646071D01*
X96626500Y-101703214D01*
X96626500Y-101731785D01*
X96597928Y-101788928D01*
X96569357Y-101817500D01*
X96512214Y-101846071D01*
X96397928Y-101846071D01*
X96340785Y-101874642D01*
X96312214Y-101903214D01*
X96283642Y-101960357D01*
X96283642Y-102074642D01*
X96312214Y-102131785D01*
X96340785Y-102160357D01*
X96397928Y-102188928D01*
X96512214Y-102188928D01*
X96569357Y-102160357D01*
X96597928Y-102131785D01*
X96626500Y-102074642D01*
X96626500Y-101960357D01*
X96597928Y-101903214D01*
X96569357Y-101874642D01*
X96512214Y-101846071D01*
X97169357Y-101588928D02*
X96883642Y-101588928D01*
X96855071Y-101874642D01*
X96883642Y-101846071D01*
X96940785Y-101817500D01*
X97083642Y-101817500D01*
X97140785Y-101846071D01*
X97169357Y-101874642D01*
X97197928Y-101931785D01*
X97197928Y-102074642D01*
X97169357Y-102131785D01*
X97140785Y-102160357D01*
X97083642Y-102188928D01*
X96940785Y-102188928D01*
X96883642Y-102160357D01*
X96855071Y-102131785D01*
X97455071Y-101960357D02*
X97912214Y-101960357D01*
X98140785Y-101588928D02*
X98512214Y-101588928D01*
X98312214Y-101817500D01*
X98397928Y-101817500D01*
X98455071Y-101846071D01*
X98483642Y-101874642D01*
X98512214Y-101931785D01*
X98512214Y-102074642D01*
X98483642Y-102131785D01*
X98455071Y-102160357D01*
X98397928Y-102188928D01*
X98226500Y-102188928D01*
X98169357Y-102160357D01*
X98140785Y-102131785D01*
X98712214Y-101588928D02*
X99083642Y-101588928D01*
X98883642Y-101817500D01*
X98969357Y-101817500D01*
X99026500Y-101846071D01*
X99055071Y-101874642D01*
X99083642Y-101931785D01*
X99083642Y-102074642D01*
X99055071Y-102131785D01*
X99026500Y-102160357D01*
X98969357Y-102188928D01*
X98797928Y-102188928D01*
X98740785Y-102160357D01*
X98712214Y-102131785D01*
X99340785Y-102188928D02*
X99340785Y-101588928D01*
X99483642Y-101588928D01*
X99569357Y-101617500D01*
X99626500Y-101674642D01*
X99655071Y-101731785D01*
X99683642Y-101846071D01*
X99683642Y-101931785D01*
X99655071Y-102046071D01*
X99626500Y-102103214D01*
X99569357Y-102160357D01*
X99483642Y-102188928D01*
X99340785Y-102188928D01*
X100140785Y-101874642D02*
X100226500Y-101903214D01*
X100255071Y-101931785D01*
X100283642Y-101988928D01*
X100283642Y-102074642D01*
X100255071Y-102131785D01*
X100226500Y-102160357D01*
X100169357Y-102188928D01*
X99940785Y-102188928D01*
X99940785Y-101588928D01*
X100140785Y-101588928D01*
X100197928Y-101617500D01*
X100226500Y-101646071D01*
X100255071Y-101703214D01*
X100255071Y-101760357D01*
X100226500Y-101817500D01*
X100197928Y-101846071D01*
X100140785Y-101874642D01*
X99940785Y-101874642D01*
X100455071Y-101588928D02*
X100655071Y-102188928D01*
X100855071Y-101588928D01*
X101397928Y-102188928D02*
X101197928Y-101903214D01*
X101055071Y-102188928D02*
X101055071Y-101588928D01*
X101283642Y-101588928D01*
X101340785Y-101617500D01*
X101369357Y-101646071D01*
X101397928Y-101703214D01*
X101397928Y-101788928D01*
X101369357Y-101846071D01*
X101340785Y-101874642D01*
X101283642Y-101903214D01*
X101055071Y-101903214D01*
G04 #@! TO.C,Y1*
D14*
X107989690Y-80105190D02*
X108465880Y-80105190D01*
X107465880Y-80438523D02*
X107989690Y-80105190D01*
X107465880Y-79771857D01*
X108465880Y-78914714D02*
X108465880Y-79486142D01*
X108465880Y-79200428D02*
X107465880Y-79200428D01*
X107608738Y-79295666D01*
X107703976Y-79390904D01*
X107751595Y-79486142D01*
G04 #@! TD*
M02*
