G04 #@! TF.GenerationSoftware,KiCad,Pcbnew,(5.0.1)-3*
G04 #@! TF.CreationDate,2019-03-11T17:07:32+01:00*
G04 #@! TF.ProjectId,Arduino_Uno_R3_From_Scratch,41726475696E6F5F556E6F5F52335F46,rev?*
G04 #@! TF.SameCoordinates,Original*
G04 #@! TF.FileFunction,Paste,Top*
G04 #@! TF.FilePolarity,Positive*
%FSLAX46Y46*%
G04 Gerber Fmt 4.6, Leading zero omitted, Abs format (unit mm)*
G04 Created by KiCad (PCBNEW (5.0.1)-3) date 11/03/2019 17:07:32*
%MOMM*%
%LPD*%
G01*
G04 APERTURE LIST*
%ADD10R,1.550000X1.300000*%
%ADD11R,3.500000X1.600000*%
%ADD12C,0.100000*%
%ADD13C,1.250000*%
%ADD14R,2.600000X1.600000*%
%ADD15O,4.198620X2.098040*%
%ADD16R,1.473200X0.355600*%
%ADD17R,0.355600X1.473200*%
%ADD18C,0.975000*%
%ADD19R,1.750000X0.450000*%
%ADD20R,2.235200X1.219200*%
%ADD21R,2.200000X3.600000*%
%ADD22R,1.600000X0.550000*%
%ADD23R,0.550000X1.600000*%
%ADD24R,1.100000X0.600000*%
%ADD25R,2.000000X4.500000*%
G04 APERTURE END LIST*
D10*
G04 #@! TO.C,SW1*
X126449000Y-79157000D03*
X126449000Y-83657000D03*
X134409000Y-83657000D03*
X134409000Y-79157000D03*
G04 #@! TD*
D11*
G04 #@! TO.C,C1*
X87216000Y-107823000D03*
X92616000Y-107823000D03*
G04 #@! TD*
G04 #@! TO.C,C2*
X93058000Y-92837000D03*
X98458000Y-92837000D03*
G04 #@! TD*
D12*
G04 #@! TO.C,C3*
G36*
X97931504Y-105678204D02*
X97955773Y-105681804D01*
X97979571Y-105687765D01*
X98002671Y-105696030D01*
X98024849Y-105706520D01*
X98045893Y-105719133D01*
X98065598Y-105733747D01*
X98083777Y-105750223D01*
X98100253Y-105768402D01*
X98114867Y-105788107D01*
X98127480Y-105809151D01*
X98137970Y-105831329D01*
X98146235Y-105854429D01*
X98152196Y-105878227D01*
X98155796Y-105902496D01*
X98157000Y-105927000D01*
X98157000Y-106677000D01*
X98155796Y-106701504D01*
X98152196Y-106725773D01*
X98146235Y-106749571D01*
X98137970Y-106772671D01*
X98127480Y-106794849D01*
X98114867Y-106815893D01*
X98100253Y-106835598D01*
X98083777Y-106853777D01*
X98065598Y-106870253D01*
X98045893Y-106884867D01*
X98024849Y-106897480D01*
X98002671Y-106907970D01*
X97979571Y-106916235D01*
X97955773Y-106922196D01*
X97931504Y-106925796D01*
X97907000Y-106927000D01*
X96657000Y-106927000D01*
X96632496Y-106925796D01*
X96608227Y-106922196D01*
X96584429Y-106916235D01*
X96561329Y-106907970D01*
X96539151Y-106897480D01*
X96518107Y-106884867D01*
X96498402Y-106870253D01*
X96480223Y-106853777D01*
X96463747Y-106835598D01*
X96449133Y-106815893D01*
X96436520Y-106794849D01*
X96426030Y-106772671D01*
X96417765Y-106749571D01*
X96411804Y-106725773D01*
X96408204Y-106701504D01*
X96407000Y-106677000D01*
X96407000Y-105927000D01*
X96408204Y-105902496D01*
X96411804Y-105878227D01*
X96417765Y-105854429D01*
X96426030Y-105831329D01*
X96436520Y-105809151D01*
X96449133Y-105788107D01*
X96463747Y-105768402D01*
X96480223Y-105750223D01*
X96498402Y-105733747D01*
X96518107Y-105719133D01*
X96539151Y-105706520D01*
X96561329Y-105696030D01*
X96584429Y-105687765D01*
X96608227Y-105681804D01*
X96632496Y-105678204D01*
X96657000Y-105677000D01*
X97907000Y-105677000D01*
X97931504Y-105678204D01*
X97931504Y-105678204D01*
G37*
D13*
X97282000Y-106302000D03*
D12*
G36*
X97931504Y-102878204D02*
X97955773Y-102881804D01*
X97979571Y-102887765D01*
X98002671Y-102896030D01*
X98024849Y-102906520D01*
X98045893Y-102919133D01*
X98065598Y-102933747D01*
X98083777Y-102950223D01*
X98100253Y-102968402D01*
X98114867Y-102988107D01*
X98127480Y-103009151D01*
X98137970Y-103031329D01*
X98146235Y-103054429D01*
X98152196Y-103078227D01*
X98155796Y-103102496D01*
X98157000Y-103127000D01*
X98157000Y-103877000D01*
X98155796Y-103901504D01*
X98152196Y-103925773D01*
X98146235Y-103949571D01*
X98137970Y-103972671D01*
X98127480Y-103994849D01*
X98114867Y-104015893D01*
X98100253Y-104035598D01*
X98083777Y-104053777D01*
X98065598Y-104070253D01*
X98045893Y-104084867D01*
X98024849Y-104097480D01*
X98002671Y-104107970D01*
X97979571Y-104116235D01*
X97955773Y-104122196D01*
X97931504Y-104125796D01*
X97907000Y-104127000D01*
X96657000Y-104127000D01*
X96632496Y-104125796D01*
X96608227Y-104122196D01*
X96584429Y-104116235D01*
X96561329Y-104107970D01*
X96539151Y-104097480D01*
X96518107Y-104084867D01*
X96498402Y-104070253D01*
X96480223Y-104053777D01*
X96463747Y-104035598D01*
X96449133Y-104015893D01*
X96436520Y-103994849D01*
X96426030Y-103972671D01*
X96417765Y-103949571D01*
X96411804Y-103925773D01*
X96408204Y-103901504D01*
X96407000Y-103877000D01*
X96407000Y-103127000D01*
X96408204Y-103102496D01*
X96411804Y-103078227D01*
X96417765Y-103054429D01*
X96426030Y-103031329D01*
X96436520Y-103009151D01*
X96449133Y-102988107D01*
X96463747Y-102968402D01*
X96480223Y-102950223D01*
X96498402Y-102933747D01*
X96518107Y-102919133D01*
X96539151Y-102906520D01*
X96561329Y-102896030D01*
X96584429Y-102887765D01*
X96608227Y-102881804D01*
X96632496Y-102878204D01*
X96657000Y-102877000D01*
X97907000Y-102877000D01*
X97931504Y-102878204D01*
X97931504Y-102878204D01*
G37*
D13*
X97282000Y-103502000D03*
G04 #@! TD*
D12*
G04 #@! TO.C,C4*
G36*
X124982504Y-120150204D02*
X125006773Y-120153804D01*
X125030571Y-120159765D01*
X125053671Y-120168030D01*
X125075849Y-120178520D01*
X125096893Y-120191133D01*
X125116598Y-120205747D01*
X125134777Y-120222223D01*
X125151253Y-120240402D01*
X125165867Y-120260107D01*
X125178480Y-120281151D01*
X125188970Y-120303329D01*
X125197235Y-120326429D01*
X125203196Y-120350227D01*
X125206796Y-120374496D01*
X125208000Y-120399000D01*
X125208000Y-121149000D01*
X125206796Y-121173504D01*
X125203196Y-121197773D01*
X125197235Y-121221571D01*
X125188970Y-121244671D01*
X125178480Y-121266849D01*
X125165867Y-121287893D01*
X125151253Y-121307598D01*
X125134777Y-121325777D01*
X125116598Y-121342253D01*
X125096893Y-121356867D01*
X125075849Y-121369480D01*
X125053671Y-121379970D01*
X125030571Y-121388235D01*
X125006773Y-121394196D01*
X124982504Y-121397796D01*
X124958000Y-121399000D01*
X123708000Y-121399000D01*
X123683496Y-121397796D01*
X123659227Y-121394196D01*
X123635429Y-121388235D01*
X123612329Y-121379970D01*
X123590151Y-121369480D01*
X123569107Y-121356867D01*
X123549402Y-121342253D01*
X123531223Y-121325777D01*
X123514747Y-121307598D01*
X123500133Y-121287893D01*
X123487520Y-121266849D01*
X123477030Y-121244671D01*
X123468765Y-121221571D01*
X123462804Y-121197773D01*
X123459204Y-121173504D01*
X123458000Y-121149000D01*
X123458000Y-120399000D01*
X123459204Y-120374496D01*
X123462804Y-120350227D01*
X123468765Y-120326429D01*
X123477030Y-120303329D01*
X123487520Y-120281151D01*
X123500133Y-120260107D01*
X123514747Y-120240402D01*
X123531223Y-120222223D01*
X123549402Y-120205747D01*
X123569107Y-120191133D01*
X123590151Y-120178520D01*
X123612329Y-120168030D01*
X123635429Y-120159765D01*
X123659227Y-120153804D01*
X123683496Y-120150204D01*
X123708000Y-120149000D01*
X124958000Y-120149000D01*
X124982504Y-120150204D01*
X124982504Y-120150204D01*
G37*
D13*
X124333000Y-120774000D03*
D12*
G36*
X124982504Y-122950204D02*
X125006773Y-122953804D01*
X125030571Y-122959765D01*
X125053671Y-122968030D01*
X125075849Y-122978520D01*
X125096893Y-122991133D01*
X125116598Y-123005747D01*
X125134777Y-123022223D01*
X125151253Y-123040402D01*
X125165867Y-123060107D01*
X125178480Y-123081151D01*
X125188970Y-123103329D01*
X125197235Y-123126429D01*
X125203196Y-123150227D01*
X125206796Y-123174496D01*
X125208000Y-123199000D01*
X125208000Y-123949000D01*
X125206796Y-123973504D01*
X125203196Y-123997773D01*
X125197235Y-124021571D01*
X125188970Y-124044671D01*
X125178480Y-124066849D01*
X125165867Y-124087893D01*
X125151253Y-124107598D01*
X125134777Y-124125777D01*
X125116598Y-124142253D01*
X125096893Y-124156867D01*
X125075849Y-124169480D01*
X125053671Y-124179970D01*
X125030571Y-124188235D01*
X125006773Y-124194196D01*
X124982504Y-124197796D01*
X124958000Y-124199000D01*
X123708000Y-124199000D01*
X123683496Y-124197796D01*
X123659227Y-124194196D01*
X123635429Y-124188235D01*
X123612329Y-124179970D01*
X123590151Y-124169480D01*
X123569107Y-124156867D01*
X123549402Y-124142253D01*
X123531223Y-124125777D01*
X123514747Y-124107598D01*
X123500133Y-124087893D01*
X123487520Y-124066849D01*
X123477030Y-124044671D01*
X123468765Y-124021571D01*
X123462804Y-123997773D01*
X123459204Y-123973504D01*
X123458000Y-123949000D01*
X123458000Y-123199000D01*
X123459204Y-123174496D01*
X123462804Y-123150227D01*
X123468765Y-123126429D01*
X123477030Y-123103329D01*
X123487520Y-123081151D01*
X123500133Y-123060107D01*
X123514747Y-123040402D01*
X123531223Y-123022223D01*
X123549402Y-123005747D01*
X123569107Y-122991133D01*
X123590151Y-122978520D01*
X123612329Y-122968030D01*
X123635429Y-122959765D01*
X123659227Y-122953804D01*
X123683496Y-122950204D01*
X123708000Y-122949000D01*
X124958000Y-122949000D01*
X124982504Y-122950204D01*
X124982504Y-122950204D01*
G37*
D13*
X124333000Y-123574000D03*
G04 #@! TD*
D12*
G04 #@! TO.C,C5*
G36*
X89295504Y-115705204D02*
X89319773Y-115708804D01*
X89343571Y-115714765D01*
X89366671Y-115723030D01*
X89388849Y-115733520D01*
X89409893Y-115746133D01*
X89429598Y-115760747D01*
X89447777Y-115777223D01*
X89464253Y-115795402D01*
X89478867Y-115815107D01*
X89491480Y-115836151D01*
X89501970Y-115858329D01*
X89510235Y-115881429D01*
X89516196Y-115905227D01*
X89519796Y-115929496D01*
X89521000Y-115954000D01*
X89521000Y-116704000D01*
X89519796Y-116728504D01*
X89516196Y-116752773D01*
X89510235Y-116776571D01*
X89501970Y-116799671D01*
X89491480Y-116821849D01*
X89478867Y-116842893D01*
X89464253Y-116862598D01*
X89447777Y-116880777D01*
X89429598Y-116897253D01*
X89409893Y-116911867D01*
X89388849Y-116924480D01*
X89366671Y-116934970D01*
X89343571Y-116943235D01*
X89319773Y-116949196D01*
X89295504Y-116952796D01*
X89271000Y-116954000D01*
X88021000Y-116954000D01*
X87996496Y-116952796D01*
X87972227Y-116949196D01*
X87948429Y-116943235D01*
X87925329Y-116934970D01*
X87903151Y-116924480D01*
X87882107Y-116911867D01*
X87862402Y-116897253D01*
X87844223Y-116880777D01*
X87827747Y-116862598D01*
X87813133Y-116842893D01*
X87800520Y-116821849D01*
X87790030Y-116799671D01*
X87781765Y-116776571D01*
X87775804Y-116752773D01*
X87772204Y-116728504D01*
X87771000Y-116704000D01*
X87771000Y-115954000D01*
X87772204Y-115929496D01*
X87775804Y-115905227D01*
X87781765Y-115881429D01*
X87790030Y-115858329D01*
X87800520Y-115836151D01*
X87813133Y-115815107D01*
X87827747Y-115795402D01*
X87844223Y-115777223D01*
X87862402Y-115760747D01*
X87882107Y-115746133D01*
X87903151Y-115733520D01*
X87925329Y-115723030D01*
X87948429Y-115714765D01*
X87972227Y-115708804D01*
X87996496Y-115705204D01*
X88021000Y-115704000D01*
X89271000Y-115704000D01*
X89295504Y-115705204D01*
X89295504Y-115705204D01*
G37*
D13*
X88646000Y-116329000D03*
D12*
G36*
X89295504Y-118505204D02*
X89319773Y-118508804D01*
X89343571Y-118514765D01*
X89366671Y-118523030D01*
X89388849Y-118533520D01*
X89409893Y-118546133D01*
X89429598Y-118560747D01*
X89447777Y-118577223D01*
X89464253Y-118595402D01*
X89478867Y-118615107D01*
X89491480Y-118636151D01*
X89501970Y-118658329D01*
X89510235Y-118681429D01*
X89516196Y-118705227D01*
X89519796Y-118729496D01*
X89521000Y-118754000D01*
X89521000Y-119504000D01*
X89519796Y-119528504D01*
X89516196Y-119552773D01*
X89510235Y-119576571D01*
X89501970Y-119599671D01*
X89491480Y-119621849D01*
X89478867Y-119642893D01*
X89464253Y-119662598D01*
X89447777Y-119680777D01*
X89429598Y-119697253D01*
X89409893Y-119711867D01*
X89388849Y-119724480D01*
X89366671Y-119734970D01*
X89343571Y-119743235D01*
X89319773Y-119749196D01*
X89295504Y-119752796D01*
X89271000Y-119754000D01*
X88021000Y-119754000D01*
X87996496Y-119752796D01*
X87972227Y-119749196D01*
X87948429Y-119743235D01*
X87925329Y-119734970D01*
X87903151Y-119724480D01*
X87882107Y-119711867D01*
X87862402Y-119697253D01*
X87844223Y-119680777D01*
X87827747Y-119662598D01*
X87813133Y-119642893D01*
X87800520Y-119621849D01*
X87790030Y-119599671D01*
X87781765Y-119576571D01*
X87775804Y-119552773D01*
X87772204Y-119528504D01*
X87771000Y-119504000D01*
X87771000Y-118754000D01*
X87772204Y-118729496D01*
X87775804Y-118705227D01*
X87781765Y-118681429D01*
X87790030Y-118658329D01*
X87800520Y-118636151D01*
X87813133Y-118615107D01*
X87827747Y-118595402D01*
X87844223Y-118577223D01*
X87862402Y-118560747D01*
X87882107Y-118546133D01*
X87903151Y-118533520D01*
X87925329Y-118523030D01*
X87948429Y-118514765D01*
X87972227Y-118508804D01*
X87996496Y-118505204D01*
X88021000Y-118504000D01*
X89271000Y-118504000D01*
X89295504Y-118505204D01*
X89295504Y-118505204D01*
G37*
D13*
X88646000Y-119129000D03*
G04 #@! TD*
D12*
G04 #@! TO.C,C6*
G36*
X103519504Y-97671204D02*
X103543773Y-97674804D01*
X103567571Y-97680765D01*
X103590671Y-97689030D01*
X103612849Y-97699520D01*
X103633893Y-97712133D01*
X103653598Y-97726747D01*
X103671777Y-97743223D01*
X103688253Y-97761402D01*
X103702867Y-97781107D01*
X103715480Y-97802151D01*
X103725970Y-97824329D01*
X103734235Y-97847429D01*
X103740196Y-97871227D01*
X103743796Y-97895496D01*
X103745000Y-97920000D01*
X103745000Y-98670000D01*
X103743796Y-98694504D01*
X103740196Y-98718773D01*
X103734235Y-98742571D01*
X103725970Y-98765671D01*
X103715480Y-98787849D01*
X103702867Y-98808893D01*
X103688253Y-98828598D01*
X103671777Y-98846777D01*
X103653598Y-98863253D01*
X103633893Y-98877867D01*
X103612849Y-98890480D01*
X103590671Y-98900970D01*
X103567571Y-98909235D01*
X103543773Y-98915196D01*
X103519504Y-98918796D01*
X103495000Y-98920000D01*
X102245000Y-98920000D01*
X102220496Y-98918796D01*
X102196227Y-98915196D01*
X102172429Y-98909235D01*
X102149329Y-98900970D01*
X102127151Y-98890480D01*
X102106107Y-98877867D01*
X102086402Y-98863253D01*
X102068223Y-98846777D01*
X102051747Y-98828598D01*
X102037133Y-98808893D01*
X102024520Y-98787849D01*
X102014030Y-98765671D01*
X102005765Y-98742571D01*
X101999804Y-98718773D01*
X101996204Y-98694504D01*
X101995000Y-98670000D01*
X101995000Y-97920000D01*
X101996204Y-97895496D01*
X101999804Y-97871227D01*
X102005765Y-97847429D01*
X102014030Y-97824329D01*
X102024520Y-97802151D01*
X102037133Y-97781107D01*
X102051747Y-97761402D01*
X102068223Y-97743223D01*
X102086402Y-97726747D01*
X102106107Y-97712133D01*
X102127151Y-97699520D01*
X102149329Y-97689030D01*
X102172429Y-97680765D01*
X102196227Y-97674804D01*
X102220496Y-97671204D01*
X102245000Y-97670000D01*
X103495000Y-97670000D01*
X103519504Y-97671204D01*
X103519504Y-97671204D01*
G37*
D13*
X102870000Y-98295000D03*
D12*
G36*
X103519504Y-100471204D02*
X103543773Y-100474804D01*
X103567571Y-100480765D01*
X103590671Y-100489030D01*
X103612849Y-100499520D01*
X103633893Y-100512133D01*
X103653598Y-100526747D01*
X103671777Y-100543223D01*
X103688253Y-100561402D01*
X103702867Y-100581107D01*
X103715480Y-100602151D01*
X103725970Y-100624329D01*
X103734235Y-100647429D01*
X103740196Y-100671227D01*
X103743796Y-100695496D01*
X103745000Y-100720000D01*
X103745000Y-101470000D01*
X103743796Y-101494504D01*
X103740196Y-101518773D01*
X103734235Y-101542571D01*
X103725970Y-101565671D01*
X103715480Y-101587849D01*
X103702867Y-101608893D01*
X103688253Y-101628598D01*
X103671777Y-101646777D01*
X103653598Y-101663253D01*
X103633893Y-101677867D01*
X103612849Y-101690480D01*
X103590671Y-101700970D01*
X103567571Y-101709235D01*
X103543773Y-101715196D01*
X103519504Y-101718796D01*
X103495000Y-101720000D01*
X102245000Y-101720000D01*
X102220496Y-101718796D01*
X102196227Y-101715196D01*
X102172429Y-101709235D01*
X102149329Y-101700970D01*
X102127151Y-101690480D01*
X102106107Y-101677867D01*
X102086402Y-101663253D01*
X102068223Y-101646777D01*
X102051747Y-101628598D01*
X102037133Y-101608893D01*
X102024520Y-101587849D01*
X102014030Y-101565671D01*
X102005765Y-101542571D01*
X101999804Y-101518773D01*
X101996204Y-101494504D01*
X101995000Y-101470000D01*
X101995000Y-100720000D01*
X101996204Y-100695496D01*
X101999804Y-100671227D01*
X102005765Y-100647429D01*
X102014030Y-100624329D01*
X102024520Y-100602151D01*
X102037133Y-100581107D01*
X102051747Y-100561402D01*
X102068223Y-100543223D01*
X102086402Y-100526747D01*
X102106107Y-100512133D01*
X102127151Y-100499520D01*
X102149329Y-100489030D01*
X102172429Y-100480765D01*
X102196227Y-100474804D01*
X102220496Y-100471204D01*
X102245000Y-100470000D01*
X103495000Y-100470000D01*
X103519504Y-100471204D01*
X103519504Y-100471204D01*
G37*
D13*
X102870000Y-101095000D03*
G04 #@! TD*
D12*
G04 #@! TO.C,C7*
G36*
X82564504Y-113171204D02*
X82588773Y-113174804D01*
X82612571Y-113180765D01*
X82635671Y-113189030D01*
X82657849Y-113199520D01*
X82678893Y-113212133D01*
X82698598Y-113226747D01*
X82716777Y-113243223D01*
X82733253Y-113261402D01*
X82747867Y-113281107D01*
X82760480Y-113302151D01*
X82770970Y-113324329D01*
X82779235Y-113347429D01*
X82785196Y-113371227D01*
X82788796Y-113395496D01*
X82790000Y-113420000D01*
X82790000Y-114170000D01*
X82788796Y-114194504D01*
X82785196Y-114218773D01*
X82779235Y-114242571D01*
X82770970Y-114265671D01*
X82760480Y-114287849D01*
X82747867Y-114308893D01*
X82733253Y-114328598D01*
X82716777Y-114346777D01*
X82698598Y-114363253D01*
X82678893Y-114377867D01*
X82657849Y-114390480D01*
X82635671Y-114400970D01*
X82612571Y-114409235D01*
X82588773Y-114415196D01*
X82564504Y-114418796D01*
X82540000Y-114420000D01*
X81290000Y-114420000D01*
X81265496Y-114418796D01*
X81241227Y-114415196D01*
X81217429Y-114409235D01*
X81194329Y-114400970D01*
X81172151Y-114390480D01*
X81151107Y-114377867D01*
X81131402Y-114363253D01*
X81113223Y-114346777D01*
X81096747Y-114328598D01*
X81082133Y-114308893D01*
X81069520Y-114287849D01*
X81059030Y-114265671D01*
X81050765Y-114242571D01*
X81044804Y-114218773D01*
X81041204Y-114194504D01*
X81040000Y-114170000D01*
X81040000Y-113420000D01*
X81041204Y-113395496D01*
X81044804Y-113371227D01*
X81050765Y-113347429D01*
X81059030Y-113324329D01*
X81069520Y-113302151D01*
X81082133Y-113281107D01*
X81096747Y-113261402D01*
X81113223Y-113243223D01*
X81131402Y-113226747D01*
X81151107Y-113212133D01*
X81172151Y-113199520D01*
X81194329Y-113189030D01*
X81217429Y-113180765D01*
X81241227Y-113174804D01*
X81265496Y-113171204D01*
X81290000Y-113170000D01*
X82540000Y-113170000D01*
X82564504Y-113171204D01*
X82564504Y-113171204D01*
G37*
D13*
X81915000Y-113795000D03*
D12*
G36*
X82564504Y-110371204D02*
X82588773Y-110374804D01*
X82612571Y-110380765D01*
X82635671Y-110389030D01*
X82657849Y-110399520D01*
X82678893Y-110412133D01*
X82698598Y-110426747D01*
X82716777Y-110443223D01*
X82733253Y-110461402D01*
X82747867Y-110481107D01*
X82760480Y-110502151D01*
X82770970Y-110524329D01*
X82779235Y-110547429D01*
X82785196Y-110571227D01*
X82788796Y-110595496D01*
X82790000Y-110620000D01*
X82790000Y-111370000D01*
X82788796Y-111394504D01*
X82785196Y-111418773D01*
X82779235Y-111442571D01*
X82770970Y-111465671D01*
X82760480Y-111487849D01*
X82747867Y-111508893D01*
X82733253Y-111528598D01*
X82716777Y-111546777D01*
X82698598Y-111563253D01*
X82678893Y-111577867D01*
X82657849Y-111590480D01*
X82635671Y-111600970D01*
X82612571Y-111609235D01*
X82588773Y-111615196D01*
X82564504Y-111618796D01*
X82540000Y-111620000D01*
X81290000Y-111620000D01*
X81265496Y-111618796D01*
X81241227Y-111615196D01*
X81217429Y-111609235D01*
X81194329Y-111600970D01*
X81172151Y-111590480D01*
X81151107Y-111577867D01*
X81131402Y-111563253D01*
X81113223Y-111546777D01*
X81096747Y-111528598D01*
X81082133Y-111508893D01*
X81069520Y-111487849D01*
X81059030Y-111465671D01*
X81050765Y-111442571D01*
X81044804Y-111418773D01*
X81041204Y-111394504D01*
X81040000Y-111370000D01*
X81040000Y-110620000D01*
X81041204Y-110595496D01*
X81044804Y-110571227D01*
X81050765Y-110547429D01*
X81059030Y-110524329D01*
X81069520Y-110502151D01*
X81082133Y-110481107D01*
X81096747Y-110461402D01*
X81113223Y-110443223D01*
X81131402Y-110426747D01*
X81151107Y-110412133D01*
X81172151Y-110399520D01*
X81194329Y-110389030D01*
X81217429Y-110380765D01*
X81241227Y-110374804D01*
X81265496Y-110371204D01*
X81290000Y-110370000D01*
X82540000Y-110370000D01*
X82564504Y-110371204D01*
X82564504Y-110371204D01*
G37*
D13*
X81915000Y-110995000D03*
G04 #@! TD*
D12*
G04 #@! TO.C,C8*
G36*
X115464504Y-117998204D02*
X115488773Y-118001804D01*
X115512571Y-118007765D01*
X115535671Y-118016030D01*
X115557849Y-118026520D01*
X115578893Y-118039133D01*
X115598598Y-118053747D01*
X115616777Y-118070223D01*
X115633253Y-118088402D01*
X115647867Y-118108107D01*
X115660480Y-118129151D01*
X115670970Y-118151329D01*
X115679235Y-118174429D01*
X115685196Y-118198227D01*
X115688796Y-118222496D01*
X115690000Y-118247000D01*
X115690000Y-119497000D01*
X115688796Y-119521504D01*
X115685196Y-119545773D01*
X115679235Y-119569571D01*
X115670970Y-119592671D01*
X115660480Y-119614849D01*
X115647867Y-119635893D01*
X115633253Y-119655598D01*
X115616777Y-119673777D01*
X115598598Y-119690253D01*
X115578893Y-119704867D01*
X115557849Y-119717480D01*
X115535671Y-119727970D01*
X115512571Y-119736235D01*
X115488773Y-119742196D01*
X115464504Y-119745796D01*
X115440000Y-119747000D01*
X114690000Y-119747000D01*
X114665496Y-119745796D01*
X114641227Y-119742196D01*
X114617429Y-119736235D01*
X114594329Y-119727970D01*
X114572151Y-119717480D01*
X114551107Y-119704867D01*
X114531402Y-119690253D01*
X114513223Y-119673777D01*
X114496747Y-119655598D01*
X114482133Y-119635893D01*
X114469520Y-119614849D01*
X114459030Y-119592671D01*
X114450765Y-119569571D01*
X114444804Y-119545773D01*
X114441204Y-119521504D01*
X114440000Y-119497000D01*
X114440000Y-118247000D01*
X114441204Y-118222496D01*
X114444804Y-118198227D01*
X114450765Y-118174429D01*
X114459030Y-118151329D01*
X114469520Y-118129151D01*
X114482133Y-118108107D01*
X114496747Y-118088402D01*
X114513223Y-118070223D01*
X114531402Y-118053747D01*
X114551107Y-118039133D01*
X114572151Y-118026520D01*
X114594329Y-118016030D01*
X114617429Y-118007765D01*
X114641227Y-118001804D01*
X114665496Y-117998204D01*
X114690000Y-117997000D01*
X115440000Y-117997000D01*
X115464504Y-117998204D01*
X115464504Y-117998204D01*
G37*
D13*
X115065000Y-118872000D03*
D12*
G36*
X112664504Y-117998204D02*
X112688773Y-118001804D01*
X112712571Y-118007765D01*
X112735671Y-118016030D01*
X112757849Y-118026520D01*
X112778893Y-118039133D01*
X112798598Y-118053747D01*
X112816777Y-118070223D01*
X112833253Y-118088402D01*
X112847867Y-118108107D01*
X112860480Y-118129151D01*
X112870970Y-118151329D01*
X112879235Y-118174429D01*
X112885196Y-118198227D01*
X112888796Y-118222496D01*
X112890000Y-118247000D01*
X112890000Y-119497000D01*
X112888796Y-119521504D01*
X112885196Y-119545773D01*
X112879235Y-119569571D01*
X112870970Y-119592671D01*
X112860480Y-119614849D01*
X112847867Y-119635893D01*
X112833253Y-119655598D01*
X112816777Y-119673777D01*
X112798598Y-119690253D01*
X112778893Y-119704867D01*
X112757849Y-119717480D01*
X112735671Y-119727970D01*
X112712571Y-119736235D01*
X112688773Y-119742196D01*
X112664504Y-119745796D01*
X112640000Y-119747000D01*
X111890000Y-119747000D01*
X111865496Y-119745796D01*
X111841227Y-119742196D01*
X111817429Y-119736235D01*
X111794329Y-119727970D01*
X111772151Y-119717480D01*
X111751107Y-119704867D01*
X111731402Y-119690253D01*
X111713223Y-119673777D01*
X111696747Y-119655598D01*
X111682133Y-119635893D01*
X111669520Y-119614849D01*
X111659030Y-119592671D01*
X111650765Y-119569571D01*
X111644804Y-119545773D01*
X111641204Y-119521504D01*
X111640000Y-119497000D01*
X111640000Y-118247000D01*
X111641204Y-118222496D01*
X111644804Y-118198227D01*
X111650765Y-118174429D01*
X111659030Y-118151329D01*
X111669520Y-118129151D01*
X111682133Y-118108107D01*
X111696747Y-118088402D01*
X111713223Y-118070223D01*
X111731402Y-118053747D01*
X111751107Y-118039133D01*
X111772151Y-118026520D01*
X111794329Y-118016030D01*
X111817429Y-118007765D01*
X111841227Y-118001804D01*
X111865496Y-117998204D01*
X111890000Y-117997000D01*
X112640000Y-117997000D01*
X112664504Y-117998204D01*
X112664504Y-117998204D01*
G37*
D13*
X112265000Y-118872000D03*
G04 #@! TD*
D14*
G04 #@! TO.C,C9*
X117326000Y-134493000D03*
X120926000Y-134493000D03*
G04 #@! TD*
G04 #@! TO.C,C10*
X97431000Y-134747000D03*
X93831000Y-134747000D03*
G04 #@! TD*
D12*
G04 #@! TO.C,C11*
G36*
X101233504Y-102878204D02*
X101257773Y-102881804D01*
X101281571Y-102887765D01*
X101304671Y-102896030D01*
X101326849Y-102906520D01*
X101347893Y-102919133D01*
X101367598Y-102933747D01*
X101385777Y-102950223D01*
X101402253Y-102968402D01*
X101416867Y-102988107D01*
X101429480Y-103009151D01*
X101439970Y-103031329D01*
X101448235Y-103054429D01*
X101454196Y-103078227D01*
X101457796Y-103102496D01*
X101459000Y-103127000D01*
X101459000Y-103877000D01*
X101457796Y-103901504D01*
X101454196Y-103925773D01*
X101448235Y-103949571D01*
X101439970Y-103972671D01*
X101429480Y-103994849D01*
X101416867Y-104015893D01*
X101402253Y-104035598D01*
X101385777Y-104053777D01*
X101367598Y-104070253D01*
X101347893Y-104084867D01*
X101326849Y-104097480D01*
X101304671Y-104107970D01*
X101281571Y-104116235D01*
X101257773Y-104122196D01*
X101233504Y-104125796D01*
X101209000Y-104127000D01*
X99959000Y-104127000D01*
X99934496Y-104125796D01*
X99910227Y-104122196D01*
X99886429Y-104116235D01*
X99863329Y-104107970D01*
X99841151Y-104097480D01*
X99820107Y-104084867D01*
X99800402Y-104070253D01*
X99782223Y-104053777D01*
X99765747Y-104035598D01*
X99751133Y-104015893D01*
X99738520Y-103994849D01*
X99728030Y-103972671D01*
X99719765Y-103949571D01*
X99713804Y-103925773D01*
X99710204Y-103901504D01*
X99709000Y-103877000D01*
X99709000Y-103127000D01*
X99710204Y-103102496D01*
X99713804Y-103078227D01*
X99719765Y-103054429D01*
X99728030Y-103031329D01*
X99738520Y-103009151D01*
X99751133Y-102988107D01*
X99765747Y-102968402D01*
X99782223Y-102950223D01*
X99800402Y-102933747D01*
X99820107Y-102919133D01*
X99841151Y-102906520D01*
X99863329Y-102896030D01*
X99886429Y-102887765D01*
X99910227Y-102881804D01*
X99934496Y-102878204D01*
X99959000Y-102877000D01*
X101209000Y-102877000D01*
X101233504Y-102878204D01*
X101233504Y-102878204D01*
G37*
D13*
X100584000Y-103502000D03*
D12*
G36*
X101233504Y-105678204D02*
X101257773Y-105681804D01*
X101281571Y-105687765D01*
X101304671Y-105696030D01*
X101326849Y-105706520D01*
X101347893Y-105719133D01*
X101367598Y-105733747D01*
X101385777Y-105750223D01*
X101402253Y-105768402D01*
X101416867Y-105788107D01*
X101429480Y-105809151D01*
X101439970Y-105831329D01*
X101448235Y-105854429D01*
X101454196Y-105878227D01*
X101457796Y-105902496D01*
X101459000Y-105927000D01*
X101459000Y-106677000D01*
X101457796Y-106701504D01*
X101454196Y-106725773D01*
X101448235Y-106749571D01*
X101439970Y-106772671D01*
X101429480Y-106794849D01*
X101416867Y-106815893D01*
X101402253Y-106835598D01*
X101385777Y-106853777D01*
X101367598Y-106870253D01*
X101347893Y-106884867D01*
X101326849Y-106897480D01*
X101304671Y-106907970D01*
X101281571Y-106916235D01*
X101257773Y-106922196D01*
X101233504Y-106925796D01*
X101209000Y-106927000D01*
X99959000Y-106927000D01*
X99934496Y-106925796D01*
X99910227Y-106922196D01*
X99886429Y-106916235D01*
X99863329Y-106907970D01*
X99841151Y-106897480D01*
X99820107Y-106884867D01*
X99800402Y-106870253D01*
X99782223Y-106853777D01*
X99765747Y-106835598D01*
X99751133Y-106815893D01*
X99738520Y-106794849D01*
X99728030Y-106772671D01*
X99719765Y-106749571D01*
X99713804Y-106725773D01*
X99710204Y-106701504D01*
X99709000Y-106677000D01*
X99709000Y-105927000D01*
X99710204Y-105902496D01*
X99713804Y-105878227D01*
X99719765Y-105854429D01*
X99728030Y-105831329D01*
X99738520Y-105809151D01*
X99751133Y-105788107D01*
X99765747Y-105768402D01*
X99782223Y-105750223D01*
X99800402Y-105733747D01*
X99820107Y-105719133D01*
X99841151Y-105706520D01*
X99863329Y-105696030D01*
X99886429Y-105687765D01*
X99910227Y-105681804D01*
X99934496Y-105678204D01*
X99959000Y-105677000D01*
X101209000Y-105677000D01*
X101233504Y-105678204D01*
X101233504Y-105678204D01*
G37*
D13*
X100584000Y-106302000D03*
G04 #@! TD*
D12*
G04 #@! TO.C,C12*
G36*
X106574504Y-116982204D02*
X106598773Y-116985804D01*
X106622571Y-116991765D01*
X106645671Y-117000030D01*
X106667849Y-117010520D01*
X106688893Y-117023133D01*
X106708598Y-117037747D01*
X106726777Y-117054223D01*
X106743253Y-117072402D01*
X106757867Y-117092107D01*
X106770480Y-117113151D01*
X106780970Y-117135329D01*
X106789235Y-117158429D01*
X106795196Y-117182227D01*
X106798796Y-117206496D01*
X106800000Y-117231000D01*
X106800000Y-118481000D01*
X106798796Y-118505504D01*
X106795196Y-118529773D01*
X106789235Y-118553571D01*
X106780970Y-118576671D01*
X106770480Y-118598849D01*
X106757867Y-118619893D01*
X106743253Y-118639598D01*
X106726777Y-118657777D01*
X106708598Y-118674253D01*
X106688893Y-118688867D01*
X106667849Y-118701480D01*
X106645671Y-118711970D01*
X106622571Y-118720235D01*
X106598773Y-118726196D01*
X106574504Y-118729796D01*
X106550000Y-118731000D01*
X105800000Y-118731000D01*
X105775496Y-118729796D01*
X105751227Y-118726196D01*
X105727429Y-118720235D01*
X105704329Y-118711970D01*
X105682151Y-118701480D01*
X105661107Y-118688867D01*
X105641402Y-118674253D01*
X105623223Y-118657777D01*
X105606747Y-118639598D01*
X105592133Y-118619893D01*
X105579520Y-118598849D01*
X105569030Y-118576671D01*
X105560765Y-118553571D01*
X105554804Y-118529773D01*
X105551204Y-118505504D01*
X105550000Y-118481000D01*
X105550000Y-117231000D01*
X105551204Y-117206496D01*
X105554804Y-117182227D01*
X105560765Y-117158429D01*
X105569030Y-117135329D01*
X105579520Y-117113151D01*
X105592133Y-117092107D01*
X105606747Y-117072402D01*
X105623223Y-117054223D01*
X105641402Y-117037747D01*
X105661107Y-117023133D01*
X105682151Y-117010520D01*
X105704329Y-117000030D01*
X105727429Y-116991765D01*
X105751227Y-116985804D01*
X105775496Y-116982204D01*
X105800000Y-116981000D01*
X106550000Y-116981000D01*
X106574504Y-116982204D01*
X106574504Y-116982204D01*
G37*
D13*
X106175000Y-117856000D03*
D12*
G36*
X103774504Y-116982204D02*
X103798773Y-116985804D01*
X103822571Y-116991765D01*
X103845671Y-117000030D01*
X103867849Y-117010520D01*
X103888893Y-117023133D01*
X103908598Y-117037747D01*
X103926777Y-117054223D01*
X103943253Y-117072402D01*
X103957867Y-117092107D01*
X103970480Y-117113151D01*
X103980970Y-117135329D01*
X103989235Y-117158429D01*
X103995196Y-117182227D01*
X103998796Y-117206496D01*
X104000000Y-117231000D01*
X104000000Y-118481000D01*
X103998796Y-118505504D01*
X103995196Y-118529773D01*
X103989235Y-118553571D01*
X103980970Y-118576671D01*
X103970480Y-118598849D01*
X103957867Y-118619893D01*
X103943253Y-118639598D01*
X103926777Y-118657777D01*
X103908598Y-118674253D01*
X103888893Y-118688867D01*
X103867849Y-118701480D01*
X103845671Y-118711970D01*
X103822571Y-118720235D01*
X103798773Y-118726196D01*
X103774504Y-118729796D01*
X103750000Y-118731000D01*
X103000000Y-118731000D01*
X102975496Y-118729796D01*
X102951227Y-118726196D01*
X102927429Y-118720235D01*
X102904329Y-118711970D01*
X102882151Y-118701480D01*
X102861107Y-118688867D01*
X102841402Y-118674253D01*
X102823223Y-118657777D01*
X102806747Y-118639598D01*
X102792133Y-118619893D01*
X102779520Y-118598849D01*
X102769030Y-118576671D01*
X102760765Y-118553571D01*
X102754804Y-118529773D01*
X102751204Y-118505504D01*
X102750000Y-118481000D01*
X102750000Y-117231000D01*
X102751204Y-117206496D01*
X102754804Y-117182227D01*
X102760765Y-117158429D01*
X102769030Y-117135329D01*
X102779520Y-117113151D01*
X102792133Y-117092107D01*
X102806747Y-117072402D01*
X102823223Y-117054223D01*
X102841402Y-117037747D01*
X102861107Y-117023133D01*
X102882151Y-117010520D01*
X102904329Y-117000030D01*
X102927429Y-116991765D01*
X102951227Y-116985804D01*
X102975496Y-116982204D01*
X103000000Y-116981000D01*
X103750000Y-116981000D01*
X103774504Y-116982204D01*
X103774504Y-116982204D01*
G37*
D13*
X103375000Y-117856000D03*
G04 #@! TD*
D12*
G04 #@! TO.C,C13*
G36*
X116092504Y-109736204D02*
X116116773Y-109739804D01*
X116140571Y-109745765D01*
X116163671Y-109754030D01*
X116185849Y-109764520D01*
X116206893Y-109777133D01*
X116226598Y-109791747D01*
X116244777Y-109808223D01*
X116261253Y-109826402D01*
X116275867Y-109846107D01*
X116288480Y-109867151D01*
X116298970Y-109889329D01*
X116307235Y-109912429D01*
X116313196Y-109936227D01*
X116316796Y-109960496D01*
X116318000Y-109985000D01*
X116318000Y-110735000D01*
X116316796Y-110759504D01*
X116313196Y-110783773D01*
X116307235Y-110807571D01*
X116298970Y-110830671D01*
X116288480Y-110852849D01*
X116275867Y-110873893D01*
X116261253Y-110893598D01*
X116244777Y-110911777D01*
X116226598Y-110928253D01*
X116206893Y-110942867D01*
X116185849Y-110955480D01*
X116163671Y-110965970D01*
X116140571Y-110974235D01*
X116116773Y-110980196D01*
X116092504Y-110983796D01*
X116068000Y-110985000D01*
X114818000Y-110985000D01*
X114793496Y-110983796D01*
X114769227Y-110980196D01*
X114745429Y-110974235D01*
X114722329Y-110965970D01*
X114700151Y-110955480D01*
X114679107Y-110942867D01*
X114659402Y-110928253D01*
X114641223Y-110911777D01*
X114624747Y-110893598D01*
X114610133Y-110873893D01*
X114597520Y-110852849D01*
X114587030Y-110830671D01*
X114578765Y-110807571D01*
X114572804Y-110783773D01*
X114569204Y-110759504D01*
X114568000Y-110735000D01*
X114568000Y-109985000D01*
X114569204Y-109960496D01*
X114572804Y-109936227D01*
X114578765Y-109912429D01*
X114587030Y-109889329D01*
X114597520Y-109867151D01*
X114610133Y-109846107D01*
X114624747Y-109826402D01*
X114641223Y-109808223D01*
X114659402Y-109791747D01*
X114679107Y-109777133D01*
X114700151Y-109764520D01*
X114722329Y-109754030D01*
X114745429Y-109745765D01*
X114769227Y-109739804D01*
X114793496Y-109736204D01*
X114818000Y-109735000D01*
X116068000Y-109735000D01*
X116092504Y-109736204D01*
X116092504Y-109736204D01*
G37*
D13*
X115443000Y-110360000D03*
D12*
G36*
X116092504Y-112536204D02*
X116116773Y-112539804D01*
X116140571Y-112545765D01*
X116163671Y-112554030D01*
X116185849Y-112564520D01*
X116206893Y-112577133D01*
X116226598Y-112591747D01*
X116244777Y-112608223D01*
X116261253Y-112626402D01*
X116275867Y-112646107D01*
X116288480Y-112667151D01*
X116298970Y-112689329D01*
X116307235Y-112712429D01*
X116313196Y-112736227D01*
X116316796Y-112760496D01*
X116318000Y-112785000D01*
X116318000Y-113535000D01*
X116316796Y-113559504D01*
X116313196Y-113583773D01*
X116307235Y-113607571D01*
X116298970Y-113630671D01*
X116288480Y-113652849D01*
X116275867Y-113673893D01*
X116261253Y-113693598D01*
X116244777Y-113711777D01*
X116226598Y-113728253D01*
X116206893Y-113742867D01*
X116185849Y-113755480D01*
X116163671Y-113765970D01*
X116140571Y-113774235D01*
X116116773Y-113780196D01*
X116092504Y-113783796D01*
X116068000Y-113785000D01*
X114818000Y-113785000D01*
X114793496Y-113783796D01*
X114769227Y-113780196D01*
X114745429Y-113774235D01*
X114722329Y-113765970D01*
X114700151Y-113755480D01*
X114679107Y-113742867D01*
X114659402Y-113728253D01*
X114641223Y-113711777D01*
X114624747Y-113693598D01*
X114610133Y-113673893D01*
X114597520Y-113652849D01*
X114587030Y-113630671D01*
X114578765Y-113607571D01*
X114572804Y-113583773D01*
X114569204Y-113559504D01*
X114568000Y-113535000D01*
X114568000Y-112785000D01*
X114569204Y-112760496D01*
X114572804Y-112736227D01*
X114578765Y-112712429D01*
X114587030Y-112689329D01*
X114597520Y-112667151D01*
X114610133Y-112646107D01*
X114624747Y-112626402D01*
X114641223Y-112608223D01*
X114659402Y-112591747D01*
X114679107Y-112577133D01*
X114700151Y-112564520D01*
X114722329Y-112554030D01*
X114745429Y-112545765D01*
X114769227Y-112539804D01*
X114793496Y-112536204D01*
X114818000Y-112535000D01*
X116068000Y-112535000D01*
X116092504Y-112536204D01*
X116092504Y-112536204D01*
G37*
D13*
X115443000Y-113160000D03*
G04 #@! TD*
D12*
G04 #@! TO.C,C14*
G36*
X129427504Y-89416204D02*
X129451773Y-89419804D01*
X129475571Y-89425765D01*
X129498671Y-89434030D01*
X129520849Y-89444520D01*
X129541893Y-89457133D01*
X129561598Y-89471747D01*
X129579777Y-89488223D01*
X129596253Y-89506402D01*
X129610867Y-89526107D01*
X129623480Y-89547151D01*
X129633970Y-89569329D01*
X129642235Y-89592429D01*
X129648196Y-89616227D01*
X129651796Y-89640496D01*
X129653000Y-89665000D01*
X129653000Y-90415000D01*
X129651796Y-90439504D01*
X129648196Y-90463773D01*
X129642235Y-90487571D01*
X129633970Y-90510671D01*
X129623480Y-90532849D01*
X129610867Y-90553893D01*
X129596253Y-90573598D01*
X129579777Y-90591777D01*
X129561598Y-90608253D01*
X129541893Y-90622867D01*
X129520849Y-90635480D01*
X129498671Y-90645970D01*
X129475571Y-90654235D01*
X129451773Y-90660196D01*
X129427504Y-90663796D01*
X129403000Y-90665000D01*
X128153000Y-90665000D01*
X128128496Y-90663796D01*
X128104227Y-90660196D01*
X128080429Y-90654235D01*
X128057329Y-90645970D01*
X128035151Y-90635480D01*
X128014107Y-90622867D01*
X127994402Y-90608253D01*
X127976223Y-90591777D01*
X127959747Y-90573598D01*
X127945133Y-90553893D01*
X127932520Y-90532849D01*
X127922030Y-90510671D01*
X127913765Y-90487571D01*
X127907804Y-90463773D01*
X127904204Y-90439504D01*
X127903000Y-90415000D01*
X127903000Y-89665000D01*
X127904204Y-89640496D01*
X127907804Y-89616227D01*
X127913765Y-89592429D01*
X127922030Y-89569329D01*
X127932520Y-89547151D01*
X127945133Y-89526107D01*
X127959747Y-89506402D01*
X127976223Y-89488223D01*
X127994402Y-89471747D01*
X128014107Y-89457133D01*
X128035151Y-89444520D01*
X128057329Y-89434030D01*
X128080429Y-89425765D01*
X128104227Y-89419804D01*
X128128496Y-89416204D01*
X128153000Y-89415000D01*
X129403000Y-89415000D01*
X129427504Y-89416204D01*
X129427504Y-89416204D01*
G37*
D13*
X128778000Y-90040000D03*
D12*
G36*
X129427504Y-92216204D02*
X129451773Y-92219804D01*
X129475571Y-92225765D01*
X129498671Y-92234030D01*
X129520849Y-92244520D01*
X129541893Y-92257133D01*
X129561598Y-92271747D01*
X129579777Y-92288223D01*
X129596253Y-92306402D01*
X129610867Y-92326107D01*
X129623480Y-92347151D01*
X129633970Y-92369329D01*
X129642235Y-92392429D01*
X129648196Y-92416227D01*
X129651796Y-92440496D01*
X129653000Y-92465000D01*
X129653000Y-93215000D01*
X129651796Y-93239504D01*
X129648196Y-93263773D01*
X129642235Y-93287571D01*
X129633970Y-93310671D01*
X129623480Y-93332849D01*
X129610867Y-93353893D01*
X129596253Y-93373598D01*
X129579777Y-93391777D01*
X129561598Y-93408253D01*
X129541893Y-93422867D01*
X129520849Y-93435480D01*
X129498671Y-93445970D01*
X129475571Y-93454235D01*
X129451773Y-93460196D01*
X129427504Y-93463796D01*
X129403000Y-93465000D01*
X128153000Y-93465000D01*
X128128496Y-93463796D01*
X128104227Y-93460196D01*
X128080429Y-93454235D01*
X128057329Y-93445970D01*
X128035151Y-93435480D01*
X128014107Y-93422867D01*
X127994402Y-93408253D01*
X127976223Y-93391777D01*
X127959747Y-93373598D01*
X127945133Y-93353893D01*
X127932520Y-93332849D01*
X127922030Y-93310671D01*
X127913765Y-93287571D01*
X127907804Y-93263773D01*
X127904204Y-93239504D01*
X127903000Y-93215000D01*
X127903000Y-92465000D01*
X127904204Y-92440496D01*
X127907804Y-92416227D01*
X127913765Y-92392429D01*
X127922030Y-92369329D01*
X127932520Y-92347151D01*
X127945133Y-92326107D01*
X127959747Y-92306402D01*
X127976223Y-92288223D01*
X127994402Y-92271747D01*
X128014107Y-92257133D01*
X128035151Y-92244520D01*
X128057329Y-92234030D01*
X128080429Y-92225765D01*
X128104227Y-92219804D01*
X128128496Y-92216204D01*
X128153000Y-92215000D01*
X129403000Y-92215000D01*
X129427504Y-92216204D01*
X129427504Y-92216204D01*
G37*
D13*
X128778000Y-92840000D03*
G04 #@! TD*
D12*
G04 #@! TO.C,C15*
G36*
X92471504Y-115331204D02*
X92495773Y-115334804D01*
X92519571Y-115340765D01*
X92542671Y-115349030D01*
X92564849Y-115359520D01*
X92585893Y-115372133D01*
X92605598Y-115386747D01*
X92623777Y-115403223D01*
X92640253Y-115421402D01*
X92654867Y-115441107D01*
X92667480Y-115462151D01*
X92677970Y-115484329D01*
X92686235Y-115507429D01*
X92692196Y-115531227D01*
X92695796Y-115555496D01*
X92697000Y-115580000D01*
X92697000Y-116830000D01*
X92695796Y-116854504D01*
X92692196Y-116878773D01*
X92686235Y-116902571D01*
X92677970Y-116925671D01*
X92667480Y-116947849D01*
X92654867Y-116968893D01*
X92640253Y-116988598D01*
X92623777Y-117006777D01*
X92605598Y-117023253D01*
X92585893Y-117037867D01*
X92564849Y-117050480D01*
X92542671Y-117060970D01*
X92519571Y-117069235D01*
X92495773Y-117075196D01*
X92471504Y-117078796D01*
X92447000Y-117080000D01*
X91697000Y-117080000D01*
X91672496Y-117078796D01*
X91648227Y-117075196D01*
X91624429Y-117069235D01*
X91601329Y-117060970D01*
X91579151Y-117050480D01*
X91558107Y-117037867D01*
X91538402Y-117023253D01*
X91520223Y-117006777D01*
X91503747Y-116988598D01*
X91489133Y-116968893D01*
X91476520Y-116947849D01*
X91466030Y-116925671D01*
X91457765Y-116902571D01*
X91451804Y-116878773D01*
X91448204Y-116854504D01*
X91447000Y-116830000D01*
X91447000Y-115580000D01*
X91448204Y-115555496D01*
X91451804Y-115531227D01*
X91457765Y-115507429D01*
X91466030Y-115484329D01*
X91476520Y-115462151D01*
X91489133Y-115441107D01*
X91503747Y-115421402D01*
X91520223Y-115403223D01*
X91538402Y-115386747D01*
X91558107Y-115372133D01*
X91579151Y-115359520D01*
X91601329Y-115349030D01*
X91624429Y-115340765D01*
X91648227Y-115334804D01*
X91672496Y-115331204D01*
X91697000Y-115330000D01*
X92447000Y-115330000D01*
X92471504Y-115331204D01*
X92471504Y-115331204D01*
G37*
D13*
X92072000Y-116205000D03*
D12*
G36*
X95271504Y-115331204D02*
X95295773Y-115334804D01*
X95319571Y-115340765D01*
X95342671Y-115349030D01*
X95364849Y-115359520D01*
X95385893Y-115372133D01*
X95405598Y-115386747D01*
X95423777Y-115403223D01*
X95440253Y-115421402D01*
X95454867Y-115441107D01*
X95467480Y-115462151D01*
X95477970Y-115484329D01*
X95486235Y-115507429D01*
X95492196Y-115531227D01*
X95495796Y-115555496D01*
X95497000Y-115580000D01*
X95497000Y-116830000D01*
X95495796Y-116854504D01*
X95492196Y-116878773D01*
X95486235Y-116902571D01*
X95477970Y-116925671D01*
X95467480Y-116947849D01*
X95454867Y-116968893D01*
X95440253Y-116988598D01*
X95423777Y-117006777D01*
X95405598Y-117023253D01*
X95385893Y-117037867D01*
X95364849Y-117050480D01*
X95342671Y-117060970D01*
X95319571Y-117069235D01*
X95295773Y-117075196D01*
X95271504Y-117078796D01*
X95247000Y-117080000D01*
X94497000Y-117080000D01*
X94472496Y-117078796D01*
X94448227Y-117075196D01*
X94424429Y-117069235D01*
X94401329Y-117060970D01*
X94379151Y-117050480D01*
X94358107Y-117037867D01*
X94338402Y-117023253D01*
X94320223Y-117006777D01*
X94303747Y-116988598D01*
X94289133Y-116968893D01*
X94276520Y-116947849D01*
X94266030Y-116925671D01*
X94257765Y-116902571D01*
X94251804Y-116878773D01*
X94248204Y-116854504D01*
X94247000Y-116830000D01*
X94247000Y-115580000D01*
X94248204Y-115555496D01*
X94251804Y-115531227D01*
X94257765Y-115507429D01*
X94266030Y-115484329D01*
X94276520Y-115462151D01*
X94289133Y-115441107D01*
X94303747Y-115421402D01*
X94320223Y-115403223D01*
X94338402Y-115386747D01*
X94358107Y-115372133D01*
X94379151Y-115359520D01*
X94401329Y-115349030D01*
X94424429Y-115340765D01*
X94448227Y-115334804D01*
X94472496Y-115331204D01*
X94497000Y-115330000D01*
X95247000Y-115330000D01*
X95271504Y-115331204D01*
X95271504Y-115331204D01*
G37*
D13*
X94872000Y-116205000D03*
G04 #@! TD*
D12*
G04 #@! TO.C,C16*
G36*
X103774504Y-120411204D02*
X103798773Y-120414804D01*
X103822571Y-120420765D01*
X103845671Y-120429030D01*
X103867849Y-120439520D01*
X103888893Y-120452133D01*
X103908598Y-120466747D01*
X103926777Y-120483223D01*
X103943253Y-120501402D01*
X103957867Y-120521107D01*
X103970480Y-120542151D01*
X103980970Y-120564329D01*
X103989235Y-120587429D01*
X103995196Y-120611227D01*
X103998796Y-120635496D01*
X104000000Y-120660000D01*
X104000000Y-121910000D01*
X103998796Y-121934504D01*
X103995196Y-121958773D01*
X103989235Y-121982571D01*
X103980970Y-122005671D01*
X103970480Y-122027849D01*
X103957867Y-122048893D01*
X103943253Y-122068598D01*
X103926777Y-122086777D01*
X103908598Y-122103253D01*
X103888893Y-122117867D01*
X103867849Y-122130480D01*
X103845671Y-122140970D01*
X103822571Y-122149235D01*
X103798773Y-122155196D01*
X103774504Y-122158796D01*
X103750000Y-122160000D01*
X103000000Y-122160000D01*
X102975496Y-122158796D01*
X102951227Y-122155196D01*
X102927429Y-122149235D01*
X102904329Y-122140970D01*
X102882151Y-122130480D01*
X102861107Y-122117867D01*
X102841402Y-122103253D01*
X102823223Y-122086777D01*
X102806747Y-122068598D01*
X102792133Y-122048893D01*
X102779520Y-122027849D01*
X102769030Y-122005671D01*
X102760765Y-121982571D01*
X102754804Y-121958773D01*
X102751204Y-121934504D01*
X102750000Y-121910000D01*
X102750000Y-120660000D01*
X102751204Y-120635496D01*
X102754804Y-120611227D01*
X102760765Y-120587429D01*
X102769030Y-120564329D01*
X102779520Y-120542151D01*
X102792133Y-120521107D01*
X102806747Y-120501402D01*
X102823223Y-120483223D01*
X102841402Y-120466747D01*
X102861107Y-120452133D01*
X102882151Y-120439520D01*
X102904329Y-120429030D01*
X102927429Y-120420765D01*
X102951227Y-120414804D01*
X102975496Y-120411204D01*
X103000000Y-120410000D01*
X103750000Y-120410000D01*
X103774504Y-120411204D01*
X103774504Y-120411204D01*
G37*
D13*
X103375000Y-121285000D03*
D12*
G36*
X106574504Y-120411204D02*
X106598773Y-120414804D01*
X106622571Y-120420765D01*
X106645671Y-120429030D01*
X106667849Y-120439520D01*
X106688893Y-120452133D01*
X106708598Y-120466747D01*
X106726777Y-120483223D01*
X106743253Y-120501402D01*
X106757867Y-120521107D01*
X106770480Y-120542151D01*
X106780970Y-120564329D01*
X106789235Y-120587429D01*
X106795196Y-120611227D01*
X106798796Y-120635496D01*
X106800000Y-120660000D01*
X106800000Y-121910000D01*
X106798796Y-121934504D01*
X106795196Y-121958773D01*
X106789235Y-121982571D01*
X106780970Y-122005671D01*
X106770480Y-122027849D01*
X106757867Y-122048893D01*
X106743253Y-122068598D01*
X106726777Y-122086777D01*
X106708598Y-122103253D01*
X106688893Y-122117867D01*
X106667849Y-122130480D01*
X106645671Y-122140970D01*
X106622571Y-122149235D01*
X106598773Y-122155196D01*
X106574504Y-122158796D01*
X106550000Y-122160000D01*
X105800000Y-122160000D01*
X105775496Y-122158796D01*
X105751227Y-122155196D01*
X105727429Y-122149235D01*
X105704329Y-122140970D01*
X105682151Y-122130480D01*
X105661107Y-122117867D01*
X105641402Y-122103253D01*
X105623223Y-122086777D01*
X105606747Y-122068598D01*
X105592133Y-122048893D01*
X105579520Y-122027849D01*
X105569030Y-122005671D01*
X105560765Y-121982571D01*
X105554804Y-121958773D01*
X105551204Y-121934504D01*
X105550000Y-121910000D01*
X105550000Y-120660000D01*
X105551204Y-120635496D01*
X105554804Y-120611227D01*
X105560765Y-120587429D01*
X105569030Y-120564329D01*
X105579520Y-120542151D01*
X105592133Y-120521107D01*
X105606747Y-120501402D01*
X105623223Y-120483223D01*
X105641402Y-120466747D01*
X105661107Y-120452133D01*
X105682151Y-120439520D01*
X105704329Y-120429030D01*
X105727429Y-120420765D01*
X105751227Y-120414804D01*
X105775496Y-120411204D01*
X105800000Y-120410000D01*
X106550000Y-120410000D01*
X106574504Y-120411204D01*
X106574504Y-120411204D01*
G37*
D13*
X106175000Y-121285000D03*
G04 #@! TD*
D12*
G04 #@! TO.C,C17*
G36*
X99208504Y-139842204D02*
X99232773Y-139845804D01*
X99256571Y-139851765D01*
X99279671Y-139860030D01*
X99301849Y-139870520D01*
X99322893Y-139883133D01*
X99342598Y-139897747D01*
X99360777Y-139914223D01*
X99377253Y-139932402D01*
X99391867Y-139952107D01*
X99404480Y-139973151D01*
X99414970Y-139995329D01*
X99423235Y-140018429D01*
X99429196Y-140042227D01*
X99432796Y-140066496D01*
X99434000Y-140091000D01*
X99434000Y-141341000D01*
X99432796Y-141365504D01*
X99429196Y-141389773D01*
X99423235Y-141413571D01*
X99414970Y-141436671D01*
X99404480Y-141458849D01*
X99391867Y-141479893D01*
X99377253Y-141499598D01*
X99360777Y-141517777D01*
X99342598Y-141534253D01*
X99322893Y-141548867D01*
X99301849Y-141561480D01*
X99279671Y-141571970D01*
X99256571Y-141580235D01*
X99232773Y-141586196D01*
X99208504Y-141589796D01*
X99184000Y-141591000D01*
X98434000Y-141591000D01*
X98409496Y-141589796D01*
X98385227Y-141586196D01*
X98361429Y-141580235D01*
X98338329Y-141571970D01*
X98316151Y-141561480D01*
X98295107Y-141548867D01*
X98275402Y-141534253D01*
X98257223Y-141517777D01*
X98240747Y-141499598D01*
X98226133Y-141479893D01*
X98213520Y-141458849D01*
X98203030Y-141436671D01*
X98194765Y-141413571D01*
X98188804Y-141389773D01*
X98185204Y-141365504D01*
X98184000Y-141341000D01*
X98184000Y-140091000D01*
X98185204Y-140066496D01*
X98188804Y-140042227D01*
X98194765Y-140018429D01*
X98203030Y-139995329D01*
X98213520Y-139973151D01*
X98226133Y-139952107D01*
X98240747Y-139932402D01*
X98257223Y-139914223D01*
X98275402Y-139897747D01*
X98295107Y-139883133D01*
X98316151Y-139870520D01*
X98338329Y-139860030D01*
X98361429Y-139851765D01*
X98385227Y-139845804D01*
X98409496Y-139842204D01*
X98434000Y-139841000D01*
X99184000Y-139841000D01*
X99208504Y-139842204D01*
X99208504Y-139842204D01*
G37*
D13*
X98809000Y-140716000D03*
D12*
G36*
X96408504Y-139842204D02*
X96432773Y-139845804D01*
X96456571Y-139851765D01*
X96479671Y-139860030D01*
X96501849Y-139870520D01*
X96522893Y-139883133D01*
X96542598Y-139897747D01*
X96560777Y-139914223D01*
X96577253Y-139932402D01*
X96591867Y-139952107D01*
X96604480Y-139973151D01*
X96614970Y-139995329D01*
X96623235Y-140018429D01*
X96629196Y-140042227D01*
X96632796Y-140066496D01*
X96634000Y-140091000D01*
X96634000Y-141341000D01*
X96632796Y-141365504D01*
X96629196Y-141389773D01*
X96623235Y-141413571D01*
X96614970Y-141436671D01*
X96604480Y-141458849D01*
X96591867Y-141479893D01*
X96577253Y-141499598D01*
X96560777Y-141517777D01*
X96542598Y-141534253D01*
X96522893Y-141548867D01*
X96501849Y-141561480D01*
X96479671Y-141571970D01*
X96456571Y-141580235D01*
X96432773Y-141586196D01*
X96408504Y-141589796D01*
X96384000Y-141591000D01*
X95634000Y-141591000D01*
X95609496Y-141589796D01*
X95585227Y-141586196D01*
X95561429Y-141580235D01*
X95538329Y-141571970D01*
X95516151Y-141561480D01*
X95495107Y-141548867D01*
X95475402Y-141534253D01*
X95457223Y-141517777D01*
X95440747Y-141499598D01*
X95426133Y-141479893D01*
X95413520Y-141458849D01*
X95403030Y-141436671D01*
X95394765Y-141413571D01*
X95388804Y-141389773D01*
X95385204Y-141365504D01*
X95384000Y-141341000D01*
X95384000Y-140091000D01*
X95385204Y-140066496D01*
X95388804Y-140042227D01*
X95394765Y-140018429D01*
X95403030Y-139995329D01*
X95413520Y-139973151D01*
X95426133Y-139952107D01*
X95440747Y-139932402D01*
X95457223Y-139914223D01*
X95475402Y-139897747D01*
X95495107Y-139883133D01*
X95516151Y-139870520D01*
X95538329Y-139860030D01*
X95561429Y-139851765D01*
X95585227Y-139845804D01*
X95609496Y-139842204D01*
X95634000Y-139841000D01*
X96384000Y-139841000D01*
X96408504Y-139842204D01*
X96408504Y-139842204D01*
G37*
D13*
X96009000Y-140716000D03*
G04 #@! TD*
D12*
G04 #@! TO.C,C18*
G36*
X92471504Y-118633204D02*
X92495773Y-118636804D01*
X92519571Y-118642765D01*
X92542671Y-118651030D01*
X92564849Y-118661520D01*
X92585893Y-118674133D01*
X92605598Y-118688747D01*
X92623777Y-118705223D01*
X92640253Y-118723402D01*
X92654867Y-118743107D01*
X92667480Y-118764151D01*
X92677970Y-118786329D01*
X92686235Y-118809429D01*
X92692196Y-118833227D01*
X92695796Y-118857496D01*
X92697000Y-118882000D01*
X92697000Y-120132000D01*
X92695796Y-120156504D01*
X92692196Y-120180773D01*
X92686235Y-120204571D01*
X92677970Y-120227671D01*
X92667480Y-120249849D01*
X92654867Y-120270893D01*
X92640253Y-120290598D01*
X92623777Y-120308777D01*
X92605598Y-120325253D01*
X92585893Y-120339867D01*
X92564849Y-120352480D01*
X92542671Y-120362970D01*
X92519571Y-120371235D01*
X92495773Y-120377196D01*
X92471504Y-120380796D01*
X92447000Y-120382000D01*
X91697000Y-120382000D01*
X91672496Y-120380796D01*
X91648227Y-120377196D01*
X91624429Y-120371235D01*
X91601329Y-120362970D01*
X91579151Y-120352480D01*
X91558107Y-120339867D01*
X91538402Y-120325253D01*
X91520223Y-120308777D01*
X91503747Y-120290598D01*
X91489133Y-120270893D01*
X91476520Y-120249849D01*
X91466030Y-120227671D01*
X91457765Y-120204571D01*
X91451804Y-120180773D01*
X91448204Y-120156504D01*
X91447000Y-120132000D01*
X91447000Y-118882000D01*
X91448204Y-118857496D01*
X91451804Y-118833227D01*
X91457765Y-118809429D01*
X91466030Y-118786329D01*
X91476520Y-118764151D01*
X91489133Y-118743107D01*
X91503747Y-118723402D01*
X91520223Y-118705223D01*
X91538402Y-118688747D01*
X91558107Y-118674133D01*
X91579151Y-118661520D01*
X91601329Y-118651030D01*
X91624429Y-118642765D01*
X91648227Y-118636804D01*
X91672496Y-118633204D01*
X91697000Y-118632000D01*
X92447000Y-118632000D01*
X92471504Y-118633204D01*
X92471504Y-118633204D01*
G37*
D13*
X92072000Y-119507000D03*
D12*
G36*
X95271504Y-118633204D02*
X95295773Y-118636804D01*
X95319571Y-118642765D01*
X95342671Y-118651030D01*
X95364849Y-118661520D01*
X95385893Y-118674133D01*
X95405598Y-118688747D01*
X95423777Y-118705223D01*
X95440253Y-118723402D01*
X95454867Y-118743107D01*
X95467480Y-118764151D01*
X95477970Y-118786329D01*
X95486235Y-118809429D01*
X95492196Y-118833227D01*
X95495796Y-118857496D01*
X95497000Y-118882000D01*
X95497000Y-120132000D01*
X95495796Y-120156504D01*
X95492196Y-120180773D01*
X95486235Y-120204571D01*
X95477970Y-120227671D01*
X95467480Y-120249849D01*
X95454867Y-120270893D01*
X95440253Y-120290598D01*
X95423777Y-120308777D01*
X95405598Y-120325253D01*
X95385893Y-120339867D01*
X95364849Y-120352480D01*
X95342671Y-120362970D01*
X95319571Y-120371235D01*
X95295773Y-120377196D01*
X95271504Y-120380796D01*
X95247000Y-120382000D01*
X94497000Y-120382000D01*
X94472496Y-120380796D01*
X94448227Y-120377196D01*
X94424429Y-120371235D01*
X94401329Y-120362970D01*
X94379151Y-120352480D01*
X94358107Y-120339867D01*
X94338402Y-120325253D01*
X94320223Y-120308777D01*
X94303747Y-120290598D01*
X94289133Y-120270893D01*
X94276520Y-120249849D01*
X94266030Y-120227671D01*
X94257765Y-120204571D01*
X94251804Y-120180773D01*
X94248204Y-120156504D01*
X94247000Y-120132000D01*
X94247000Y-118882000D01*
X94248204Y-118857496D01*
X94251804Y-118833227D01*
X94257765Y-118809429D01*
X94266030Y-118786329D01*
X94276520Y-118764151D01*
X94289133Y-118743107D01*
X94303747Y-118723402D01*
X94320223Y-118705223D01*
X94338402Y-118688747D01*
X94358107Y-118674133D01*
X94379151Y-118661520D01*
X94401329Y-118651030D01*
X94424429Y-118642765D01*
X94448227Y-118636804D01*
X94472496Y-118633204D01*
X94497000Y-118632000D01*
X95247000Y-118632000D01*
X95271504Y-118633204D01*
X95271504Y-118633204D01*
G37*
D13*
X94872000Y-119507000D03*
G04 #@! TD*
D15*
G04 #@! TO.C,GND*
X79756000Y-96941640D03*
X79756000Y-101940360D03*
G04 #@! TD*
D16*
G04 #@! TO.C,IO_EXPANDER_IC1*
X107569000Y-123698000D03*
X107569000Y-124358400D03*
X107569000Y-125018800D03*
X107569000Y-125653800D03*
X107569000Y-126314200D03*
X107569000Y-126949200D03*
X107569000Y-127609600D03*
X107569000Y-128270000D03*
X101727000Y-128270000D03*
X101727000Y-127609600D03*
X101727000Y-126949200D03*
X101727000Y-126314200D03*
X101727000Y-125653800D03*
X101727000Y-125018800D03*
X101727000Y-124358400D03*
X101727000Y-123698000D03*
G04 #@! TD*
D17*
G04 #@! TO.C,IO_EXPANDER_IC2*
X100584000Y-134874000D03*
X101244400Y-134874000D03*
X101904800Y-134874000D03*
X102539800Y-134874000D03*
X103200200Y-134874000D03*
X103835200Y-134874000D03*
X104495600Y-134874000D03*
X105156000Y-134874000D03*
X105156000Y-140716000D03*
X104495600Y-140716000D03*
X103835200Y-140716000D03*
X103200200Y-140716000D03*
X102539800Y-140716000D03*
X101904800Y-140716000D03*
X101244400Y-140716000D03*
X100584000Y-140716000D03*
G04 #@! TD*
D12*
G04 #@! TO.C,LED1*
G36*
X101445446Y-110183048D02*
X101469107Y-110186558D01*
X101492311Y-110192370D01*
X101514833Y-110200428D01*
X101536457Y-110210656D01*
X101556974Y-110222953D01*
X101576187Y-110237203D01*
X101593911Y-110253267D01*
X101609975Y-110270991D01*
X101624225Y-110290204D01*
X101636522Y-110310721D01*
X101646750Y-110332345D01*
X101654808Y-110354867D01*
X101660620Y-110378071D01*
X101664130Y-110401732D01*
X101665304Y-110425624D01*
X101665304Y-111338124D01*
X101664130Y-111362016D01*
X101660620Y-111385677D01*
X101654808Y-111408881D01*
X101646750Y-111431403D01*
X101636522Y-111453027D01*
X101624225Y-111473544D01*
X101609975Y-111492757D01*
X101593911Y-111510481D01*
X101576187Y-111526545D01*
X101556974Y-111540795D01*
X101536457Y-111553092D01*
X101514833Y-111563320D01*
X101492311Y-111571378D01*
X101469107Y-111577190D01*
X101445446Y-111580700D01*
X101421554Y-111581874D01*
X100934054Y-111581874D01*
X100910162Y-111580700D01*
X100886501Y-111577190D01*
X100863297Y-111571378D01*
X100840775Y-111563320D01*
X100819151Y-111553092D01*
X100798634Y-111540795D01*
X100779421Y-111526545D01*
X100761697Y-111510481D01*
X100745633Y-111492757D01*
X100731383Y-111473544D01*
X100719086Y-111453027D01*
X100708858Y-111431403D01*
X100700800Y-111408881D01*
X100694988Y-111385677D01*
X100691478Y-111362016D01*
X100690304Y-111338124D01*
X100690304Y-110425624D01*
X100691478Y-110401732D01*
X100694988Y-110378071D01*
X100700800Y-110354867D01*
X100708858Y-110332345D01*
X100719086Y-110310721D01*
X100731383Y-110290204D01*
X100745633Y-110270991D01*
X100761697Y-110253267D01*
X100779421Y-110237203D01*
X100798634Y-110222953D01*
X100819151Y-110210656D01*
X100840775Y-110200428D01*
X100863297Y-110192370D01*
X100886501Y-110186558D01*
X100910162Y-110183048D01*
X100934054Y-110181874D01*
X101421554Y-110181874D01*
X101445446Y-110183048D01*
X101445446Y-110183048D01*
G37*
D18*
X101177804Y-110881874D03*
D12*
G36*
X103320446Y-110183048D02*
X103344107Y-110186558D01*
X103367311Y-110192370D01*
X103389833Y-110200428D01*
X103411457Y-110210656D01*
X103431974Y-110222953D01*
X103451187Y-110237203D01*
X103468911Y-110253267D01*
X103484975Y-110270991D01*
X103499225Y-110290204D01*
X103511522Y-110310721D01*
X103521750Y-110332345D01*
X103529808Y-110354867D01*
X103535620Y-110378071D01*
X103539130Y-110401732D01*
X103540304Y-110425624D01*
X103540304Y-111338124D01*
X103539130Y-111362016D01*
X103535620Y-111385677D01*
X103529808Y-111408881D01*
X103521750Y-111431403D01*
X103511522Y-111453027D01*
X103499225Y-111473544D01*
X103484975Y-111492757D01*
X103468911Y-111510481D01*
X103451187Y-111526545D01*
X103431974Y-111540795D01*
X103411457Y-111553092D01*
X103389833Y-111563320D01*
X103367311Y-111571378D01*
X103344107Y-111577190D01*
X103320446Y-111580700D01*
X103296554Y-111581874D01*
X102809054Y-111581874D01*
X102785162Y-111580700D01*
X102761501Y-111577190D01*
X102738297Y-111571378D01*
X102715775Y-111563320D01*
X102694151Y-111553092D01*
X102673634Y-111540795D01*
X102654421Y-111526545D01*
X102636697Y-111510481D01*
X102620633Y-111492757D01*
X102606383Y-111473544D01*
X102594086Y-111453027D01*
X102583858Y-111431403D01*
X102575800Y-111408881D01*
X102569988Y-111385677D01*
X102566478Y-111362016D01*
X102565304Y-111338124D01*
X102565304Y-110425624D01*
X102566478Y-110401732D01*
X102569988Y-110378071D01*
X102575800Y-110354867D01*
X102583858Y-110332345D01*
X102594086Y-110310721D01*
X102606383Y-110290204D01*
X102620633Y-110270991D01*
X102636697Y-110253267D01*
X102654421Y-110237203D01*
X102673634Y-110222953D01*
X102694151Y-110210656D01*
X102715775Y-110200428D01*
X102738297Y-110192370D01*
X102761501Y-110186558D01*
X102785162Y-110183048D01*
X102809054Y-110181874D01*
X103296554Y-110181874D01*
X103320446Y-110183048D01*
X103320446Y-110183048D01*
G37*
D18*
X103052804Y-110881874D03*
G04 #@! TD*
D12*
G04 #@! TO.C,D9(PWM)*
G36*
X124062016Y-101965370D02*
X124085677Y-101968880D01*
X124108881Y-101974692D01*
X124131403Y-101982750D01*
X124153027Y-101992978D01*
X124173544Y-102005275D01*
X124192757Y-102019525D01*
X124210481Y-102035589D01*
X124226545Y-102053313D01*
X124240795Y-102072526D01*
X124253092Y-102093043D01*
X124263320Y-102114667D01*
X124271378Y-102137189D01*
X124277190Y-102160393D01*
X124280700Y-102184054D01*
X124281874Y-102207946D01*
X124281874Y-102695446D01*
X124280700Y-102719338D01*
X124277190Y-102742999D01*
X124271378Y-102766203D01*
X124263320Y-102788725D01*
X124253092Y-102810349D01*
X124240795Y-102830866D01*
X124226545Y-102850079D01*
X124210481Y-102867803D01*
X124192757Y-102883867D01*
X124173544Y-102898117D01*
X124153027Y-102910414D01*
X124131403Y-102920642D01*
X124108881Y-102928700D01*
X124085677Y-102934512D01*
X124062016Y-102938022D01*
X124038124Y-102939196D01*
X123125624Y-102939196D01*
X123101732Y-102938022D01*
X123078071Y-102934512D01*
X123054867Y-102928700D01*
X123032345Y-102920642D01*
X123010721Y-102910414D01*
X122990204Y-102898117D01*
X122970991Y-102883867D01*
X122953267Y-102867803D01*
X122937203Y-102850079D01*
X122922953Y-102830866D01*
X122910656Y-102810349D01*
X122900428Y-102788725D01*
X122892370Y-102766203D01*
X122886558Y-102742999D01*
X122883048Y-102719338D01*
X122881874Y-102695446D01*
X122881874Y-102207946D01*
X122883048Y-102184054D01*
X122886558Y-102160393D01*
X122892370Y-102137189D01*
X122900428Y-102114667D01*
X122910656Y-102093043D01*
X122922953Y-102072526D01*
X122937203Y-102053313D01*
X122953267Y-102035589D01*
X122970991Y-102019525D01*
X122990204Y-102005275D01*
X123010721Y-101992978D01*
X123032345Y-101982750D01*
X123054867Y-101974692D01*
X123078071Y-101968880D01*
X123101732Y-101965370D01*
X123125624Y-101964196D01*
X124038124Y-101964196D01*
X124062016Y-101965370D01*
X124062016Y-101965370D01*
G37*
D18*
X123581874Y-102451696D03*
D12*
G36*
X124062016Y-100090370D02*
X124085677Y-100093880D01*
X124108881Y-100099692D01*
X124131403Y-100107750D01*
X124153027Y-100117978D01*
X124173544Y-100130275D01*
X124192757Y-100144525D01*
X124210481Y-100160589D01*
X124226545Y-100178313D01*
X124240795Y-100197526D01*
X124253092Y-100218043D01*
X124263320Y-100239667D01*
X124271378Y-100262189D01*
X124277190Y-100285393D01*
X124280700Y-100309054D01*
X124281874Y-100332946D01*
X124281874Y-100820446D01*
X124280700Y-100844338D01*
X124277190Y-100867999D01*
X124271378Y-100891203D01*
X124263320Y-100913725D01*
X124253092Y-100935349D01*
X124240795Y-100955866D01*
X124226545Y-100975079D01*
X124210481Y-100992803D01*
X124192757Y-101008867D01*
X124173544Y-101023117D01*
X124153027Y-101035414D01*
X124131403Y-101045642D01*
X124108881Y-101053700D01*
X124085677Y-101059512D01*
X124062016Y-101063022D01*
X124038124Y-101064196D01*
X123125624Y-101064196D01*
X123101732Y-101063022D01*
X123078071Y-101059512D01*
X123054867Y-101053700D01*
X123032345Y-101045642D01*
X123010721Y-101035414D01*
X122990204Y-101023117D01*
X122970991Y-101008867D01*
X122953267Y-100992803D01*
X122937203Y-100975079D01*
X122922953Y-100955866D01*
X122910656Y-100935349D01*
X122900428Y-100913725D01*
X122892370Y-100891203D01*
X122886558Y-100867999D01*
X122883048Y-100844338D01*
X122881874Y-100820446D01*
X122881874Y-100332946D01*
X122883048Y-100309054D01*
X122886558Y-100285393D01*
X122892370Y-100262189D01*
X122900428Y-100239667D01*
X122910656Y-100218043D01*
X122922953Y-100197526D01*
X122937203Y-100178313D01*
X122953267Y-100160589D01*
X122970991Y-100144525D01*
X122990204Y-100130275D01*
X123010721Y-100117978D01*
X123032345Y-100107750D01*
X123054867Y-100099692D01*
X123078071Y-100093880D01*
X123101732Y-100090370D01*
X123125624Y-100089196D01*
X124038124Y-100089196D01*
X124062016Y-100090370D01*
X124062016Y-100090370D01*
G37*
D18*
X123581874Y-100576696D03*
G04 #@! TD*
D12*
G04 #@! TO.C,D6(PWM)*
G36*
X119744016Y-100041870D02*
X119767677Y-100045380D01*
X119790881Y-100051192D01*
X119813403Y-100059250D01*
X119835027Y-100069478D01*
X119855544Y-100081775D01*
X119874757Y-100096025D01*
X119892481Y-100112089D01*
X119908545Y-100129813D01*
X119922795Y-100149026D01*
X119935092Y-100169543D01*
X119945320Y-100191167D01*
X119953378Y-100213689D01*
X119959190Y-100236893D01*
X119962700Y-100260554D01*
X119963874Y-100284446D01*
X119963874Y-100771946D01*
X119962700Y-100795838D01*
X119959190Y-100819499D01*
X119953378Y-100842703D01*
X119945320Y-100865225D01*
X119935092Y-100886849D01*
X119922795Y-100907366D01*
X119908545Y-100926579D01*
X119892481Y-100944303D01*
X119874757Y-100960367D01*
X119855544Y-100974617D01*
X119835027Y-100986914D01*
X119813403Y-100997142D01*
X119790881Y-101005200D01*
X119767677Y-101011012D01*
X119744016Y-101014522D01*
X119720124Y-101015696D01*
X118807624Y-101015696D01*
X118783732Y-101014522D01*
X118760071Y-101011012D01*
X118736867Y-101005200D01*
X118714345Y-100997142D01*
X118692721Y-100986914D01*
X118672204Y-100974617D01*
X118652991Y-100960367D01*
X118635267Y-100944303D01*
X118619203Y-100926579D01*
X118604953Y-100907366D01*
X118592656Y-100886849D01*
X118582428Y-100865225D01*
X118574370Y-100842703D01*
X118568558Y-100819499D01*
X118565048Y-100795838D01*
X118563874Y-100771946D01*
X118563874Y-100284446D01*
X118565048Y-100260554D01*
X118568558Y-100236893D01*
X118574370Y-100213689D01*
X118582428Y-100191167D01*
X118592656Y-100169543D01*
X118604953Y-100149026D01*
X118619203Y-100129813D01*
X118635267Y-100112089D01*
X118652991Y-100096025D01*
X118672204Y-100081775D01*
X118692721Y-100069478D01*
X118714345Y-100059250D01*
X118736867Y-100051192D01*
X118760071Y-100045380D01*
X118783732Y-100041870D01*
X118807624Y-100040696D01*
X119720124Y-100040696D01*
X119744016Y-100041870D01*
X119744016Y-100041870D01*
G37*
D18*
X119263874Y-100528196D03*
D12*
G36*
X119744016Y-101916870D02*
X119767677Y-101920380D01*
X119790881Y-101926192D01*
X119813403Y-101934250D01*
X119835027Y-101944478D01*
X119855544Y-101956775D01*
X119874757Y-101971025D01*
X119892481Y-101987089D01*
X119908545Y-102004813D01*
X119922795Y-102024026D01*
X119935092Y-102044543D01*
X119945320Y-102066167D01*
X119953378Y-102088689D01*
X119959190Y-102111893D01*
X119962700Y-102135554D01*
X119963874Y-102159446D01*
X119963874Y-102646946D01*
X119962700Y-102670838D01*
X119959190Y-102694499D01*
X119953378Y-102717703D01*
X119945320Y-102740225D01*
X119935092Y-102761849D01*
X119922795Y-102782366D01*
X119908545Y-102801579D01*
X119892481Y-102819303D01*
X119874757Y-102835367D01*
X119855544Y-102849617D01*
X119835027Y-102861914D01*
X119813403Y-102872142D01*
X119790881Y-102880200D01*
X119767677Y-102886012D01*
X119744016Y-102889522D01*
X119720124Y-102890696D01*
X118807624Y-102890696D01*
X118783732Y-102889522D01*
X118760071Y-102886012D01*
X118736867Y-102880200D01*
X118714345Y-102872142D01*
X118692721Y-102861914D01*
X118672204Y-102849617D01*
X118652991Y-102835367D01*
X118635267Y-102819303D01*
X118619203Y-102801579D01*
X118604953Y-102782366D01*
X118592656Y-102761849D01*
X118582428Y-102740225D01*
X118574370Y-102717703D01*
X118568558Y-102694499D01*
X118565048Y-102670838D01*
X118563874Y-102646946D01*
X118563874Y-102159446D01*
X118565048Y-102135554D01*
X118568558Y-102111893D01*
X118574370Y-102088689D01*
X118582428Y-102066167D01*
X118592656Y-102044543D01*
X118604953Y-102024026D01*
X118619203Y-102004813D01*
X118635267Y-101987089D01*
X118652991Y-101971025D01*
X118672204Y-101956775D01*
X118692721Y-101944478D01*
X118714345Y-101934250D01*
X118736867Y-101926192D01*
X118760071Y-101920380D01*
X118783732Y-101916870D01*
X118807624Y-101915696D01*
X119720124Y-101915696D01*
X119744016Y-101916870D01*
X119744016Y-101916870D01*
G37*
D18*
X119263874Y-102403196D03*
G04 #@! TD*
D12*
G04 #@! TO.C,D5(PWM)*
G36*
X115172016Y-101916870D02*
X115195677Y-101920380D01*
X115218881Y-101926192D01*
X115241403Y-101934250D01*
X115263027Y-101944478D01*
X115283544Y-101956775D01*
X115302757Y-101971025D01*
X115320481Y-101987089D01*
X115336545Y-102004813D01*
X115350795Y-102024026D01*
X115363092Y-102044543D01*
X115373320Y-102066167D01*
X115381378Y-102088689D01*
X115387190Y-102111893D01*
X115390700Y-102135554D01*
X115391874Y-102159446D01*
X115391874Y-102646946D01*
X115390700Y-102670838D01*
X115387190Y-102694499D01*
X115381378Y-102717703D01*
X115373320Y-102740225D01*
X115363092Y-102761849D01*
X115350795Y-102782366D01*
X115336545Y-102801579D01*
X115320481Y-102819303D01*
X115302757Y-102835367D01*
X115283544Y-102849617D01*
X115263027Y-102861914D01*
X115241403Y-102872142D01*
X115218881Y-102880200D01*
X115195677Y-102886012D01*
X115172016Y-102889522D01*
X115148124Y-102890696D01*
X114235624Y-102890696D01*
X114211732Y-102889522D01*
X114188071Y-102886012D01*
X114164867Y-102880200D01*
X114142345Y-102872142D01*
X114120721Y-102861914D01*
X114100204Y-102849617D01*
X114080991Y-102835367D01*
X114063267Y-102819303D01*
X114047203Y-102801579D01*
X114032953Y-102782366D01*
X114020656Y-102761849D01*
X114010428Y-102740225D01*
X114002370Y-102717703D01*
X113996558Y-102694499D01*
X113993048Y-102670838D01*
X113991874Y-102646946D01*
X113991874Y-102159446D01*
X113993048Y-102135554D01*
X113996558Y-102111893D01*
X114002370Y-102088689D01*
X114010428Y-102066167D01*
X114020656Y-102044543D01*
X114032953Y-102024026D01*
X114047203Y-102004813D01*
X114063267Y-101987089D01*
X114080991Y-101971025D01*
X114100204Y-101956775D01*
X114120721Y-101944478D01*
X114142345Y-101934250D01*
X114164867Y-101926192D01*
X114188071Y-101920380D01*
X114211732Y-101916870D01*
X114235624Y-101915696D01*
X115148124Y-101915696D01*
X115172016Y-101916870D01*
X115172016Y-101916870D01*
G37*
D18*
X114691874Y-102403196D03*
D12*
G36*
X115172016Y-100041870D02*
X115195677Y-100045380D01*
X115218881Y-100051192D01*
X115241403Y-100059250D01*
X115263027Y-100069478D01*
X115283544Y-100081775D01*
X115302757Y-100096025D01*
X115320481Y-100112089D01*
X115336545Y-100129813D01*
X115350795Y-100149026D01*
X115363092Y-100169543D01*
X115373320Y-100191167D01*
X115381378Y-100213689D01*
X115387190Y-100236893D01*
X115390700Y-100260554D01*
X115391874Y-100284446D01*
X115391874Y-100771946D01*
X115390700Y-100795838D01*
X115387190Y-100819499D01*
X115381378Y-100842703D01*
X115373320Y-100865225D01*
X115363092Y-100886849D01*
X115350795Y-100907366D01*
X115336545Y-100926579D01*
X115320481Y-100944303D01*
X115302757Y-100960367D01*
X115283544Y-100974617D01*
X115263027Y-100986914D01*
X115241403Y-100997142D01*
X115218881Y-101005200D01*
X115195677Y-101011012D01*
X115172016Y-101014522D01*
X115148124Y-101015696D01*
X114235624Y-101015696D01*
X114211732Y-101014522D01*
X114188071Y-101011012D01*
X114164867Y-101005200D01*
X114142345Y-100997142D01*
X114120721Y-100986914D01*
X114100204Y-100974617D01*
X114080991Y-100960367D01*
X114063267Y-100944303D01*
X114047203Y-100926579D01*
X114032953Y-100907366D01*
X114020656Y-100886849D01*
X114010428Y-100865225D01*
X114002370Y-100842703D01*
X113996558Y-100819499D01*
X113993048Y-100795838D01*
X113991874Y-100771946D01*
X113991874Y-100284446D01*
X113993048Y-100260554D01*
X113996558Y-100236893D01*
X114002370Y-100213689D01*
X114010428Y-100191167D01*
X114020656Y-100169543D01*
X114032953Y-100149026D01*
X114047203Y-100129813D01*
X114063267Y-100112089D01*
X114080991Y-100096025D01*
X114100204Y-100081775D01*
X114120721Y-100069478D01*
X114142345Y-100059250D01*
X114164867Y-100051192D01*
X114188071Y-100045380D01*
X114211732Y-100041870D01*
X114235624Y-100040696D01*
X115148124Y-100040696D01*
X115172016Y-100041870D01*
X115172016Y-100041870D01*
G37*
D18*
X114691874Y-100528196D03*
G04 #@! TD*
D12*
G04 #@! TO.C,D3(PWM)*
G36*
X110473016Y-100041870D02*
X110496677Y-100045380D01*
X110519881Y-100051192D01*
X110542403Y-100059250D01*
X110564027Y-100069478D01*
X110584544Y-100081775D01*
X110603757Y-100096025D01*
X110621481Y-100112089D01*
X110637545Y-100129813D01*
X110651795Y-100149026D01*
X110664092Y-100169543D01*
X110674320Y-100191167D01*
X110682378Y-100213689D01*
X110688190Y-100236893D01*
X110691700Y-100260554D01*
X110692874Y-100284446D01*
X110692874Y-100771946D01*
X110691700Y-100795838D01*
X110688190Y-100819499D01*
X110682378Y-100842703D01*
X110674320Y-100865225D01*
X110664092Y-100886849D01*
X110651795Y-100907366D01*
X110637545Y-100926579D01*
X110621481Y-100944303D01*
X110603757Y-100960367D01*
X110584544Y-100974617D01*
X110564027Y-100986914D01*
X110542403Y-100997142D01*
X110519881Y-101005200D01*
X110496677Y-101011012D01*
X110473016Y-101014522D01*
X110449124Y-101015696D01*
X109536624Y-101015696D01*
X109512732Y-101014522D01*
X109489071Y-101011012D01*
X109465867Y-101005200D01*
X109443345Y-100997142D01*
X109421721Y-100986914D01*
X109401204Y-100974617D01*
X109381991Y-100960367D01*
X109364267Y-100944303D01*
X109348203Y-100926579D01*
X109333953Y-100907366D01*
X109321656Y-100886849D01*
X109311428Y-100865225D01*
X109303370Y-100842703D01*
X109297558Y-100819499D01*
X109294048Y-100795838D01*
X109292874Y-100771946D01*
X109292874Y-100284446D01*
X109294048Y-100260554D01*
X109297558Y-100236893D01*
X109303370Y-100213689D01*
X109311428Y-100191167D01*
X109321656Y-100169543D01*
X109333953Y-100149026D01*
X109348203Y-100129813D01*
X109364267Y-100112089D01*
X109381991Y-100096025D01*
X109401204Y-100081775D01*
X109421721Y-100069478D01*
X109443345Y-100059250D01*
X109465867Y-100051192D01*
X109489071Y-100045380D01*
X109512732Y-100041870D01*
X109536624Y-100040696D01*
X110449124Y-100040696D01*
X110473016Y-100041870D01*
X110473016Y-100041870D01*
G37*
D18*
X109992874Y-100528196D03*
D12*
G36*
X110473016Y-101916870D02*
X110496677Y-101920380D01*
X110519881Y-101926192D01*
X110542403Y-101934250D01*
X110564027Y-101944478D01*
X110584544Y-101956775D01*
X110603757Y-101971025D01*
X110621481Y-101987089D01*
X110637545Y-102004813D01*
X110651795Y-102024026D01*
X110664092Y-102044543D01*
X110674320Y-102066167D01*
X110682378Y-102088689D01*
X110688190Y-102111893D01*
X110691700Y-102135554D01*
X110692874Y-102159446D01*
X110692874Y-102646946D01*
X110691700Y-102670838D01*
X110688190Y-102694499D01*
X110682378Y-102717703D01*
X110674320Y-102740225D01*
X110664092Y-102761849D01*
X110651795Y-102782366D01*
X110637545Y-102801579D01*
X110621481Y-102819303D01*
X110603757Y-102835367D01*
X110584544Y-102849617D01*
X110564027Y-102861914D01*
X110542403Y-102872142D01*
X110519881Y-102880200D01*
X110496677Y-102886012D01*
X110473016Y-102889522D01*
X110449124Y-102890696D01*
X109536624Y-102890696D01*
X109512732Y-102889522D01*
X109489071Y-102886012D01*
X109465867Y-102880200D01*
X109443345Y-102872142D01*
X109421721Y-102861914D01*
X109401204Y-102849617D01*
X109381991Y-102835367D01*
X109364267Y-102819303D01*
X109348203Y-102801579D01*
X109333953Y-102782366D01*
X109321656Y-102761849D01*
X109311428Y-102740225D01*
X109303370Y-102717703D01*
X109297558Y-102694499D01*
X109294048Y-102670838D01*
X109292874Y-102646946D01*
X109292874Y-102159446D01*
X109294048Y-102135554D01*
X109297558Y-102111893D01*
X109303370Y-102088689D01*
X109311428Y-102066167D01*
X109321656Y-102044543D01*
X109333953Y-102024026D01*
X109348203Y-102004813D01*
X109364267Y-101987089D01*
X109381991Y-101971025D01*
X109401204Y-101956775D01*
X109421721Y-101944478D01*
X109443345Y-101934250D01*
X109465867Y-101926192D01*
X109489071Y-101920380D01*
X109512732Y-101916870D01*
X109536624Y-101915696D01*
X110449124Y-101915696D01*
X110473016Y-101916870D01*
X110473016Y-101916870D01*
G37*
D18*
X109992874Y-102403196D03*
G04 #@! TD*
D15*
G04 #@! TO.C,MA-1A1*
X79629000Y-119420640D03*
X79629000Y-124419360D03*
G04 #@! TD*
G04 #@! TO.C,MB-1A1*
X79629000Y-135722360D03*
X79629000Y-130723640D03*
G04 #@! TD*
G04 #@! TO.C,MC-1A1*
X133477000Y-135595360D03*
X133477000Y-130596640D03*
G04 #@! TD*
G04 #@! TO.C,MD-1A1*
X133477000Y-119420640D03*
X133477000Y-124419360D03*
G04 #@! TD*
D19*
G04 #@! TO.C,MOTOR_DRIVER_IC1*
X96945000Y-122663000D03*
X96945000Y-123313000D03*
X96945000Y-123963000D03*
X96945000Y-124613000D03*
X96945000Y-125263000D03*
X96945000Y-125913000D03*
X96945000Y-126563000D03*
X96945000Y-127213000D03*
X96945000Y-127863000D03*
X96945000Y-128513000D03*
X96945000Y-129163000D03*
X96945000Y-129813000D03*
X89745000Y-129813000D03*
X89745000Y-129163000D03*
X89745000Y-128513000D03*
X89745000Y-127863000D03*
X89745000Y-127213000D03*
X89745000Y-126563000D03*
X89745000Y-125913000D03*
X89745000Y-125263000D03*
X89745000Y-124613000D03*
X89745000Y-123963000D03*
X89745000Y-123313000D03*
X89745000Y-122663000D03*
G04 #@! TD*
G04 #@! TO.C,MOTOR_DRIVER_IC2*
X119551000Y-129559000D03*
X119551000Y-128909000D03*
X119551000Y-128259000D03*
X119551000Y-127609000D03*
X119551000Y-126959000D03*
X119551000Y-126309000D03*
X119551000Y-125659000D03*
X119551000Y-125009000D03*
X119551000Y-124359000D03*
X119551000Y-123709000D03*
X119551000Y-123059000D03*
X119551000Y-122409000D03*
X112351000Y-122409000D03*
X112351000Y-123059000D03*
X112351000Y-123709000D03*
X112351000Y-124359000D03*
X112351000Y-125009000D03*
X112351000Y-125659000D03*
X112351000Y-126309000D03*
X112351000Y-126959000D03*
X112351000Y-127609000D03*
X112351000Y-128259000D03*
X112351000Y-128909000D03*
X112351000Y-129559000D03*
G04 #@! TD*
D12*
G04 #@! TO.C,R1*
G36*
X123977378Y-104140900D02*
X124001647Y-104144500D01*
X124025445Y-104150461D01*
X124048545Y-104158726D01*
X124070723Y-104169216D01*
X124091767Y-104181829D01*
X124111472Y-104196443D01*
X124129651Y-104212919D01*
X124146127Y-104231098D01*
X124160741Y-104250803D01*
X124173354Y-104271847D01*
X124183844Y-104294025D01*
X124192109Y-104317125D01*
X124198070Y-104340923D01*
X124201670Y-104365192D01*
X124202874Y-104389696D01*
X124202874Y-105139696D01*
X124201670Y-105164200D01*
X124198070Y-105188469D01*
X124192109Y-105212267D01*
X124183844Y-105235367D01*
X124173354Y-105257545D01*
X124160741Y-105278589D01*
X124146127Y-105298294D01*
X124129651Y-105316473D01*
X124111472Y-105332949D01*
X124091767Y-105347563D01*
X124070723Y-105360176D01*
X124048545Y-105370666D01*
X124025445Y-105378931D01*
X124001647Y-105384892D01*
X123977378Y-105388492D01*
X123952874Y-105389696D01*
X122702874Y-105389696D01*
X122678370Y-105388492D01*
X122654101Y-105384892D01*
X122630303Y-105378931D01*
X122607203Y-105370666D01*
X122585025Y-105360176D01*
X122563981Y-105347563D01*
X122544276Y-105332949D01*
X122526097Y-105316473D01*
X122509621Y-105298294D01*
X122495007Y-105278589D01*
X122482394Y-105257545D01*
X122471904Y-105235367D01*
X122463639Y-105212267D01*
X122457678Y-105188469D01*
X122454078Y-105164200D01*
X122452874Y-105139696D01*
X122452874Y-104389696D01*
X122454078Y-104365192D01*
X122457678Y-104340923D01*
X122463639Y-104317125D01*
X122471904Y-104294025D01*
X122482394Y-104271847D01*
X122495007Y-104250803D01*
X122509621Y-104231098D01*
X122526097Y-104212919D01*
X122544276Y-104196443D01*
X122563981Y-104181829D01*
X122585025Y-104169216D01*
X122607203Y-104158726D01*
X122630303Y-104150461D01*
X122654101Y-104144500D01*
X122678370Y-104140900D01*
X122702874Y-104139696D01*
X123952874Y-104139696D01*
X123977378Y-104140900D01*
X123977378Y-104140900D01*
G37*
D13*
X123327874Y-104764696D03*
D12*
G36*
X123977378Y-106940900D02*
X124001647Y-106944500D01*
X124025445Y-106950461D01*
X124048545Y-106958726D01*
X124070723Y-106969216D01*
X124091767Y-106981829D01*
X124111472Y-106996443D01*
X124129651Y-107012919D01*
X124146127Y-107031098D01*
X124160741Y-107050803D01*
X124173354Y-107071847D01*
X124183844Y-107094025D01*
X124192109Y-107117125D01*
X124198070Y-107140923D01*
X124201670Y-107165192D01*
X124202874Y-107189696D01*
X124202874Y-107939696D01*
X124201670Y-107964200D01*
X124198070Y-107988469D01*
X124192109Y-108012267D01*
X124183844Y-108035367D01*
X124173354Y-108057545D01*
X124160741Y-108078589D01*
X124146127Y-108098294D01*
X124129651Y-108116473D01*
X124111472Y-108132949D01*
X124091767Y-108147563D01*
X124070723Y-108160176D01*
X124048545Y-108170666D01*
X124025445Y-108178931D01*
X124001647Y-108184892D01*
X123977378Y-108188492D01*
X123952874Y-108189696D01*
X122702874Y-108189696D01*
X122678370Y-108188492D01*
X122654101Y-108184892D01*
X122630303Y-108178931D01*
X122607203Y-108170666D01*
X122585025Y-108160176D01*
X122563981Y-108147563D01*
X122544276Y-108132949D01*
X122526097Y-108116473D01*
X122509621Y-108098294D01*
X122495007Y-108078589D01*
X122482394Y-108057545D01*
X122471904Y-108035367D01*
X122463639Y-108012267D01*
X122457678Y-107988469D01*
X122454078Y-107964200D01*
X122452874Y-107939696D01*
X122452874Y-107189696D01*
X122454078Y-107165192D01*
X122457678Y-107140923D01*
X122463639Y-107117125D01*
X122471904Y-107094025D01*
X122482394Y-107071847D01*
X122495007Y-107050803D01*
X122509621Y-107031098D01*
X122526097Y-107012919D01*
X122544276Y-106996443D01*
X122563981Y-106981829D01*
X122585025Y-106969216D01*
X122607203Y-106958726D01*
X122630303Y-106950461D01*
X122654101Y-106944500D01*
X122678370Y-106940900D01*
X122702874Y-106939696D01*
X123952874Y-106939696D01*
X123977378Y-106940900D01*
X123977378Y-106940900D01*
G37*
D13*
X123327874Y-107564696D03*
G04 #@! TD*
D12*
G04 #@! TO.C,R2*
G36*
X119786378Y-104140900D02*
X119810647Y-104144500D01*
X119834445Y-104150461D01*
X119857545Y-104158726D01*
X119879723Y-104169216D01*
X119900767Y-104181829D01*
X119920472Y-104196443D01*
X119938651Y-104212919D01*
X119955127Y-104231098D01*
X119969741Y-104250803D01*
X119982354Y-104271847D01*
X119992844Y-104294025D01*
X120001109Y-104317125D01*
X120007070Y-104340923D01*
X120010670Y-104365192D01*
X120011874Y-104389696D01*
X120011874Y-105139696D01*
X120010670Y-105164200D01*
X120007070Y-105188469D01*
X120001109Y-105212267D01*
X119992844Y-105235367D01*
X119982354Y-105257545D01*
X119969741Y-105278589D01*
X119955127Y-105298294D01*
X119938651Y-105316473D01*
X119920472Y-105332949D01*
X119900767Y-105347563D01*
X119879723Y-105360176D01*
X119857545Y-105370666D01*
X119834445Y-105378931D01*
X119810647Y-105384892D01*
X119786378Y-105388492D01*
X119761874Y-105389696D01*
X118511874Y-105389696D01*
X118487370Y-105388492D01*
X118463101Y-105384892D01*
X118439303Y-105378931D01*
X118416203Y-105370666D01*
X118394025Y-105360176D01*
X118372981Y-105347563D01*
X118353276Y-105332949D01*
X118335097Y-105316473D01*
X118318621Y-105298294D01*
X118304007Y-105278589D01*
X118291394Y-105257545D01*
X118280904Y-105235367D01*
X118272639Y-105212267D01*
X118266678Y-105188469D01*
X118263078Y-105164200D01*
X118261874Y-105139696D01*
X118261874Y-104389696D01*
X118263078Y-104365192D01*
X118266678Y-104340923D01*
X118272639Y-104317125D01*
X118280904Y-104294025D01*
X118291394Y-104271847D01*
X118304007Y-104250803D01*
X118318621Y-104231098D01*
X118335097Y-104212919D01*
X118353276Y-104196443D01*
X118372981Y-104181829D01*
X118394025Y-104169216D01*
X118416203Y-104158726D01*
X118439303Y-104150461D01*
X118463101Y-104144500D01*
X118487370Y-104140900D01*
X118511874Y-104139696D01*
X119761874Y-104139696D01*
X119786378Y-104140900D01*
X119786378Y-104140900D01*
G37*
D13*
X119136874Y-104764696D03*
D12*
G36*
X119786378Y-106940900D02*
X119810647Y-106944500D01*
X119834445Y-106950461D01*
X119857545Y-106958726D01*
X119879723Y-106969216D01*
X119900767Y-106981829D01*
X119920472Y-106996443D01*
X119938651Y-107012919D01*
X119955127Y-107031098D01*
X119969741Y-107050803D01*
X119982354Y-107071847D01*
X119992844Y-107094025D01*
X120001109Y-107117125D01*
X120007070Y-107140923D01*
X120010670Y-107165192D01*
X120011874Y-107189696D01*
X120011874Y-107939696D01*
X120010670Y-107964200D01*
X120007070Y-107988469D01*
X120001109Y-108012267D01*
X119992844Y-108035367D01*
X119982354Y-108057545D01*
X119969741Y-108078589D01*
X119955127Y-108098294D01*
X119938651Y-108116473D01*
X119920472Y-108132949D01*
X119900767Y-108147563D01*
X119879723Y-108160176D01*
X119857545Y-108170666D01*
X119834445Y-108178931D01*
X119810647Y-108184892D01*
X119786378Y-108188492D01*
X119761874Y-108189696D01*
X118511874Y-108189696D01*
X118487370Y-108188492D01*
X118463101Y-108184892D01*
X118439303Y-108178931D01*
X118416203Y-108170666D01*
X118394025Y-108160176D01*
X118372981Y-108147563D01*
X118353276Y-108132949D01*
X118335097Y-108116473D01*
X118318621Y-108098294D01*
X118304007Y-108078589D01*
X118291394Y-108057545D01*
X118280904Y-108035367D01*
X118272639Y-108012267D01*
X118266678Y-107988469D01*
X118263078Y-107964200D01*
X118261874Y-107939696D01*
X118261874Y-107189696D01*
X118263078Y-107165192D01*
X118266678Y-107140923D01*
X118272639Y-107117125D01*
X118280904Y-107094025D01*
X118291394Y-107071847D01*
X118304007Y-107050803D01*
X118318621Y-107031098D01*
X118335097Y-107012919D01*
X118353276Y-106996443D01*
X118372981Y-106981829D01*
X118394025Y-106969216D01*
X118416203Y-106958726D01*
X118439303Y-106950461D01*
X118463101Y-106944500D01*
X118487370Y-106940900D01*
X118511874Y-106939696D01*
X119761874Y-106939696D01*
X119786378Y-106940900D01*
X119786378Y-106940900D01*
G37*
D13*
X119136874Y-107564696D03*
G04 #@! TD*
D12*
G04 #@! TO.C,R3*
G36*
X115087378Y-106940900D02*
X115111647Y-106944500D01*
X115135445Y-106950461D01*
X115158545Y-106958726D01*
X115180723Y-106969216D01*
X115201767Y-106981829D01*
X115221472Y-106996443D01*
X115239651Y-107012919D01*
X115256127Y-107031098D01*
X115270741Y-107050803D01*
X115283354Y-107071847D01*
X115293844Y-107094025D01*
X115302109Y-107117125D01*
X115308070Y-107140923D01*
X115311670Y-107165192D01*
X115312874Y-107189696D01*
X115312874Y-107939696D01*
X115311670Y-107964200D01*
X115308070Y-107988469D01*
X115302109Y-108012267D01*
X115293844Y-108035367D01*
X115283354Y-108057545D01*
X115270741Y-108078589D01*
X115256127Y-108098294D01*
X115239651Y-108116473D01*
X115221472Y-108132949D01*
X115201767Y-108147563D01*
X115180723Y-108160176D01*
X115158545Y-108170666D01*
X115135445Y-108178931D01*
X115111647Y-108184892D01*
X115087378Y-108188492D01*
X115062874Y-108189696D01*
X113812874Y-108189696D01*
X113788370Y-108188492D01*
X113764101Y-108184892D01*
X113740303Y-108178931D01*
X113717203Y-108170666D01*
X113695025Y-108160176D01*
X113673981Y-108147563D01*
X113654276Y-108132949D01*
X113636097Y-108116473D01*
X113619621Y-108098294D01*
X113605007Y-108078589D01*
X113592394Y-108057545D01*
X113581904Y-108035367D01*
X113573639Y-108012267D01*
X113567678Y-107988469D01*
X113564078Y-107964200D01*
X113562874Y-107939696D01*
X113562874Y-107189696D01*
X113564078Y-107165192D01*
X113567678Y-107140923D01*
X113573639Y-107117125D01*
X113581904Y-107094025D01*
X113592394Y-107071847D01*
X113605007Y-107050803D01*
X113619621Y-107031098D01*
X113636097Y-107012919D01*
X113654276Y-106996443D01*
X113673981Y-106981829D01*
X113695025Y-106969216D01*
X113717203Y-106958726D01*
X113740303Y-106950461D01*
X113764101Y-106944500D01*
X113788370Y-106940900D01*
X113812874Y-106939696D01*
X115062874Y-106939696D01*
X115087378Y-106940900D01*
X115087378Y-106940900D01*
G37*
D13*
X114437874Y-107564696D03*
D12*
G36*
X115087378Y-104140900D02*
X115111647Y-104144500D01*
X115135445Y-104150461D01*
X115158545Y-104158726D01*
X115180723Y-104169216D01*
X115201767Y-104181829D01*
X115221472Y-104196443D01*
X115239651Y-104212919D01*
X115256127Y-104231098D01*
X115270741Y-104250803D01*
X115283354Y-104271847D01*
X115293844Y-104294025D01*
X115302109Y-104317125D01*
X115308070Y-104340923D01*
X115311670Y-104365192D01*
X115312874Y-104389696D01*
X115312874Y-105139696D01*
X115311670Y-105164200D01*
X115308070Y-105188469D01*
X115302109Y-105212267D01*
X115293844Y-105235367D01*
X115283354Y-105257545D01*
X115270741Y-105278589D01*
X115256127Y-105298294D01*
X115239651Y-105316473D01*
X115221472Y-105332949D01*
X115201767Y-105347563D01*
X115180723Y-105360176D01*
X115158545Y-105370666D01*
X115135445Y-105378931D01*
X115111647Y-105384892D01*
X115087378Y-105388492D01*
X115062874Y-105389696D01*
X113812874Y-105389696D01*
X113788370Y-105388492D01*
X113764101Y-105384892D01*
X113740303Y-105378931D01*
X113717203Y-105370666D01*
X113695025Y-105360176D01*
X113673981Y-105347563D01*
X113654276Y-105332949D01*
X113636097Y-105316473D01*
X113619621Y-105298294D01*
X113605007Y-105278589D01*
X113592394Y-105257545D01*
X113581904Y-105235367D01*
X113573639Y-105212267D01*
X113567678Y-105188469D01*
X113564078Y-105164200D01*
X113562874Y-105139696D01*
X113562874Y-104389696D01*
X113564078Y-104365192D01*
X113567678Y-104340923D01*
X113573639Y-104317125D01*
X113581904Y-104294025D01*
X113592394Y-104271847D01*
X113605007Y-104250803D01*
X113619621Y-104231098D01*
X113636097Y-104212919D01*
X113654276Y-104196443D01*
X113673981Y-104181829D01*
X113695025Y-104169216D01*
X113717203Y-104158726D01*
X113740303Y-104150461D01*
X113764101Y-104144500D01*
X113788370Y-104140900D01*
X113812874Y-104139696D01*
X115062874Y-104139696D01*
X115087378Y-104140900D01*
X115087378Y-104140900D01*
G37*
D13*
X114437874Y-104764696D03*
G04 #@! TD*
D12*
G04 #@! TO.C,R4*
G36*
X110769378Y-104140900D02*
X110793647Y-104144500D01*
X110817445Y-104150461D01*
X110840545Y-104158726D01*
X110862723Y-104169216D01*
X110883767Y-104181829D01*
X110903472Y-104196443D01*
X110921651Y-104212919D01*
X110938127Y-104231098D01*
X110952741Y-104250803D01*
X110965354Y-104271847D01*
X110975844Y-104294025D01*
X110984109Y-104317125D01*
X110990070Y-104340923D01*
X110993670Y-104365192D01*
X110994874Y-104389696D01*
X110994874Y-105139696D01*
X110993670Y-105164200D01*
X110990070Y-105188469D01*
X110984109Y-105212267D01*
X110975844Y-105235367D01*
X110965354Y-105257545D01*
X110952741Y-105278589D01*
X110938127Y-105298294D01*
X110921651Y-105316473D01*
X110903472Y-105332949D01*
X110883767Y-105347563D01*
X110862723Y-105360176D01*
X110840545Y-105370666D01*
X110817445Y-105378931D01*
X110793647Y-105384892D01*
X110769378Y-105388492D01*
X110744874Y-105389696D01*
X109494874Y-105389696D01*
X109470370Y-105388492D01*
X109446101Y-105384892D01*
X109422303Y-105378931D01*
X109399203Y-105370666D01*
X109377025Y-105360176D01*
X109355981Y-105347563D01*
X109336276Y-105332949D01*
X109318097Y-105316473D01*
X109301621Y-105298294D01*
X109287007Y-105278589D01*
X109274394Y-105257545D01*
X109263904Y-105235367D01*
X109255639Y-105212267D01*
X109249678Y-105188469D01*
X109246078Y-105164200D01*
X109244874Y-105139696D01*
X109244874Y-104389696D01*
X109246078Y-104365192D01*
X109249678Y-104340923D01*
X109255639Y-104317125D01*
X109263904Y-104294025D01*
X109274394Y-104271847D01*
X109287007Y-104250803D01*
X109301621Y-104231098D01*
X109318097Y-104212919D01*
X109336276Y-104196443D01*
X109355981Y-104181829D01*
X109377025Y-104169216D01*
X109399203Y-104158726D01*
X109422303Y-104150461D01*
X109446101Y-104144500D01*
X109470370Y-104140900D01*
X109494874Y-104139696D01*
X110744874Y-104139696D01*
X110769378Y-104140900D01*
X110769378Y-104140900D01*
G37*
D13*
X110119874Y-104764696D03*
D12*
G36*
X110769378Y-106940900D02*
X110793647Y-106944500D01*
X110817445Y-106950461D01*
X110840545Y-106958726D01*
X110862723Y-106969216D01*
X110883767Y-106981829D01*
X110903472Y-106996443D01*
X110921651Y-107012919D01*
X110938127Y-107031098D01*
X110952741Y-107050803D01*
X110965354Y-107071847D01*
X110975844Y-107094025D01*
X110984109Y-107117125D01*
X110990070Y-107140923D01*
X110993670Y-107165192D01*
X110994874Y-107189696D01*
X110994874Y-107939696D01*
X110993670Y-107964200D01*
X110990070Y-107988469D01*
X110984109Y-108012267D01*
X110975844Y-108035367D01*
X110965354Y-108057545D01*
X110952741Y-108078589D01*
X110938127Y-108098294D01*
X110921651Y-108116473D01*
X110903472Y-108132949D01*
X110883767Y-108147563D01*
X110862723Y-108160176D01*
X110840545Y-108170666D01*
X110817445Y-108178931D01*
X110793647Y-108184892D01*
X110769378Y-108188492D01*
X110744874Y-108189696D01*
X109494874Y-108189696D01*
X109470370Y-108188492D01*
X109446101Y-108184892D01*
X109422303Y-108178931D01*
X109399203Y-108170666D01*
X109377025Y-108160176D01*
X109355981Y-108147563D01*
X109336276Y-108132949D01*
X109318097Y-108116473D01*
X109301621Y-108098294D01*
X109287007Y-108078589D01*
X109274394Y-108057545D01*
X109263904Y-108035367D01*
X109255639Y-108012267D01*
X109249678Y-107988469D01*
X109246078Y-107964200D01*
X109244874Y-107939696D01*
X109244874Y-107189696D01*
X109246078Y-107165192D01*
X109249678Y-107140923D01*
X109255639Y-107117125D01*
X109263904Y-107094025D01*
X109274394Y-107071847D01*
X109287007Y-107050803D01*
X109301621Y-107031098D01*
X109318097Y-107012919D01*
X109336276Y-106996443D01*
X109355981Y-106981829D01*
X109377025Y-106969216D01*
X109399203Y-106958726D01*
X109422303Y-106950461D01*
X109446101Y-106944500D01*
X109470370Y-106940900D01*
X109494874Y-106939696D01*
X110744874Y-106939696D01*
X110769378Y-106940900D01*
X110769378Y-106940900D01*
G37*
D13*
X110119874Y-107564696D03*
G04 #@! TD*
D12*
G04 #@! TO.C,R5*
G36*
X121045504Y-114695204D02*
X121069773Y-114698804D01*
X121093571Y-114704765D01*
X121116671Y-114713030D01*
X121138849Y-114723520D01*
X121159893Y-114736133D01*
X121179598Y-114750747D01*
X121197777Y-114767223D01*
X121214253Y-114785402D01*
X121228867Y-114805107D01*
X121241480Y-114826151D01*
X121251970Y-114848329D01*
X121260235Y-114871429D01*
X121266196Y-114895227D01*
X121269796Y-114919496D01*
X121271000Y-114944000D01*
X121271000Y-115694000D01*
X121269796Y-115718504D01*
X121266196Y-115742773D01*
X121260235Y-115766571D01*
X121251970Y-115789671D01*
X121241480Y-115811849D01*
X121228867Y-115832893D01*
X121214253Y-115852598D01*
X121197777Y-115870777D01*
X121179598Y-115887253D01*
X121159893Y-115901867D01*
X121138849Y-115914480D01*
X121116671Y-115924970D01*
X121093571Y-115933235D01*
X121069773Y-115939196D01*
X121045504Y-115942796D01*
X121021000Y-115944000D01*
X119771000Y-115944000D01*
X119746496Y-115942796D01*
X119722227Y-115939196D01*
X119698429Y-115933235D01*
X119675329Y-115924970D01*
X119653151Y-115914480D01*
X119632107Y-115901867D01*
X119612402Y-115887253D01*
X119594223Y-115870777D01*
X119577747Y-115852598D01*
X119563133Y-115832893D01*
X119550520Y-115811849D01*
X119540030Y-115789671D01*
X119531765Y-115766571D01*
X119525804Y-115742773D01*
X119522204Y-115718504D01*
X119521000Y-115694000D01*
X119521000Y-114944000D01*
X119522204Y-114919496D01*
X119525804Y-114895227D01*
X119531765Y-114871429D01*
X119540030Y-114848329D01*
X119550520Y-114826151D01*
X119563133Y-114805107D01*
X119577747Y-114785402D01*
X119594223Y-114767223D01*
X119612402Y-114750747D01*
X119632107Y-114736133D01*
X119653151Y-114723520D01*
X119675329Y-114713030D01*
X119698429Y-114704765D01*
X119722227Y-114698804D01*
X119746496Y-114695204D01*
X119771000Y-114694000D01*
X121021000Y-114694000D01*
X121045504Y-114695204D01*
X121045504Y-114695204D01*
G37*
D13*
X120396000Y-115319000D03*
D12*
G36*
X121045504Y-111895204D02*
X121069773Y-111898804D01*
X121093571Y-111904765D01*
X121116671Y-111913030D01*
X121138849Y-111923520D01*
X121159893Y-111936133D01*
X121179598Y-111950747D01*
X121197777Y-111967223D01*
X121214253Y-111985402D01*
X121228867Y-112005107D01*
X121241480Y-112026151D01*
X121251970Y-112048329D01*
X121260235Y-112071429D01*
X121266196Y-112095227D01*
X121269796Y-112119496D01*
X121271000Y-112144000D01*
X121271000Y-112894000D01*
X121269796Y-112918504D01*
X121266196Y-112942773D01*
X121260235Y-112966571D01*
X121251970Y-112989671D01*
X121241480Y-113011849D01*
X121228867Y-113032893D01*
X121214253Y-113052598D01*
X121197777Y-113070777D01*
X121179598Y-113087253D01*
X121159893Y-113101867D01*
X121138849Y-113114480D01*
X121116671Y-113124970D01*
X121093571Y-113133235D01*
X121069773Y-113139196D01*
X121045504Y-113142796D01*
X121021000Y-113144000D01*
X119771000Y-113144000D01*
X119746496Y-113142796D01*
X119722227Y-113139196D01*
X119698429Y-113133235D01*
X119675329Y-113124970D01*
X119653151Y-113114480D01*
X119632107Y-113101867D01*
X119612402Y-113087253D01*
X119594223Y-113070777D01*
X119577747Y-113052598D01*
X119563133Y-113032893D01*
X119550520Y-113011849D01*
X119540030Y-112989671D01*
X119531765Y-112966571D01*
X119525804Y-112942773D01*
X119522204Y-112918504D01*
X119521000Y-112894000D01*
X119521000Y-112144000D01*
X119522204Y-112119496D01*
X119525804Y-112095227D01*
X119531765Y-112071429D01*
X119540030Y-112048329D01*
X119550520Y-112026151D01*
X119563133Y-112005107D01*
X119577747Y-111985402D01*
X119594223Y-111967223D01*
X119612402Y-111950747D01*
X119632107Y-111936133D01*
X119653151Y-111923520D01*
X119675329Y-111913030D01*
X119698429Y-111904765D01*
X119722227Y-111898804D01*
X119746496Y-111895204D01*
X119771000Y-111894000D01*
X121021000Y-111894000D01*
X121045504Y-111895204D01*
X121045504Y-111895204D01*
G37*
D13*
X120396000Y-112519000D03*
G04 #@! TD*
D12*
G04 #@! TO.C,R6*
G36*
X122576504Y-81041204D02*
X122600773Y-81044804D01*
X122624571Y-81050765D01*
X122647671Y-81059030D01*
X122669849Y-81069520D01*
X122690893Y-81082133D01*
X122710598Y-81096747D01*
X122728777Y-81113223D01*
X122745253Y-81131402D01*
X122759867Y-81151107D01*
X122772480Y-81172151D01*
X122782970Y-81194329D01*
X122791235Y-81217429D01*
X122797196Y-81241227D01*
X122800796Y-81265496D01*
X122802000Y-81290000D01*
X122802000Y-82540000D01*
X122800796Y-82564504D01*
X122797196Y-82588773D01*
X122791235Y-82612571D01*
X122782970Y-82635671D01*
X122772480Y-82657849D01*
X122759867Y-82678893D01*
X122745253Y-82698598D01*
X122728777Y-82716777D01*
X122710598Y-82733253D01*
X122690893Y-82747867D01*
X122669849Y-82760480D01*
X122647671Y-82770970D01*
X122624571Y-82779235D01*
X122600773Y-82785196D01*
X122576504Y-82788796D01*
X122552000Y-82790000D01*
X121802000Y-82790000D01*
X121777496Y-82788796D01*
X121753227Y-82785196D01*
X121729429Y-82779235D01*
X121706329Y-82770970D01*
X121684151Y-82760480D01*
X121663107Y-82747867D01*
X121643402Y-82733253D01*
X121625223Y-82716777D01*
X121608747Y-82698598D01*
X121594133Y-82678893D01*
X121581520Y-82657849D01*
X121571030Y-82635671D01*
X121562765Y-82612571D01*
X121556804Y-82588773D01*
X121553204Y-82564504D01*
X121552000Y-82540000D01*
X121552000Y-81290000D01*
X121553204Y-81265496D01*
X121556804Y-81241227D01*
X121562765Y-81217429D01*
X121571030Y-81194329D01*
X121581520Y-81172151D01*
X121594133Y-81151107D01*
X121608747Y-81131402D01*
X121625223Y-81113223D01*
X121643402Y-81096747D01*
X121663107Y-81082133D01*
X121684151Y-81069520D01*
X121706329Y-81059030D01*
X121729429Y-81050765D01*
X121753227Y-81044804D01*
X121777496Y-81041204D01*
X121802000Y-81040000D01*
X122552000Y-81040000D01*
X122576504Y-81041204D01*
X122576504Y-81041204D01*
G37*
D13*
X122177000Y-81915000D03*
D12*
G36*
X119776504Y-81041204D02*
X119800773Y-81044804D01*
X119824571Y-81050765D01*
X119847671Y-81059030D01*
X119869849Y-81069520D01*
X119890893Y-81082133D01*
X119910598Y-81096747D01*
X119928777Y-81113223D01*
X119945253Y-81131402D01*
X119959867Y-81151107D01*
X119972480Y-81172151D01*
X119982970Y-81194329D01*
X119991235Y-81217429D01*
X119997196Y-81241227D01*
X120000796Y-81265496D01*
X120002000Y-81290000D01*
X120002000Y-82540000D01*
X120000796Y-82564504D01*
X119997196Y-82588773D01*
X119991235Y-82612571D01*
X119982970Y-82635671D01*
X119972480Y-82657849D01*
X119959867Y-82678893D01*
X119945253Y-82698598D01*
X119928777Y-82716777D01*
X119910598Y-82733253D01*
X119890893Y-82747867D01*
X119869849Y-82760480D01*
X119847671Y-82770970D01*
X119824571Y-82779235D01*
X119800773Y-82785196D01*
X119776504Y-82788796D01*
X119752000Y-82790000D01*
X119002000Y-82790000D01*
X118977496Y-82788796D01*
X118953227Y-82785196D01*
X118929429Y-82779235D01*
X118906329Y-82770970D01*
X118884151Y-82760480D01*
X118863107Y-82747867D01*
X118843402Y-82733253D01*
X118825223Y-82716777D01*
X118808747Y-82698598D01*
X118794133Y-82678893D01*
X118781520Y-82657849D01*
X118771030Y-82635671D01*
X118762765Y-82612571D01*
X118756804Y-82588773D01*
X118753204Y-82564504D01*
X118752000Y-82540000D01*
X118752000Y-81290000D01*
X118753204Y-81265496D01*
X118756804Y-81241227D01*
X118762765Y-81217429D01*
X118771030Y-81194329D01*
X118781520Y-81172151D01*
X118794133Y-81151107D01*
X118808747Y-81131402D01*
X118825223Y-81113223D01*
X118843402Y-81096747D01*
X118863107Y-81082133D01*
X118884151Y-81069520D01*
X118906329Y-81059030D01*
X118929429Y-81050765D01*
X118953227Y-81044804D01*
X118977496Y-81041204D01*
X119002000Y-81040000D01*
X119752000Y-81040000D01*
X119776504Y-81041204D01*
X119776504Y-81041204D01*
G37*
D13*
X119377000Y-81915000D03*
G04 #@! TD*
D12*
G04 #@! TO.C,R7*
G36*
X119776504Y-78501204D02*
X119800773Y-78504804D01*
X119824571Y-78510765D01*
X119847671Y-78519030D01*
X119869849Y-78529520D01*
X119890893Y-78542133D01*
X119910598Y-78556747D01*
X119928777Y-78573223D01*
X119945253Y-78591402D01*
X119959867Y-78611107D01*
X119972480Y-78632151D01*
X119982970Y-78654329D01*
X119991235Y-78677429D01*
X119997196Y-78701227D01*
X120000796Y-78725496D01*
X120002000Y-78750000D01*
X120002000Y-80000000D01*
X120000796Y-80024504D01*
X119997196Y-80048773D01*
X119991235Y-80072571D01*
X119982970Y-80095671D01*
X119972480Y-80117849D01*
X119959867Y-80138893D01*
X119945253Y-80158598D01*
X119928777Y-80176777D01*
X119910598Y-80193253D01*
X119890893Y-80207867D01*
X119869849Y-80220480D01*
X119847671Y-80230970D01*
X119824571Y-80239235D01*
X119800773Y-80245196D01*
X119776504Y-80248796D01*
X119752000Y-80250000D01*
X119002000Y-80250000D01*
X118977496Y-80248796D01*
X118953227Y-80245196D01*
X118929429Y-80239235D01*
X118906329Y-80230970D01*
X118884151Y-80220480D01*
X118863107Y-80207867D01*
X118843402Y-80193253D01*
X118825223Y-80176777D01*
X118808747Y-80158598D01*
X118794133Y-80138893D01*
X118781520Y-80117849D01*
X118771030Y-80095671D01*
X118762765Y-80072571D01*
X118756804Y-80048773D01*
X118753204Y-80024504D01*
X118752000Y-80000000D01*
X118752000Y-78750000D01*
X118753204Y-78725496D01*
X118756804Y-78701227D01*
X118762765Y-78677429D01*
X118771030Y-78654329D01*
X118781520Y-78632151D01*
X118794133Y-78611107D01*
X118808747Y-78591402D01*
X118825223Y-78573223D01*
X118843402Y-78556747D01*
X118863107Y-78542133D01*
X118884151Y-78529520D01*
X118906329Y-78519030D01*
X118929429Y-78510765D01*
X118953227Y-78504804D01*
X118977496Y-78501204D01*
X119002000Y-78500000D01*
X119752000Y-78500000D01*
X119776504Y-78501204D01*
X119776504Y-78501204D01*
G37*
D13*
X119377000Y-79375000D03*
D12*
G36*
X122576504Y-78501204D02*
X122600773Y-78504804D01*
X122624571Y-78510765D01*
X122647671Y-78519030D01*
X122669849Y-78529520D01*
X122690893Y-78542133D01*
X122710598Y-78556747D01*
X122728777Y-78573223D01*
X122745253Y-78591402D01*
X122759867Y-78611107D01*
X122772480Y-78632151D01*
X122782970Y-78654329D01*
X122791235Y-78677429D01*
X122797196Y-78701227D01*
X122800796Y-78725496D01*
X122802000Y-78750000D01*
X122802000Y-80000000D01*
X122800796Y-80024504D01*
X122797196Y-80048773D01*
X122791235Y-80072571D01*
X122782970Y-80095671D01*
X122772480Y-80117849D01*
X122759867Y-80138893D01*
X122745253Y-80158598D01*
X122728777Y-80176777D01*
X122710598Y-80193253D01*
X122690893Y-80207867D01*
X122669849Y-80220480D01*
X122647671Y-80230970D01*
X122624571Y-80239235D01*
X122600773Y-80245196D01*
X122576504Y-80248796D01*
X122552000Y-80250000D01*
X121802000Y-80250000D01*
X121777496Y-80248796D01*
X121753227Y-80245196D01*
X121729429Y-80239235D01*
X121706329Y-80230970D01*
X121684151Y-80220480D01*
X121663107Y-80207867D01*
X121643402Y-80193253D01*
X121625223Y-80176777D01*
X121608747Y-80158598D01*
X121594133Y-80138893D01*
X121581520Y-80117849D01*
X121571030Y-80095671D01*
X121562765Y-80072571D01*
X121556804Y-80048773D01*
X121553204Y-80024504D01*
X121552000Y-80000000D01*
X121552000Y-78750000D01*
X121553204Y-78725496D01*
X121556804Y-78701227D01*
X121562765Y-78677429D01*
X121571030Y-78654329D01*
X121581520Y-78632151D01*
X121594133Y-78611107D01*
X121608747Y-78591402D01*
X121625223Y-78573223D01*
X121643402Y-78556747D01*
X121663107Y-78542133D01*
X121684151Y-78529520D01*
X121706329Y-78519030D01*
X121729429Y-78510765D01*
X121753227Y-78504804D01*
X121777496Y-78501204D01*
X121802000Y-78500000D01*
X122552000Y-78500000D01*
X122576504Y-78501204D01*
X122576504Y-78501204D01*
G37*
D13*
X122177000Y-79375000D03*
G04 #@! TD*
D12*
G04 #@! TO.C,R8*
G36*
X111013504Y-133619204D02*
X111037773Y-133622804D01*
X111061571Y-133628765D01*
X111084671Y-133637030D01*
X111106849Y-133647520D01*
X111127893Y-133660133D01*
X111147598Y-133674747D01*
X111165777Y-133691223D01*
X111182253Y-133709402D01*
X111196867Y-133729107D01*
X111209480Y-133750151D01*
X111219970Y-133772329D01*
X111228235Y-133795429D01*
X111234196Y-133819227D01*
X111237796Y-133843496D01*
X111239000Y-133868000D01*
X111239000Y-135118000D01*
X111237796Y-135142504D01*
X111234196Y-135166773D01*
X111228235Y-135190571D01*
X111219970Y-135213671D01*
X111209480Y-135235849D01*
X111196867Y-135256893D01*
X111182253Y-135276598D01*
X111165777Y-135294777D01*
X111147598Y-135311253D01*
X111127893Y-135325867D01*
X111106849Y-135338480D01*
X111084671Y-135348970D01*
X111061571Y-135357235D01*
X111037773Y-135363196D01*
X111013504Y-135366796D01*
X110989000Y-135368000D01*
X110239000Y-135368000D01*
X110214496Y-135366796D01*
X110190227Y-135363196D01*
X110166429Y-135357235D01*
X110143329Y-135348970D01*
X110121151Y-135338480D01*
X110100107Y-135325867D01*
X110080402Y-135311253D01*
X110062223Y-135294777D01*
X110045747Y-135276598D01*
X110031133Y-135256893D01*
X110018520Y-135235849D01*
X110008030Y-135213671D01*
X109999765Y-135190571D01*
X109993804Y-135166773D01*
X109990204Y-135142504D01*
X109989000Y-135118000D01*
X109989000Y-133868000D01*
X109990204Y-133843496D01*
X109993804Y-133819227D01*
X109999765Y-133795429D01*
X110008030Y-133772329D01*
X110018520Y-133750151D01*
X110031133Y-133729107D01*
X110045747Y-133709402D01*
X110062223Y-133691223D01*
X110080402Y-133674747D01*
X110100107Y-133660133D01*
X110121151Y-133647520D01*
X110143329Y-133637030D01*
X110166429Y-133628765D01*
X110190227Y-133622804D01*
X110214496Y-133619204D01*
X110239000Y-133618000D01*
X110989000Y-133618000D01*
X111013504Y-133619204D01*
X111013504Y-133619204D01*
G37*
D13*
X110614000Y-134493000D03*
D12*
G36*
X113813504Y-133619204D02*
X113837773Y-133622804D01*
X113861571Y-133628765D01*
X113884671Y-133637030D01*
X113906849Y-133647520D01*
X113927893Y-133660133D01*
X113947598Y-133674747D01*
X113965777Y-133691223D01*
X113982253Y-133709402D01*
X113996867Y-133729107D01*
X114009480Y-133750151D01*
X114019970Y-133772329D01*
X114028235Y-133795429D01*
X114034196Y-133819227D01*
X114037796Y-133843496D01*
X114039000Y-133868000D01*
X114039000Y-135118000D01*
X114037796Y-135142504D01*
X114034196Y-135166773D01*
X114028235Y-135190571D01*
X114019970Y-135213671D01*
X114009480Y-135235849D01*
X113996867Y-135256893D01*
X113982253Y-135276598D01*
X113965777Y-135294777D01*
X113947598Y-135311253D01*
X113927893Y-135325867D01*
X113906849Y-135338480D01*
X113884671Y-135348970D01*
X113861571Y-135357235D01*
X113837773Y-135363196D01*
X113813504Y-135366796D01*
X113789000Y-135368000D01*
X113039000Y-135368000D01*
X113014496Y-135366796D01*
X112990227Y-135363196D01*
X112966429Y-135357235D01*
X112943329Y-135348970D01*
X112921151Y-135338480D01*
X112900107Y-135325867D01*
X112880402Y-135311253D01*
X112862223Y-135294777D01*
X112845747Y-135276598D01*
X112831133Y-135256893D01*
X112818520Y-135235849D01*
X112808030Y-135213671D01*
X112799765Y-135190571D01*
X112793804Y-135166773D01*
X112790204Y-135142504D01*
X112789000Y-135118000D01*
X112789000Y-133868000D01*
X112790204Y-133843496D01*
X112793804Y-133819227D01*
X112799765Y-133795429D01*
X112808030Y-133772329D01*
X112818520Y-133750151D01*
X112831133Y-133729107D01*
X112845747Y-133709402D01*
X112862223Y-133691223D01*
X112880402Y-133674747D01*
X112900107Y-133660133D01*
X112921151Y-133647520D01*
X112943329Y-133637030D01*
X112966429Y-133628765D01*
X112990227Y-133622804D01*
X113014496Y-133619204D01*
X113039000Y-133618000D01*
X113789000Y-133618000D01*
X113813504Y-133619204D01*
X113813504Y-133619204D01*
G37*
D13*
X113414000Y-134493000D03*
G04 #@! TD*
D12*
G04 #@! TO.C,R9*
G36*
X124982504Y-136025204D02*
X125006773Y-136028804D01*
X125030571Y-136034765D01*
X125053671Y-136043030D01*
X125075849Y-136053520D01*
X125096893Y-136066133D01*
X125116598Y-136080747D01*
X125134777Y-136097223D01*
X125151253Y-136115402D01*
X125165867Y-136135107D01*
X125178480Y-136156151D01*
X125188970Y-136178329D01*
X125197235Y-136201429D01*
X125203196Y-136225227D01*
X125206796Y-136249496D01*
X125208000Y-136274000D01*
X125208000Y-137024000D01*
X125206796Y-137048504D01*
X125203196Y-137072773D01*
X125197235Y-137096571D01*
X125188970Y-137119671D01*
X125178480Y-137141849D01*
X125165867Y-137162893D01*
X125151253Y-137182598D01*
X125134777Y-137200777D01*
X125116598Y-137217253D01*
X125096893Y-137231867D01*
X125075849Y-137244480D01*
X125053671Y-137254970D01*
X125030571Y-137263235D01*
X125006773Y-137269196D01*
X124982504Y-137272796D01*
X124958000Y-137274000D01*
X123708000Y-137274000D01*
X123683496Y-137272796D01*
X123659227Y-137269196D01*
X123635429Y-137263235D01*
X123612329Y-137254970D01*
X123590151Y-137244480D01*
X123569107Y-137231867D01*
X123549402Y-137217253D01*
X123531223Y-137200777D01*
X123514747Y-137182598D01*
X123500133Y-137162893D01*
X123487520Y-137141849D01*
X123477030Y-137119671D01*
X123468765Y-137096571D01*
X123462804Y-137072773D01*
X123459204Y-137048504D01*
X123458000Y-137024000D01*
X123458000Y-136274000D01*
X123459204Y-136249496D01*
X123462804Y-136225227D01*
X123468765Y-136201429D01*
X123477030Y-136178329D01*
X123487520Y-136156151D01*
X123500133Y-136135107D01*
X123514747Y-136115402D01*
X123531223Y-136097223D01*
X123549402Y-136080747D01*
X123569107Y-136066133D01*
X123590151Y-136053520D01*
X123612329Y-136043030D01*
X123635429Y-136034765D01*
X123659227Y-136028804D01*
X123683496Y-136025204D01*
X123708000Y-136024000D01*
X124958000Y-136024000D01*
X124982504Y-136025204D01*
X124982504Y-136025204D01*
G37*
D13*
X124333000Y-136649000D03*
D12*
G36*
X124982504Y-138825204D02*
X125006773Y-138828804D01*
X125030571Y-138834765D01*
X125053671Y-138843030D01*
X125075849Y-138853520D01*
X125096893Y-138866133D01*
X125116598Y-138880747D01*
X125134777Y-138897223D01*
X125151253Y-138915402D01*
X125165867Y-138935107D01*
X125178480Y-138956151D01*
X125188970Y-138978329D01*
X125197235Y-139001429D01*
X125203196Y-139025227D01*
X125206796Y-139049496D01*
X125208000Y-139074000D01*
X125208000Y-139824000D01*
X125206796Y-139848504D01*
X125203196Y-139872773D01*
X125197235Y-139896571D01*
X125188970Y-139919671D01*
X125178480Y-139941849D01*
X125165867Y-139962893D01*
X125151253Y-139982598D01*
X125134777Y-140000777D01*
X125116598Y-140017253D01*
X125096893Y-140031867D01*
X125075849Y-140044480D01*
X125053671Y-140054970D01*
X125030571Y-140063235D01*
X125006773Y-140069196D01*
X124982504Y-140072796D01*
X124958000Y-140074000D01*
X123708000Y-140074000D01*
X123683496Y-140072796D01*
X123659227Y-140069196D01*
X123635429Y-140063235D01*
X123612329Y-140054970D01*
X123590151Y-140044480D01*
X123569107Y-140031867D01*
X123549402Y-140017253D01*
X123531223Y-140000777D01*
X123514747Y-139982598D01*
X123500133Y-139962893D01*
X123487520Y-139941849D01*
X123477030Y-139919671D01*
X123468765Y-139896571D01*
X123462804Y-139872773D01*
X123459204Y-139848504D01*
X123458000Y-139824000D01*
X123458000Y-139074000D01*
X123459204Y-139049496D01*
X123462804Y-139025227D01*
X123468765Y-139001429D01*
X123477030Y-138978329D01*
X123487520Y-138956151D01*
X123500133Y-138935107D01*
X123514747Y-138915402D01*
X123531223Y-138897223D01*
X123549402Y-138880747D01*
X123569107Y-138866133D01*
X123590151Y-138853520D01*
X123612329Y-138843030D01*
X123635429Y-138834765D01*
X123659227Y-138828804D01*
X123683496Y-138825204D01*
X123708000Y-138824000D01*
X124958000Y-138824000D01*
X124982504Y-138825204D01*
X124982504Y-138825204D01*
G37*
D13*
X124333000Y-139449000D03*
G04 #@! TD*
D12*
G04 #@! TO.C,R10*
G36*
X96415808Y-110008078D02*
X96440077Y-110011678D01*
X96463875Y-110017639D01*
X96486975Y-110025904D01*
X96509153Y-110036394D01*
X96530197Y-110049007D01*
X96549902Y-110063621D01*
X96568081Y-110080097D01*
X96584557Y-110098276D01*
X96599171Y-110117981D01*
X96611784Y-110139025D01*
X96622274Y-110161203D01*
X96630539Y-110184303D01*
X96636500Y-110208101D01*
X96640100Y-110232370D01*
X96641304Y-110256874D01*
X96641304Y-111506874D01*
X96640100Y-111531378D01*
X96636500Y-111555647D01*
X96630539Y-111579445D01*
X96622274Y-111602545D01*
X96611784Y-111624723D01*
X96599171Y-111645767D01*
X96584557Y-111665472D01*
X96568081Y-111683651D01*
X96549902Y-111700127D01*
X96530197Y-111714741D01*
X96509153Y-111727354D01*
X96486975Y-111737844D01*
X96463875Y-111746109D01*
X96440077Y-111752070D01*
X96415808Y-111755670D01*
X96391304Y-111756874D01*
X95641304Y-111756874D01*
X95616800Y-111755670D01*
X95592531Y-111752070D01*
X95568733Y-111746109D01*
X95545633Y-111737844D01*
X95523455Y-111727354D01*
X95502411Y-111714741D01*
X95482706Y-111700127D01*
X95464527Y-111683651D01*
X95448051Y-111665472D01*
X95433437Y-111645767D01*
X95420824Y-111624723D01*
X95410334Y-111602545D01*
X95402069Y-111579445D01*
X95396108Y-111555647D01*
X95392508Y-111531378D01*
X95391304Y-111506874D01*
X95391304Y-110256874D01*
X95392508Y-110232370D01*
X95396108Y-110208101D01*
X95402069Y-110184303D01*
X95410334Y-110161203D01*
X95420824Y-110139025D01*
X95433437Y-110117981D01*
X95448051Y-110098276D01*
X95464527Y-110080097D01*
X95482706Y-110063621D01*
X95502411Y-110049007D01*
X95523455Y-110036394D01*
X95545633Y-110025904D01*
X95568733Y-110017639D01*
X95592531Y-110011678D01*
X95616800Y-110008078D01*
X95641304Y-110006874D01*
X96391304Y-110006874D01*
X96415808Y-110008078D01*
X96415808Y-110008078D01*
G37*
D13*
X96016304Y-110881874D03*
D12*
G36*
X99215808Y-110008078D02*
X99240077Y-110011678D01*
X99263875Y-110017639D01*
X99286975Y-110025904D01*
X99309153Y-110036394D01*
X99330197Y-110049007D01*
X99349902Y-110063621D01*
X99368081Y-110080097D01*
X99384557Y-110098276D01*
X99399171Y-110117981D01*
X99411784Y-110139025D01*
X99422274Y-110161203D01*
X99430539Y-110184303D01*
X99436500Y-110208101D01*
X99440100Y-110232370D01*
X99441304Y-110256874D01*
X99441304Y-111506874D01*
X99440100Y-111531378D01*
X99436500Y-111555647D01*
X99430539Y-111579445D01*
X99422274Y-111602545D01*
X99411784Y-111624723D01*
X99399171Y-111645767D01*
X99384557Y-111665472D01*
X99368081Y-111683651D01*
X99349902Y-111700127D01*
X99330197Y-111714741D01*
X99309153Y-111727354D01*
X99286975Y-111737844D01*
X99263875Y-111746109D01*
X99240077Y-111752070D01*
X99215808Y-111755670D01*
X99191304Y-111756874D01*
X98441304Y-111756874D01*
X98416800Y-111755670D01*
X98392531Y-111752070D01*
X98368733Y-111746109D01*
X98345633Y-111737844D01*
X98323455Y-111727354D01*
X98302411Y-111714741D01*
X98282706Y-111700127D01*
X98264527Y-111683651D01*
X98248051Y-111665472D01*
X98233437Y-111645767D01*
X98220824Y-111624723D01*
X98210334Y-111602545D01*
X98202069Y-111579445D01*
X98196108Y-111555647D01*
X98192508Y-111531378D01*
X98191304Y-111506874D01*
X98191304Y-110256874D01*
X98192508Y-110232370D01*
X98196108Y-110208101D01*
X98202069Y-110184303D01*
X98210334Y-110161203D01*
X98220824Y-110139025D01*
X98233437Y-110117981D01*
X98248051Y-110098276D01*
X98264527Y-110080097D01*
X98282706Y-110063621D01*
X98302411Y-110049007D01*
X98323455Y-110036394D01*
X98345633Y-110025904D01*
X98368733Y-110017639D01*
X98392531Y-110011678D01*
X98416800Y-110008078D01*
X98441304Y-110006874D01*
X99191304Y-110006874D01*
X99215808Y-110008078D01*
X99215808Y-110008078D01*
G37*
D13*
X98816304Y-110881874D03*
G04 #@! TD*
D12*
G04 #@! TO.C,R11*
G36*
X86247504Y-111514204D02*
X86271773Y-111517804D01*
X86295571Y-111523765D01*
X86318671Y-111532030D01*
X86340849Y-111542520D01*
X86361893Y-111555133D01*
X86381598Y-111569747D01*
X86399777Y-111586223D01*
X86416253Y-111604402D01*
X86430867Y-111624107D01*
X86443480Y-111645151D01*
X86453970Y-111667329D01*
X86462235Y-111690429D01*
X86468196Y-111714227D01*
X86471796Y-111738496D01*
X86473000Y-111763000D01*
X86473000Y-112513000D01*
X86471796Y-112537504D01*
X86468196Y-112561773D01*
X86462235Y-112585571D01*
X86453970Y-112608671D01*
X86443480Y-112630849D01*
X86430867Y-112651893D01*
X86416253Y-112671598D01*
X86399777Y-112689777D01*
X86381598Y-112706253D01*
X86361893Y-112720867D01*
X86340849Y-112733480D01*
X86318671Y-112743970D01*
X86295571Y-112752235D01*
X86271773Y-112758196D01*
X86247504Y-112761796D01*
X86223000Y-112763000D01*
X84973000Y-112763000D01*
X84948496Y-112761796D01*
X84924227Y-112758196D01*
X84900429Y-112752235D01*
X84877329Y-112743970D01*
X84855151Y-112733480D01*
X84834107Y-112720867D01*
X84814402Y-112706253D01*
X84796223Y-112689777D01*
X84779747Y-112671598D01*
X84765133Y-112651893D01*
X84752520Y-112630849D01*
X84742030Y-112608671D01*
X84733765Y-112585571D01*
X84727804Y-112561773D01*
X84724204Y-112537504D01*
X84723000Y-112513000D01*
X84723000Y-111763000D01*
X84724204Y-111738496D01*
X84727804Y-111714227D01*
X84733765Y-111690429D01*
X84742030Y-111667329D01*
X84752520Y-111645151D01*
X84765133Y-111624107D01*
X84779747Y-111604402D01*
X84796223Y-111586223D01*
X84814402Y-111569747D01*
X84834107Y-111555133D01*
X84855151Y-111542520D01*
X84877329Y-111532030D01*
X84900429Y-111523765D01*
X84924227Y-111517804D01*
X84948496Y-111514204D01*
X84973000Y-111513000D01*
X86223000Y-111513000D01*
X86247504Y-111514204D01*
X86247504Y-111514204D01*
G37*
D13*
X85598000Y-112138000D03*
D12*
G36*
X86247504Y-114314204D02*
X86271773Y-114317804D01*
X86295571Y-114323765D01*
X86318671Y-114332030D01*
X86340849Y-114342520D01*
X86361893Y-114355133D01*
X86381598Y-114369747D01*
X86399777Y-114386223D01*
X86416253Y-114404402D01*
X86430867Y-114424107D01*
X86443480Y-114445151D01*
X86453970Y-114467329D01*
X86462235Y-114490429D01*
X86468196Y-114514227D01*
X86471796Y-114538496D01*
X86473000Y-114563000D01*
X86473000Y-115313000D01*
X86471796Y-115337504D01*
X86468196Y-115361773D01*
X86462235Y-115385571D01*
X86453970Y-115408671D01*
X86443480Y-115430849D01*
X86430867Y-115451893D01*
X86416253Y-115471598D01*
X86399777Y-115489777D01*
X86381598Y-115506253D01*
X86361893Y-115520867D01*
X86340849Y-115533480D01*
X86318671Y-115543970D01*
X86295571Y-115552235D01*
X86271773Y-115558196D01*
X86247504Y-115561796D01*
X86223000Y-115563000D01*
X84973000Y-115563000D01*
X84948496Y-115561796D01*
X84924227Y-115558196D01*
X84900429Y-115552235D01*
X84877329Y-115543970D01*
X84855151Y-115533480D01*
X84834107Y-115520867D01*
X84814402Y-115506253D01*
X84796223Y-115489777D01*
X84779747Y-115471598D01*
X84765133Y-115451893D01*
X84752520Y-115430849D01*
X84742030Y-115408671D01*
X84733765Y-115385571D01*
X84727804Y-115361773D01*
X84724204Y-115337504D01*
X84723000Y-115313000D01*
X84723000Y-114563000D01*
X84724204Y-114538496D01*
X84727804Y-114514227D01*
X84733765Y-114490429D01*
X84742030Y-114467329D01*
X84752520Y-114445151D01*
X84765133Y-114424107D01*
X84779747Y-114404402D01*
X84796223Y-114386223D01*
X84814402Y-114369747D01*
X84834107Y-114355133D01*
X84855151Y-114342520D01*
X84877329Y-114332030D01*
X84900429Y-114323765D01*
X84924227Y-114317804D01*
X84948496Y-114314204D01*
X84973000Y-114313000D01*
X86223000Y-114313000D01*
X86247504Y-114314204D01*
X86247504Y-114314204D01*
G37*
D13*
X85598000Y-114938000D03*
G04 #@! TD*
D12*
G04 #@! TO.C,R12*
G36*
X115464504Y-114950204D02*
X115488773Y-114953804D01*
X115512571Y-114959765D01*
X115535671Y-114968030D01*
X115557849Y-114978520D01*
X115578893Y-114991133D01*
X115598598Y-115005747D01*
X115616777Y-115022223D01*
X115633253Y-115040402D01*
X115647867Y-115060107D01*
X115660480Y-115081151D01*
X115670970Y-115103329D01*
X115679235Y-115126429D01*
X115685196Y-115150227D01*
X115688796Y-115174496D01*
X115690000Y-115199000D01*
X115690000Y-116449000D01*
X115688796Y-116473504D01*
X115685196Y-116497773D01*
X115679235Y-116521571D01*
X115670970Y-116544671D01*
X115660480Y-116566849D01*
X115647867Y-116587893D01*
X115633253Y-116607598D01*
X115616777Y-116625777D01*
X115598598Y-116642253D01*
X115578893Y-116656867D01*
X115557849Y-116669480D01*
X115535671Y-116679970D01*
X115512571Y-116688235D01*
X115488773Y-116694196D01*
X115464504Y-116697796D01*
X115440000Y-116699000D01*
X114690000Y-116699000D01*
X114665496Y-116697796D01*
X114641227Y-116694196D01*
X114617429Y-116688235D01*
X114594329Y-116679970D01*
X114572151Y-116669480D01*
X114551107Y-116656867D01*
X114531402Y-116642253D01*
X114513223Y-116625777D01*
X114496747Y-116607598D01*
X114482133Y-116587893D01*
X114469520Y-116566849D01*
X114459030Y-116544671D01*
X114450765Y-116521571D01*
X114444804Y-116497773D01*
X114441204Y-116473504D01*
X114440000Y-116449000D01*
X114440000Y-115199000D01*
X114441204Y-115174496D01*
X114444804Y-115150227D01*
X114450765Y-115126429D01*
X114459030Y-115103329D01*
X114469520Y-115081151D01*
X114482133Y-115060107D01*
X114496747Y-115040402D01*
X114513223Y-115022223D01*
X114531402Y-115005747D01*
X114551107Y-114991133D01*
X114572151Y-114978520D01*
X114594329Y-114968030D01*
X114617429Y-114959765D01*
X114641227Y-114953804D01*
X114665496Y-114950204D01*
X114690000Y-114949000D01*
X115440000Y-114949000D01*
X115464504Y-114950204D01*
X115464504Y-114950204D01*
G37*
D13*
X115065000Y-115824000D03*
D12*
G36*
X112664504Y-114950204D02*
X112688773Y-114953804D01*
X112712571Y-114959765D01*
X112735671Y-114968030D01*
X112757849Y-114978520D01*
X112778893Y-114991133D01*
X112798598Y-115005747D01*
X112816777Y-115022223D01*
X112833253Y-115040402D01*
X112847867Y-115060107D01*
X112860480Y-115081151D01*
X112870970Y-115103329D01*
X112879235Y-115126429D01*
X112885196Y-115150227D01*
X112888796Y-115174496D01*
X112890000Y-115199000D01*
X112890000Y-116449000D01*
X112888796Y-116473504D01*
X112885196Y-116497773D01*
X112879235Y-116521571D01*
X112870970Y-116544671D01*
X112860480Y-116566849D01*
X112847867Y-116587893D01*
X112833253Y-116607598D01*
X112816777Y-116625777D01*
X112798598Y-116642253D01*
X112778893Y-116656867D01*
X112757849Y-116669480D01*
X112735671Y-116679970D01*
X112712571Y-116688235D01*
X112688773Y-116694196D01*
X112664504Y-116697796D01*
X112640000Y-116699000D01*
X111890000Y-116699000D01*
X111865496Y-116697796D01*
X111841227Y-116694196D01*
X111817429Y-116688235D01*
X111794329Y-116679970D01*
X111772151Y-116669480D01*
X111751107Y-116656867D01*
X111731402Y-116642253D01*
X111713223Y-116625777D01*
X111696747Y-116607598D01*
X111682133Y-116587893D01*
X111669520Y-116566849D01*
X111659030Y-116544671D01*
X111650765Y-116521571D01*
X111644804Y-116497773D01*
X111641204Y-116473504D01*
X111640000Y-116449000D01*
X111640000Y-115199000D01*
X111641204Y-115174496D01*
X111644804Y-115150227D01*
X111650765Y-115126429D01*
X111659030Y-115103329D01*
X111669520Y-115081151D01*
X111682133Y-115060107D01*
X111696747Y-115040402D01*
X111713223Y-115022223D01*
X111731402Y-115005747D01*
X111751107Y-114991133D01*
X111772151Y-114978520D01*
X111794329Y-114968030D01*
X111817429Y-114959765D01*
X111841227Y-114953804D01*
X111865496Y-114950204D01*
X111890000Y-114949000D01*
X112640000Y-114949000D01*
X112664504Y-114950204D01*
X112664504Y-114950204D01*
G37*
D13*
X112265000Y-115824000D03*
G04 #@! TD*
D12*
G04 #@! TO.C,R16*
G36*
X117489504Y-79770204D02*
X117513773Y-79773804D01*
X117537571Y-79779765D01*
X117560671Y-79788030D01*
X117582849Y-79798520D01*
X117603893Y-79811133D01*
X117623598Y-79825747D01*
X117641777Y-79842223D01*
X117658253Y-79860402D01*
X117672867Y-79880107D01*
X117685480Y-79901151D01*
X117695970Y-79923329D01*
X117704235Y-79946429D01*
X117710196Y-79970227D01*
X117713796Y-79994496D01*
X117715000Y-80019000D01*
X117715000Y-80769000D01*
X117713796Y-80793504D01*
X117710196Y-80817773D01*
X117704235Y-80841571D01*
X117695970Y-80864671D01*
X117685480Y-80886849D01*
X117672867Y-80907893D01*
X117658253Y-80927598D01*
X117641777Y-80945777D01*
X117623598Y-80962253D01*
X117603893Y-80976867D01*
X117582849Y-80989480D01*
X117560671Y-80999970D01*
X117537571Y-81008235D01*
X117513773Y-81014196D01*
X117489504Y-81017796D01*
X117465000Y-81019000D01*
X116215000Y-81019000D01*
X116190496Y-81017796D01*
X116166227Y-81014196D01*
X116142429Y-81008235D01*
X116119329Y-80999970D01*
X116097151Y-80989480D01*
X116076107Y-80976867D01*
X116056402Y-80962253D01*
X116038223Y-80945777D01*
X116021747Y-80927598D01*
X116007133Y-80907893D01*
X115994520Y-80886849D01*
X115984030Y-80864671D01*
X115975765Y-80841571D01*
X115969804Y-80817773D01*
X115966204Y-80793504D01*
X115965000Y-80769000D01*
X115965000Y-80019000D01*
X115966204Y-79994496D01*
X115969804Y-79970227D01*
X115975765Y-79946429D01*
X115984030Y-79923329D01*
X115994520Y-79901151D01*
X116007133Y-79880107D01*
X116021747Y-79860402D01*
X116038223Y-79842223D01*
X116056402Y-79825747D01*
X116076107Y-79811133D01*
X116097151Y-79798520D01*
X116119329Y-79788030D01*
X116142429Y-79779765D01*
X116166227Y-79773804D01*
X116190496Y-79770204D01*
X116215000Y-79769000D01*
X117465000Y-79769000D01*
X117489504Y-79770204D01*
X117489504Y-79770204D01*
G37*
D13*
X116840000Y-80394000D03*
D12*
G36*
X117489504Y-76970204D02*
X117513773Y-76973804D01*
X117537571Y-76979765D01*
X117560671Y-76988030D01*
X117582849Y-76998520D01*
X117603893Y-77011133D01*
X117623598Y-77025747D01*
X117641777Y-77042223D01*
X117658253Y-77060402D01*
X117672867Y-77080107D01*
X117685480Y-77101151D01*
X117695970Y-77123329D01*
X117704235Y-77146429D01*
X117710196Y-77170227D01*
X117713796Y-77194496D01*
X117715000Y-77219000D01*
X117715000Y-77969000D01*
X117713796Y-77993504D01*
X117710196Y-78017773D01*
X117704235Y-78041571D01*
X117695970Y-78064671D01*
X117685480Y-78086849D01*
X117672867Y-78107893D01*
X117658253Y-78127598D01*
X117641777Y-78145777D01*
X117623598Y-78162253D01*
X117603893Y-78176867D01*
X117582849Y-78189480D01*
X117560671Y-78199970D01*
X117537571Y-78208235D01*
X117513773Y-78214196D01*
X117489504Y-78217796D01*
X117465000Y-78219000D01*
X116215000Y-78219000D01*
X116190496Y-78217796D01*
X116166227Y-78214196D01*
X116142429Y-78208235D01*
X116119329Y-78199970D01*
X116097151Y-78189480D01*
X116076107Y-78176867D01*
X116056402Y-78162253D01*
X116038223Y-78145777D01*
X116021747Y-78127598D01*
X116007133Y-78107893D01*
X115994520Y-78086849D01*
X115984030Y-78064671D01*
X115975765Y-78041571D01*
X115969804Y-78017773D01*
X115966204Y-77993504D01*
X115965000Y-77969000D01*
X115965000Y-77219000D01*
X115966204Y-77194496D01*
X115969804Y-77170227D01*
X115975765Y-77146429D01*
X115984030Y-77123329D01*
X115994520Y-77101151D01*
X116007133Y-77080107D01*
X116021747Y-77060402D01*
X116038223Y-77042223D01*
X116056402Y-77025747D01*
X116076107Y-77011133D01*
X116097151Y-76998520D01*
X116119329Y-76988030D01*
X116142429Y-76979765D01*
X116166227Y-76973804D01*
X116190496Y-76970204D01*
X116215000Y-76969000D01*
X117465000Y-76969000D01*
X117489504Y-76970204D01*
X117489504Y-76970204D01*
G37*
D13*
X116840000Y-77594000D03*
G04 #@! TD*
D12*
G04 #@! TO.C,R17*
G36*
X113298504Y-95010204D02*
X113322773Y-95013804D01*
X113346571Y-95019765D01*
X113369671Y-95028030D01*
X113391849Y-95038520D01*
X113412893Y-95051133D01*
X113432598Y-95065747D01*
X113450777Y-95082223D01*
X113467253Y-95100402D01*
X113481867Y-95120107D01*
X113494480Y-95141151D01*
X113504970Y-95163329D01*
X113513235Y-95186429D01*
X113519196Y-95210227D01*
X113522796Y-95234496D01*
X113524000Y-95259000D01*
X113524000Y-96009000D01*
X113522796Y-96033504D01*
X113519196Y-96057773D01*
X113513235Y-96081571D01*
X113504970Y-96104671D01*
X113494480Y-96126849D01*
X113481867Y-96147893D01*
X113467253Y-96167598D01*
X113450777Y-96185777D01*
X113432598Y-96202253D01*
X113412893Y-96216867D01*
X113391849Y-96229480D01*
X113369671Y-96239970D01*
X113346571Y-96248235D01*
X113322773Y-96254196D01*
X113298504Y-96257796D01*
X113274000Y-96259000D01*
X112024000Y-96259000D01*
X111999496Y-96257796D01*
X111975227Y-96254196D01*
X111951429Y-96248235D01*
X111928329Y-96239970D01*
X111906151Y-96229480D01*
X111885107Y-96216867D01*
X111865402Y-96202253D01*
X111847223Y-96185777D01*
X111830747Y-96167598D01*
X111816133Y-96147893D01*
X111803520Y-96126849D01*
X111793030Y-96104671D01*
X111784765Y-96081571D01*
X111778804Y-96057773D01*
X111775204Y-96033504D01*
X111774000Y-96009000D01*
X111774000Y-95259000D01*
X111775204Y-95234496D01*
X111778804Y-95210227D01*
X111784765Y-95186429D01*
X111793030Y-95163329D01*
X111803520Y-95141151D01*
X111816133Y-95120107D01*
X111830747Y-95100402D01*
X111847223Y-95082223D01*
X111865402Y-95065747D01*
X111885107Y-95051133D01*
X111906151Y-95038520D01*
X111928329Y-95028030D01*
X111951429Y-95019765D01*
X111975227Y-95013804D01*
X111999496Y-95010204D01*
X112024000Y-95009000D01*
X113274000Y-95009000D01*
X113298504Y-95010204D01*
X113298504Y-95010204D01*
G37*
D13*
X112649000Y-95634000D03*
D12*
G36*
X113298504Y-92210204D02*
X113322773Y-92213804D01*
X113346571Y-92219765D01*
X113369671Y-92228030D01*
X113391849Y-92238520D01*
X113412893Y-92251133D01*
X113432598Y-92265747D01*
X113450777Y-92282223D01*
X113467253Y-92300402D01*
X113481867Y-92320107D01*
X113494480Y-92341151D01*
X113504970Y-92363329D01*
X113513235Y-92386429D01*
X113519196Y-92410227D01*
X113522796Y-92434496D01*
X113524000Y-92459000D01*
X113524000Y-93209000D01*
X113522796Y-93233504D01*
X113519196Y-93257773D01*
X113513235Y-93281571D01*
X113504970Y-93304671D01*
X113494480Y-93326849D01*
X113481867Y-93347893D01*
X113467253Y-93367598D01*
X113450777Y-93385777D01*
X113432598Y-93402253D01*
X113412893Y-93416867D01*
X113391849Y-93429480D01*
X113369671Y-93439970D01*
X113346571Y-93448235D01*
X113322773Y-93454196D01*
X113298504Y-93457796D01*
X113274000Y-93459000D01*
X112024000Y-93459000D01*
X111999496Y-93457796D01*
X111975227Y-93454196D01*
X111951429Y-93448235D01*
X111928329Y-93439970D01*
X111906151Y-93429480D01*
X111885107Y-93416867D01*
X111865402Y-93402253D01*
X111847223Y-93385777D01*
X111830747Y-93367598D01*
X111816133Y-93347893D01*
X111803520Y-93326849D01*
X111793030Y-93304671D01*
X111784765Y-93281571D01*
X111778804Y-93257773D01*
X111775204Y-93233504D01*
X111774000Y-93209000D01*
X111774000Y-92459000D01*
X111775204Y-92434496D01*
X111778804Y-92410227D01*
X111784765Y-92386429D01*
X111793030Y-92363329D01*
X111803520Y-92341151D01*
X111816133Y-92320107D01*
X111830747Y-92300402D01*
X111847223Y-92282223D01*
X111865402Y-92265747D01*
X111885107Y-92251133D01*
X111906151Y-92238520D01*
X111928329Y-92228030D01*
X111951429Y-92219765D01*
X111975227Y-92213804D01*
X111999496Y-92210204D01*
X112024000Y-92209000D01*
X113274000Y-92209000D01*
X113298504Y-92210204D01*
X113298504Y-92210204D01*
G37*
D13*
X112649000Y-92834000D03*
G04 #@! TD*
D20*
G04 #@! TO.C,U1*
X86817200Y-97256600D03*
X86817200Y-99568000D03*
X86817200Y-101879400D03*
D21*
X93015000Y-99568000D03*
G04 #@! TD*
D22*
G04 #@! TO.C,U2*
X116019000Y-87624000D03*
X116019000Y-88424000D03*
X116019000Y-89224000D03*
X116019000Y-90024000D03*
X116019000Y-90824000D03*
X116019000Y-91624000D03*
X116019000Y-92424000D03*
X116019000Y-93224000D03*
D23*
X117469000Y-94674000D03*
X118269000Y-94674000D03*
X119069000Y-94674000D03*
X119869000Y-94674000D03*
X120669000Y-94674000D03*
X121469000Y-94674000D03*
X122269000Y-94674000D03*
X123069000Y-94674000D03*
D22*
X124519000Y-93224000D03*
X124519000Y-92424000D03*
X124519000Y-91624000D03*
X124519000Y-90824000D03*
X124519000Y-90024000D03*
X124519000Y-89224000D03*
X124519000Y-88424000D03*
X124519000Y-87624000D03*
D23*
X123069000Y-86174000D03*
X122269000Y-86174000D03*
X121469000Y-86174000D03*
X120669000Y-86174000D03*
X119869000Y-86174000D03*
X119069000Y-86174000D03*
X118269000Y-86174000D03*
X117469000Y-86174000D03*
G04 #@! TD*
D24*
G04 #@! TO.C,U3*
X97252000Y-98618000D03*
X97252000Y-99568000D03*
X97252000Y-100518000D03*
X99852000Y-100518000D03*
X99852000Y-98618000D03*
G04 #@! TD*
D25*
G04 #@! TO.C,Y1*
X107823000Y-83888000D03*
X107823000Y-92388000D03*
G04 #@! TD*
M02*
