G04 #@! TF.GenerationSoftware,KiCad,Pcbnew,(5.0.1)-3*
G04 #@! TF.CreationDate,2019-03-11T17:07:33+01:00*
G04 #@! TF.ProjectId,Arduino_Uno_R3_From_Scratch,41726475696E6F5F556E6F5F52335F46,rev?*
G04 #@! TF.SameCoordinates,Original*
G04 #@! TF.FileFunction,Soldermask,Bot*
G04 #@! TF.FilePolarity,Negative*
%FSLAX46Y46*%
G04 Gerber Fmt 4.6, Leading zero omitted, Abs format (unit mm)*
G04 Created by KiCad (PCBNEW (5.0.1)-3) date 11/03/2019 17:07:33*
%MOMM*%
%LPD*%
G01*
G04 APERTURE LIST*
%ADD10C,0.100000*%
G04 APERTURE END LIST*
D10*
G36*
X118784630Y-145339299D02*
X118944855Y-145387903D01*
X119092520Y-145466831D01*
X119221949Y-145573051D01*
X119328169Y-145702480D01*
X119407097Y-145850145D01*
X119455701Y-146010370D01*
X119472112Y-146177000D01*
X119455701Y-146343630D01*
X119407097Y-146503855D01*
X119328169Y-146651520D01*
X119221949Y-146780949D01*
X119092520Y-146887169D01*
X118944855Y-146966097D01*
X118784630Y-147014701D01*
X118659752Y-147027000D01*
X118576248Y-147027000D01*
X118451370Y-147014701D01*
X118291145Y-146966097D01*
X118143480Y-146887169D01*
X118014051Y-146780949D01*
X117907831Y-146651520D01*
X117828903Y-146503855D01*
X117780299Y-146343630D01*
X117763888Y-146177000D01*
X117780299Y-146010370D01*
X117828903Y-145850145D01*
X117907831Y-145702480D01*
X118014051Y-145573051D01*
X118143480Y-145466831D01*
X118291145Y-145387903D01*
X118451370Y-145339299D01*
X118576248Y-145327000D01*
X118659752Y-145327000D01*
X118784630Y-145339299D01*
X118784630Y-145339299D01*
G37*
G36*
X116244630Y-145339299D02*
X116404855Y-145387903D01*
X116552520Y-145466831D01*
X116681949Y-145573051D01*
X116788169Y-145702480D01*
X116867097Y-145850145D01*
X116915701Y-146010370D01*
X116932112Y-146177000D01*
X116915701Y-146343630D01*
X116867097Y-146503855D01*
X116788169Y-146651520D01*
X116681949Y-146780949D01*
X116552520Y-146887169D01*
X116404855Y-146966097D01*
X116244630Y-147014701D01*
X116119752Y-147027000D01*
X116036248Y-147027000D01*
X115911370Y-147014701D01*
X115751145Y-146966097D01*
X115603480Y-146887169D01*
X115474051Y-146780949D01*
X115367831Y-146651520D01*
X115288903Y-146503855D01*
X115240299Y-146343630D01*
X115223888Y-146177000D01*
X115240299Y-146010370D01*
X115288903Y-145850145D01*
X115367831Y-145702480D01*
X115474051Y-145573051D01*
X115603480Y-145466831D01*
X115751145Y-145387903D01*
X115911370Y-145339299D01*
X116036248Y-145327000D01*
X116119752Y-145327000D01*
X116244630Y-145339299D01*
X116244630Y-145339299D01*
G37*
G36*
X113704630Y-145339299D02*
X113864855Y-145387903D01*
X114012520Y-145466831D01*
X114141949Y-145573051D01*
X114248169Y-145702480D01*
X114327097Y-145850145D01*
X114375701Y-146010370D01*
X114392112Y-146177000D01*
X114375701Y-146343630D01*
X114327097Y-146503855D01*
X114248169Y-146651520D01*
X114141949Y-146780949D01*
X114012520Y-146887169D01*
X113864855Y-146966097D01*
X113704630Y-147014701D01*
X113579752Y-147027000D01*
X113496248Y-147027000D01*
X113371370Y-147014701D01*
X113211145Y-146966097D01*
X113063480Y-146887169D01*
X112934051Y-146780949D01*
X112827831Y-146651520D01*
X112748903Y-146503855D01*
X112700299Y-146343630D01*
X112683888Y-146177000D01*
X112700299Y-146010370D01*
X112748903Y-145850145D01*
X112827831Y-145702480D01*
X112934051Y-145573051D01*
X113063480Y-145466831D01*
X113211145Y-145387903D01*
X113371370Y-145339299D01*
X113496248Y-145327000D01*
X113579752Y-145327000D01*
X113704630Y-145339299D01*
X113704630Y-145339299D01*
G37*
G36*
X111164630Y-145339299D02*
X111324855Y-145387903D01*
X111472520Y-145466831D01*
X111601949Y-145573051D01*
X111708169Y-145702480D01*
X111787097Y-145850145D01*
X111835701Y-146010370D01*
X111852112Y-146177000D01*
X111835701Y-146343630D01*
X111787097Y-146503855D01*
X111708169Y-146651520D01*
X111601949Y-146780949D01*
X111472520Y-146887169D01*
X111324855Y-146966097D01*
X111164630Y-147014701D01*
X111039752Y-147027000D01*
X110956248Y-147027000D01*
X110831370Y-147014701D01*
X110671145Y-146966097D01*
X110523480Y-146887169D01*
X110394051Y-146780949D01*
X110287831Y-146651520D01*
X110208903Y-146503855D01*
X110160299Y-146343630D01*
X110143888Y-146177000D01*
X110160299Y-146010370D01*
X110208903Y-145850145D01*
X110287831Y-145702480D01*
X110394051Y-145573051D01*
X110523480Y-145466831D01*
X110671145Y-145387903D01*
X110831370Y-145339299D01*
X110956248Y-145327000D01*
X111039752Y-145327000D01*
X111164630Y-145339299D01*
X111164630Y-145339299D01*
G37*
G36*
X108624630Y-145339299D02*
X108784855Y-145387903D01*
X108932520Y-145466831D01*
X109061949Y-145573051D01*
X109168169Y-145702480D01*
X109247097Y-145850145D01*
X109295701Y-146010370D01*
X109312112Y-146177000D01*
X109295701Y-146343630D01*
X109247097Y-146503855D01*
X109168169Y-146651520D01*
X109061949Y-146780949D01*
X108932520Y-146887169D01*
X108784855Y-146966097D01*
X108624630Y-147014701D01*
X108499752Y-147027000D01*
X108416248Y-147027000D01*
X108291370Y-147014701D01*
X108131145Y-146966097D01*
X107983480Y-146887169D01*
X107854051Y-146780949D01*
X107747831Y-146651520D01*
X107668903Y-146503855D01*
X107620299Y-146343630D01*
X107603888Y-146177000D01*
X107620299Y-146010370D01*
X107668903Y-145850145D01*
X107747831Y-145702480D01*
X107854051Y-145573051D01*
X107983480Y-145466831D01*
X108131145Y-145387903D01*
X108291370Y-145339299D01*
X108416248Y-145327000D01*
X108499752Y-145327000D01*
X108624630Y-145339299D01*
X108624630Y-145339299D01*
G37*
G36*
X103544630Y-145339299D02*
X103704855Y-145387903D01*
X103852520Y-145466831D01*
X103981949Y-145573051D01*
X104088169Y-145702480D01*
X104167097Y-145850145D01*
X104215701Y-146010370D01*
X104232112Y-146177000D01*
X104215701Y-146343630D01*
X104167097Y-146503855D01*
X104088169Y-146651520D01*
X103981949Y-146780949D01*
X103852520Y-146887169D01*
X103704855Y-146966097D01*
X103544630Y-147014701D01*
X103419752Y-147027000D01*
X103336248Y-147027000D01*
X103211370Y-147014701D01*
X103051145Y-146966097D01*
X102903480Y-146887169D01*
X102774051Y-146780949D01*
X102667831Y-146651520D01*
X102588903Y-146503855D01*
X102540299Y-146343630D01*
X102523888Y-146177000D01*
X102540299Y-146010370D01*
X102588903Y-145850145D01*
X102667831Y-145702480D01*
X102774051Y-145573051D01*
X102903480Y-145466831D01*
X103051145Y-145387903D01*
X103211370Y-145339299D01*
X103336248Y-145327000D01*
X103419752Y-145327000D01*
X103544630Y-145339299D01*
X103544630Y-145339299D01*
G37*
G36*
X106084630Y-145339299D02*
X106244855Y-145387903D01*
X106392520Y-145466831D01*
X106521949Y-145573051D01*
X106628169Y-145702480D01*
X106707097Y-145850145D01*
X106755701Y-146010370D01*
X106772112Y-146177000D01*
X106755701Y-146343630D01*
X106707097Y-146503855D01*
X106628169Y-146651520D01*
X106521949Y-146780949D01*
X106392520Y-146887169D01*
X106244855Y-146966097D01*
X106084630Y-147014701D01*
X105959752Y-147027000D01*
X105876248Y-147027000D01*
X105751370Y-147014701D01*
X105591145Y-146966097D01*
X105443480Y-146887169D01*
X105314051Y-146780949D01*
X105207831Y-146651520D01*
X105128903Y-146503855D01*
X105080299Y-146343630D01*
X105063888Y-146177000D01*
X105080299Y-146010370D01*
X105128903Y-145850145D01*
X105207831Y-145702480D01*
X105314051Y-145573051D01*
X105443480Y-145466831D01*
X105591145Y-145387903D01*
X105751370Y-145339299D01*
X105876248Y-145327000D01*
X105959752Y-145327000D01*
X106084630Y-145339299D01*
X106084630Y-145339299D01*
G37*
G36*
X101688000Y-147027000D02*
X99988000Y-147027000D01*
X99988000Y-145327000D01*
X101688000Y-145327000D01*
X101688000Y-147027000D01*
X101688000Y-147027000D01*
G37*
G36*
X114847630Y-139751299D02*
X115007855Y-139799903D01*
X115155520Y-139878831D01*
X115284949Y-139985051D01*
X115391169Y-140114480D01*
X115470097Y-140262145D01*
X115518701Y-140422370D01*
X115535112Y-140589000D01*
X115518701Y-140755630D01*
X115470097Y-140915855D01*
X115391169Y-141063520D01*
X115284949Y-141192949D01*
X115155520Y-141299169D01*
X115007855Y-141378097D01*
X114847630Y-141426701D01*
X114722752Y-141439000D01*
X114639248Y-141439000D01*
X114514370Y-141426701D01*
X114354145Y-141378097D01*
X114206480Y-141299169D01*
X114077051Y-141192949D01*
X113970831Y-141063520D01*
X113891903Y-140915855D01*
X113843299Y-140755630D01*
X113826888Y-140589000D01*
X113843299Y-140422370D01*
X113891903Y-140262145D01*
X113970831Y-140114480D01*
X114077051Y-139985051D01*
X114206480Y-139878831D01*
X114354145Y-139799903D01*
X114514370Y-139751299D01*
X114639248Y-139739000D01*
X114722752Y-139739000D01*
X114847630Y-139751299D01*
X114847630Y-139751299D01*
G37*
G36*
X117387630Y-139751299D02*
X117547855Y-139799903D01*
X117695520Y-139878831D01*
X117824949Y-139985051D01*
X117931169Y-140114480D01*
X118010097Y-140262145D01*
X118058701Y-140422370D01*
X118075112Y-140589000D01*
X118058701Y-140755630D01*
X118010097Y-140915855D01*
X117931169Y-141063520D01*
X117824949Y-141192949D01*
X117695520Y-141299169D01*
X117547855Y-141378097D01*
X117387630Y-141426701D01*
X117262752Y-141439000D01*
X117179248Y-141439000D01*
X117054370Y-141426701D01*
X116894145Y-141378097D01*
X116746480Y-141299169D01*
X116617051Y-141192949D01*
X116510831Y-141063520D01*
X116431903Y-140915855D01*
X116383299Y-140755630D01*
X116366888Y-140589000D01*
X116383299Y-140422370D01*
X116431903Y-140262145D01*
X116510831Y-140114480D01*
X116617051Y-139985051D01*
X116746480Y-139878831D01*
X116894145Y-139799903D01*
X117054370Y-139751299D01*
X117179248Y-139739000D01*
X117262752Y-139739000D01*
X117387630Y-139751299D01*
X117387630Y-139751299D01*
G37*
G36*
X120611000Y-141439000D02*
X118911000Y-141439000D01*
X118911000Y-139739000D01*
X120611000Y-139739000D01*
X120611000Y-141439000D01*
X120611000Y-141439000D01*
G37*
G36*
X80782190Y-134678400D02*
X80884934Y-134688519D01*
X81016761Y-134728508D01*
X81082676Y-134748503D01*
X81180085Y-134800570D01*
X81264914Y-134845912D01*
X81424648Y-134977002D01*
X81555737Y-135136735D01*
X81653147Y-135318974D01*
X81653147Y-135318975D01*
X81713131Y-135516716D01*
X81733385Y-135722360D01*
X81713131Y-135928004D01*
X81673142Y-136059831D01*
X81653147Y-136125746D01*
X81623621Y-136180984D01*
X81555738Y-136307984D01*
X81424648Y-136467718D01*
X81264914Y-136598808D01*
X81208053Y-136629201D01*
X81082676Y-136696217D01*
X81016761Y-136716212D01*
X80884934Y-136756201D01*
X80782190Y-136766320D01*
X80730819Y-136771380D01*
X78527181Y-136771380D01*
X78475810Y-136766320D01*
X78373066Y-136756201D01*
X78241239Y-136716212D01*
X78175324Y-136696217D01*
X78049947Y-136629201D01*
X77993086Y-136598808D01*
X77833352Y-136467718D01*
X77702262Y-136307984D01*
X77634379Y-136180984D01*
X77604853Y-136125746D01*
X77584858Y-136059831D01*
X77544869Y-135928004D01*
X77524615Y-135722360D01*
X77544869Y-135516716D01*
X77604853Y-135318975D01*
X77604853Y-135318974D01*
X77702263Y-135136735D01*
X77833352Y-134977002D01*
X77993086Y-134845912D01*
X78077915Y-134800570D01*
X78175324Y-134748503D01*
X78241239Y-134728508D01*
X78373066Y-134688519D01*
X78475810Y-134678400D01*
X78527181Y-134673340D01*
X80730819Y-134673340D01*
X80782190Y-134678400D01*
X80782190Y-134678400D01*
G37*
G36*
X134630190Y-134551400D02*
X134732934Y-134561519D01*
X134864761Y-134601508D01*
X134930676Y-134621503D01*
X135027655Y-134673340D01*
X135112914Y-134718912D01*
X135112916Y-134718913D01*
X135112915Y-134718913D01*
X135272648Y-134850002D01*
X135403737Y-135009735D01*
X135501147Y-135191974D01*
X135501147Y-135191975D01*
X135561131Y-135389716D01*
X135581385Y-135595360D01*
X135561131Y-135801004D01*
X135522607Y-135928002D01*
X135501147Y-135998746D01*
X135449080Y-136096155D01*
X135403738Y-136180984D01*
X135272648Y-136340718D01*
X135112914Y-136471808D01*
X135028085Y-136517150D01*
X134930676Y-136569217D01*
X134864761Y-136589212D01*
X134732934Y-136629201D01*
X134630190Y-136639320D01*
X134578819Y-136644380D01*
X132375181Y-136644380D01*
X132323810Y-136639320D01*
X132221066Y-136629201D01*
X132089239Y-136589212D01*
X132023324Y-136569217D01*
X131925915Y-136517150D01*
X131841086Y-136471808D01*
X131681352Y-136340718D01*
X131550262Y-136180984D01*
X131504920Y-136096155D01*
X131452853Y-135998746D01*
X131431393Y-135928002D01*
X131392869Y-135801004D01*
X131372615Y-135595360D01*
X131392869Y-135389716D01*
X131452853Y-135191975D01*
X131452853Y-135191974D01*
X131550263Y-135009735D01*
X131681352Y-134850002D01*
X131841085Y-134718913D01*
X131841084Y-134718913D01*
X131841086Y-134718912D01*
X131926345Y-134673340D01*
X132023324Y-134621503D01*
X132089239Y-134601508D01*
X132221066Y-134561519D01*
X132323810Y-134551400D01*
X132375181Y-134546340D01*
X134578819Y-134546340D01*
X134630190Y-134551400D01*
X134630190Y-134551400D01*
G37*
G36*
X80782190Y-129679680D02*
X80884934Y-129689799D01*
X81016761Y-129729788D01*
X81082676Y-129749783D01*
X81180085Y-129801850D01*
X81264914Y-129847192D01*
X81424648Y-129978282D01*
X81555737Y-130138015D01*
X81653147Y-130320254D01*
X81653147Y-130320255D01*
X81713131Y-130517996D01*
X81733385Y-130723640D01*
X81713131Y-130929284D01*
X81673142Y-131061111D01*
X81653147Y-131127026D01*
X81623621Y-131182264D01*
X81555738Y-131309264D01*
X81424648Y-131468998D01*
X81264914Y-131600088D01*
X81208053Y-131630481D01*
X81082676Y-131697497D01*
X81016761Y-131717492D01*
X80884934Y-131757481D01*
X80782190Y-131767600D01*
X80730819Y-131772660D01*
X78527181Y-131772660D01*
X78475810Y-131767600D01*
X78373066Y-131757481D01*
X78241239Y-131717492D01*
X78175324Y-131697497D01*
X78049947Y-131630481D01*
X77993086Y-131600088D01*
X77833352Y-131468998D01*
X77702262Y-131309264D01*
X77634379Y-131182264D01*
X77604853Y-131127026D01*
X77584858Y-131061111D01*
X77544869Y-130929284D01*
X77524615Y-130723640D01*
X77544869Y-130517996D01*
X77604853Y-130320255D01*
X77604853Y-130320254D01*
X77702263Y-130138015D01*
X77833352Y-129978282D01*
X77993086Y-129847192D01*
X78077915Y-129801850D01*
X78175324Y-129749783D01*
X78241239Y-129729788D01*
X78373066Y-129689799D01*
X78475810Y-129679680D01*
X78527181Y-129674620D01*
X80730819Y-129674620D01*
X80782190Y-129679680D01*
X80782190Y-129679680D01*
G37*
G36*
X134630190Y-129552680D02*
X134732934Y-129562799D01*
X134864761Y-129602788D01*
X134930676Y-129622783D01*
X135027655Y-129674620D01*
X135112914Y-129720192D01*
X135112916Y-129720193D01*
X135112915Y-129720193D01*
X135272648Y-129851282D01*
X135403737Y-130011015D01*
X135501147Y-130193254D01*
X135501147Y-130193255D01*
X135561131Y-130390996D01*
X135581385Y-130596640D01*
X135561131Y-130802284D01*
X135522607Y-130929282D01*
X135501147Y-131000026D01*
X135449080Y-131097435D01*
X135403738Y-131182264D01*
X135272648Y-131341998D01*
X135112914Y-131473088D01*
X135028085Y-131518430D01*
X134930676Y-131570497D01*
X134864761Y-131590492D01*
X134732934Y-131630481D01*
X134630190Y-131640600D01*
X134578819Y-131645660D01*
X132375181Y-131645660D01*
X132323810Y-131640600D01*
X132221066Y-131630481D01*
X132089239Y-131590492D01*
X132023324Y-131570497D01*
X131925915Y-131518430D01*
X131841086Y-131473088D01*
X131681352Y-131341998D01*
X131550262Y-131182264D01*
X131504920Y-131097435D01*
X131452853Y-131000026D01*
X131431393Y-130929282D01*
X131392869Y-130802284D01*
X131372615Y-130596640D01*
X131392869Y-130390996D01*
X131452853Y-130193255D01*
X131452853Y-130193254D01*
X131550263Y-130011015D01*
X131681352Y-129851282D01*
X131841085Y-129720193D01*
X131841084Y-129720193D01*
X131841086Y-129720192D01*
X131926345Y-129674620D01*
X132023324Y-129622783D01*
X132089239Y-129602788D01*
X132221066Y-129562799D01*
X132323810Y-129552680D01*
X132375181Y-129547620D01*
X134578819Y-129547620D01*
X134630190Y-129552680D01*
X134630190Y-129552680D01*
G37*
G36*
X134630190Y-123375400D02*
X134732934Y-123385519D01*
X134864761Y-123425508D01*
X134930676Y-123445503D01*
X135028085Y-123497570D01*
X135112914Y-123542912D01*
X135112916Y-123542913D01*
X135112915Y-123542913D01*
X135272648Y-123674002D01*
X135403737Y-123833735D01*
X135501147Y-124015974D01*
X135501147Y-124015975D01*
X135561131Y-124213716D01*
X135581385Y-124419360D01*
X135561131Y-124625004D01*
X135521142Y-124756831D01*
X135501147Y-124822746D01*
X135449080Y-124920155D01*
X135403738Y-125004984D01*
X135272648Y-125164718D01*
X135112914Y-125295808D01*
X135028085Y-125341150D01*
X134930676Y-125393217D01*
X134864761Y-125413212D01*
X134732934Y-125453201D01*
X134630190Y-125463320D01*
X134578819Y-125468380D01*
X132375181Y-125468380D01*
X132323810Y-125463320D01*
X132221066Y-125453201D01*
X132089239Y-125413212D01*
X132023324Y-125393217D01*
X131925915Y-125341150D01*
X131841086Y-125295808D01*
X131681352Y-125164718D01*
X131550262Y-125004984D01*
X131504920Y-124920155D01*
X131452853Y-124822746D01*
X131432858Y-124756831D01*
X131392869Y-124625004D01*
X131372615Y-124419360D01*
X131392869Y-124213716D01*
X131452853Y-124015975D01*
X131452853Y-124015974D01*
X131550263Y-123833735D01*
X131681352Y-123674002D01*
X131841085Y-123542913D01*
X131841084Y-123542913D01*
X131841086Y-123542912D01*
X131925915Y-123497570D01*
X132023324Y-123445503D01*
X132089239Y-123425508D01*
X132221066Y-123385519D01*
X132323810Y-123375400D01*
X132375181Y-123370340D01*
X134578819Y-123370340D01*
X134630190Y-123375400D01*
X134630190Y-123375400D01*
G37*
G36*
X80782190Y-123375400D02*
X80884934Y-123385519D01*
X81016761Y-123425508D01*
X81082676Y-123445503D01*
X81180085Y-123497570D01*
X81264914Y-123542912D01*
X81264916Y-123542913D01*
X81264915Y-123542913D01*
X81424648Y-123674002D01*
X81555737Y-123833735D01*
X81653147Y-124015974D01*
X81653147Y-124015975D01*
X81713131Y-124213716D01*
X81733385Y-124419360D01*
X81713131Y-124625004D01*
X81673142Y-124756831D01*
X81653147Y-124822746D01*
X81601080Y-124920155D01*
X81555738Y-125004984D01*
X81424648Y-125164718D01*
X81264914Y-125295808D01*
X81180085Y-125341150D01*
X81082676Y-125393217D01*
X81016761Y-125413212D01*
X80884934Y-125453201D01*
X80782190Y-125463320D01*
X80730819Y-125468380D01*
X78527181Y-125468380D01*
X78475810Y-125463320D01*
X78373066Y-125453201D01*
X78241239Y-125413212D01*
X78175324Y-125393217D01*
X78077915Y-125341150D01*
X77993086Y-125295808D01*
X77833352Y-125164718D01*
X77702262Y-125004984D01*
X77656920Y-124920155D01*
X77604853Y-124822746D01*
X77584858Y-124756831D01*
X77544869Y-124625004D01*
X77524615Y-124419360D01*
X77544869Y-124213716D01*
X77604853Y-124015975D01*
X77604853Y-124015974D01*
X77702263Y-123833735D01*
X77833352Y-123674002D01*
X77993085Y-123542913D01*
X77993084Y-123542913D01*
X77993086Y-123542912D01*
X78077915Y-123497570D01*
X78175324Y-123445503D01*
X78241239Y-123425508D01*
X78373066Y-123385519D01*
X78475810Y-123375400D01*
X78527181Y-123370340D01*
X80730819Y-123370340D01*
X80782190Y-123375400D01*
X80782190Y-123375400D01*
G37*
G36*
X134630190Y-118376680D02*
X134732934Y-118386799D01*
X134864761Y-118426788D01*
X134930676Y-118446783D01*
X135028085Y-118498850D01*
X135112914Y-118544192D01*
X135112916Y-118544193D01*
X135112915Y-118544193D01*
X135272648Y-118675282D01*
X135403737Y-118835015D01*
X135501147Y-119017254D01*
X135501147Y-119017255D01*
X135561131Y-119214996D01*
X135581385Y-119420640D01*
X135561131Y-119626284D01*
X135521142Y-119758111D01*
X135501147Y-119824026D01*
X135449080Y-119921435D01*
X135403738Y-120006264D01*
X135272648Y-120165998D01*
X135112914Y-120297088D01*
X135028085Y-120342430D01*
X134930676Y-120394497D01*
X134864761Y-120414492D01*
X134732934Y-120454481D01*
X134630190Y-120464600D01*
X134578819Y-120469660D01*
X132375181Y-120469660D01*
X132323810Y-120464600D01*
X132221066Y-120454481D01*
X132089239Y-120414492D01*
X132023324Y-120394497D01*
X131925915Y-120342430D01*
X131841086Y-120297088D01*
X131681352Y-120165998D01*
X131550262Y-120006264D01*
X131504920Y-119921435D01*
X131452853Y-119824026D01*
X131432858Y-119758111D01*
X131392869Y-119626284D01*
X131372615Y-119420640D01*
X131392869Y-119214996D01*
X131452853Y-119017255D01*
X131452853Y-119017254D01*
X131550263Y-118835015D01*
X131681352Y-118675282D01*
X131841085Y-118544193D01*
X131841084Y-118544193D01*
X131841086Y-118544192D01*
X131925915Y-118498850D01*
X132023324Y-118446783D01*
X132089239Y-118426788D01*
X132221066Y-118386799D01*
X132323810Y-118376680D01*
X132375181Y-118371620D01*
X134578819Y-118371620D01*
X134630190Y-118376680D01*
X134630190Y-118376680D01*
G37*
G36*
X80782190Y-118376680D02*
X80884934Y-118386799D01*
X81016761Y-118426788D01*
X81082676Y-118446783D01*
X81180085Y-118498850D01*
X81264914Y-118544192D01*
X81264916Y-118544193D01*
X81264915Y-118544193D01*
X81424648Y-118675282D01*
X81555737Y-118835015D01*
X81653147Y-119017254D01*
X81653147Y-119017255D01*
X81713131Y-119214996D01*
X81733385Y-119420640D01*
X81713131Y-119626284D01*
X81673142Y-119758111D01*
X81653147Y-119824026D01*
X81601080Y-119921435D01*
X81555738Y-120006264D01*
X81424648Y-120165998D01*
X81264914Y-120297088D01*
X81180085Y-120342430D01*
X81082676Y-120394497D01*
X81016761Y-120414492D01*
X80884934Y-120454481D01*
X80782190Y-120464600D01*
X80730819Y-120469660D01*
X78527181Y-120469660D01*
X78475810Y-120464600D01*
X78373066Y-120454481D01*
X78241239Y-120414492D01*
X78175324Y-120394497D01*
X78077915Y-120342430D01*
X77993086Y-120297088D01*
X77833352Y-120165998D01*
X77702262Y-120006264D01*
X77656920Y-119921435D01*
X77604853Y-119824026D01*
X77584858Y-119758111D01*
X77544869Y-119626284D01*
X77524615Y-119420640D01*
X77544869Y-119214996D01*
X77604853Y-119017255D01*
X77604853Y-119017254D01*
X77702263Y-118835015D01*
X77833352Y-118675282D01*
X77993085Y-118544193D01*
X77993084Y-118544193D01*
X77993086Y-118544192D01*
X78077915Y-118498850D01*
X78175324Y-118446783D01*
X78241239Y-118426788D01*
X78373066Y-118386799D01*
X78475810Y-118376680D01*
X78527181Y-118371620D01*
X80730819Y-118371620D01*
X80782190Y-118376680D01*
X80782190Y-118376680D01*
G37*
G36*
X125056000Y-118579000D02*
X123356000Y-118579000D01*
X123356000Y-116879000D01*
X125056000Y-116879000D01*
X125056000Y-118579000D01*
X125056000Y-118579000D01*
G37*
G36*
X124372630Y-114351299D02*
X124532855Y-114399903D01*
X124680520Y-114478831D01*
X124809949Y-114585051D01*
X124916169Y-114714480D01*
X124995097Y-114862145D01*
X125043701Y-115022370D01*
X125060112Y-115189000D01*
X125043701Y-115355630D01*
X124995097Y-115515855D01*
X124916169Y-115663520D01*
X124809949Y-115792949D01*
X124680520Y-115899169D01*
X124532855Y-115978097D01*
X124372630Y-116026701D01*
X124247752Y-116039000D01*
X124164248Y-116039000D01*
X124039370Y-116026701D01*
X123879145Y-115978097D01*
X123731480Y-115899169D01*
X123602051Y-115792949D01*
X123495831Y-115663520D01*
X123416903Y-115515855D01*
X123368299Y-115355630D01*
X123351888Y-115189000D01*
X123368299Y-115022370D01*
X123416903Y-114862145D01*
X123495831Y-114714480D01*
X123602051Y-114585051D01*
X123731480Y-114478831D01*
X123879145Y-114399903D01*
X124039370Y-114351299D01*
X124164248Y-114339000D01*
X124247752Y-114339000D01*
X124372630Y-114351299D01*
X124372630Y-114351299D01*
G37*
G36*
X133135630Y-113462299D02*
X133295855Y-113510903D01*
X133443520Y-113589831D01*
X133572949Y-113696051D01*
X133679169Y-113825480D01*
X133758097Y-113973145D01*
X133806701Y-114133370D01*
X133823112Y-114300000D01*
X133806701Y-114466630D01*
X133758097Y-114626855D01*
X133679169Y-114774520D01*
X133572949Y-114903949D01*
X133443520Y-115010169D01*
X133295855Y-115089097D01*
X133135630Y-115137701D01*
X133010752Y-115150000D01*
X132927248Y-115150000D01*
X132802370Y-115137701D01*
X132642145Y-115089097D01*
X132494480Y-115010169D01*
X132365051Y-114903949D01*
X132258831Y-114774520D01*
X132179903Y-114626855D01*
X132131299Y-114466630D01*
X132114888Y-114300000D01*
X132131299Y-114133370D01*
X132179903Y-113973145D01*
X132258831Y-113825480D01*
X132365051Y-113696051D01*
X132494480Y-113589831D01*
X132642145Y-113510903D01*
X132802370Y-113462299D01*
X132927248Y-113450000D01*
X133010752Y-113450000D01*
X133135630Y-113462299D01*
X133135630Y-113462299D01*
G37*
G36*
X130595630Y-113462299D02*
X130755855Y-113510903D01*
X130903520Y-113589831D01*
X131032949Y-113696051D01*
X131139169Y-113825480D01*
X131218097Y-113973145D01*
X131266701Y-114133370D01*
X131283112Y-114300000D01*
X131266701Y-114466630D01*
X131218097Y-114626855D01*
X131139169Y-114774520D01*
X131032949Y-114903949D01*
X130903520Y-115010169D01*
X130755855Y-115089097D01*
X130595630Y-115137701D01*
X130470752Y-115150000D01*
X130387248Y-115150000D01*
X130262370Y-115137701D01*
X130102145Y-115089097D01*
X129954480Y-115010169D01*
X129825051Y-114903949D01*
X129718831Y-114774520D01*
X129639903Y-114626855D01*
X129591299Y-114466630D01*
X129574888Y-114300000D01*
X129591299Y-114133370D01*
X129639903Y-113973145D01*
X129718831Y-113825480D01*
X129825051Y-113696051D01*
X129954480Y-113589831D01*
X130102145Y-113510903D01*
X130262370Y-113462299D01*
X130387248Y-113450000D01*
X130470752Y-113450000D01*
X130595630Y-113462299D01*
X130595630Y-113462299D01*
G37*
G36*
X124372630Y-111811299D02*
X124532855Y-111859903D01*
X124680520Y-111938831D01*
X124809949Y-112045051D01*
X124916169Y-112174480D01*
X124995097Y-112322145D01*
X125043701Y-112482370D01*
X125060112Y-112649000D01*
X125043701Y-112815630D01*
X124995097Y-112975855D01*
X124916169Y-113123520D01*
X124809949Y-113252949D01*
X124680520Y-113359169D01*
X124532855Y-113438097D01*
X124372630Y-113486701D01*
X124247752Y-113499000D01*
X124164248Y-113499000D01*
X124039370Y-113486701D01*
X123879145Y-113438097D01*
X123731480Y-113359169D01*
X123602051Y-113252949D01*
X123495831Y-113123520D01*
X123416903Y-112975855D01*
X123368299Y-112815630D01*
X123351888Y-112649000D01*
X123368299Y-112482370D01*
X123416903Y-112322145D01*
X123495831Y-112174480D01*
X123602051Y-112045051D01*
X123731480Y-111938831D01*
X123879145Y-111859903D01*
X124039370Y-111811299D01*
X124164248Y-111799000D01*
X124247752Y-111799000D01*
X124372630Y-111811299D01*
X124372630Y-111811299D01*
G37*
G36*
X130595630Y-110922299D02*
X130755855Y-110970903D01*
X130903520Y-111049831D01*
X131032949Y-111156051D01*
X131139169Y-111285480D01*
X131218097Y-111433145D01*
X131266701Y-111593370D01*
X131283112Y-111760000D01*
X131266701Y-111926630D01*
X131218097Y-112086855D01*
X131139169Y-112234520D01*
X131032949Y-112363949D01*
X130903520Y-112470169D01*
X130755855Y-112549097D01*
X130595630Y-112597701D01*
X130470752Y-112610000D01*
X130387248Y-112610000D01*
X130262370Y-112597701D01*
X130102145Y-112549097D01*
X129954480Y-112470169D01*
X129825051Y-112363949D01*
X129718831Y-112234520D01*
X129639903Y-112086855D01*
X129591299Y-111926630D01*
X129574888Y-111760000D01*
X129591299Y-111593370D01*
X129639903Y-111433145D01*
X129718831Y-111285480D01*
X129825051Y-111156051D01*
X129954480Y-111049831D01*
X130102145Y-110970903D01*
X130262370Y-110922299D01*
X130387248Y-110910000D01*
X130470752Y-110910000D01*
X130595630Y-110922299D01*
X130595630Y-110922299D01*
G37*
G36*
X133135630Y-110922299D02*
X133295855Y-110970903D01*
X133443520Y-111049831D01*
X133572949Y-111156051D01*
X133679169Y-111285480D01*
X133758097Y-111433145D01*
X133806701Y-111593370D01*
X133823112Y-111760000D01*
X133806701Y-111926630D01*
X133758097Y-112086855D01*
X133679169Y-112234520D01*
X133572949Y-112363949D01*
X133443520Y-112470169D01*
X133295855Y-112549097D01*
X133135630Y-112597701D01*
X133010752Y-112610000D01*
X132927248Y-112610000D01*
X132802370Y-112597701D01*
X132642145Y-112549097D01*
X132494480Y-112470169D01*
X132365051Y-112363949D01*
X132258831Y-112234520D01*
X132179903Y-112086855D01*
X132131299Y-111926630D01*
X132114888Y-111760000D01*
X132131299Y-111593370D01*
X132179903Y-111433145D01*
X132258831Y-111285480D01*
X132365051Y-111156051D01*
X132494480Y-111049831D01*
X132642145Y-110970903D01*
X132802370Y-110922299D01*
X132927248Y-110910000D01*
X133010752Y-110910000D01*
X133135630Y-110922299D01*
X133135630Y-110922299D01*
G37*
G36*
X133819000Y-110070000D02*
X132119000Y-110070000D01*
X132119000Y-108370000D01*
X133819000Y-108370000D01*
X133819000Y-110070000D01*
X133819000Y-110070000D01*
G37*
G36*
X130595630Y-108382299D02*
X130755855Y-108430903D01*
X130903520Y-108509831D01*
X131032949Y-108616051D01*
X131139169Y-108745480D01*
X131218097Y-108893145D01*
X131266701Y-109053370D01*
X131283112Y-109220000D01*
X131266701Y-109386630D01*
X131218097Y-109546855D01*
X131139169Y-109694520D01*
X131032949Y-109823949D01*
X130903520Y-109930169D01*
X130755855Y-110009097D01*
X130595630Y-110057701D01*
X130470752Y-110070000D01*
X130387248Y-110070000D01*
X130262370Y-110057701D01*
X130102145Y-110009097D01*
X129954480Y-109930169D01*
X129825051Y-109823949D01*
X129718831Y-109694520D01*
X129639903Y-109546855D01*
X129591299Y-109386630D01*
X129574888Y-109220000D01*
X129591299Y-109053370D01*
X129639903Y-108893145D01*
X129718831Y-108745480D01*
X129825051Y-108616051D01*
X129954480Y-108509831D01*
X130102145Y-108430903D01*
X130262370Y-108382299D01*
X130387248Y-108370000D01*
X130470752Y-108370000D01*
X130595630Y-108382299D01*
X130595630Y-108382299D01*
G37*
G36*
X134454000Y-104863000D02*
X132754000Y-104863000D01*
X132754000Y-103163000D01*
X134454000Y-103163000D01*
X134454000Y-104863000D01*
X134454000Y-104863000D01*
G37*
G36*
X80909190Y-100896400D02*
X81011934Y-100906519D01*
X81143761Y-100946508D01*
X81209676Y-100966503D01*
X81307085Y-101018570D01*
X81391914Y-101063912D01*
X81391916Y-101063913D01*
X81391915Y-101063913D01*
X81551648Y-101195002D01*
X81682737Y-101354735D01*
X81780147Y-101536974D01*
X81780147Y-101536975D01*
X81840131Y-101734716D01*
X81860385Y-101940360D01*
X81840131Y-102146004D01*
X81828857Y-102183168D01*
X81780147Y-102343746D01*
X81728080Y-102441155D01*
X81682738Y-102525984D01*
X81551648Y-102685718D01*
X81391914Y-102816808D01*
X81307085Y-102862150D01*
X81209676Y-102914217D01*
X81143761Y-102934212D01*
X81011934Y-102974201D01*
X80909190Y-102984320D01*
X80857819Y-102989380D01*
X78654181Y-102989380D01*
X78602810Y-102984320D01*
X78500066Y-102974201D01*
X78368239Y-102934212D01*
X78302324Y-102914217D01*
X78204915Y-102862150D01*
X78120086Y-102816808D01*
X77960352Y-102685718D01*
X77829262Y-102525984D01*
X77783920Y-102441155D01*
X77731853Y-102343746D01*
X77683143Y-102183168D01*
X77671869Y-102146004D01*
X77651615Y-101940360D01*
X77671869Y-101734716D01*
X77731853Y-101536975D01*
X77731853Y-101536974D01*
X77829263Y-101354735D01*
X77960352Y-101195002D01*
X78120085Y-101063913D01*
X78120084Y-101063913D01*
X78120086Y-101063912D01*
X78204915Y-101018570D01*
X78302324Y-100966503D01*
X78368239Y-100946508D01*
X78500066Y-100906519D01*
X78602810Y-100896400D01*
X78654181Y-100891340D01*
X80857819Y-100891340D01*
X80909190Y-100896400D01*
X80909190Y-100896400D01*
G37*
G36*
X133770630Y-100635299D02*
X133930855Y-100683903D01*
X134078520Y-100762831D01*
X134207949Y-100869051D01*
X134314169Y-100998480D01*
X134393097Y-101146145D01*
X134441701Y-101306370D01*
X134458112Y-101473000D01*
X134441701Y-101639630D01*
X134393097Y-101799855D01*
X134314169Y-101947520D01*
X134207949Y-102076949D01*
X134078520Y-102183169D01*
X133930855Y-102262097D01*
X133770630Y-102310701D01*
X133645752Y-102323000D01*
X133562248Y-102323000D01*
X133437370Y-102310701D01*
X133277145Y-102262097D01*
X133129480Y-102183169D01*
X133000051Y-102076949D01*
X132893831Y-101947520D01*
X132814903Y-101799855D01*
X132766299Y-101639630D01*
X132749888Y-101473000D01*
X132766299Y-101306370D01*
X132814903Y-101146145D01*
X132893831Y-100998480D01*
X133000051Y-100869051D01*
X133129480Y-100762831D01*
X133277145Y-100683903D01*
X133437370Y-100635299D01*
X133562248Y-100623000D01*
X133645752Y-100623000D01*
X133770630Y-100635299D01*
X133770630Y-100635299D01*
G37*
G36*
X133770630Y-98095299D02*
X133930855Y-98143903D01*
X134078520Y-98222831D01*
X134207949Y-98329051D01*
X134314169Y-98458480D01*
X134393097Y-98606145D01*
X134441701Y-98766370D01*
X134458112Y-98933000D01*
X134441701Y-99099630D01*
X134393097Y-99259855D01*
X134314169Y-99407520D01*
X134207949Y-99536949D01*
X134078520Y-99643169D01*
X133930855Y-99722097D01*
X133770630Y-99770701D01*
X133645752Y-99783000D01*
X133562248Y-99783000D01*
X133437370Y-99770701D01*
X133277145Y-99722097D01*
X133129480Y-99643169D01*
X133000051Y-99536949D01*
X132893831Y-99407520D01*
X132814903Y-99259855D01*
X132766299Y-99099630D01*
X132749888Y-98933000D01*
X132766299Y-98766370D01*
X132814903Y-98606145D01*
X132893831Y-98458480D01*
X133000051Y-98329051D01*
X133129480Y-98222831D01*
X133277145Y-98143903D01*
X133437370Y-98095299D01*
X133562248Y-98083000D01*
X133645752Y-98083000D01*
X133770630Y-98095299D01*
X133770630Y-98095299D01*
G37*
G36*
X80909190Y-95897680D02*
X81011934Y-95907799D01*
X81143761Y-95947788D01*
X81209676Y-95967783D01*
X81307085Y-96019850D01*
X81391914Y-96065192D01*
X81551648Y-96196282D01*
X81576341Y-96226370D01*
X81682737Y-96356015D01*
X81780147Y-96538254D01*
X81780147Y-96538255D01*
X81840131Y-96735996D01*
X81860385Y-96941640D01*
X81840131Y-97147284D01*
X81814827Y-97230700D01*
X81780147Y-97345026D01*
X81728080Y-97442435D01*
X81682738Y-97527264D01*
X81551648Y-97686998D01*
X81391914Y-97818088D01*
X81307085Y-97863430D01*
X81209676Y-97915497D01*
X81143761Y-97935492D01*
X81011934Y-97975481D01*
X80909190Y-97985600D01*
X80857819Y-97990660D01*
X78654181Y-97990660D01*
X78602810Y-97985600D01*
X78500066Y-97975481D01*
X78368239Y-97935492D01*
X78302324Y-97915497D01*
X78204915Y-97863430D01*
X78120086Y-97818088D01*
X77960352Y-97686998D01*
X77829262Y-97527264D01*
X77783920Y-97442435D01*
X77731853Y-97345026D01*
X77697173Y-97230700D01*
X77671869Y-97147284D01*
X77651615Y-96941640D01*
X77671869Y-96735996D01*
X77731853Y-96538255D01*
X77731853Y-96538254D01*
X77829263Y-96356015D01*
X77935660Y-96226370D01*
X77960352Y-96196282D01*
X78120086Y-96065192D01*
X78204915Y-96019850D01*
X78302324Y-95967783D01*
X78368239Y-95947788D01*
X78500066Y-95907799D01*
X78602810Y-95897680D01*
X78654181Y-95892620D01*
X80857819Y-95892620D01*
X80909190Y-95897680D01*
X80909190Y-95897680D01*
G37*
G36*
X133770630Y-95555299D02*
X133930855Y-95603903D01*
X134078520Y-95682831D01*
X134207949Y-95789051D01*
X134314169Y-95918480D01*
X134393097Y-96066145D01*
X134441701Y-96226370D01*
X134458112Y-96393000D01*
X134441701Y-96559630D01*
X134393097Y-96719855D01*
X134314169Y-96867520D01*
X134207949Y-96996949D01*
X134078520Y-97103169D01*
X133930855Y-97182097D01*
X133770630Y-97230701D01*
X133645752Y-97243000D01*
X133562248Y-97243000D01*
X133437370Y-97230701D01*
X133277145Y-97182097D01*
X133129480Y-97103169D01*
X133000051Y-96996949D01*
X132893831Y-96867520D01*
X132814903Y-96719855D01*
X132766299Y-96559630D01*
X132749888Y-96393000D01*
X132766299Y-96226370D01*
X132814903Y-96066145D01*
X132893831Y-95918480D01*
X133000051Y-95789051D01*
X133129480Y-95682831D01*
X133277145Y-95603903D01*
X133437370Y-95555299D01*
X133562248Y-95543000D01*
X133645752Y-95543000D01*
X133770630Y-95555299D01*
X133770630Y-95555299D01*
G37*
G36*
X133770630Y-93015299D02*
X133930855Y-93063903D01*
X134078520Y-93142831D01*
X134207949Y-93249051D01*
X134314169Y-93378480D01*
X134393097Y-93526145D01*
X134441701Y-93686370D01*
X134458112Y-93853000D01*
X134441701Y-94019630D01*
X134393097Y-94179855D01*
X134314169Y-94327520D01*
X134207949Y-94456949D01*
X134078520Y-94563169D01*
X133930855Y-94642097D01*
X133770630Y-94690701D01*
X133645752Y-94703000D01*
X133562248Y-94703000D01*
X133437370Y-94690701D01*
X133277145Y-94642097D01*
X133129480Y-94563169D01*
X133000051Y-94456949D01*
X132893831Y-94327520D01*
X132814903Y-94179855D01*
X132766299Y-94019630D01*
X132749888Y-93853000D01*
X132766299Y-93686370D01*
X132814903Y-93526145D01*
X132893831Y-93378480D01*
X133000051Y-93249051D01*
X133129480Y-93142831D01*
X133277145Y-93063903D01*
X133437370Y-93015299D01*
X133562248Y-93003000D01*
X133645752Y-93003000D01*
X133770630Y-93015299D01*
X133770630Y-93015299D01*
G37*
G36*
X133770630Y-90475299D02*
X133930855Y-90523903D01*
X134078520Y-90602831D01*
X134207949Y-90709051D01*
X134314169Y-90838480D01*
X134393097Y-90986145D01*
X134441701Y-91146370D01*
X134458112Y-91313000D01*
X134441701Y-91479630D01*
X134393097Y-91639855D01*
X134314169Y-91787520D01*
X134207949Y-91916949D01*
X134078520Y-92023169D01*
X133930855Y-92102097D01*
X133770630Y-92150701D01*
X133645752Y-92163000D01*
X133562248Y-92163000D01*
X133437370Y-92150701D01*
X133277145Y-92102097D01*
X133129480Y-92023169D01*
X133000051Y-91916949D01*
X132893831Y-91787520D01*
X132814903Y-91639855D01*
X132766299Y-91479630D01*
X132749888Y-91313000D01*
X132766299Y-91146370D01*
X132814903Y-90986145D01*
X132893831Y-90838480D01*
X133000051Y-90709051D01*
X133129480Y-90602831D01*
X133277145Y-90523903D01*
X133437370Y-90475299D01*
X133562248Y-90463000D01*
X133645752Y-90463000D01*
X133770630Y-90475299D01*
X133770630Y-90475299D01*
G37*
G36*
X89955630Y-88697299D02*
X90115855Y-88745903D01*
X90263520Y-88824831D01*
X90392949Y-88931051D01*
X90499169Y-89060480D01*
X90578097Y-89208145D01*
X90626701Y-89368370D01*
X90643112Y-89535000D01*
X90626701Y-89701630D01*
X90578097Y-89861855D01*
X90499169Y-90009520D01*
X90392949Y-90138949D01*
X90263520Y-90245169D01*
X90115855Y-90324097D01*
X89955630Y-90372701D01*
X89830752Y-90385000D01*
X89747248Y-90385000D01*
X89622370Y-90372701D01*
X89462145Y-90324097D01*
X89314480Y-90245169D01*
X89185051Y-90138949D01*
X89078831Y-90009520D01*
X88999903Y-89861855D01*
X88951299Y-89701630D01*
X88934888Y-89535000D01*
X88951299Y-89368370D01*
X88999903Y-89208145D01*
X89078831Y-89060480D01*
X89185051Y-88931051D01*
X89314480Y-88824831D01*
X89462145Y-88745903D01*
X89622370Y-88697299D01*
X89747248Y-88685000D01*
X89830752Y-88685000D01*
X89955630Y-88697299D01*
X89955630Y-88697299D01*
G37*
G36*
X85891630Y-88697299D02*
X86051855Y-88745903D01*
X86199520Y-88824831D01*
X86328949Y-88931051D01*
X86435169Y-89060480D01*
X86514097Y-89208145D01*
X86562701Y-89368370D01*
X86579112Y-89535000D01*
X86562701Y-89701630D01*
X86514097Y-89861855D01*
X86435169Y-90009520D01*
X86328949Y-90138949D01*
X86199520Y-90245169D01*
X86051855Y-90324097D01*
X85891630Y-90372701D01*
X85766752Y-90385000D01*
X85683248Y-90385000D01*
X85558370Y-90372701D01*
X85398145Y-90324097D01*
X85250480Y-90245169D01*
X85121051Y-90138949D01*
X85014831Y-90009520D01*
X84935903Y-89861855D01*
X84887299Y-89701630D01*
X84870888Y-89535000D01*
X84887299Y-89368370D01*
X84935903Y-89208145D01*
X85014831Y-89060480D01*
X85121051Y-88931051D01*
X85250480Y-88824831D01*
X85398145Y-88745903D01*
X85558370Y-88697299D01*
X85683248Y-88685000D01*
X85766752Y-88685000D01*
X85891630Y-88697299D01*
X85891630Y-88697299D01*
G37*
G36*
X85891630Y-86157299D02*
X86051855Y-86205903D01*
X86199520Y-86284831D01*
X86328949Y-86391051D01*
X86435169Y-86520480D01*
X86514097Y-86668145D01*
X86562701Y-86828370D01*
X86579112Y-86995000D01*
X86562701Y-87161630D01*
X86514097Y-87321855D01*
X86435169Y-87469520D01*
X86328949Y-87598949D01*
X86199520Y-87705169D01*
X86051855Y-87784097D01*
X85891630Y-87832701D01*
X85766752Y-87845000D01*
X85683248Y-87845000D01*
X85558370Y-87832701D01*
X85398145Y-87784097D01*
X85250480Y-87705169D01*
X85121051Y-87598949D01*
X85014831Y-87469520D01*
X84935903Y-87321855D01*
X84887299Y-87161630D01*
X84870888Y-86995000D01*
X84887299Y-86828370D01*
X84935903Y-86668145D01*
X85014831Y-86520480D01*
X85121051Y-86391051D01*
X85250480Y-86284831D01*
X85398145Y-86205903D01*
X85558370Y-86157299D01*
X85683248Y-86145000D01*
X85766752Y-86145000D01*
X85891630Y-86157299D01*
X85891630Y-86157299D01*
G37*
G36*
X89955630Y-86157299D02*
X90115855Y-86205903D01*
X90263520Y-86284831D01*
X90392949Y-86391051D01*
X90499169Y-86520480D01*
X90578097Y-86668145D01*
X90626701Y-86828370D01*
X90643112Y-86995000D01*
X90626701Y-87161630D01*
X90578097Y-87321855D01*
X90499169Y-87469520D01*
X90392949Y-87598949D01*
X90263520Y-87705169D01*
X90115855Y-87784097D01*
X89955630Y-87832701D01*
X89830752Y-87845000D01*
X89747248Y-87845000D01*
X89622370Y-87832701D01*
X89462145Y-87784097D01*
X89314480Y-87705169D01*
X89185051Y-87598949D01*
X89078831Y-87469520D01*
X88999903Y-87321855D01*
X88951299Y-87161630D01*
X88934888Y-86995000D01*
X88951299Y-86828370D01*
X88999903Y-86668145D01*
X89078831Y-86520480D01*
X89185051Y-86391051D01*
X89314480Y-86284831D01*
X89462145Y-86205903D01*
X89622370Y-86157299D01*
X89747248Y-86145000D01*
X89830752Y-86145000D01*
X89955630Y-86157299D01*
X89955630Y-86157299D01*
G37*
G36*
X99607630Y-84252299D02*
X99767855Y-84300903D01*
X99915520Y-84379831D01*
X100044949Y-84486051D01*
X100151169Y-84615480D01*
X100230097Y-84763145D01*
X100278701Y-84923370D01*
X100295112Y-85090000D01*
X100278701Y-85256630D01*
X100230097Y-85416855D01*
X100151169Y-85564520D01*
X100044949Y-85693949D01*
X99915520Y-85800169D01*
X99767855Y-85879097D01*
X99607630Y-85927701D01*
X99482752Y-85940000D01*
X99399248Y-85940000D01*
X99274370Y-85927701D01*
X99114145Y-85879097D01*
X98966480Y-85800169D01*
X98837051Y-85693949D01*
X98730831Y-85564520D01*
X98651903Y-85416855D01*
X98603299Y-85256630D01*
X98586888Y-85090000D01*
X98603299Y-84923370D01*
X98651903Y-84763145D01*
X98730831Y-84615480D01*
X98837051Y-84486051D01*
X98966480Y-84379831D01*
X99114145Y-84300903D01*
X99274370Y-84252299D01*
X99399248Y-84240000D01*
X99482752Y-84240000D01*
X99607630Y-84252299D01*
X99607630Y-84252299D01*
G37*
G36*
X89955630Y-83617299D02*
X90115855Y-83665903D01*
X90263520Y-83744831D01*
X90392949Y-83851051D01*
X90499169Y-83980480D01*
X90578097Y-84128145D01*
X90626701Y-84288370D01*
X90643112Y-84455000D01*
X90626701Y-84621630D01*
X90578097Y-84781855D01*
X90499169Y-84929520D01*
X90392949Y-85058949D01*
X90263520Y-85165169D01*
X90115855Y-85244097D01*
X89955630Y-85292701D01*
X89830752Y-85305000D01*
X89747248Y-85305000D01*
X89622370Y-85292701D01*
X89462145Y-85244097D01*
X89314480Y-85165169D01*
X89185051Y-85058949D01*
X89078831Y-84929520D01*
X88999903Y-84781855D01*
X88951299Y-84621630D01*
X88934888Y-84455000D01*
X88951299Y-84288370D01*
X88999903Y-84128145D01*
X89078831Y-83980480D01*
X89185051Y-83851051D01*
X89314480Y-83744831D01*
X89462145Y-83665903D01*
X89622370Y-83617299D01*
X89747248Y-83605000D01*
X89830752Y-83605000D01*
X89955630Y-83617299D01*
X89955630Y-83617299D01*
G37*
G36*
X94957000Y-85305000D02*
X93257000Y-85305000D01*
X93257000Y-83605000D01*
X94957000Y-83605000D01*
X94957000Y-85305000D01*
X94957000Y-85305000D01*
G37*
G36*
X85891630Y-83617299D02*
X86051855Y-83665903D01*
X86199520Y-83744831D01*
X86328949Y-83851051D01*
X86435169Y-83980480D01*
X86514097Y-84128145D01*
X86562701Y-84288370D01*
X86579112Y-84455000D01*
X86562701Y-84621630D01*
X86514097Y-84781855D01*
X86435169Y-84929520D01*
X86328949Y-85058949D01*
X86199520Y-85165169D01*
X86051855Y-85244097D01*
X85891630Y-85292701D01*
X85766752Y-85305000D01*
X85683248Y-85305000D01*
X85558370Y-85292701D01*
X85398145Y-85244097D01*
X85250480Y-85165169D01*
X85121051Y-85058949D01*
X85014831Y-84929520D01*
X84935903Y-84781855D01*
X84887299Y-84621630D01*
X84870888Y-84455000D01*
X84887299Y-84288370D01*
X84935903Y-84128145D01*
X85014831Y-83980480D01*
X85121051Y-83851051D01*
X85250480Y-83744831D01*
X85398145Y-83665903D01*
X85558370Y-83617299D01*
X85683248Y-83605000D01*
X85766752Y-83605000D01*
X85891630Y-83617299D01*
X85891630Y-83617299D01*
G37*
G36*
X99607630Y-81712299D02*
X99767855Y-81760903D01*
X99915520Y-81839831D01*
X100044949Y-81946051D01*
X100151169Y-82075480D01*
X100230097Y-82223145D01*
X100278701Y-82383370D01*
X100295112Y-82550000D01*
X100278701Y-82716630D01*
X100230097Y-82876855D01*
X100151169Y-83024520D01*
X100044949Y-83153949D01*
X99915520Y-83260169D01*
X99767855Y-83339097D01*
X99607630Y-83387701D01*
X99482752Y-83400000D01*
X99399248Y-83400000D01*
X99274370Y-83387701D01*
X99114145Y-83339097D01*
X98966480Y-83260169D01*
X98837051Y-83153949D01*
X98730831Y-83024520D01*
X98651903Y-82876855D01*
X98603299Y-82716630D01*
X98586888Y-82550000D01*
X98603299Y-82383370D01*
X98651903Y-82223145D01*
X98730831Y-82075480D01*
X98837051Y-81946051D01*
X98966480Y-81839831D01*
X99114145Y-81760903D01*
X99274370Y-81712299D01*
X99399248Y-81700000D01*
X99482752Y-81700000D01*
X99607630Y-81712299D01*
X99607630Y-81712299D01*
G37*
G36*
X85891630Y-81077299D02*
X86051855Y-81125903D01*
X86199520Y-81204831D01*
X86328949Y-81311051D01*
X86435169Y-81440480D01*
X86514097Y-81588145D01*
X86562701Y-81748370D01*
X86579112Y-81915000D01*
X86562701Y-82081630D01*
X86514097Y-82241855D01*
X86435169Y-82389520D01*
X86328949Y-82518949D01*
X86199520Y-82625169D01*
X86051855Y-82704097D01*
X85891630Y-82752701D01*
X85766752Y-82765000D01*
X85683248Y-82765000D01*
X85558370Y-82752701D01*
X85398145Y-82704097D01*
X85250480Y-82625169D01*
X85121051Y-82518949D01*
X85014831Y-82389520D01*
X84935903Y-82241855D01*
X84887299Y-82081630D01*
X84870888Y-81915000D01*
X84887299Y-81748370D01*
X84935903Y-81588145D01*
X85014831Y-81440480D01*
X85121051Y-81311051D01*
X85250480Y-81204831D01*
X85398145Y-81125903D01*
X85558370Y-81077299D01*
X85683248Y-81065000D01*
X85766752Y-81065000D01*
X85891630Y-81077299D01*
X85891630Y-81077299D01*
G37*
G36*
X89955630Y-81077299D02*
X90115855Y-81125903D01*
X90263520Y-81204831D01*
X90392949Y-81311051D01*
X90499169Y-81440480D01*
X90578097Y-81588145D01*
X90626701Y-81748370D01*
X90643112Y-81915000D01*
X90626701Y-82081630D01*
X90578097Y-82241855D01*
X90499169Y-82389520D01*
X90392949Y-82518949D01*
X90263520Y-82625169D01*
X90115855Y-82704097D01*
X89955630Y-82752701D01*
X89830752Y-82765000D01*
X89747248Y-82765000D01*
X89622370Y-82752701D01*
X89462145Y-82704097D01*
X89314480Y-82625169D01*
X89185051Y-82518949D01*
X89078831Y-82389520D01*
X88999903Y-82241855D01*
X88951299Y-82081630D01*
X88934888Y-81915000D01*
X88951299Y-81748370D01*
X88999903Y-81588145D01*
X89078831Y-81440480D01*
X89185051Y-81311051D01*
X89314480Y-81204831D01*
X89462145Y-81125903D01*
X89622370Y-81077299D01*
X89747248Y-81065000D01*
X89830752Y-81065000D01*
X89955630Y-81077299D01*
X89955630Y-81077299D01*
G37*
G36*
X94273630Y-81077299D02*
X94433855Y-81125903D01*
X94581520Y-81204831D01*
X94710949Y-81311051D01*
X94817169Y-81440480D01*
X94896097Y-81588145D01*
X94944701Y-81748370D01*
X94961112Y-81915000D01*
X94944701Y-82081630D01*
X94896097Y-82241855D01*
X94817169Y-82389520D01*
X94710949Y-82518949D01*
X94581520Y-82625169D01*
X94433855Y-82704097D01*
X94273630Y-82752701D01*
X94148752Y-82765000D01*
X94065248Y-82765000D01*
X93940370Y-82752701D01*
X93780145Y-82704097D01*
X93632480Y-82625169D01*
X93503051Y-82518949D01*
X93396831Y-82389520D01*
X93317903Y-82241855D01*
X93269299Y-82081630D01*
X93252888Y-81915000D01*
X93269299Y-81748370D01*
X93317903Y-81588145D01*
X93396831Y-81440480D01*
X93503051Y-81311051D01*
X93632480Y-81204831D01*
X93780145Y-81125903D01*
X93940370Y-81077299D01*
X94065248Y-81065000D01*
X94148752Y-81065000D01*
X94273630Y-81077299D01*
X94273630Y-81077299D01*
G37*
G36*
X99607630Y-79172299D02*
X99767855Y-79220903D01*
X99915520Y-79299831D01*
X100044949Y-79406051D01*
X100151169Y-79535480D01*
X100230097Y-79683145D01*
X100278701Y-79843370D01*
X100295112Y-80010000D01*
X100278701Y-80176630D01*
X100230097Y-80336855D01*
X100151169Y-80484520D01*
X100044949Y-80613949D01*
X99915520Y-80720169D01*
X99767855Y-80799097D01*
X99607630Y-80847701D01*
X99482752Y-80860000D01*
X99399248Y-80860000D01*
X99274370Y-80847701D01*
X99114145Y-80799097D01*
X98966480Y-80720169D01*
X98837051Y-80613949D01*
X98730831Y-80484520D01*
X98651903Y-80336855D01*
X98603299Y-80176630D01*
X98586888Y-80010000D01*
X98603299Y-79843370D01*
X98651903Y-79683145D01*
X98730831Y-79535480D01*
X98837051Y-79406051D01*
X98966480Y-79299831D01*
X99114145Y-79220903D01*
X99274370Y-79172299D01*
X99399248Y-79160000D01*
X99482752Y-79160000D01*
X99607630Y-79172299D01*
X99607630Y-79172299D01*
G37*
G36*
X89955630Y-78537299D02*
X90115855Y-78585903D01*
X90263520Y-78664831D01*
X90392949Y-78771051D01*
X90499169Y-78900480D01*
X90578097Y-79048145D01*
X90626701Y-79208370D01*
X90643112Y-79375000D01*
X90626701Y-79541630D01*
X90578097Y-79701855D01*
X90499169Y-79849520D01*
X90392949Y-79978949D01*
X90263520Y-80085169D01*
X90115855Y-80164097D01*
X89955630Y-80212701D01*
X89830752Y-80225000D01*
X89747248Y-80225000D01*
X89622370Y-80212701D01*
X89462145Y-80164097D01*
X89314480Y-80085169D01*
X89185051Y-79978949D01*
X89078831Y-79849520D01*
X88999903Y-79701855D01*
X88951299Y-79541630D01*
X88934888Y-79375000D01*
X88951299Y-79208370D01*
X88999903Y-79048145D01*
X89078831Y-78900480D01*
X89185051Y-78771051D01*
X89314480Y-78664831D01*
X89462145Y-78585903D01*
X89622370Y-78537299D01*
X89747248Y-78525000D01*
X89830752Y-78525000D01*
X89955630Y-78537299D01*
X89955630Y-78537299D01*
G37*
G36*
X85891630Y-78537299D02*
X86051855Y-78585903D01*
X86199520Y-78664831D01*
X86328949Y-78771051D01*
X86435169Y-78900480D01*
X86514097Y-79048145D01*
X86562701Y-79208370D01*
X86579112Y-79375000D01*
X86562701Y-79541630D01*
X86514097Y-79701855D01*
X86435169Y-79849520D01*
X86328949Y-79978949D01*
X86199520Y-80085169D01*
X86051855Y-80164097D01*
X85891630Y-80212701D01*
X85766752Y-80225000D01*
X85683248Y-80225000D01*
X85558370Y-80212701D01*
X85398145Y-80164097D01*
X85250480Y-80085169D01*
X85121051Y-79978949D01*
X85014831Y-79849520D01*
X84935903Y-79701855D01*
X84887299Y-79541630D01*
X84870888Y-79375000D01*
X84887299Y-79208370D01*
X84935903Y-79048145D01*
X85014831Y-78900480D01*
X85121051Y-78771051D01*
X85250480Y-78664831D01*
X85398145Y-78585903D01*
X85558370Y-78537299D01*
X85683248Y-78525000D01*
X85766752Y-78525000D01*
X85891630Y-78537299D01*
X85891630Y-78537299D01*
G37*
G36*
X94273630Y-78537299D02*
X94433855Y-78585903D01*
X94581520Y-78664831D01*
X94710949Y-78771051D01*
X94817169Y-78900480D01*
X94896097Y-79048145D01*
X94944701Y-79208370D01*
X94961112Y-79375000D01*
X94944701Y-79541630D01*
X94896097Y-79701855D01*
X94817169Y-79849520D01*
X94710949Y-79978949D01*
X94581520Y-80085169D01*
X94433855Y-80164097D01*
X94273630Y-80212701D01*
X94148752Y-80225000D01*
X94065248Y-80225000D01*
X93940370Y-80212701D01*
X93780145Y-80164097D01*
X93632480Y-80085169D01*
X93503051Y-79978949D01*
X93396831Y-79849520D01*
X93317903Y-79701855D01*
X93269299Y-79541630D01*
X93252888Y-79375000D01*
X93269299Y-79208370D01*
X93317903Y-79048145D01*
X93396831Y-78900480D01*
X93503051Y-78771051D01*
X93632480Y-78664831D01*
X93780145Y-78585903D01*
X93940370Y-78537299D01*
X94065248Y-78525000D01*
X94148752Y-78525000D01*
X94273630Y-78537299D01*
X94273630Y-78537299D01*
G37*
G36*
X99607630Y-76632299D02*
X99767855Y-76680903D01*
X99915520Y-76759831D01*
X100044949Y-76866051D01*
X100151169Y-76995480D01*
X100230097Y-77143145D01*
X100278701Y-77303370D01*
X100295112Y-77470000D01*
X100278701Y-77636630D01*
X100230097Y-77796855D01*
X100151169Y-77944520D01*
X100044949Y-78073949D01*
X99915520Y-78180169D01*
X99767855Y-78259097D01*
X99607630Y-78307701D01*
X99482752Y-78320000D01*
X99399248Y-78320000D01*
X99274370Y-78307701D01*
X99114145Y-78259097D01*
X98966480Y-78180169D01*
X98837051Y-78073949D01*
X98730831Y-77944520D01*
X98651903Y-77796855D01*
X98603299Y-77636630D01*
X98586888Y-77470000D01*
X98603299Y-77303370D01*
X98651903Y-77143145D01*
X98730831Y-76995480D01*
X98837051Y-76866051D01*
X98966480Y-76759831D01*
X99114145Y-76680903D01*
X99274370Y-76632299D01*
X99399248Y-76620000D01*
X99482752Y-76620000D01*
X99607630Y-76632299D01*
X99607630Y-76632299D01*
G37*
G36*
X85891630Y-75997299D02*
X86051855Y-76045903D01*
X86199520Y-76124831D01*
X86328949Y-76231051D01*
X86435169Y-76360480D01*
X86514097Y-76508145D01*
X86562701Y-76668370D01*
X86579112Y-76835000D01*
X86562701Y-77001630D01*
X86514097Y-77161855D01*
X86435169Y-77309520D01*
X86328949Y-77438949D01*
X86199520Y-77545169D01*
X86051855Y-77624097D01*
X85891630Y-77672701D01*
X85766752Y-77685000D01*
X85683248Y-77685000D01*
X85558370Y-77672701D01*
X85398145Y-77624097D01*
X85250480Y-77545169D01*
X85121051Y-77438949D01*
X85014831Y-77309520D01*
X84935903Y-77161855D01*
X84887299Y-77001630D01*
X84870888Y-76835000D01*
X84887299Y-76668370D01*
X84935903Y-76508145D01*
X85014831Y-76360480D01*
X85121051Y-76231051D01*
X85250480Y-76124831D01*
X85398145Y-76045903D01*
X85558370Y-75997299D01*
X85683248Y-75985000D01*
X85766752Y-75985000D01*
X85891630Y-75997299D01*
X85891630Y-75997299D01*
G37*
G36*
X89955630Y-75997299D02*
X90115855Y-76045903D01*
X90263520Y-76124831D01*
X90392949Y-76231051D01*
X90499169Y-76360480D01*
X90578097Y-76508145D01*
X90626701Y-76668370D01*
X90643112Y-76835000D01*
X90626701Y-77001630D01*
X90578097Y-77161855D01*
X90499169Y-77309520D01*
X90392949Y-77438949D01*
X90263520Y-77545169D01*
X90115855Y-77624097D01*
X89955630Y-77672701D01*
X89830752Y-77685000D01*
X89747248Y-77685000D01*
X89622370Y-77672701D01*
X89462145Y-77624097D01*
X89314480Y-77545169D01*
X89185051Y-77438949D01*
X89078831Y-77309520D01*
X88999903Y-77161855D01*
X88951299Y-77001630D01*
X88934888Y-76835000D01*
X88951299Y-76668370D01*
X88999903Y-76508145D01*
X89078831Y-76360480D01*
X89185051Y-76231051D01*
X89314480Y-76124831D01*
X89462145Y-76045903D01*
X89622370Y-75997299D01*
X89747248Y-75985000D01*
X89830752Y-75985000D01*
X89955630Y-75997299D01*
X89955630Y-75997299D01*
G37*
G36*
X94273630Y-75997299D02*
X94433855Y-76045903D01*
X94581520Y-76124831D01*
X94710949Y-76231051D01*
X94817169Y-76360480D01*
X94896097Y-76508145D01*
X94944701Y-76668370D01*
X94961112Y-76835000D01*
X94944701Y-77001630D01*
X94896097Y-77161855D01*
X94817169Y-77309520D01*
X94710949Y-77438949D01*
X94581520Y-77545169D01*
X94433855Y-77624097D01*
X94273630Y-77672701D01*
X94148752Y-77685000D01*
X94065248Y-77685000D01*
X93940370Y-77672701D01*
X93780145Y-77624097D01*
X93632480Y-77545169D01*
X93503051Y-77438949D01*
X93396831Y-77309520D01*
X93317903Y-77161855D01*
X93269299Y-77001630D01*
X93252888Y-76835000D01*
X93269299Y-76668370D01*
X93317903Y-76508145D01*
X93396831Y-76360480D01*
X93503051Y-76231051D01*
X93632480Y-76124831D01*
X93780145Y-76045903D01*
X93940370Y-75997299D01*
X94065248Y-75985000D01*
X94148752Y-75985000D01*
X94273630Y-75997299D01*
X94273630Y-75997299D01*
G37*
G36*
X99607630Y-74092299D02*
X99767855Y-74140903D01*
X99915520Y-74219831D01*
X100044949Y-74326051D01*
X100151169Y-74455480D01*
X100230097Y-74603145D01*
X100278701Y-74763370D01*
X100295112Y-74930000D01*
X100278701Y-75096630D01*
X100230097Y-75256855D01*
X100151169Y-75404520D01*
X100044949Y-75533949D01*
X99915520Y-75640169D01*
X99767855Y-75719097D01*
X99607630Y-75767701D01*
X99482752Y-75780000D01*
X99399248Y-75780000D01*
X99274370Y-75767701D01*
X99114145Y-75719097D01*
X98966480Y-75640169D01*
X98837051Y-75533949D01*
X98730831Y-75404520D01*
X98651903Y-75256855D01*
X98603299Y-75096630D01*
X98586888Y-74930000D01*
X98603299Y-74763370D01*
X98651903Y-74603145D01*
X98730831Y-74455480D01*
X98837051Y-74326051D01*
X98966480Y-74219831D01*
X99114145Y-74140903D01*
X99274370Y-74092299D01*
X99399248Y-74080000D01*
X99482752Y-74080000D01*
X99607630Y-74092299D01*
X99607630Y-74092299D01*
G37*
G36*
X85891630Y-73457299D02*
X86051855Y-73505903D01*
X86199520Y-73584831D01*
X86328949Y-73691051D01*
X86435169Y-73820480D01*
X86514097Y-73968145D01*
X86562701Y-74128370D01*
X86579112Y-74295000D01*
X86562701Y-74461630D01*
X86514097Y-74621855D01*
X86435169Y-74769520D01*
X86328949Y-74898949D01*
X86199520Y-75005169D01*
X86051855Y-75084097D01*
X85891630Y-75132701D01*
X85766752Y-75145000D01*
X85683248Y-75145000D01*
X85558370Y-75132701D01*
X85398145Y-75084097D01*
X85250480Y-75005169D01*
X85121051Y-74898949D01*
X85014831Y-74769520D01*
X84935903Y-74621855D01*
X84887299Y-74461630D01*
X84870888Y-74295000D01*
X84887299Y-74128370D01*
X84935903Y-73968145D01*
X85014831Y-73820480D01*
X85121051Y-73691051D01*
X85250480Y-73584831D01*
X85398145Y-73505903D01*
X85558370Y-73457299D01*
X85683248Y-73445000D01*
X85766752Y-73445000D01*
X85891630Y-73457299D01*
X85891630Y-73457299D01*
G37*
G36*
X89955630Y-73457299D02*
X90115855Y-73505903D01*
X90263520Y-73584831D01*
X90392949Y-73691051D01*
X90499169Y-73820480D01*
X90578097Y-73968145D01*
X90626701Y-74128370D01*
X90643112Y-74295000D01*
X90626701Y-74461630D01*
X90578097Y-74621855D01*
X90499169Y-74769520D01*
X90392949Y-74898949D01*
X90263520Y-75005169D01*
X90115855Y-75084097D01*
X89955630Y-75132701D01*
X89830752Y-75145000D01*
X89747248Y-75145000D01*
X89622370Y-75132701D01*
X89462145Y-75084097D01*
X89314480Y-75005169D01*
X89185051Y-74898949D01*
X89078831Y-74769520D01*
X88999903Y-74621855D01*
X88951299Y-74461630D01*
X88934888Y-74295000D01*
X88951299Y-74128370D01*
X88999903Y-73968145D01*
X89078831Y-73820480D01*
X89185051Y-73691051D01*
X89314480Y-73584831D01*
X89462145Y-73505903D01*
X89622370Y-73457299D01*
X89747248Y-73445000D01*
X89830752Y-73445000D01*
X89955630Y-73457299D01*
X89955630Y-73457299D01*
G37*
G36*
X94273630Y-73457299D02*
X94433855Y-73505903D01*
X94581520Y-73584831D01*
X94710949Y-73691051D01*
X94817169Y-73820480D01*
X94896097Y-73968145D01*
X94944701Y-74128370D01*
X94961112Y-74295000D01*
X94944701Y-74461630D01*
X94896097Y-74621855D01*
X94817169Y-74769520D01*
X94710949Y-74898949D01*
X94581520Y-75005169D01*
X94433855Y-75084097D01*
X94273630Y-75132701D01*
X94148752Y-75145000D01*
X94065248Y-75145000D01*
X93940370Y-75132701D01*
X93780145Y-75084097D01*
X93632480Y-75005169D01*
X93503051Y-74898949D01*
X93396831Y-74769520D01*
X93317903Y-74621855D01*
X93269299Y-74461630D01*
X93252888Y-74295000D01*
X93269299Y-74128370D01*
X93317903Y-73968145D01*
X93396831Y-73820480D01*
X93503051Y-73691051D01*
X93632480Y-73584831D01*
X93780145Y-73505903D01*
X93940370Y-73457299D01*
X94065248Y-73445000D01*
X94148752Y-73445000D01*
X94273630Y-73457299D01*
X94273630Y-73457299D01*
G37*
G36*
X116244630Y-72949299D02*
X116404855Y-72997903D01*
X116552520Y-73076831D01*
X116681949Y-73183051D01*
X116788169Y-73312480D01*
X116867097Y-73460145D01*
X116915701Y-73620370D01*
X116932112Y-73787000D01*
X116915701Y-73953630D01*
X116867097Y-74113855D01*
X116788169Y-74261520D01*
X116681949Y-74390949D01*
X116552520Y-74497169D01*
X116404855Y-74576097D01*
X116244630Y-74624701D01*
X116119752Y-74637000D01*
X116036248Y-74637000D01*
X115911370Y-74624701D01*
X115751145Y-74576097D01*
X115603480Y-74497169D01*
X115474051Y-74390949D01*
X115367831Y-74261520D01*
X115288903Y-74113855D01*
X115240299Y-73953630D01*
X115223888Y-73787000D01*
X115240299Y-73620370D01*
X115288903Y-73460145D01*
X115367831Y-73312480D01*
X115474051Y-73183051D01*
X115603480Y-73076831D01*
X115751145Y-72997903D01*
X115911370Y-72949299D01*
X116036248Y-72937000D01*
X116119752Y-72937000D01*
X116244630Y-72949299D01*
X116244630Y-72949299D01*
G37*
G36*
X113704630Y-72949299D02*
X113864855Y-72997903D01*
X114012520Y-73076831D01*
X114141949Y-73183051D01*
X114248169Y-73312480D01*
X114327097Y-73460145D01*
X114375701Y-73620370D01*
X114392112Y-73787000D01*
X114375701Y-73953630D01*
X114327097Y-74113855D01*
X114248169Y-74261520D01*
X114141949Y-74390949D01*
X114012520Y-74497169D01*
X113864855Y-74576097D01*
X113704630Y-74624701D01*
X113579752Y-74637000D01*
X113496248Y-74637000D01*
X113371370Y-74624701D01*
X113211145Y-74576097D01*
X113063480Y-74497169D01*
X112934051Y-74390949D01*
X112827831Y-74261520D01*
X112748903Y-74113855D01*
X112700299Y-73953630D01*
X112683888Y-73787000D01*
X112700299Y-73620370D01*
X112748903Y-73460145D01*
X112827831Y-73312480D01*
X112934051Y-73183051D01*
X113063480Y-73076831D01*
X113211145Y-72997903D01*
X113371370Y-72949299D01*
X113496248Y-72937000D01*
X113579752Y-72937000D01*
X113704630Y-72949299D01*
X113704630Y-72949299D01*
G37*
G36*
X111164630Y-72949299D02*
X111324855Y-72997903D01*
X111472520Y-73076831D01*
X111601949Y-73183051D01*
X111708169Y-73312480D01*
X111787097Y-73460145D01*
X111835701Y-73620370D01*
X111852112Y-73787000D01*
X111835701Y-73953630D01*
X111787097Y-74113855D01*
X111708169Y-74261520D01*
X111601949Y-74390949D01*
X111472520Y-74497169D01*
X111324855Y-74576097D01*
X111164630Y-74624701D01*
X111039752Y-74637000D01*
X110956248Y-74637000D01*
X110831370Y-74624701D01*
X110671145Y-74576097D01*
X110523480Y-74497169D01*
X110394051Y-74390949D01*
X110287831Y-74261520D01*
X110208903Y-74113855D01*
X110160299Y-73953630D01*
X110143888Y-73787000D01*
X110160299Y-73620370D01*
X110208903Y-73460145D01*
X110287831Y-73312480D01*
X110394051Y-73183051D01*
X110523480Y-73076831D01*
X110671145Y-72997903D01*
X110831370Y-72949299D01*
X110956248Y-72937000D01*
X111039752Y-72937000D01*
X111164630Y-72949299D01*
X111164630Y-72949299D01*
G37*
G36*
X108624630Y-72949299D02*
X108784855Y-72997903D01*
X108932520Y-73076831D01*
X109061949Y-73183051D01*
X109168169Y-73312480D01*
X109247097Y-73460145D01*
X109295701Y-73620370D01*
X109312112Y-73787000D01*
X109295701Y-73953630D01*
X109247097Y-74113855D01*
X109168169Y-74261520D01*
X109061949Y-74390949D01*
X108932520Y-74497169D01*
X108784855Y-74576097D01*
X108624630Y-74624701D01*
X108499752Y-74637000D01*
X108416248Y-74637000D01*
X108291370Y-74624701D01*
X108131145Y-74576097D01*
X107983480Y-74497169D01*
X107854051Y-74390949D01*
X107747831Y-74261520D01*
X107668903Y-74113855D01*
X107620299Y-73953630D01*
X107603888Y-73787000D01*
X107620299Y-73620370D01*
X107668903Y-73460145D01*
X107747831Y-73312480D01*
X107854051Y-73183051D01*
X107983480Y-73076831D01*
X108131145Y-72997903D01*
X108291370Y-72949299D01*
X108416248Y-72937000D01*
X108499752Y-72937000D01*
X108624630Y-72949299D01*
X108624630Y-72949299D01*
G37*
G36*
X127088000Y-74637000D02*
X125388000Y-74637000D01*
X125388000Y-72937000D01*
X127088000Y-72937000D01*
X127088000Y-74637000D01*
X127088000Y-74637000D01*
G37*
G36*
X118784630Y-72949299D02*
X118944855Y-72997903D01*
X119092520Y-73076831D01*
X119221949Y-73183051D01*
X119328169Y-73312480D01*
X119407097Y-73460145D01*
X119455701Y-73620370D01*
X119472112Y-73787000D01*
X119455701Y-73953630D01*
X119407097Y-74113855D01*
X119328169Y-74261520D01*
X119221949Y-74390949D01*
X119092520Y-74497169D01*
X118944855Y-74576097D01*
X118784630Y-74624701D01*
X118659752Y-74637000D01*
X118576248Y-74637000D01*
X118451370Y-74624701D01*
X118291145Y-74576097D01*
X118143480Y-74497169D01*
X118014051Y-74390949D01*
X117907831Y-74261520D01*
X117828903Y-74113855D01*
X117780299Y-73953630D01*
X117763888Y-73787000D01*
X117780299Y-73620370D01*
X117828903Y-73460145D01*
X117907831Y-73312480D01*
X118014051Y-73183051D01*
X118143480Y-73076831D01*
X118291145Y-72997903D01*
X118451370Y-72949299D01*
X118576248Y-72937000D01*
X118659752Y-72937000D01*
X118784630Y-72949299D01*
X118784630Y-72949299D01*
G37*
G36*
X121324630Y-72949299D02*
X121484855Y-72997903D01*
X121632520Y-73076831D01*
X121761949Y-73183051D01*
X121868169Y-73312480D01*
X121947097Y-73460145D01*
X121995701Y-73620370D01*
X122012112Y-73787000D01*
X121995701Y-73953630D01*
X121947097Y-74113855D01*
X121868169Y-74261520D01*
X121761949Y-74390949D01*
X121632520Y-74497169D01*
X121484855Y-74576097D01*
X121324630Y-74624701D01*
X121199752Y-74637000D01*
X121116248Y-74637000D01*
X120991370Y-74624701D01*
X120831145Y-74576097D01*
X120683480Y-74497169D01*
X120554051Y-74390949D01*
X120447831Y-74261520D01*
X120368903Y-74113855D01*
X120320299Y-73953630D01*
X120303888Y-73787000D01*
X120320299Y-73620370D01*
X120368903Y-73460145D01*
X120447831Y-73312480D01*
X120554051Y-73183051D01*
X120683480Y-73076831D01*
X120831145Y-72997903D01*
X120991370Y-72949299D01*
X121116248Y-72937000D01*
X121199752Y-72937000D01*
X121324630Y-72949299D01*
X121324630Y-72949299D01*
G37*
G36*
X123864630Y-72949299D02*
X124024855Y-72997903D01*
X124172520Y-73076831D01*
X124301949Y-73183051D01*
X124408169Y-73312480D01*
X124487097Y-73460145D01*
X124535701Y-73620370D01*
X124552112Y-73787000D01*
X124535701Y-73953630D01*
X124487097Y-74113855D01*
X124408169Y-74261520D01*
X124301949Y-74390949D01*
X124172520Y-74497169D01*
X124024855Y-74576097D01*
X123864630Y-74624701D01*
X123739752Y-74637000D01*
X123656248Y-74637000D01*
X123531370Y-74624701D01*
X123371145Y-74576097D01*
X123223480Y-74497169D01*
X123094051Y-74390949D01*
X122987831Y-74261520D01*
X122908903Y-74113855D01*
X122860299Y-73953630D01*
X122843888Y-73787000D01*
X122860299Y-73620370D01*
X122908903Y-73460145D01*
X122987831Y-73312480D01*
X123094051Y-73183051D01*
X123223480Y-73076831D01*
X123371145Y-72997903D01*
X123531370Y-72949299D01*
X123656248Y-72937000D01*
X123739752Y-72937000D01*
X123864630Y-72949299D01*
X123864630Y-72949299D01*
G37*
G36*
X100291000Y-73240000D02*
X98591000Y-73240000D01*
X98591000Y-71540000D01*
X100291000Y-71540000D01*
X100291000Y-73240000D01*
X100291000Y-73240000D01*
G37*
G36*
X86575000Y-72605000D02*
X84875000Y-72605000D01*
X84875000Y-70905000D01*
X86575000Y-70905000D01*
X86575000Y-72605000D01*
X86575000Y-72605000D01*
G37*
G36*
X90639000Y-72605000D02*
X88939000Y-72605000D01*
X88939000Y-70905000D01*
X90639000Y-70905000D01*
X90639000Y-72605000D01*
X90639000Y-72605000D01*
G37*
G36*
X94273630Y-70917299D02*
X94433855Y-70965903D01*
X94581520Y-71044831D01*
X94710949Y-71151051D01*
X94817169Y-71280480D01*
X94896097Y-71428145D01*
X94944701Y-71588370D01*
X94961112Y-71755000D01*
X94944701Y-71921630D01*
X94896097Y-72081855D01*
X94817169Y-72229520D01*
X94710949Y-72358949D01*
X94581520Y-72465169D01*
X94433855Y-72544097D01*
X94273630Y-72592701D01*
X94148752Y-72605000D01*
X94065248Y-72605000D01*
X93940370Y-72592701D01*
X93780145Y-72544097D01*
X93632480Y-72465169D01*
X93503051Y-72358949D01*
X93396831Y-72229520D01*
X93317903Y-72081855D01*
X93269299Y-71921630D01*
X93252888Y-71755000D01*
X93269299Y-71588370D01*
X93317903Y-71428145D01*
X93396831Y-71280480D01*
X93503051Y-71151051D01*
X93632480Y-71044831D01*
X93780145Y-70965903D01*
X93940370Y-70917299D01*
X94065248Y-70905000D01*
X94148752Y-70905000D01*
X94273630Y-70917299D01*
X94273630Y-70917299D01*
G37*
M02*
